<svg xmlns="http://www.w3.org/2000/svg" xmlns:xlink="http://www.w3.org/1999/xlink" viewBox="0 0 412 150">
  <defs>
    <clipPath id="a">
      <polygon points="104.768 15.5 54.656 65.614 73.113 134.5 123.227 84.386 104.769 15.5 104.768 15.5" style="fill: none"/>
    </clipPath>
    <linearGradient id="b" data-name="Unbenannter Verlauf 2" x1="6.7596" y1="0.29899" x2="7.33083" y2="0.29899" gradientTransform="matrix(-346.86317, -0.00002, -0.00002, 346.86317, 2585.22665, -28.70788)" gradientUnits="userSpaceOnUse">
      <stop offset="0" stop-color="#7ce5c1"/>
      <stop offset="0.14881" stop-color="#76e3c2"/>
      <stop offset="0.34333" stop-color="#66dcc4"/>
      <stop offset="0.56319" stop-color="#4bd0c9"/>
      <stop offset="0.79983" stop-color="#25c1ce"/>
      <stop offset="1" stop-color="#00b1d4"/>
    </linearGradient>
    <clipPath id="c">
      <polygon points="41.458 15.5 23 84.386 73.113 134.5 91.571 65.614 41.459 15.5 41.458 15.5" style="fill: none"/>
    </clipPath>
    <linearGradient id="d" x1="6.66617" y1="0.11192" x2="7.23739" y2="0.11192" gradientTransform="matrix(-87.71778, 327.36719, 276.7233, 276.72336, 636.00556, -2231.36804)" xlink:href="#b"/>
  </defs>
  <title>presono-logo-scriptconf</title>
  <g>
    <path d="M152.93906,58.00732h5.15306v6.96042c2.81045-4.1494,6.89245-7.69616,13.25022-7.69616,8.29938,0,16.53021,6.55827,16.53021,17.93486v.13424c0,11.31034-8.164,18.00228-16.53021,18.00228-6.42461,0-10.57344-3.47993-13.25022-7.36143v17.3328h-5.15306Zm29.64678,17.4002v-.13367c0-8.16458-5.62146-13.38446-12.17975-13.38446-6.4246,0-12.51447,5.42039-12.51447,13.31705v.13424c0,8.03034,6.08987,13.38447,12.51447,13.38447,6.69252,0,12.17975-4.952,12.17975-13.31763" style="fill: #7c7c7b"/>
    <path d="M192.9561,58.00738h5.15305v9.03455c2.54369-5.75512,7.56249-9.904,14.12078-9.63662v5.55462h-.40158c-7.56193,0-13.7192,5.421-13.7192,15.86074v13.786H192.9561Z" style="fill: #7c7c7b"/>
    <path d="M212.83161,75.40769v-.13424c0-9.97137,7.02669-18.0017,16.597-18.0017,10.23927,0,16.12864,8.16457,16.12864,18.2696a13.34264,13.34264,0,0,1-.0674,1.67313H218.0515c.73632,7.49567,6.023,11.71191,12.18031,11.71191A14.31815,14.31815,0,0,0,241.14,84.04067l3.21261,2.87785a17.86029,17.86029,0,0,1-14.255,6.49144c-9.50295,0-17.26595-7.29459-17.26595-18.00227m27.50524-2.00787c-.53525-6.29094-4.14941-11.77817-11.04186-11.77817-6.0236,0-10.574,5.01882-11.24349,11.77817Z" style="fill: #7c7c7b"/>
    <path d="M247.96475,88.18985l2.60937-3.68043a20.23152,20.23152,0,0,0,11.9798,4.41674c4.14941,0,7.16035-2.14154,7.16035-5.48779v-.13424c0-3.47993-4.082-4.81775-8.63241-6.08987-5.421-1.53889-11.444-3.41252-11.444-9.7703v-.13424c0-5.95563,4.95256-9.90453,11.77816-9.90453a23.65892,23.65892,0,0,1,12.44823,3.81466l-2.34262,3.8815a19.56252,19.56252,0,0,0-10.23984-3.34569c-4.082,0-6.69137,2.14154-6.69137,5.01882v.13367c0,3.27942,4.28306,4.551,8.90031,5.9562,5.35412,1.60629,11.10926,3.681,11.10926,9.90511v.13366c0,6.55828-5.4204,10.373-12.314,10.373a23.79291,23.79291,0,0,1-14.32126-5.08622" style="fill: #7c7c7b"/>
    <path d="M277.70966,75.47447V75.3408a18.03613,18.03613,0,0,1,36.072-.13424v.13424a17.96546,17.96546,0,0,1-18.13594,18.06911,17.72577,17.72577,0,0,1-17.936-17.93544m30.78524,0V75.3408c0-7.42826-5.55465-13.51813-12.84923-13.51813-7.49567,0-12.64872,6.08987-12.64872,13.38389v.13424c0,7.42883,5.48781,13.4513,12.78239,13.4513,7.49509,0,12.71556-6.02247,12.71556-13.31763" style="fill: #7c7c7b"/>
    <path d="M318.46468,58.00738h5.15305V64.031a13.10169,13.10169,0,0,1,11.84557-6.75935c8.36507,0,13.25078,5.62146,13.25078,13.85287v21.4822h-5.15246V72.39606c0-6.42461-3.48051-10.43978-9.57039-10.43978-5.9562,0-10.3735,4.34991-10.3735,10.84136V92.60671h-5.15305Z" style="fill: #7c7c7b"/>
    <path d="M352.92783,75.47447V75.3408a18.03612,18.03612,0,0,1,36.07193-.13424v.13424a17.96545,17.96545,0,0,1-18.13593,18.06911,17.72576,17.72576,0,0,1-17.936-17.93544m30.78524,0V75.3408c0-7.42826-5.55467-13.51813-12.84924-13.51813-7.49567,0-12.64872,6.08987-12.64872,13.38389v.13424c0,7.42883,5.48779,13.4513,12.7824,13.4513,7.49507,0,12.71556-6.02247,12.71556-13.31763" style="fill: #7c7c7b"/>
  </g>
  <g>
    <g style="clip-path: url(#a)">
      <rect x="22.62515" y="8.68366" width="132.63272" height="132.63271" transform="translate(-26.98265 84.85814) rotate(-45)" style="fill: url(#b)"/>
    </g>
    <g style="clip-path: url(#c)">
      <polygon points="116.719 40.648 77.081 188.58 -2.148 109.352 37.491 -38.58 116.719 40.648" style="fill: url(#d)"/>
    </g>
  </g>
</svg>
