<?xml version="1.0" encoding="utf-8"?>
<!-- Generator: Adobe Illustrator 21.1.0, SVG Export Plug-In . SVG Version: 6.00 Build 0)  -->
<svg version="1.1" id="Layer_1" xmlns="http://www.w3.org/2000/svg" xmlns:xlink="http://www.w3.org/1999/xlink" x="0px" y="0px"
	 width="246.9px" height="73.7px" viewBox="0 0 246.9 73.7" style="enable-background:new 0 0 246.9 73.7;" xml:space="preserve">
<g>
	<g>
		<path d="M75.2,41.3l-2-2.1L69,43.4l-0.5-0.5l6.8-6.8c1-1,1-2.6,0-3.6l-0.2-0.2c-1-1-2.6-1-3.6,0l-2.6,2.6l-0.5-0.5l5.4-5.4
			c1-1,1-2.6,0-3.6l-0.1-0.1c-1-1-2.6-1-3.6,0l-9.6,9.6l-0.6-0.6L70,24.2c1-1,1-2.6,0-3.6l-0.2-0.2c-1-1-2.6-1-3.6,0l-5.5,5.5
			l-0.6-0.6l4.7-4.7c1-1,1-2.6,0-3.6l-0.2-0.2c-1-1-2.6-1-3.6,0l-1.8,1.8v-1.1c0-1.4-1.1-2.6-2.6-2.6H56c-1.4,0-2.6,1.1-2.6,2.6v7.7
			v0.1c0,0.7,0.2,1.4,0.7,1.9l2.7,2.7l-2.6,2.6c-0.1,0.1-0.1,0.2-0.2,0.2c-0.4,0.4-0.6,1-0.6,1.6v8.4c0,0.4,0.1,0.7,0.2,1
			c0.1,0.3,0.3,0.5,0.5,0.8c0.1,0.1,0.1,0.1,0.2,0.2l0.1,0.1c0.1,0.1,0.1,0.1,0.2,0.2l2.2,2.2l-1.6,1.6c-1,1-1,2.6,0,3.6l0.2,0.2
			c1,1,2.6,1,3.6,0l3.4-3.4l0.1-0.1l2.2-2.2l2.6,2.6c0.1,0.1,0.2,0.2,0.3,0.2c1,0.8,2.4,0.7,3.4-0.2l4.4-4.4
			C76.2,43.9,76.2,42.3,75.2,41.3z M60.4,43.4l-0.5-0.5l4.6-4.6l0.5,0.5L60.4,43.4z"/>
		<path d="M92.2,53.8c-0.2-1.2-1.3-2-2.5-1.8c-0.3,0-0.5,0.1-0.8,0.3l-4.7-4.7l2.6-2.6c1-1,1-2.6,0-3.6L83.4,38c-1-1-2.6-1-3.6,0
			l-3.1,3.1c1.1,1.3,0.7,3.6-0.2,4.5l-1.6,1.6l1.9,1.9l1.2,1.2l1.8,1.8c-1.1,0.3-1.8,1.3-1.6,2.5c0.2,1.2,1.3,2,2.5,1.8
			c1.1-0.2,1.9-1.1,1.9-2.2h1.6c-0.8,0.4-1.2,1.3-1.1,2.3c0.2,1.2,1.3,2,2.5,1.8s2-1.3,1.8-2.5c-0.1-0.7-0.5-1.3-1.1-1.6h1.4
			c0,0.1,0,0.3,0,0.4c0.2,1.2,1.3,2,2.5,1.8C91.6,56.1,92.4,55,92.2,53.8z"/>
		<path d="M28.6,41.1L25.5,38c-1-1-2.6-1-3.6,0l-3.4,3.4c-1,1-1,2.6,0,3.6l2.6,2.6l-4.7,4.7c-0.2-0.1-0.5-0.2-0.8-0.3
			c-1.2-0.2-2.3,0.6-2.5,1.8s0.6,2.3,1.8,2.5s2.3-0.6,2.5-1.8c0-0.1,0-0.3,0-0.4h1.4c-0.6,0.3-1,0.9-1.1,1.6
			c-0.2,1.2,0.6,2.3,1.8,2.5c1.2,0.2,2.3-0.6,2.5-1.8c0.1-0.9-0.3-1.8-1.1-2.3h1.6c0,1.1,0.7,2.1,1.9,2.2c1.2,0.2,2.3-0.6,2.5-1.8
			c0.2-1.1-0.5-2.2-1.6-2.5l1.8-1.8l1.4-1.2l1.9-1.9l-1.6-1.6C27.9,44.7,27.5,42.4,28.6,41.1z"/>
		<path d="M67.2,51.3l-2.6-2.6l-7.4,7.4c-0.2-0.1-0.5-0.2-0.8-0.3c-1.2-0.2-2.3,0.6-2.5,1.8s0.6,2.3,1.8,2.5s2.3-0.6,2.5-1.8
			c0-0.1,0-0.3,0-0.4h1.5c-0.6,0.3-1,0.9-1.1,1.6c-0.1,1.2,0.7,2.3,1.9,2.5s2.3-0.6,2.5-1.8c0.2-1-0.3-1.9-1.2-2.3h1.7
			c0,1.1,0.8,2.1,1.9,2.2c1.2,0.2,2.3-0.6,2.5-1.8c0.2-1.1-0.5-2.2-1.6-2.5l0.9-0.9C68.2,53.9,68.2,52.3,67.2,51.3z"/>
		<path d="M49.5,14.9h-0.6c-1.4,0-2.6,1.1-2.6,2.6v1.1l-1.8-1.8c-1-1-2.6-1-3.6,0L40.7,17c-1,1-1,2.6,0,3.6l4.7,4.7l-0.6,0.6
			l-5.5-5.5c-1-1-2.6-1-3.6,0l-0.2,0.2c-1,1-1,2.6,0,3.6l10,10.1l-0.6,0.6l-9.6-9.6c-1-1-2.6-1-3.6,0l-0.1,0.1c-1,1-1,2.6,0,3.6
			l5.4,5.4l-0.5,0.5l-2.6-2.6c-1-1-2.6-1-3.6,0l-0.2,0.2c-1,1-1,2.6,0,3.6l6.8,6.8l-0.5,0.5l-4.2-4.2l-2,2.1c-1,1-1,2.6,0,3.6
			l4.4,4.4c0.9,0.9,2.3,1,3.4,0.2c0.1-0.1,0.2-0.2,0.3-0.2l2.6-2.6l2.2,2.2l0.1,0.1l3.4,3.4c1,1,2.6,1,3.6,0l0.2-0.2
			c1-1,1-2.6,0-3.6L48.8,47l2.2-2.2c0.1-0.1,0.1-0.1,0.2-0.2l0.1-0.1c0.1-0.1,0.1-0.1,0.2-0.2c0.2-0.2,0.4-0.5,0.5-0.8
			s0.2-0.7,0.2-1v-8.4c0-0.6-0.2-1.2-0.6-1.6c-0.1-0.1-0.1-0.2-0.2-0.2l-2.6-2.6l2.7-2.7c0.5-0.5,0.8-1.2,0.7-1.9l0,0v-7.7
			C52,16,50.9,14.9,49.5,14.9z M44.9,43.4l-4.6-4.6l0.5-0.5l4.6,4.6L44.9,43.4z"/>
		<path d="M48.9,55.8c-0.3,0-0.5,0.1-0.8,0.3l-7.4-7.4l-2.6,2.6c-1,1-1,2.6,0,3.6l0.9,0.9c-1.1,0.3-1.8,1.3-1.6,2.5s1.3,2,2.5,1.8
			c1.1-0.2,1.9-1.2,1.9-2.3h1.7c-0.8,0.4-1.3,1.3-1.2,2.3c0.2,1.2,1.3,2,2.5,1.8s2-1.3,1.8-2.5c-0.1-0.7-0.5-1.3-1.1-1.6H47
			c0,0.1,0,0.3,0,0.4c0.2,1.2,1.3,2,2.5,1.8s2-1.3,1.8-2.5C51.2,56.4,50.1,55.6,48.9,55.8z"/>
	</g>
	<g>
		<g>
			<polygon points="220.7,27.4 220.7,24.3 210.6,24.3 210.6,27.4 213.9,27.4 213.9,50.1 217.4,50.1 217.4,27.4 			"/>
			<polygon points="210.3,27.4 210.3,24.3 200.3,24.3 200.3,27.4 203.6,27.4 203.6,50.1 207,50.1 207,27.4 			"/>
		</g>
		<path d="M104.6,24.3h-2.2c-2.8,0-4.1,1.5-4.1,4.4V34c0,0.7,0.1,1.2,0.2,1.6c0.1,0.4,0.4,0.8,0.7,1c0.3,0.3,0.8,0.6,1.6,1l3.3,1.8
			c0.4,0.3,0.7,0.5,0.9,0.6c0.2,0.2,0.3,0.5,0.3,1v4.4c0,1-0.5,1.5-1.4,1.5h-0.6c-1,0-1.5-0.5-1.5-1.5V44h-3.5v1.3
			c0,3.2,1.4,4.8,4.1,4.8h2.1c2.8,0,4.2-1.5,4.2-4.4v-5.5c0-0.9-0.1-1.5-0.3-1.9c-0.2-0.3-0.4-0.6-0.7-0.8c-0.3-0.2-0.8-0.5-1.5-1
			l-3.3-1.8c-0.4-0.3-0.7-0.5-0.9-0.6c-0.2-0.2-0.3-0.5-0.3-1V29c0-1,0.5-1.5,1.5-1.5h0.5c1,0,1.5,0.5,1.5,1.5v2.3h3.5v-2.5
			C108.7,25.8,107.4,24.3,104.6,24.3z"/>
		<polygon points="110.2,27.5 113.5,27.5 113.5,50.2 116.9,50.2 116.9,27.5 120.3,27.5 120.3,24.3 110.2,24.3 		"/>
		<rect x="195" y="24.3" width="3.5" height="25.8"/>
		<polygon points="231.1,27.5 231.1,24.3 222.5,24.3 222.5,50.2 231.1,50.2 231.1,47 226,47 226,38.4 230.5,38.4 230.5,35.3 
			226,35.3 226,27.5 		"/>
		<polygon points="185,39.5 181.8,24.3 177.9,24.3 177.9,50.2 181.4,50.2 181,33.3 183.6,45.5 186.3,45.5 188.9,33.3 188.5,50.2 
			192,50.2 192,24.3 188.2,24.3 		"/>
		<path d="M163.9,24.3h-3.3c-2.8,0-4.1,1.5-4.1,4.4v17c0,2.9,1.4,4.4,4.2,4.4h3.2c2.8,0,4.2-1.5,4.2-4.4v-17
			C168,25.8,166.6,24.3,163.9,24.3z M164.6,45.5c0,1-0.5,1.5-1.4,1.5h-1.8c-1,0-1.5-0.5-1.5-1.5V29c0-1,0.5-1.5,1.5-1.5h1.6
			c1,0,1.5,0.5,1.5,1.5L164.6,45.5L164.6,45.5z"/>
		<path d="M142.4,24.3h-6v25.8h6.7c2.8,0,4.1-1.2,4.1-3.7V29.3C147.2,26,145.6,24.3,142.4,24.3z M143.8,45.9c0,0.8-0.5,1.2-1.4,1.2
			h-2.6V27.5h2.4c1,0,1.5,0.6,1.5,1.9v16.5H143.8z"/>
		<path d="M129.8,45.4c0,1.1-0.5,1.7-1.4,1.7H127c-1,0-1.5-0.6-1.5-1.7v-21H122v20.9c0,3.3,1.4,4.9,4.1,4.9h2.9
			c2.8,0,4.2-1.6,4.2-4.9v-21h-3.5v21.1H129.8z"/>
		<rect x="150.1" y="24.3" width="3.5" height="25.8"/>
	</g>
</g>
</svg>
