
<svg width="396px" height="116px" viewBox="0 0 396 116" version="1.1" xmlns="http://www.w3.org/2000/svg" xmlns:xlink="http://www.w3.org/1999/xlink">
    <g id="Page-1" stroke="none" stroke-width="1" fill="none" fill-rule="evenodd">
        <g id="halfstack-logo">
            <polygon id="Path" fill="#FFFFFF" fill-rule="nonzero" points="282.2 34.3 286.8 34.3 293.8 34.3 298.5 34.3 298.5 41.2 300.8 52.9 303.1 71.5 305.4 83.2 307.8 97.1 307.8 99.5 308.7 100.5 308.8 101.5 310.1 108.8 310.3 110.8 310.1 111.1 309 111.6 307.5 112.1 306.9 112.2 306.5 112.2 303.1 113.4 298.5 113.4 298.5 113.4 298 110.3 296.1 101.8 293.8 94.8 291.5 85.5 289.1 76.2 289.1 71.5 286.8 71.5 286.8 73.8 286.8 78.5 286.3 79.2 286.2 79.8 286.8 80.8 285.4 81.9 285.7 84.9 285.5 87 285.9 88.9 284.5 99.5 282.2 111.1 279.8 111.1 269.6 111.3 269.6 109.2 270.5 99.5 271.7 85.1 275.2 62.2 277.5 45.9 279.8 34.3"></polygon>
            <g id="Group">
                <path d="M129.2,55.3 C132.6,55.5 136,55.8 138.9,55.6 C140.4,56.1 144.1,56.8 145.2,55.2 C146,54 145.8,51.8 145.8,50.2 C145.8,49.1 146,48 145.5,47.2 C146.1,45.9 145.7,44.6 145.9,43.3 C146.1,41.6 147.3,40.1 147.3,38.3 C148.1,37.7 148.1,36.2 148.9,35.3 C149.2,34.9 149.9,34.5 150.3,34.1 C150.7,33.6 151,33 151.4,32.7 C153.4,31.4 156,32.7 159,32.8 C160.5,34.2 162.6,35 163.9,36.6 C164.4,37.2 164.4,38.1 165.3,38.5 C164.2,40.3 162.2,41.2 161.1,43 C159.6,42.9 158.7,42 157.3,42.2 C154.6,42.6 153.1,47 152.9,49.1 C152.7,51.4 152.9,54.4 153.2,56.4 C157.4,56.8 160.1,57.3 164.5,57.2 C163.8,61.4 163,65 163.2,69.6 C159.5,69.9 156.7,69 152.6,69.3 C151,71 151.7,75.2 152,78.4 C152.1,79.2 151.8,80.1 151.9,80.8 C152,83.3 152.3,86 152.7,88.4 C152.8,89 152.9,89.8 153,90.4 C153.5,96.7 153,105.4 153.6,112.2 C152.8,112.7 148,113.3 146,112.3 C146.6,109.9 145.8,107.9 145.7,105.6 C145.6,103.1 145.9,100.6 145.8,98.3 C145.6,92.6 145.4,87.9 144.7,83.1 C145.2,78.9 145.4,72.9 144.7,67.9 C144.3,67.9 144.3,67.4 144,67.2 C142.2,67.5 140.1,67.7 137.2,67.9 C133.5,68.1 130.5,69.2 129,67.2 C128,65.4 128.8,62.7 128.3,60.9 C129.6,59.8 128.2,56.7 129.2,55.3 Z" id="Path" fill="#FFFFFF"></path>
                <path d="M17.6,2.8 C17.7,4.3 17.2,5.6 17,7 C16.7,10.3 17.4,13.6 17.1,17 C17,17.9 17.1,18.6 17.1,19.4 C17.1,20.2 17.5,20.9 17.5,21.7 C17.8,25.2 17.8,29 17.9,32.7 C18,34.4 18.1,35.8 17.9,37.4 C17.6,40.7 18.4,44.1 18.5,47.4 C18.5,50 18,52.4 19.6,54.3 C21.5,53.4 24.6,53.8 27.1,53.3 C30.2,52.6 33,51.9 35.7,51 C35.6,49.5 36.4,48.5 36.7,47.3 C37.1,45.7 36.5,21.1 36.4,18.3 C36.4,16.4 36.9,15.4 36.3,13.6 C36.9,10.6 36.7,4.6 35.5,2 C40,2 45.2,1.7 49.5,2.1 C48.7,12.6 49.4,22.6 49.5,33.7 C49.5,34.1 49.6,34.5 49.6,35 C49.9,38.8 50.8,68.1 50.7,69.1 C50.6,71 51,72.9 51,74.9 C50.9,79.4 50.6,83.5 50.9,88.3 C51,89.5 50.9,90.6 50.9,91.8 C50.8,98.8 52.8,105.6 52.5,111.8 C48.8,111.6 45.6,111.7 42.5,112.2 C41.6,112.4 40.7,112.9 39.7,112.6 C39,111.7 38.7,97.3 38.6,96.5 C38.4,94.8 38.3,92.7 38.3,91 C38.3,90.5 38,88.7 37.9,88 C37.8,87.5 38,86.6 37.9,85.9 C37.6,82 37,77.5 36.5,73.4 C36.4,72.3 36.4,62.4 36.1,58.7 C35.4,57.5 33.2,58.9 31.6,59.4 C28,60.7 23.5,62.2 20.3,63.1 C19.2,66.6 19.4,69.9 19.5,73.5 C19.6,76.5 19.2,79.5 19.6,82 C21,89.2 20.1,101 20.4,111 C18.9,111 17.3,111.4 15.6,111.7 C12.8,112.3 9.9,112.8 7,113.3 C5.9,103.9 7.1,93 6,84 C6.8,81 6.2,77.3 6.1,74 C6.1,73.5 6.4,73 6.4,72.5 C6.4,71.9 6.1,71.3 6,70.7 C5.6,67.8 6,64.8 5.9,62.1 C5.8,59.5 5.6,55.9 5.5,52.7 C5.5,52.3 5.1,51.9 5.1,51.4 C5,50.3 5.3,48.9 5.2,47.7 C5.1,45 4.7,42.2 4.6,39.7 C4.5,37.5 5,35.2 4.9,32.9 C4.9,32.4 4.5,31.9 4.5,31.3 C4.4,30 4.6,28.6 4.5,27.2 C4.3,22.7 3.3,18.3 3.1,13.8 C3.1,12.8 3.4,11.9 3.4,11 C3.4,9 2.8,5.7 2.6,3.5 C2.6,3.4 2.7,3.4 2.7,3.2 C6.2,2.9 9.8,2.1 13.1,2.9 C14.5,2.4 16,2.4 17.6,2.8 Z" id="Path" fill="#FFFFFF"></path>
                <path d="M60.7,98.3 C60.8,97.4 61.1,96.8 61,95.9 C60.9,95.2 61.3,94.1 61.4,93.2 C61.8,89.8 62.2,85.2 63,82.2 C63.9,69.2 66.5,57.4 68.2,44.8 C68.6,42.2 69.6,39.6 69.8,36.9 C72.4,35.2 76.2,36.2 80,35.9 C82.1,35.7 84,34.7 85.8,35.1 C87.2,38.3 86.6,43.2 87.9,46.8 C88.2,50 89,53.1 89.6,56.1 C90.4,60.6 97.3,99.7 97.4,101.5 C98.4,103.6 98.1,106.4 98.7,108.5 C98.9,109.4 99.8,110.1 99.3,111 C96.5,112.5 93.2,114 89.9,113.7 C89.2,110.7 88.8,107.9 88.1,104.7 C87.3,101.1 83.7,88.4 83.2,84.1 C82,81.8 82.2,78.8 81.2,76.3 C81.4,74.7 81.1,73.8 80.5,72.4 C79.5,71.8 77.8,71.8 76.6,72.4 C76.2,76.6 75.3,82.8 74.9,86.8 C74.6,89.6 75,92.5 74.6,95.3 C74.4,96.6 74,97.9 73.9,99.2 C73.4,103.6 73.1,108.2 72.5,111.9 C71,112.2 62.8,112.2 60.2,111.6 C59.7,110.8 60.5,100.1 60.7,98.3 Z M76.5,53.4 C75.7,54.5 74.2,61.3 74.7,66.4 C76.3,66 77.7,66.8 79.1,66.1 C79.2,65.5 78.9,61.7 78.8,60 C78.7,58.9 78.4,56.6 78.4,56.3 C78.2,54.9 78.7,53.2 76.8,53.2 C76.8,53.3 76.7,53.4 76.5,53.4 Z" id="Shape" fill="#FFFFFF"></path>
                <path d="M357.3,34.8 C360.4,34 364.5,34.1 368.2,34 C367.1,38.8 367.2,43.9 366.8,48.6 C366.6,51.2 366.6,53.5 366.5,56.2 C366.5,60 366.9,63.7 367.3,68 C367.5,68.3 367.9,68.4 368.2,68.5 C369.2,67.9 369.4,66.5 370,65.5 C372.1,63.7 373.2,60.9 375.2,59 C375.2,58.3 384.8,43.8 387.2,40.5 C387.7,41 388.2,41.6 388.5,42.4 C390.4,42.9 390.6,45 392.3,45.7 C392.3,46.7 393.1,46.8 393.4,47.3 C392.6,49.1 372.9,73.7 370.6,76.7 C369.7,78.5 371.7,80 372.8,81.2 C373.8,82.4 374.5,83.8 375.6,84.2 C376.5,85.9 378,87 379.3,88.4 C380.6,89.8 382,91.3 383.5,92.6 C384.2,94.1 385.7,94.7 386.4,96.2 C387.7,96.6 388.1,98 389.2,98.6 C389.5,99.8 390.1,100.5 391,101.1 C390.9,102.4 389.7,102.8 388.8,103.9 C388.6,104.1 388.7,104.6 388.5,104.8 C388.2,105.3 387.6,105.4 387.2,105.9 C386.7,106.5 386.8,107.3 385.6,107.2 C385,105.9 384,104.9 383.6,103.5 C381.7,101.5 380.7,98.8 378.9,96.6 C377.7,95.2 376.2,94 375,92.6 C374.7,92.3 374.5,91.7 374.2,91.4 C373.9,91 373.5,90.8 373.2,90.5 C371.2,88.2 369.2,85.5 366.1,84.3 C365.7,84.1 366,83.2 365.5,83.1 C363.4,83.1 364.9,99.9 365.1,105.5 C365.2,107.3 365.2,109.2 365.7,110.9 C364.8,112 362.9,111.7 361.5,111.6 C359.7,111.5 357.4,112.3 355.3,111.7 C355.3,111.6 355.3,111.5 355.3,111.4 C356,107.8 355.2,102.9 355.7,98.7 C355.8,98 356.1,97.3 356.2,96.6 C356.5,93.9 356.1,91.4 356.1,88.9 C357.1,85.6 356.1,82 357,79 C356.9,78.6 356.9,78.2 356.6,77.9 C357.2,70.9 357.2,64.7 357.5,59.2 C357.5,58.5 357.4,57.7 357.4,57.1 C357.4,56.1 357.7,55.4 357.5,54.5 C357.4,53.8 357,53 357.6,52 C357.4,48.9 357.4,46.4 357.3,43.7 C357.2,41.7 357.7,39.3 357.6,37.1 C357.5,36.3 357.2,35.7 357.3,34.8 Z" id="Path" fill="#FFFFFF"></path>
                <path d="M105.1,35.7 C106.9,35.1 109.1,36.3 110.9,36.3 C111.3,36.3 111.3,35.9 111.6,35.7 C112.7,36.2 114,36.6 115.3,37 C116,37.8 114.9,57.3 114.7,60.4 C114.5,64.4 115.7,91.9 116,93.5 C116.3,95.5 115.9,97.6 117.1,99.4 C122.8,98.5 132.1,99.3 138.2,98.3 C139,100 138.2,102.4 138.1,104.6 C138,106.8 138.4,109.3 137.7,111.1 C137.3,111.7 136.7,111.1 136.3,111.1 C132,110.9 127.9,111.3 124,111.4 C118.4,111.5 112.1,112.4 106.5,111.8 C107,109.2 106.5,106.5 106.9,103.9 C107.1,102.8 107.2,92.7 107,91.8 C106.4,87.9 106.3,79.1 106.3,78.7 C106.3,77.9 105.5,56 105.5,55.2 C105.1,49 105.1,42.4 105.1,35.7 Z" id="Path" fill="#FFFFFF"></path>
                <path d="M176.4,65.1 C179.1,65.3 180.4,67.4 182.9,67.4 C183.7,69.1 186.7,68.5 187,70.7 C184.7,74.7 181.9,81.7 181.7,86.5 C181.4,91.9 186.9,100.4 197.2,95.3 C199.1,94.3 200.7,92.7 202.1,91.7 C205.1,87.3 206.6,70.8 205.9,67.6 C204.9,65.8 203.9,63.9 202.9,62.1 C196.8,55 186.4,52.3 179.9,45.6 C178.1,43 176.5,40.1 175.1,37.1 C175,34.9 173.9,31.3 174,28.5 C174.7,28 174.3,27.2 174.3,26.3 C174.4,23.7 175.7,21.6 175.9,18.4 C177.3,16.7 178,14.2 179.7,12.8 C179.7,12.1 180.2,12 180.1,11.2 C182.4,8.6 184.7,5.9 187.7,4 C188.5,3.8 189.2,3.7 189.5,3 C193.6,2.4 198.2,1.3 201.8,3.7 C204.9,4.2 207.9,5.9 209.4,8.4 C210.4,8.2 210.4,9.1 211,9.4 C208.7,11.8 207.8,15.7 205.5,18 C201.2,16.4 196.9,12.9 192.2,14.4 C190.3,15.9 188.1,17.9 187,20.4 C185.9,23 185.9,27.1 186.4,30 C186.8,31.7 187.7,33.4 189.1,34.3 C190.5,37.4 193.4,39.1 196.4,40.6 C196.5,41 196.8,41.1 196.8,41.5 C200,43.1 203.1,44.5 205.8,46.5 C207.5,47.7 208.8,49.5 210.7,50.4 C213.4,53.5 217.4,55.3 218.9,59.7 C219,60.2 219.5,60.3 219.7,60.7 C220.3,63 220.3,64.7 221.3,66.6 C221.8,73.5 220.2,81.7 218.2,87.2 C217.2,90 215.7,92.4 214.7,95.3 C214,95.5 213.9,96.3 213.3,96.6 C211.9,100 209.3,102.2 207.4,105.1 C206.5,105.5 205.9,106.3 205.3,107.1 C203.7,107.7 202.1,109.2 200.2,109.1 C199.1,110.6 195.8,109.9 194.7,111.4 C192.1,111.8 187.4,112.1 185.1,111 C184.5,110.7 184,110.2 183.4,110 C176.3,107.1 164.8,96.3 167.8,82.8 C168.1,81.4 168.8,80.2 168.9,78.6 C171,73.8 173,68.7 176.4,65.1 Z" id="Path" fill="#FFFFFF"></path>
                <path d="M237.7,55 C237.5,47.8 238.1,41 237.6,34.5 C241.3,34.4 245.3,34.6 249.6,34.8 C249.4,36.2 247.9,47.9 248,49.8 C248,51.4 247.8,53.2 249.1,54.2 C252.3,53.6 255.5,54.8 259.3,54.7 C259.2,57.6 258.4,60.3 258.7,63.9 C258.3,64.3 257.2,64 256.8,64.4 C255.3,63.5 248.3,63.1 247.4,64.9 C247.6,69.8 248,83.7 248.2,85.8 C248.7,91.4 249.3,97.7 252.1,102 C253.3,102 253.9,102.9 255,102.9 C256.1,102.9 257.8,101.7 258.8,101 C260.5,99.7 262.1,97.7 263,96.7 C264,97 263.9,98.3 264.3,99.5 C264.6,100.5 266.1,102.5 265.9,103.8 C265.8,104.4 264.7,105 264,105.7 C263.2,106.4 262.8,107.3 262.2,107.7 C261.5,108.3 259.9,109.2 258.5,110 C256,111.4 252.1,112.5 249.1,111.9 C247,111.5 245.7,110 244.3,108.9 C235.8,103.1 237.6,69.5 237.6,67.5 C237.6,66.7 238,65.9 237.5,65.2 C236.6,65 236.5,65.3 235.9,65.6 C233.3,65.7 231.3,66.1 228.9,66.6 C227.9,65.8 227.2,56.2 227.3,55.1 C229.1,54.9 230.9,54.9 232.8,55.1 C234.4,55.1 236.2,56.4 237.7,55 Z" id="Path" fill="#FFFFFF"></path>
                <path d="M344.1,45.6 C342.5,46.8 341.3,47.8 339.7,49.4 C339,50.1 338.1,51.5 337.4,51.6 C336.6,51.7 335.9,50.8 335.2,50.6 C332.1,49.7 331,51.5 330,53.3 C329,55 328,56.5 327.2,58.6 C326,66.3 324.7,74.4 325.2,83.2 C325.3,85 325.1,86.8 325.3,88.1 C325.4,88.6 325.7,89.1 325.8,89.6 C326.3,92.6 326.7,95.3 328.3,97.2 C329.2,98.3 332.1,100.1 333.6,99.7 C334.7,99.5 336,98.3 337,97.4 C339.8,94.9 341.9,90.7 344.6,88.3 C345.6,89 346.4,89.9 347.1,91 C347.7,91.9 348.9,93.4 348.9,94.3 C348.9,95.7 346.9,97.7 346,98.9 C344.8,100.5 344.3,102 343.1,103.5 C341.3,105.7 338.9,107.1 337.6,109.1 C335,111 331,113.3 327.2,111.1 C325,109.9 307.1,99.6 320,52.4 C321.1,49.8 322.3,47 323.8,44.2 C325.1,41.8 327.2,40.3 328.9,38.1 C330.8,37.2 332.6,36.6 335.5,37 C337.4,37.2 339.7,38.8 340.4,39.9 C340.7,40.3 340.6,40.9 340.9,41.3 C341.3,42 342.2,42.5 342.7,43.2 C343.4,43.8 343.7,44.7 344.1,45.6 Z" id="Path" fill="#FFFFFF"></path>
                <path d="M365.7,101.6 C366.3,101.7 365.6,102.4 366.2,102.5 C366.1,102.9 366.1,103.4 365.9,103.8 C365.6,103.3 365.9,102.1 365.7,101.6 Z" id="Path" fill="#FFFFFF"></path>
                <path d="M365.9,106.2 C365.6,105.5 366,104.9 365.8,104.1 C366.4,104.4 365.9,105.7 365.9,106.2 Z" id="Path" fill="#FFFFFF"></path>
                <path d="M52.8,79.8 C52.8,78.7 52.7,77.6 52.6,76.4 C52.6,76 52.6,75.7 52.8,75.4 L34.8,75.4 C34.8,75.8 34.8,76.2 34.6,76.5 C34.8,76.8 35,77 35.1,77.4 C35.5,78.3 35.2,79.1 34.6,79.7 L52.8,79.7 L52.8,79.8 Z" id="Path" fill="#D72027"></path>
                <path d="M76.8,77.7 C76.3,77.1 76.3,76.2 76.6,75.5 L62.3,75.5 C62.3,76.9 62.4,78.4 62.4,79.8 L76.5,79.8 C76.3,79.1 76.3,78.3 76.8,77.7 Z" id="Path" fill="#D72027"></path>
                <path d="M96,79.8 C95.6,78.8 95.3,77.9 95,76.8 C94.9,76.3 94.9,75.8 95.1,75.4 L80,75.4 C80.3,76.1 80.3,77 79.8,77.6 C80.2,78.2 80.3,79 80,79.7 L96,79.7 L96,79.8 Z" id="Path" fill="#D72027"></path>
                <path d="M185.2,77.3 C185.3,76.9 185.4,76.6 185.5,76.2 C185.5,76 185.6,75.9 185.7,75.7 C185.7,75.6 185.7,75.6 185.8,75.5 L168.7,75.5 C168.4,77 167.8,78.4 167.2,79.8 L184,79.8 C183.5,78.8 184,77.6 185.2,77.3 Z" id="Path" fill="#2E4B9F"></path>
                <path d="M221.2,79.8 C221.3,79.3 221.3,78.8 221.4,78.3 C221.4,77.7 221.7,77.2 222,76.9 C222,76.4 222,76 222,75.5 L204.5,75.5 C204.9,76.8 205.1,78.3 205.1,79.8 L221.2,79.8 Z" id="Path" fill="#2E4B9F"></path>
                <path d="M249.1,75.5 L234.8,75.5 C234.8,75.6 234.8,75.7 234.8,75.8 C234.8,77.1 234.8,78.5 234.8,79.8 L249.2,79.8 C249.3,78.4 249.2,76.9 249.1,75.5 Z" id="Path" fill="#2E4B9F"></path>
                <path d="M286.4,79.8 C286.4,78.8 286.5,77.9 286.5,76.9 C286.5,76.4 286.7,75.9 287.1,75.5 L272.9,75.5 C272.7,76.6 272.3,77.7 271.9,78.7 C272,79 272.1,79.4 272,79.8 L286.4,79.8 L286.4,79.8 Z" id="Path" fill="#2E4B9F"></path>
                <path d="M305.7,79.8 C305.3,78.4 305,77 304.8,75.5 L289.8,75.5 C290.2,75.9 290.4,76.4 290.4,76.9 C290.4,77.9 290.3,78.8 290.3,79.8 L305.7,79.8 Z" id="Path" fill="#2E4B9F"></path>
                <path d="M327.8,78.2 C326.6,77.9 326.2,76.5 326.7,75.5 L313.9,75.5 C314.2,76.9 314.3,78.4 314.5,79.8 L327,79.8 C327.1,79.1 327.4,78.6 327.8,78.2 Z" id="Path" fill="#2E4B9F"></path>
                <path d="M354.9,79.8 L373.1,79.8 C373,79.3 373.1,78.7 373.4,78.2 C372.6,77.5 372.7,76.3 373.3,75.5 L354.8,75.5 C355.9,76.8 356.3,78.5 354.9,79.8 Z" id="Path" fill="#2E4B9F"></path>
                <path d="M154.4,79.8 C154.3,78.6 154.2,77.3 154.2,76.1 C154.2,75.9 154.2,75.7 154.3,75.5 L144,75.5 C144.4,76.1 144.4,76.9 144,77.5 C144.4,78.1 144.6,79 144.2,79.8 L154.4,79.8 L154.4,79.8 Z" id="Path" fill="#D72027"></path>
                <path d="M117.8,77.5 C117.5,76.9 117.4,76.2 117.7,75.6 L103.6,75.6 C103.8,77 103.7,78.5 103.4,79.9 L116.4,79.9 C116.2,78.8 116.7,77.7 117.8,77.5 Z" id="Path" fill="#D72027"></path>
                <path d="M20.1,79.8 C20,78.6 20,77.5 20,76.3 C20,76 20.1,75.7 20.2,75.5 L4.6,75.5 C5.1,76.9 5.1,78.4 4.6,79.8 L20.1,79.8 Z" id="Path" fill="#D72027"></path>
                <path d="M5.2,111.9 C5.2,111.9 5.2,112 5.2,112 L21,112 C21.2,110.6 21.3,109.1 21.3,107.7 L4.6,107.7 C5.1,108.1 5.4,108.6 5.3,109.2 C5.2,110.2 5.2,111.1 5.2,111.9 Z" id="Path" fill="#D72027"></path>
                <path d="M54.1,111.9 C54.1,110.9 53.7,110 53.8,109 C53.8,108.5 53.9,108.1 54,107.8 L37.7,107.8 C37.8,109.2 37.8,110.7 37.8,112.1 L54,112.1 C54.1,112 54.1,112 54.1,111.9 Z" id="Path" fill="#D72027"></path>
                <path d="M73,112.1 C73,110.7 73.1,109.2 73.3,107.8 L58.7,107.8 C59.1,109.2 59,110.6 59,112.1 L73,112.1 Z" id="Path" fill="#D72027"></path>
                <path d="M100.1,109.2 C99.6,108.9 99.4,108.4 99.3,107.8 L86,107.8 C86.2,109.2 86.5,110.7 86.8,112.1 L100.8,112.1 C99.7,111.5 99.5,110.1 100.1,109.2 Z" id="Path" fill="#D72027"></path>
                <path d="M139,112.1 C138.9,110.7 138.9,109.3 139.1,107.9 C139.1,107.9 139.1,107.9 139.1,107.8 L105.5,107.8 C105.9,108.6 105.8,109.7 105.1,110.3 C105.4,110.8 105.5,111.5 105.3,112.1 L139,112.1 L139,112.1 Z" id="Path" fill="#D72027"></path>
                <path d="M156.4,109.4 C156.4,108.9 156.4,108.3 156.4,107.8 L144.2,107.8 C144.2,109.2 144.2,110.7 144.1,112.1 L156.3,112.1 C156.4,111.2 156.4,110.3 156.4,109.4 Z" id="Path" fill="#D72027"></path>
                <path d="M196,111.2 C197.5,110.7 199,110.1 200.5,109.6 C201.8,109.2 203.1,108.9 204.3,108.3 C204.4,108.2 204.6,108.2 204.7,108.1 C204.7,108 204.8,107.9 204.8,107.8 L177.6,107.8 C177.8,107.9 177.9,108.1 178,108.3 C178.1,108.5 178.2,108.8 178.3,109 C178.5,109 178.7,109 178.9,109.1 C179.8,109.5 180.7,109.7 181.7,109.9 C182.4,110 182.9,110.7 183.1,111.4 C183.2,111.4 183.3,111.5 183.4,111.5 C183.8,111.6 184.1,111.8 184.3,112.1 L193.3,112.1 C194.3,111.8 195.2,111.5 196,111.2 Z" id="Path" fill="#2E4B9F"></path>
                <path d="M257.2,110.8 C258.8,109.6 260.6,108.8 262.3,107.8 L240.7,107.8 C240.8,107.9 240.8,107.9 240.9,108 C241,108 241.1,108 241.2,108 C242.3,108 242.9,108.7 243.1,109.5 C243.7,109.6 244.2,109.9 244.4,110.3 C244.8,110.4 245.2,110.7 245.4,111 C245.6,111.1 245.8,111.2 246,111.3 C246.6,111.3 247,111.6 247.3,111.9 C247.4,111.9 247.6,112 247.7,112.1 L254.1,112.1 C255.2,111.8 256.3,111.5 257.2,110.8 Z" id="Path" fill="#2E4B9F"></path>
                <path d="M283.2,110.8 C283.2,110.2 283.4,109.8 283.7,109.5 C283.6,109.2 283.5,109 283.5,108.7 C283.5,108.4 283.6,108.1 283.7,107.8 L268.8,107.8 C268.9,108.1 268.9,108.5 268.9,108.9 C268.9,109.1 268.8,109.2 268.8,109.4 C269.4,109.7 269.8,110.4 269.9,111.1 C269.9,111.4 270,111.7 270,112 L283.6,112 C283.3,111.7 283.2,111.3 283.2,110.8 Z" id="Path" fill="#2E4B9F"></path>
                <path d="M308.8,111.9 C309.3,111.3 310.1,110.9 310.9,110.7 C310.9,110.7 311,110.7 311,110.7 C311,110.6 310.9,110.6 310.9,110.5 C310.7,110 310.4,109.6 310.4,109.1 C310.3,108.6 310.4,108.2 310.5,107.8 L296,107.8 C296.2,108 296.3,108.3 296.4,108.6 C296.8,109.8 297,110.9 297.1,112.1 L308.6,112.1 C308.7,112 308.7,112 308.8,111.9 Z" id="Path" fill="#2E4B9F"></path>
                <path d="M337.9,110 C338.1,109.6 338.5,109.2 339,109.1 C339.1,108.6 339.3,108.1 339.7,107.8 L323.1,107.8 C324.8,109.1 326,110.9 327.7,112.1 L335.2,112.1 C335.4,111.8 335.7,111.5 336,111.3 C336.3,110.6 336.9,110 337.9,110 C337.9,110 337.9,110 337.9,110 Z" id="Path" fill="#2E4B9F"></path>
                <path d="M366.5,112.1 C366.3,111.3 366.6,110.4 367.3,109.9 C367.3,109.8 367.2,109.6 367.2,109.5 C367.1,108.9 367.2,108.3 367.5,107.8 L353.8,107.8 C353.8,109.2 353.7,110.7 353.6,112.1 L366.5,112.1 C366.5,112.1 366.5,112.1 366.5,112.1 Z" id="Path" fill="#2E4B9F"></path>
                <path d="M20.7,99.4 L5.2,99.4 C5.2,99.6 5.2,99.8 5.2,100 C5,101.2 5.1,102.5 5.1,103.7 L21,103.7 C20.9,102.3 20.8,100.8 20.7,99.4 Z" id="Path" fill="#D72027"></path>
                <path d="M73.9,103.7 C74.2,102.3 74.4,100.8 74.7,99.4 L59.6,99.4 C59.6,100.8 59.6,102.3 59.5,103.7 L73.9,103.7 Z" id="Path" fill="#D72027"></path>
                <path d="M139.5,103.7 C139.7,102.3 139.9,101 139.8,99.6 C139.8,99.5 139.8,99.5 139.8,99.4 L105.5,99.4 C105.5,99.5 105.5,99.5 105.5,99.6 C105.5,101.1 105.4,102.4 105.1,103.7 L139.5,103.7 Z" id="Path" fill="#D72027"></path>
                <path d="M266.3,100.2 C265.9,100 265.6,99.8 265.4,99.4 L259.2,99.4 C259,100 258.5,100.4 257.7,100.5 C257,101.1 256.3,101.6 255.3,102 C254.4,102.4 253.8,102.1 253.3,101.5 C252.9,101.3 252.6,101 252.4,100.5 C251.9,100.2 251.7,99.8 251.5,99.3 L237.5,99.3 C237.5,99.8 237.3,100.4 236.9,100.7 C237,101.7 237.3,102.7 237.6,103.6 L266.1,103.6 C265.7,102.8 265.9,101.7 266.6,101.1 C266.4,101 266.3,100.6 266.3,100.2 Z" id="Path" fill="#2E4B9F"></path>
                <path d="M283.9,103.7 C283.9,103.4 284,103.1 284.1,102.8 C284.6,101.9 284.4,100.6 284.5,99.6 C284.5,99.5 284.5,99.5 284.5,99.4 L270,99.4 C270.2,100.2 270,101.1 269.4,101.6 C269.8,102.2 269.9,103.1 269.6,103.7 L283.9,103.7 Z" id="Path" fill="#2E4B9F"></path>
                <path d="M308.7,101 C308.6,100.4 308.7,99.9 309,99.5 L295.3,99.5 C296,100.8 296.1,102.3 296.1,103.8 L309.9,103.8 C309.3,102.9 308.9,102 308.7,101 Z" id="Path" fill="#2E4B9F"></path>
                <path d="M343.6,103.7 C344.6,102.1 346.1,100.8 347.4,99.4 L317.2,99.4 C317.7,100.9 318.4,102.3 319.4,103.6 C319.4,103.6 319.5,103.7 319.5,103.7 L343.6,103.7 C343.6,103.7 343.6,103.7 343.6,103.7 Z" id="Path" fill="#2E4B9F"></path>
                <path d="M354.1,103.7 L367.1,103.7 C367.1,103.4 367,103.1 366.9,102.8 C366.8,102.4 366.7,102.1 366.6,101.7 C366.6,101.8 366.2,101.1 366.5,101.5 C366,100.9 365.8,100.1 366.1,99.4 L353.8,99.4 C353.8,99.7 353.8,100.1 353.8,100.4 C354.2,100.8 354.4,101.3 354.4,101.8 C354.3,102.5 354.2,103.1 354.1,103.7 L354.1,103.7 Z" id="Path" fill="#2E4B9F"></path>
                <path d="M390.9,102.7 C391.3,102.2 391.7,101.7 392.2,101.3 C392.1,101.2 392,101.2 391.9,101.1 C391.3,100.7 390.9,100 390.9,99.4 L377.4,99.4 C378,99.8 378.6,100.3 379,100.9 C379.8,101.8 380.4,102.8 381.1,103.8 L390.5,103.8 C390.6,103.4 390.7,103 390.9,102.7 Z" id="Path" fill="#2E4B9F"></path>
                <path d="M213.3,99.4 L169,99.4 C169.5,100.2 170,101 170.9,101.5 C171.9,102.1 172.8,102.7 173.3,103.7 L209.5,103.7 C210.7,102.2 211.9,100.7 213.3,99.4 Z" id="Path" fill="#2E4B9F"></path>
                <path d="M155.4,103.7 C155.5,102.3 155.5,100.8 155.5,99.4 L143.8,99.4 C143.8,99.5 143.8,99.5 143.8,99.6 C143.9,101 143.7,102.3 143.5,103.7 L155.4,103.7 L155.4,103.7 Z" id="Path" fill="#D72027"></path>
                <path d="M98.8,99.4 L84.5,99.4 C84.5,99.5 84.5,99.6 84.5,99.8 C84.5,101.2 84.7,102.5 85.1,103.8 L99.7,103.8 C99.3,102.3 99,100.9 98.8,99.4 Z" id="Path" fill="#D72027"></path>
                <path d="M53.3,99.6 C53.3,99.5 53.3,99.5 53.3,99.4 L37.2,99.4 C37.3,100.2 37.4,101.1 37.4,102 C37.4,102.6 37.4,103.2 37.5,103.7 L54,103.7 C53.5,102.4 53.2,101.1 53.3,99.6 Z" id="Path" fill="#D72027"></path>
                <path d="M20.6,91.4 L4.8,91.4 L4.8,95.7 L20.5,95.7 C20.5,94.3 20.5,92.8 20.6,91.4 Z" id="Path" fill="#D72027"></path>
                <path d="M74.6,92.9 C74.6,92.3 74.9,91.8 75.3,91.4 L60.5,91.4 C60.4,92.8 60.3,94.3 60,95.7 L74.3,95.7 C74.5,94.8 74.7,93.8 74.6,92.9 Z" id="Path" fill="#D72027"></path>
                <path d="M97.6,91.8 C97.6,91.6 97.6,91.5 97.7,91.3 L82.5,91.3 C82.5,91.4 82.5,91.4 82.6,91.5 C82.9,92.8 83.6,94.2 83.7,95.6 L98,95.6 C97.6,94.4 97.6,93 97.6,91.8 Z" id="Path" fill="#D72027"></path>
                <path d="M117.8,93.6 C117.5,92.9 117.6,92 118.1,91.4 L104.8,91.4 C104.9,92.8 105,94.2 105.3,95.6 C105.3,95.7 105.3,95.7 105.3,95.7 L118,95.7 C117.6,95 117.5,94.2 117.8,93.6 Z" id="Path" fill="#D72027"></path>
                <path d="M155.1,95.7 C154.9,94.3 154.7,92.9 154.7,91.4 C154.7,91.4 154.7,91.4 154.7,91.3 L143.2,91.3 C143.4,91.7 143.6,92.1 143.6,92.5 C144.6,93.1 145,94.7 144.2,95.6 L155.1,95.6 L155.1,95.7 Z" id="Path" fill="#D72027"></path>
                <path d="M215.6,94.9 C216.3,93.9 217.1,93 217.6,91.9 C217.7,91.7 217.8,91.5 218,91.4 L200.8,91.4 C200.7,91.6 200.5,91.7 200.3,91.8 C197.8,93.4 195.6,95 192.6,95.1 C192.4,95.3 192.2,95.5 192,95.7 L215.3,95.7 C215.3,95.4 215.4,95.2 215.6,94.9 Z" id="Path" fill="#2E4B9F"></path>
                <path d="M250,95.7 C249.9,95.6 249.9,95.4 249.9,95.3 C249.6,94 249.4,92.7 249.3,91.4 L236.3,91.4 C236.3,91.5 236.3,91.7 236.3,91.9 L236.3,95.8 L250,95.8 L250,95.7 Z" id="Path" fill="#2E4B9F"></path>
                <path d="M285.9,91.4 L270.4,91.4 L270.4,95.7 L284.9,95.7 C285,94.1 285.1,92.6 285.9,91.4 Z" id="Path" fill="#2E4B9F"></path>
                <path d="M308.4,93.4 C308.3,92.7 308.2,92.1 308,91.4 L293.2,91.4 C293.2,91.5 293.3,91.6 293.3,91.7 C293.5,92.4 293.3,93.1 292.9,93.5 C293,94.3 293.1,95 293.3,95.7 L308.7,95.7 C308.7,94.9 308.6,94.1 308.4,93.4 Z" id="Path" fill="#2E4B9F"></path>
                <path d="M328.7,93.1 C328.4,92.8 328,92.5 327.8,92.1 C327.6,91.9 327.5,91.6 327.5,91.4 L316.3,91.4 C316.4,91.6 316.5,91.9 316.5,92.2 C316.5,93.3 316.9,94.4 317.1,95.5 C317.1,95.5 317.1,95.6 317.1,95.6 L328.9,95.6 C328.2,95 328.2,93.9 328.7,93.1 Z" id="Path" fill="#2E4B9F"></path>
                <path d="M350.4,94.8 C350.5,94 350.2,93.1 349.7,92.6 C349.3,92.2 349.1,91.8 349.1,91.4 L341,91.4 C341,91.9 340.8,92.4 340.5,92.8 C340.1,93.3 339.6,93.8 339.1,94.2 C339,94.8 338.8,95.4 338.2,95.7 L349.5,95.7 C349.7,95.3 350,95 350.4,94.8 Z" id="Path" fill="#2E4B9F"></path>
                <path d="M366.5,95.7 C366.3,94.3 366.3,92.9 366.3,91.5 C366.3,91.5 366.3,91.4 366.3,91.4 L353.7,91.4 C354.3,92.7 354.6,94.3 354.3,95.7 L366.5,95.7 L366.5,95.7 Z" id="Path" fill="#2E4B9F"></path>
                <path d="M387.3,93.6 C387.1,93.6 386.9,93.6 386.8,93.6 C385.4,93.6 384.8,92.4 384.9,91.4 L372,91.4 C372.4,91.8 372.7,92.3 372.7,92.9 C373.3,92.9 373.9,93.2 374.2,93.8 C374.4,94.2 374.6,94.3 375.1,94.6 C375.6,94.8 375.9,95.3 376,95.7 L387.9,95.7 C387.2,95.3 387,94.4 387.3,93.6 Z" id="Path" fill="#2E4B9F"></path>
                <path d="M167.9,95.7 L190.4,95.7 C190.3,95.7 190.2,95.6 190.1,95.5 C188.5,94.4 186.5,94.2 185,93 C184.4,92.5 183.9,92 183.6,91.3 L166.2,91.3 C166.2,91.9 166.2,92.5 166.1,93.1 C167.6,93.3 168.2,94.6 167.9,95.7 Z" id="Path" fill="#2E4B9F"></path>
                <path d="M34.5,67.7 C34.5,69.1 34.6,70.5 34.6,71.9 L53,71.9 C52.9,70.6 53,69.3 52.8,68.1 C52.8,67.9 52.8,67.8 52.7,67.6 L34.5,67.7 C34.5,67.7 34.5,67.7 34.5,67.7 Z" id="Path" fill="#D72027"></path>
                <path d="M20,68.1 C20,67.9 20,67.8 20.1,67.6 L4.5,67.6 C4.5,68 4.5,68.3 4.5,68.7 C4.5,69.8 4.5,70.9 4.5,71.9 L19.8,71.9 C20,70.7 20,69.4 20,68.1 Z" id="Path" fill="#D72027"></path>
                <path d="M185.8,68.2 C185.7,68 185.6,67.8 185.6,67.6 L172.8,67.6 C172.8,67.9 172.7,68.1 172.5,68.4 C171.9,69.2 171.3,70 170.5,70.7 C170.3,71.1 170.1,71.5 170,71.9 L186.9,71.9 C187,71.3 187.3,70.7 188,70.4 C187.1,69.8 186.4,69.1 185.8,68.2 Z" id="Path" fill="#2E4B9F"></path>
                <path d="M222,72 C222,70.7 221.9,69.4 221.9,68 C221.9,67.9 221.9,67.8 221.9,67.6 L204.3,67.6 C204.8,69.1 205.1,70.6 204.8,71.9 L222,71.9 L222,72 Z" id="Path" fill="#2E4B9F"></path>
                <path d="M34.6,63.6 L52.3,63.6 C52.2,62.2 52.2,60.7 52.2,59.3 L4.9,59.3 C5,60.7 4.9,62.2 4.8,63.6 L23.6,63.6 C23.7,63.5 23.8,63.4 23.9,63.3 C25.9,62 28.2,61.5 30.6,61.3 C30.8,61.3 31.1,61.3 31.3,61.4 C31.8,60.4 33.1,60.2 34,60.7 C35,61.3 35.2,62.4 34.7,63.4 C34.7,63.5 34.7,63.6 34.6,63.6 Z" id="Path" fill="#D72027"></path>
                <path d="M220.1,60.1 C219.9,59.9 219.8,59.6 219.8,59.3 L198,59.3 C198.5,59.7 199,60.1 199.4,60.4 C200.6,61.3 201.7,62.3 202.5,63.6 L221.7,63.6 C221.5,62.3 220.9,61.2 220.1,60.1 Z" id="Path" fill="#2E4B9F"></path>
                <path d="M53.3,91.7 C53.3,91.6 53.3,91.5 53.3,91.4 L35.7,91.4 C35.8,92 35.8,92.6 36,93.2 C36.2,94.1 36.4,94.9 36.5,95.8 L53.4,95.8 C53.3,94.4 53.3,93 53.3,91.7 Z" id="Path" fill="#D72027"></path>
                <path d="M53.5,83.3 L35.5,83.3 C35.6,84.7 35.6,86.2 35.5,87.6 L53.7,87.6 L53.7,83.6 C53.7,83.6 53.7,83.6 53.7,83.6 C53.7,83.5 53.6,83.4 53.5,83.3 Z" id="Path" fill="#D72027"></path>
                <path d="M75.4,85.1 C75.4,84.4 75.8,83.8 76.3,83.4 C76.3,83.4 76.3,83.4 76.3,83.3 L62,83.3 C62.2,83.8 62.2,84.3 61.9,84.8 C61.5,85.6 61.6,86.6 61.7,87.6 L75.4,87.6 L75.4,85.1 L75.4,85.1 Z" id="Path" fill="#D72027"></path>
                <path d="M97.2,83.4 C97.2,83.4 97.2,83.3 97.2,83.4 L80.2,83.4 C80.2,83.4 80.2,83.5 80.2,83.5 C80.2,84.9 80.4,86.3 80.5,87.7 L97.2,87.7 C97,86.2 97,84.8 97.2,83.4 Z" id="Path" fill="#D72027"></path>
                <path d="M117.7,85.4 C117.3,84.8 117.1,84 117.4,83.3 L104.1,83.3 C104.2,83.5 104.2,83.7 104.2,84 C104.2,84.9 104.4,86.3 104.4,87.6 L117.1,87.6 C116.9,86.9 117.1,86 117.7,85.4 Z" id="Path" fill="#D72027"></path>
                <path d="M154.9,87.7 C154.9,86.7 155,85.7 155.1,84.7 C155,84.3 155,83.8 154.9,83.4 L143.4,83.4 C143.9,84.2 143.7,85.3 143,86 C143.3,86.6 143.4,87.2 143.2,87.7 L154.9,87.7 L154.9,87.7 Z" id="Path" fill="#D72027"></path>
                <path d="M183,83.3 L166.2,83.3 C166.2,83.6 166,84 165.9,84.2 C166.3,85.3 166.4,86.4 166.4,87.6 L182.5,87.6 C182.4,86.1 182.5,84.8 183,83.3 Z" id="Path" fill="#2E4B9F"></path>
                <path d="M249.6,86.5 C249.5,85.4 249.5,84.4 249.5,83.3 L235,83.3 C235,84.7 235,86.2 235.1,87.6 L249.8,87.6 C249.8,87.5 249.9,87.4 249.9,87.2 C249.7,87.1 249.6,86.8 249.6,86.5 Z" id="Path" fill="#2E4B9F"></path>
                <path d="M285.5,87.7 C285.6,86.6 285.7,85.5 285.8,84.4 C285.8,84 285.9,83.7 286.1,83.4 L272.2,83.4 C272.2,83.5 272.2,83.6 272.2,83.7 C272.1,85.1 272.1,86.4 271.8,87.7 L285.5,87.7 Z" id="Path" fill="#2E4B9F"></path>
                <path d="M306.7,83.3 L291.2,83.3 C291.3,83.5 291.3,83.7 291.3,83.9 C291.4,85.2 291.7,86.4 292,87.6 L307.4,87.6 C307.3,86.2 307.1,84.8 306.7,83.3 Z" id="Path" fill="#2E4B9F"></path>
                <path d="M326.6,84.1 C326.6,83.8 326.7,83.5 326.8,83.3 L314.7,83.3 C314.8,84.7 314.8,86.2 314.8,87.6 L328.4,87.6 C327.3,87 326.6,86 326.6,84.1 Z" id="Path" fill="#2E4B9F"></path>
                <path d="M379.9,87.7 C379.6,87.1 379.5,86.5 379.8,85.9 C379.6,85.9 379.4,85.9 379.3,85.8 C377.9,85.7 377.3,84.4 377.4,83.3 L354.8,83.3 C355.3,84 355.6,85 355.4,86.3 C355.3,86.8 355.2,87.3 354.9,87.6 L364.9,87.6 C364.8,86.5 365.4,85.4 366.8,85.4 C368.2,85.4 368.8,86.6 368.7,87.6 L379.9,87.6 L379.9,87.7 Z" id="Path" fill="#2E4B9F"></path>
                <path d="M220.3,83.4 C220.3,83.4 220.3,83.3 220.3,83.4 L204.6,83.4 C204.4,84.1 204.2,84.7 203.9,85.3 C204,85.8 203.9,86.2 203.7,86.7 C203.5,87 203.3,87.4 203.1,87.7 L219.4,87.7 C219.5,86.2 219.9,84.8 220.3,83.4 Z" id="Path" fill="#2E4B9F"></path>
                <path d="M21.3,87.7 C21,86.3 20.8,84.9 20.7,83.5 C20.7,83.5 20.7,83.4 20.7,83.4 L4.3,83.4 C5,84.7 5.2,86.3 4.9,87.7 L21.3,87.7 L21.3,87.7 Z" id="Path" fill="#D72027"></path>
                <path d="M35.2,1.9 C35.4,1.9 35,1.2 35.3,1.1 C41.3,1.3 46.6,0.8 51.9,1.7 C51.8,3.8 53.6,80.8 53.6,82.1 C53.6,84 54.1,85.8 53.7,87.7 C53.4,89.7 54,91.6 54,93.6 C54,95.6 53.8,97.6 53.9,99.8 C53.9,100.7 54.2,101.6 54.2,102.5 C54.3,105.6 54.1,109.4 54.5,112.3 C54.5,113 49.9,112.6 47.4,112.6 C46.5,112.6 45.6,113.1 44.6,113.2 C44,113.3 43.3,113.1 42.8,113.2 C41.1,113.5 39.5,114.8 37.4,114.2 C36.4,112.7 36.9,111 36.7,109.3 C36.2,105.2 35.5,101.1 35.4,96.6 C35.3,93.1 34.7,89.3 34.4,86 C34.2,83.9 34.5,81.6 34.3,79.5 C34.2,78.7 33.7,73.6 33.5,72 C33.4,71.1 32.6,63.2 33.1,61.3 C29.3,62.3 25.6,64 21.1,64.7 C21,65.6 21,67 20.4,67.8 C20.9,69.1 20.3,70.7 20.3,72.2 C20.3,72.6 20.7,73 20.7,73.3 C20.7,73.7 20.6,74.4 20.6,74.9 C20.6,77 20.5,79.4 20.7,81.9 C20.8,83.2 21.3,84.7 21.3,86 C21.3,86.8 21.2,87.8 21.3,89 C21.3,89.7 21.1,90.3 21.2,91 C21.3,93.4 21.8,95.7 21.8,98.2 C21.8,99.5 21.6,100.8 21.5,102.1 C21.4,104.7 21.9,109.8 21.2,112.9 C15.9,114 11,114.3 6,115.4 C5.2,114.2 5.3,113 5.2,111.3 C4.8,107.4 4.6,100.6 4.6,96.4 C4.6,94.6 4.2,86.9 4.2,85.1 C4.2,83.4 3.8,82 3.9,80.3 C4.2,76.1 2.6,42.9 2.6,36 C2.6,34.1 2.1,28 2,27 C1.9,25.6 1.2,14.3 1.2,10.2 C1.1,7.5 0.2,4.2 1.3,2.2 C7.8,1.5 13.1,1.6 19.5,1.6 C20.4,2.8 20,4.1 20.1,5.4 C20.2,9.3 20.2,13.4 20.5,17.5 C20.8,20.7 21.4,39 21.9,44.7 C22,45.3 21.5,50 21.8,51.9 C25.9,51.7 29.1,50 34.1,49.8 C34.2,46.1 33.9,36.4 34,36 C34,35.3 33.9,27.9 33.7,25.7 C33.3,21.1 33.5,16.4 33.7,11.2 C33.8,8.3 33.6,5.4 33.8,2.5 C34.1,2.3 34.7,1.5 35.2,1.9 Z M13.1,2.9 C9.8,2.1 6.2,2.9 2.7,3.2 C2.7,3.3 2.6,3.4 2.6,3.5 C2.9,5.7 3.4,9 3.4,11 C3.4,11.9 3.1,12.9 3.1,13.8 C3.3,18.3 4.3,22.7 4.5,27.2 C4.6,28.5 4.4,30 4.5,31.3 C4.6,31.8 4.9,32.3 4.9,32.9 C5,35.1 4.5,37.4 4.6,39.7 C4.7,42.2 5.1,45.1 5.2,47.7 C5.2,48.9 4.9,50.3 5.1,51.4 C5.2,51.8 5.5,52.2 5.5,52.7 C5.7,55.9 5.8,59.5 5.9,62.1 C6,64.8 5.7,67.8 6,70.7 C6.1,71.3 6.1,73.5 6.1,74.1 C6.2,77.4 6.7,81.1 6,84.1 C7.1,93.1 5.8,104.1 6.8,113.5 C9.7,113.1 12.6,112.5 15.4,111.9 C17.1,111.6 18.7,111.2 20.2,111.2 C19.8,101.2 20.8,89.4 19.4,82.2 C18.9,79.8 19.3,76.7 19.3,73.7 C19.2,70 19.1,66.8 20.1,63.3 C23.3,62.5 27.8,60.9 31.4,59.6 C33,59 35.2,57.7 35.9,58.9 C36.3,62.5 35.6,66.6 36.6,70.5 C36.1,71.4 36.2,72.5 36.3,73.6 C36.9,77.7 38.1,90.7 38.1,91.2 C38.1,92.9 38.2,95 38.4,96.7 C38.5,97.4 38.8,111.8 39.5,112.8 C40.5,113.1 41.4,112.5 42.3,112.4 C45.4,111.9 48.6,111.8 52.3,112 C52.6,105.8 50.6,99 50.7,92 C50.7,90.7 50.8,89.7 50.7,88.5 C50.4,83.7 50.8,79.6 50.8,75.1 C50.8,73.1 50.4,71.2 50.5,69.3 C50.6,68.3 49.6,39 49.4,35.2 C49.4,34.8 49.3,34.4 49.3,33.9 C49.2,22.8 48.5,12.8 49.3,2.3 C45,1.8 39.8,2.2 35.3,2.2 C36.5,4.7 36.7,10.7 36.1,13.8 C36.8,15.6 36.2,16.6 36.2,18.5 C36.3,21.3 36.1,24 36.3,27.4 C36.5,30.6 36.8,39.7 36.6,41.9 C36.4,43.8 36.8,46 36.5,47.5 C36.2,48.7 35.4,49.6 35.5,51.2 C32.8,52 30,52.8 26.9,53.5 C24.4,54 21.3,53.6 19.4,54.5 C17.8,52.6 18.3,50.2 18.3,47.6 C18.3,44.3 17.4,40.9 17.7,37.6 C17.9,36 17.8,34.6 17.7,32.9 C17.5,29.2 17.6,25.4 17.3,21.9 C17.2,21.1 16.9,20.4 16.9,19.6 C16.9,18.8 16.8,18.1 16.9,17.2 C17.1,13.8 16.5,10.5 16.8,7.2 C16.9,5.8 17.4,4.4 17.4,3 C16,2.4 14.5,2.4 13.1,2.9 Z" id="Shape" fill="#000000" fill-rule="nonzero"></path>
                <path d="M69,35 C71.2,34.8 73.6,34.3 76,34.3 C77.9,34.3 80.1,34.6 81.8,34.3 C82.3,34.2 82.7,33.8 83.2,33.7 C84.3,33.5 85.6,33.6 86.7,33.4 C87.4,33.3 88.1,33.1 88.8,33 C89.1,34.4 90.3,36.2 89.5,37.8 C90.6,42 91.9,50.9 91.9,51.3 C93,52.5 100.1,104.8 100.1,108.3 C100.8,109.5 101.1,110.4 101.2,111.8 C97.4,113.9 92.5,114.9 87.8,115.5 C86,111.8 84.7,107.3 84,102.4 C83.4,98.4 81.7,95 81.3,91 C80.1,88.3 78.7,76.8 77.9,73.5 C75.9,76.4 77.2,82.3 75.6,85.9 C75.7,96 73.7,104.3 73.2,113 C70.4,113.7 67.1,112.9 63.8,113 C62.4,113 60.3,112.9 58.3,113 C58.1,113 58.1,112.9 57.9,112.9 C58.5,107.3 59,102 59.7,96.5 C59.9,94.8 59.5,92.9 60.4,91.1 C61.6,78.7 63.3,65.4 65.8,52.6 C66.1,51 66.1,49.5 66.4,47.9 C67.2,43.6 68.1,39.2 69,35 Z M59.9,111.7 C62.4,112.3 70.6,112.2 72.2,112 C72.8,108.3 73.2,103.7 73.6,99.3 C73.7,98 74.1,96.7 74.3,95.4 C74.6,92.6 74.3,89.7 74.6,86.9 C75,82.9 75.9,76.7 76.3,72.5 C77.5,71.9 79.2,71.9 80.2,72.5 C80.8,74 81.1,74.9 80.9,76.4 C81.9,78.9 81.7,81.8 82.9,84.2 C83.5,88.5 87.1,101.2 87.8,104.8 C88.5,108.1 89,110.8 89.6,113.8 C92.9,114.1 96.3,112.6 99,111.1 C99.5,110.2 98.7,109.4 98.4,108.6 C97.8,106.4 98.1,103.7 97.1,101.6 C97,99.8 90.2,60.7 89.3,56.2 C88.7,53.2 87.9,50.1 87.6,46.9 C86.3,43.3 86.9,38.4 85.5,35.2 C83.7,34.9 81.8,35.9 79.7,36 C75.9,36.3 72.1,35.3 69.5,37 C69.3,39.7 68.3,42.3 67.9,44.9 C66.2,57.5 63.6,69.2 62.7,82.3 C61.9,85.3 61.6,89.9 61.1,93.3 C61,94.2 60.6,95.3 60.7,96 C60.8,96.9 60.5,97.5 60.4,98.4 C60.5,100.1 59.7,110.8 59.9,111.7 Z" id="Shape" fill="#000000" fill-rule="nonzero"></path>
                <path d="M76.8,53.2 C78.6,53.2 78.2,54.9 78.4,56.3 C78.4,56.5 78.8,58.9 78.8,60 C78.9,61.7 79.2,65.4 79.1,66.1 C77.7,66.8 76.3,66 74.7,66.4 C74,62.3 75.7,54.5 76.5,53.4 C76.7,53.4 76.8,53.3 76.8,53.2 Z M75.5,65.1 C76,65.3 77.1,65.3 77.9,65.2 C78.4,63.6 77.8,58 77.1,56.4 C75.9,57.3 76,63.7 75.5,65.1 Z" id="Shape" fill="#000000" fill-rule="nonzero"></path>
                <path d="M102.5,33.3 C107.6,33.6 112.7,34.7 117.6,35.3 C117.7,35.8 118.1,35.9 118.4,36.1 C117.9,37.9 118.3,40 117.8,41.6 C118.1,45.2 118.3,49.3 118.1,53.2 C118,56.2 117.8,96.2 119,97.8 C120.3,97.5 123.9,97.9 125.8,98.1 C131,98.5 135.3,97.3 140.2,97.7 C140.5,100.6 140,102.8 140.2,105.6 C140.2,106.1 139.9,106.2 139.6,106.4 C140.5,107.8 139.5,109.2 139.6,110.3 C139.7,111.1 140.3,111.3 140.2,112.1 C138.5,112.7 136.5,112.5 134.6,112.4 C129.8,112.2 124.7,112.7 119.8,113 C117.3,113.1 114.6,112.5 112.3,113.6 C111,112.9 109,113.5 106.9,113 C106.1,113.3 105.9,113.7 104.8,113.4 C105.1,105.6 104.2,91.3 104,89.6 C103.6,86.4 101.9,39.3 102.5,33.3 Z M105.6,55.2 C105.7,56 106.4,77.9 106.4,78.7 C106.4,79.1 106.5,87.9 107.1,91.8 C107.2,92.7 107.1,102.9 107,103.9 C106.6,106.5 107.1,109.2 106.6,111.8 C112.2,112.4 118.4,111.5 124.1,111.4 C127.9,111.3 132,110.9 136.4,111.1 C136.8,111.1 137.4,111.7 137.8,111.1 C138.5,109.3 138.1,106.9 138.2,104.6 C138.3,102.3 139.2,99.9 138.3,98.3 C132.2,99.3 122.8,98.5 117.2,99.4 C116,97.6 116.4,95.5 116.1,93.5 C115.9,91.8 115.8,89.4 115.7,88 C115.7,87.4 114.7,64.4 114.9,60.4 C115,57.3 116.1,37.7 115.5,37 C114.3,36.6 113,36.2 111.8,35.7 C111.5,35.8 111.5,36.2 111.1,36.3 C109.3,36.3 107.2,35.2 105.3,35.7 C105.1,42.4 105.1,49 105.6,55.2 Z" id="Shape" fill="#000000" fill-rule="nonzero"></path>
                <path d="M175.7,62.9 C176.5,62.9 176.9,63.8 177.5,64.2 C179.2,65.1 181.6,65.4 183.4,66.4 C184.3,66.9 184.7,68 186.1,67.7 C186.6,68.7 188.3,68.6 188.5,69.7 C188.8,70.9 187.6,71.4 186.8,72.3 C185.5,75.8 183.6,81.5 182.7,85.8 C182.4,90.8 188.6,100.6 199.9,92 C203.6,88.4 203.7,83.6 204.3,81.2 C204.1,79.5 205.9,69.1 200.9,63.5 C198,59.5 193.3,56.4 188.7,53.8 C187.8,53.3 186.9,52.4 186,51.9 C183.1,50.2 180.4,49.3 178.1,47 C176,44.8 174.2,42.8 172.7,39.5 C172.1,36.3 171,34.1 171.3,30 C171.6,25.7 172.7,21.1 174.3,17.5 C174.9,16 176,14.9 176.8,13.6 C177,13.2 177,12.7 177.2,12.3 C178,11 179.3,9.5 180.4,8.3 C182.9,5.7 184.5,3.6 188,2.4 C189,1.4 191.3,1.1 192.8,1.1 C195.2,-0.2 199.9,0.9 202.8,2.1 C206.5,3.7 210,6.3 212.2,8.6 C212.1,9.4 212.3,9.8 212.5,10.3 C211.2,13.9 208.5,16.3 207.8,20 C206.4,21.6 205.6,20.6 204.2,20.2 C202.6,18.2 199.4,17.8 197.4,16.2 C195.3,15.8 194.1,15.6 192.5,15.8 C191.5,16.5 190.2,17.3 189.4,18.4 C189.3,18.5 188.7,19.5 188.7,19.6 C188,20.9 187.6,23.1 187.4,24.2 C187.2,25.5 187.6,26.6 187,28.1 C189,36.5 196.5,40.5 203.8,43.9 C204.6,45.7 207.1,45.6 207.7,47.5 C211.7,49.5 214.4,52.9 217.8,55.4 C219.2,58.6 221.8,61.4 221.7,65.6 C221.8,65.9 222.1,66.2 222.3,66.6 C223,68.8 222.2,72.6 222,74.5 C221.8,76.8 221.9,79.6 221.2,81.8 C221,82.3 217.3,97.6 208.1,106.1 C207.6,106.1 207.6,106.5 207.1,106.5 C206.7,107.1 206.1,107.5 205.8,108.2 C202.4,110.3 198.1,111.5 194.1,112.9 C191.5,112.6 189,113.1 186.3,112.8 C180.1,112.1 160.3,100.4 166.3,79.3 C167.6,75 168.7,73.1 170.5,69.2 C172.6,67.3 173.5,64.4 175.7,62.9 Z M169,78.7 C168.9,80.3 168.3,81.5 167.9,82.9 C165.5,90.3 170.6,104.7 185.2,111.1 C187.6,112.1 192.2,111.9 194.8,111.5 C195.9,110 199.2,110.7 200.3,109.2 C202.1,109.2 203.7,107.8 205.4,107.2 C206,106.4 206.6,105.6 207.5,105.2 C209.4,102.3 212,100.1 213.4,96.7 C214,96.4 214.1,95.6 214.8,95.4 C215.8,92.5 217.3,90.2 218.3,87.3 C220.3,81.9 221.9,73.6 221.4,66.7 C220.5,64.8 220.4,63.1 219.8,60.8 C219.6,60.4 219.1,60.3 219,59.8 C217.6,55.4 213.6,53.6 210.8,50.5 C208.8,49.7 207.6,47.8 205.9,46.6 C203.1,44.6 200.1,43.2 196.9,41.6 C196.9,41.2 196.5,41.1 196.5,40.7 C193.5,39.1 190.6,37.5 189.2,34.4 C187.8,33.4 186.9,31.8 186.5,30.1 C185.9,27.2 185.9,23 187.1,20.5 C188.2,17.9 190.4,16 192.3,14.5 C197,13 201.2,16.5 205.6,18.1 C207.9,15.7 208.8,11.9 211.1,9.5 C210.6,9.2 210.6,8.3 209.5,8.5 C208,5.9 204.9,4.3 201.9,3.8 C198.4,1.4 193.8,2.5 189.6,3.1 C189.3,3.8 188.5,3.9 187.8,4.1 C184.7,6 182.5,8.7 180.2,11.3 C180.3,12.1 179.7,12.2 179.8,12.9 C178.1,14.3 177.4,16.8 176,18.5 C175.9,21.7 174.5,23.8 174.4,26.4 C174.4,27.3 174.8,28.1 174.1,28.6 C174,31.5 175.2,35.1 175.2,37.2 C176.6,40.2 178.2,43.1 180,45.7 C186.5,52.4 196.8,55.2 203,62.2 C204,64 205,65.8 206,67.7 C209.5,82.5 202.7,90.6 202.2,91.8 C200.7,92.8 199.2,94.4 197.3,95.4 C187,100.6 181.5,92.1 181.8,86.6 C182.1,81.8 184.9,74.9 187.1,70.8 C186.8,68.6 183.8,69.2 183,67.5 C180.5,67.5 179.2,65.4 176.5,65.2 C173,68.7 171,73.8 169,78.7 Z" id="Shape" fill="#000000" fill-rule="nonzero"></path>
                <path d="M235.1,54.6 C236,53.6 235.4,51.9 235.4,50.6 C235.4,49.6 235.4,48.8 235.3,47.7 C234.9,44.8 235.8,42.3 235.6,39 C235.5,37.8 235.2,36.6 235.3,35.4 C235.7,34.7 236.3,34.1 236.7,33.4 C241.6,33.2 247,33.8 251.6,33.7 C251.7,35.3 250.7,50.1 250,53 C253.7,53.5 257.4,53.6 261.1,54.3 C261.1,57.6 261,62.1 260.2,65.8 C256.5,66.7 253.6,64.5 250.1,65.4 C249.6,66.5 250,68.8 250.2,71.1 C250.3,71.8 250.1,74.4 250.1,75 C250.1,76.3 248.8,101 254.6,102.2 C256.1,102.5 257,100.6 258.5,100.3 C260.4,98.4 261.9,96.1 264.4,94.8 C264.9,95.8 265.1,96.9 265.7,98.1 C266,98.8 266.2,99.9 266.6,100.9 C267.4,103 268.2,103.4 266.5,105.1 C264.8,106.7 262.9,108.9 260.7,110.1 C259.9,110.5 259.1,110.9 258.3,111.5 C257.6,112 254.6,112.6 253.5,112.8 C253,112.9 252.7,113.3 252.4,113.3 C250.9,113.4 248.8,112.9 247.9,112.5 C245.9,111.8 244.6,110.4 242.6,109.6 C234.5,106.3 235.2,83.4 235.2,82.2 C235.1,77.3 234.4,71.9 235.2,67 C233,66.5 230,68 228,67.5 C227.6,67.9 227.1,68.2 226.2,68.1 C225.4,65.1 225.6,60.7 225.2,57.2 C225.1,56 225.2,55.1 226.1,54.4 C229.1,54 232.7,54.1 235.1,54.6 Z M232.5,55 C230.5,54.8 228.7,54.8 227,55 C226.9,56.1 227.7,65.7 228.6,66.5 C231,66 233,65.6 235.6,65.5 C236.2,65.2 236.4,64.9 237.2,65.1 C237.8,65.7 237.3,66.6 237.3,67.4 C237.3,69.5 235.3,104.2 244,108.8 C245.4,109.9 246.7,111.4 248.8,111.8 C251.8,112.4 255.7,111.3 258.2,109.9 C259.6,109.1 261.2,108.2 261.9,107.6 C262.4,107.2 262.9,106.3 263.7,105.6 C264.4,104.9 265.5,104.4 265.6,103.7 C265.8,102.4 264.3,100.5 264,99.4 C263.6,98.2 263.8,96.9 262.7,96.6 C261.8,97.6 260.3,99.5 258.5,100.9 C257.6,101.6 255.8,102.8 254.7,102.8 C253.6,102.8 253,101.9 251.8,101.9 C249,97.5 248.4,91.3 247.9,85.7 C247.7,83.7 247.4,69.7 247.1,64.8 C248,63 255,63.4 256.5,64.3 C256.9,63.9 258,64.2 258.4,63.8 C258.2,60.2 258.9,57.6 259,54.6 C255.2,54.7 252,53.5 248.8,54.1 C247.5,53.1 247.7,51.3 247.7,49.7 C247.7,47.8 249.2,36.1 249.3,34.7 C245.1,34.6 241,34.4 237.3,34.4 C237.8,40.9 237.3,47.7 237.4,54.9 C236.2,56.4 234.4,55.1 232.5,55 Z" id="Shape" fill="#000000" fill-rule="nonzero"></path>
                <path d="M345.3,46.8 C342.5,48.3 340.5,50.5 338.5,52.8 C336.9,52.5 335.4,51.6 333.8,51.3 C333,51.5 332.7,52.2 331.9,52.4 C331.7,53.4 331.3,54.3 330.5,54.8 C329.3,58.1 329.1,61.7 328.2,65.2 C328.3,66.4 327.9,68.3 328.1,70 C326.9,75 328.2,80.6 328.6,86.2 C328.6,86.8 328.4,87.3 328.5,87.8 C328.5,88.1 328.8,88.4 328.9,88.7 C329,89.3 328.8,90 328.9,90.6 C329.2,93.6 330.5,96.9 331.8,98.6 C333.5,99 335.3,97.8 336.7,96.6 C337.2,96.2 337.8,95.7 338.2,95.2 C339,94.4 339.2,93.2 339.8,92.4 C340.3,91.7 341.4,90.6 342.1,89.7 C342.2,89.5 342.3,89.3 342.5,89.2 C342.9,88.8 344.2,87.1 344.9,87 C345.8,87 347.6,89.3 348.2,89.9 C349.3,91.2 350,92.2 350.7,93.5 C350.3,95.2 349.6,96.7 348.4,97.6 C347.9,99.2 346.9,100.3 345.7,101.3 C344.7,103.9 343,105.8 340.9,107.4 C339.8,108.8 338.8,109.9 337.2,111 C336.2,111.7 335.3,112.3 334,112.6 C332.3,113.1 330.6,113.1 328.7,112.5 C326.4,111.7 324.1,110.6 322.5,109.1 C322,108.7 321.6,107.8 321.1,107.2 C320.3,106.2 320,105.9 319.5,104.8 C319.4,104.5 319,104.4 318.9,104.2 C317.9,102.2 317.7,100.3 316.6,98.5 C315,91.9 313.3,84.9 313.7,77.2 C313.8,74.4 313.8,71.4 314,68.7 C314.1,66.6 314.5,64.6 315,62.9 C315.7,60.8 315.8,58.2 316.5,55.9 C317.1,53.9 317.9,51 319.2,49.6 C320.8,44.8 324.3,40.9 327.6,37.4 C328.5,36.8 329.5,36.3 330.4,35.8 C331.1,36.2 331.6,35.5 332.2,35.4 C332.9,35.3 334.7,35.4 335.6,35.5 C337.4,35.7 338.5,36.7 339.9,37.8 C340.6,38.4 341.5,39 341.9,39.6 C342.1,39.9 342.1,40.3 342.3,40.6 C343.1,41.6 344.4,42.5 345.1,43.6 C345.2,43.8 346,45.3 346,45.5 C345.9,46 345.2,46.4 345.3,46.8 Z M342.9,43 C342.4,42.3 341.6,41.8 341.1,41.1 C340.8,40.7 340.9,40.1 340.6,39.7 C339.9,38.6 337.5,37 335.7,36.8 C332.8,36.5 331,37.1 329.1,37.9 C327.5,40 325.3,41.5 324,44 C315.6,60.3 313.1,86.4 321.1,103.8 C322.3,106.4 325.2,109.7 327.4,111 C331.2,113.1 335.2,110.8 337.8,109 C339,107 341.5,105.6 343.3,103.4 C344.5,101.9 345,100.4 346.2,98.8 C347.1,97.6 349.1,95.6 349.1,94.2 C349.1,93.3 347.9,91.8 347.3,90.9 C346.6,89.8 345.7,88.9 344.8,88.2 C342.1,90.6 340,94.8 337.2,97.3 C336.2,98.2 334.9,99.4 333.8,99.6 C332.2,99.9 329.4,98.1 328.5,97.1 C326.9,95.2 326.5,92.5 326,89.5 C325.9,89 325.6,88.5 325.5,88 C325.3,86.7 325.5,84.8 325.4,83.1 C324.9,74.3 326.2,66.2 327.4,58.5 C328.2,56.4 329.2,54.9 330.2,53.2 C331.2,51.5 332.3,49.6 335.4,50.5 C336.1,50.7 336.7,51.6 337.6,51.5 C338.3,51.4 339.2,50 339.9,49.3 C341.5,47.7 342.7,46.7 344.3,45.5 C343.7,44.7 343.4,43.8 342.9,43 Z" id="Shape" fill="#000000" fill-rule="nonzero"></path>
                <path d="M166.3,38.4 C165.2,40.8 163.2,42.2 161.9,44.4 C160.2,44.5 159.5,43.5 158.2,43.2 C154.8,44.9 155.3,50.3 155.5,54.2 C156.9,57.4 164.1,55.1 166.5,56.9 C165.3,61.9 165.3,65.6 164.9,70.6 C163.9,71.4 162.9,70.7 161.8,70.6 C159.5,70.3 157.2,70.5 154.9,70.2 C153.5,72.6 155.5,78 154.6,81.2 C155.2,82.1 155.1,88 155.3,89.4 C155.4,89.9 157,112.6 156,113.5 C154.8,113.6 149.9,113.7 148.5,113.8 C147.5,113.8 144.5,113 143.7,113.6 C143.5,114.1 143.7,111.3 143.4,108.9 C143.3,108.1 142.4,78.3 142.4,77.4 C142.4,76.1 142,74.9 142.1,73.5 C142.2,72.2 142.4,70.3 142.1,68.9 C137.2,68.5 132.2,69.9 126.6,69.7 C125.8,66 126.2,62.4 126.3,58.8 C126.3,57.3 125.8,55 127.4,54.4 C128.6,54 131.7,54.4 132.6,54.5 C134.1,54.6 135.8,54.3 137.4,54.4 C139.7,54.5 142.1,55.6 143.2,53.4 C142.5,51 142.8,48.4 143.1,45.8 C143.2,44.4 143.8,40.7 144.1,39.8 C145.1,36 147.6,33.9 150.2,31.5 C151.4,31.8 152.1,30.9 153.2,30.8 C156.5,30.6 160,32.2 162.5,33.9 C164.4,35.1 165.3,36.9 166.3,38.4 Z M128.5,61 C129,62.7 128.2,65.4 129.2,67.3 C130.6,69.3 133.7,68.2 137.4,68 C140.3,67.9 142.3,67.7 144.2,67.3 C144.5,67.5 144.5,67.9 144.9,68 C145.6,73 145.4,79 144.9,83.2 C145.6,88 145.8,92.7 146,98.4 C146.1,100.8 145.7,103.3 145.9,105.7 C146,107.9 146.8,110 146.2,112.4 C148.2,113.4 152.9,112.5 153.8,112.3 C153.2,105.5 153.7,96.8 153.2,90.5 C153.2,89.9 153,89 152.9,88.5 C152.4,86.1 152.2,83.4 152.1,80.9 C152.1,80.1 152.3,79.3 152.2,78.5 C151.9,75.3 151.1,71.1 152.8,69.4 C156.9,69.1 159.6,69.9 163.4,69.7 C163.2,65.2 164,61.6 164.7,57.3 C160.3,57.4 157.6,56.9 153.4,56.5 C153.1,54.4 152.9,51.5 153.1,49.2 C153.3,47.1 154.8,42.7 157.5,42.3 C159,42.1 159.8,43 161.3,43.1 C162.4,41.3 164.4,40.4 165.5,38.6 C164.6,38.2 164.6,37.3 164.1,36.7 C162.8,35.1 160.7,34.3 159.2,32.9 C156.2,32.7 153.6,31.4 151.6,32.8 C151.2,33.1 150.9,33.7 150.5,34.2 C150.1,34.7 149.4,35 149.1,35.4 C148.4,36.3 148.3,37.8 147.5,38.4 C147.5,40.2 146.3,41.7 146.1,43.4 C145.9,44.7 146.3,46.1 145.7,47.3 C146.2,48.1 146,49.2 146,50.3 C146,52 146.3,54.2 145.4,55.3 C144.2,56.9 140.6,56.2 139.1,55.7 C136.1,55.9 132.7,55.7 129.4,55.4 C128.2,56.7 129.6,59.8 128.5,61 Z" id="Shape" fill="#000000" fill-rule="nonzero"></path>
                <path d="M355.9,33.6 C360.3,33.1 365.3,33 369.3,32.7 C369.4,33.4 370.1,32.7 370.3,33.2 C369.9,35.8 370.2,38.9 369.7,41.5 C370.5,44.5 369.5,47.9 369.3,50.5 C369.1,54.8 369.5,59.4 369,63.7 C369.9,63.9 370.6,62.9 371,62.2 C372.5,60.2 381.8,47.8 382.4,45.2 C382.9,45.2 382.6,44.3 383.3,44.4 C384.1,42 385.9,40.6 386.7,38.3 C389.5,38.8 389.6,42 391.9,43.1 C392.5,44.1 393.4,44.9 394.3,45.6 C394.4,46.3 395,46.5 395.2,47.2 C394.3,49.5 373.5,75.6 372.9,77 C374.5,79 375.8,81.2 377.7,82.8 C378.7,85 381,85.9 382,88.1 C384.1,89.8 385.3,92.4 387.6,93.9 C387.6,94.4 388.1,94.4 388.1,95 C389.6,95.8 390.4,97.4 391,99.1 C391.8,99.4 392.2,100 392.8,100.6 C391.6,103.2 389.3,104.8 388,107.2 C386.8,107.5 386.7,108.9 385.6,109.3 C384.8,109.1 383.3,107.6 383.3,107.2 C379.3,102.8 376.3,97.3 372.5,92.6 C370,90.9 369.1,87.6 366.4,86.1 C367.2,89.3 366.5,92.3 366.9,95.9 C367,96.6 366.8,106.2 367.7,109.9 C367.5,110.4 367.5,111.6 366.9,112 C366.7,112.1 366.2,112 365.6,112 C364.9,112.1 364.2,112.4 363.8,112.4 C362.1,112.6 358.6,112.4 356.4,112.5 C355.1,112.6 353.8,113.1 353.1,112 C353.1,103.9 353.1,97.6 353.6,88.6 C353.3,87.6 353.3,86.7 353.7,85.8 C353.6,81.9 353.9,76.4 353.8,71.8 C353.8,70 354.3,68.2 354.3,66.4 C354.3,66.1 354.2,65.9 354.2,65.6 C354.3,63.4 354.8,61.3 354.3,59.8 C354.6,55.6 354.5,51.5 354.4,46.9 C354.4,44.9 354.7,42.7 354.7,40.5 C354.9,37.9 354.9,35.5 355.9,33.6 Z M357.5,36.9 C357.7,39.1 357.2,41.5 357.2,43.5 C357.3,46.3 357.2,48.7 357.5,51.8 C356.9,52.8 357.3,53.6 357.4,54.3 C357.6,55.3 357.3,56 357.3,56.9 C357.3,57.5 357.5,58.3 357.4,59 C357.1,64.5 357.1,70.7 356.5,77.7 C356.7,77.9 356.8,78.4 356.9,78.8 C356,81.9 357,85.4 356,88.7 C356.1,91.2 356.4,93.6 356.1,96.4 C356,97.1 355.7,97.8 355.6,98.5 C355.1,102.8 355.9,107.6 355.2,111.2 C355.2,111.3 355.2,111.4 355.2,111.5 C357.3,112.1 359.6,111.2 361.4,111.4 C362.7,111.5 364.7,111.8 365.6,110.7 C365.1,109 365.1,107.1 365,105.3 C364.7,99.7 363.3,82.9 365.4,82.9 C365.9,83 365.7,83.9 366,84.1 C369.1,85.4 371.1,88.1 373.1,90.3 C373.4,90.7 373.8,90.9 374.1,91.2 C374.4,91.5 374.6,92 374.9,92.4 C376.1,93.8 377.7,95 378.8,96.4 C380.6,98.5 381.6,101.2 383.5,103.3 C384,104.7 384.9,105.7 385.5,107 C386.7,107.1 386.7,106.3 387.1,105.7 C387.5,105.2 388.1,105.1 388.4,104.6 C388.6,104.3 388.5,103.9 388.7,103.7 C389.5,102.6 390.8,102.2 390.9,100.9 C390.1,100.3 389.4,99.5 389.1,98.4 C388,97.8 387.6,96.4 386.3,96 C385.6,94.5 384.1,93.9 383.4,92.4 C381.9,91.1 380.5,89.5 379.2,88.2 C377.9,86.8 376.4,85.7 375.5,84 C374.4,83.6 373.7,82.2 372.7,81 C371.7,79.8 369.7,78.3 370.5,76.5 C373.8,71.8 392.5,48.9 393.3,47.1 C392.9,46.6 392.1,46.5 392.2,45.5 C390.5,44.8 390.2,42.7 388.4,42.2 C388.1,41.4 387.7,40.9 387.1,40.3 C384.6,43.7 372,63.6 369.9,65.3 C369.4,66.4 369.1,67.7 368.1,68.3 C367.8,68.2 367.4,68.1 367.2,67.8 C366.8,63.5 366.4,59.8 366.4,56 C366.4,53.4 366.5,51.1 366.7,48.4 C367.1,43.8 366.9,38.6 368.1,33.8 C364.4,33.9 360.3,33.8 357.2,34.6 C357.2,35.7 357.5,36.3 357.5,36.9 Z" id="Shape" fill="#000000" fill-rule="nonzero"></path>
                <path d="M279.2,34.2 C281.4,34 283.8,33.5 286.2,33.5 C288.1,33.5 290.3,33.8 292,33.5 C292.5,33.4 292.9,33 293.4,32.9 C294.5,32.7 295.8,32.8 296.9,32.6 C297.6,32.5 298.3,32.3 299,32.2 C299.3,33.6 300.5,35.4 299.7,37 C300.8,41.2 302.1,50.1 302.1,50.5 C303.2,51.7 310.3,104 310.3,107.5 C311,108.7 311.3,109.6 311.4,111 C307.6,113.1 302.7,114.1 298,114.7 C296.2,111 294.9,106.5 294.2,101.6 C293.6,97.6 291.9,94.2 291.5,90.2 C290.3,87.4 288.9,76 288.1,72.7 C286.1,75.6 287.4,81.5 285.8,85.1 C285.9,95.2 283.9,103.5 283.4,112.2 C280.6,112.9 277.3,112.1 274,112.2 C272.6,112.2 270.5,112.1 268.5,112.2 C268.3,112.2 268.3,112.1 268.1,112.1 C268.7,106.5 269.2,101.2 269.9,95.7 C270.1,94 269.7,92.1 270.6,90.3 C271.8,77.9 273.5,64.6 276,51.8 C276.3,50.2 276.3,48.7 276.6,47.1 C277.4,42.7 278.2,38.4 279.2,34.2 Z M270,110.9 C272.5,111.5 280.7,111.4 282.3,111.2 C282.9,107.5 283.3,102.9 283.7,98.5 C283.8,97.2 284.2,95.9 284.4,94.6 C284.7,91.8 284.4,88.9 284.7,86.1 C285.1,82.1 286,75.9 286.4,71.7 C287.6,71.1 289.3,71.1 290.3,71.7 C290.9,73.2 291.2,74.1 291,75.6 C292,78.1 291.8,81 293,83.4 C293.6,87.7 297.2,100.4 297.9,104 C298.6,107.3 299.1,110 299.7,113 C303,113.3 306.4,111.8 309.1,110.3 C309.7,109.4 308.8,108.6 308.5,107.8 C307.9,105.6 308.2,102.9 307.2,100.8 C307.1,99 300.3,59.9 299.4,55.4 C298.8,52.4 298,49.3 297.7,46.1 C296.4,42.5 297,37.6 295.6,34.4 C293.8,34.1 291.9,35.1 289.8,35.2 C286,35.5 282.2,34.5 279.6,36.2 C279.4,38.9 278.4,41.5 278,44.1 C276.3,56.7 273.7,68.4 272.8,81.5 C272,84.5 271.7,89.1 271.2,92.5 C271.1,93.4 270.7,94.5 270.8,95.2 C270.9,96.1 270.6,96.7 270.5,97.6 C270.7,99.3 269.9,109.9 270,110.9 Z" id="Shape" fill="#000000" fill-rule="nonzero"></path>
                <path d="M287,52.4 C288.8,52.4 288.4,54.1 288.6,55.5 C288.6,55.7 289,58.1 289,59.2 C289.1,60.9 289.4,64.6 289.3,65.3 C287.9,66 286.5,65.2 284.9,65.6 C284.2,61.5 285.9,53.7 286.7,52.6 C286.8,52.5 286.9,52.5 287,52.4 Z M285.6,64.2 C286.1,64.4 287.2,64.4 288,64.3 C288.5,62.7 287.9,57.1 287.2,55.5 C286.1,56.5 286.2,62.8 285.6,64.2 Z" id="Shape" fill="#000000" fill-rule="nonzero"></path>
            </g>
        </g>
    </g>
</svg>
