<svg height="116" viewBox="0 0 396 116" width="396" xmlns="http://www.w3.org/2000/svg"><g fill="none" fill-rule="evenodd"><g fill="#fff"><path d="m282.2 34.3h4.6 7 4.7v6.9l2.3 11.7 2.3 18.6 2.3 11.7 2.4 13.9v2.4l.9 1 .1 1 1.3 7.3.2 2-.2.3-1.1.5-1.5.5-.6.1h-.4l-3.4 1.2h-4.6l-.5-3.1-1.9-8.5-2.3-7-2.3-9.3-2.4-9.3v-4.7h-2.3v2.3 4.7l-.5.7-.1.6.6 1-1.4 1.1.3 3-.2 2.1.4 1.9-1.4 10.6-2.3 11.6h-2.4l-10.2.2v-2.1l.9-9.7 1.2-14.4 3.5-22.9 2.3-16.3 2.3-11.6z" fill-rule="nonzero"/><path d="m129.2 55.3c3.4.2 6.8.5 9.7.3 1.5.5 5.2 1.2 6.3-.4.8-1.2.6-3.4.6-5 0-1.1.2-2.2-.3-3 .6-1.3.2-2.6.4-3.9.2-1.7 1.4-3.2 1.4-5 .8-.6.8-2.1 1.6-3 .3-.4 1-.8 1.4-1.2.4-.5.7-1.1 1.1-1.4 2-1.3 4.6 0 7.6.1 1.5 1.4 3.6 2.2 4.9 3.8.5.6.5 1.5 1.4 1.9-1.1 1.8-3.1 2.7-4.2 4.5-1.5-.1-2.4-1-3.8-.8-2.7.4-4.2 4.8-4.4 6.9-.2 2.3 0 5.3.3 7.3 4.2.4 6.9.9 11.3.8-.7 4.2-1.5 7.8-1.3 12.4-3.7.3-6.5-.6-10.6-.3-1.6 1.7-.9 5.9-.6 9.1.1.8-.2 1.7-.1 2.4.1 2.5.4 5.2.8 7.6.1.6.2 1.4.3 2 .5 6.3 0 15 .6 21.8-.8.5-5.6 1.1-7.6.1.6-2.4-.2-4.4-.3-6.7-.1-2.5.2-5 .1-7.3-.2-5.7-.4-10.4-1.1-15.2.5-4.2.7-10.2 0-15.2-.4 0-.4-.5-.7-.7-1.8.3-3.9.5-6.8.7-3.7.2-6.7 1.3-8.2-.7-1-1.8-.2-4.5-.7-6.3 1.3-1.1-.1-4.2.9-5.6z"/><path d="m17.6 2.8c.1 1.5-.4 2.8-.6 4.2-.3 3.3.4 6.6.1 10-.1.9 0 1.6 0 2.4s.4 1.5.4 2.3c.3 3.5.3 7.3.4 11 .1 1.7.2 3.1 0 4.7-.3 3.3.5 6.7.6 10 0 2.6-.5 5 1.1 6.9 1.9-.9 5-.5 7.5-1 3.1-.7 5.9-1.4 8.6-2.3-.1-1.5.7-2.5 1-3.7.4-1.6-.2-26.2-.3-29 0-1.9.5-2.9-.1-4.7.6-3 .4-9-.8-11.6 4.5 0 9.7-.3 14 .1-.8 10.5-.1 20.5 0 31.6 0 .4.1.8.1 1.3.3 3.8 1.2 33.1 1.1 34.1-.1 1.9.3 3.8.3 5.8-.1 4.5-.4 8.6-.1 13.4.1 1.2 0 2.3 0 3.5-.1 7 1.9 13.8 1.6 20-3.7-.2-6.9-.1-10 .4-.9.2-1.8.7-2.8.4-.7-.9-1-15.3-1.1-16.1-.2-1.7-.3-3.8-.3-5.5 0-.5-.3-2.3-.4-3-.1-.5.1-1.4 0-2.1-.3-3.9-.9-8.4-1.4-12.5-.1-1.1-.1-11-.4-14.7-.7-1.2-2.9.2-4.5.7-3.6 1.3-8.1 2.8-11.3 3.7-1.1 3.5-.9 6.8-.8 10.4.1 3-.3 6 .1 8.5 1.4 7.2.5 19 .8 29-1.5 0-3.1.4-4.8.7-2.8.6-5.7 1.1-8.6 1.6-1.1-9.4.1-20.3-1-29.3.8-3 .2-6.7.1-10 0-.5.3-1 .3-1.5 0-.6-.3-1.2-.4-1.8-.4-2.9 0-5.9-.1-8.6-.1-2.6-.3-6.2-.4-9.4 0-.4-.4-.8-.4-1.3-.1-1.1.2-2.5.1-3.7-.1-2.7-.5-5.5-.6-8-.1-2.2.4-4.5.3-6.8 0-.5-.4-1-.4-1.6-.1-1.3.1-2.7 0-4.1-.2-4.5-1.2-8.9-1.4-13.4 0-1 .3-1.9.3-2.8 0-2-.6-5.3-.8-7.5 0-.1.1-.1.1-.3 3.5-.3 7.1-1.1 10.4-.3 1.4-.5 2.9-.5 4.5-.1z"/><path d="m60.7 98.3c.1-.9.4-1.5.3-2.4-.1-.7.3-1.8.4-2.7.4-3.4.8-8 1.6-11 .9-13 3.5-24.8 5.2-37.4.4-2.6 1.4-5.2 1.6-7.9 2.6-1.7 6.4-.7 10.2-1 2.1-.2 4-1.2 5.8-.8 1.4 3.2.8 8.1 2.1 11.7.3 3.2 1.1 6.3 1.7 9.3.8 4.5 7.7 43.6 7.8 45.4 1 2.1.7 4.9 1.3 7 .2.9 1.1 1.6.6 2.5-2.8 1.5-6.1 3-9.4 2.7-.7-3-1.1-5.8-1.8-9-.8-3.6-4.4-16.3-4.9-20.6-1.2-2.3-1-5.3-2-7.8.2-1.6-.1-2.5-.7-3.9-1-.6-2.7-.6-3.9 0-.4 4.2-1.3 10.4-1.7 14.4-.3 2.8.1 5.7-.3 8.5-.2 1.3-.6 2.6-.7 3.9-.5 4.4-.8 9-1.4 12.7-1.5.3-9.7.3-12.3-.3-.5-.8.3-11.5.5-13.3zm15.8-44.9c-.8 1.1-2.3 7.9-1.8 13 1.6-.4 3 .4 4.4-.3.1-.6-.2-4.4-.3-6.1-.1-1.1-.4-3.4-.4-3.7-.2-1.4.3-3.1-1.6-3.1 0 .1-.1.2-.3.2z"/><path d="m357.3 34.8c3.1-.8 7.2-.7 10.9-.8-1.1 4.8-1 9.9-1.4 14.6-.2 2.6-.2 4.9-.3 7.6 0 3.8.4 7.5.8 11.8.2.3.6.4.9.5 1-.6 1.2-2 1.8-3 2.1-1.8 3.2-4.6 5.2-6.5 0-.7 9.6-15.2 12-18.5.5.5 1 1.1 1.3 1.9 1.9.5 2.1 2.6 3.8 3.3 0 1 .8 1.1 1.1 1.6-.8 1.8-20.5 26.4-22.8 29.4-.9 1.8 1.1 3.3 2.2 4.5 1 1.2 1.7 2.6 2.8 3 .9 1.7 2.4 2.8 3.7 4.2s2.7 2.9 4.2 4.2c.7 1.5 2.2 2.1 2.9 3.6 1.3.4 1.7 1.8 2.8 2.4.3 1.2.9 1.9 1.8 2.5-.1 1.3-1.3 1.7-2.2 2.8-.2.2-.1.7-.3.9-.3.5-.9.6-1.3 1.1-.5.6-.4 1.4-1.6 1.3-.6-1.3-1.6-2.3-2-3.7-1.9-2-2.9-4.7-4.7-6.9-1.2-1.4-2.7-2.6-3.9-4-.3-.3-.5-.9-.8-1.2-.3-.4-.7-.6-1-.9-2-2.3-4-5-7.1-6.2-.4-.2-.1-1.1-.6-1.2-2.1 0-.6 16.8-.4 22.4.1 1.8.1 3.7.6 5.4-.9 1.1-2.8.8-4.2.7-1.8-.1-4.1.7-6.2.1 0-.1 0-.2 0-.3.7-3.6-.1-8.5.4-12.7.1-.7.4-1.4.5-2.1.3-2.7-.1-5.2-.1-7.7 1-3.3 0-6.9.9-9.9-.1-.4-.1-.8-.4-1.1.6-7 .6-13.2.9-18.7 0-.7-.1-1.5-.1-2.1 0-1 .3-1.7.1-2.6-.1-.7-.5-1.5.1-2.5-.2-3.1-.2-5.6-.3-8.3-.1-2 .4-4.4.3-6.6-.1-.8-.4-1.4-.3-2.3z"/><path d="m105.1 35.7c1.8-.6 4 .6 5.8.6.4 0 .4-.4.7-.6 1.1.5 2.4.9 3.7 1.3.7.8-.4 20.3-.6 23.4-.2 4 1 31.5 1.3 33.1.3 2-.1 4.1 1.1 5.9 5.7-.9 15-.1 21.1-1.1.8 1.7 0 4.1-.1 6.3s.3 4.7-.4 6.5c-.4.6-1 0-1.4 0-4.3-.2-8.4.2-12.3.3-5.6.1-11.9 1-17.5.4.5-2.6 0-5.3.4-7.9.2-1.1.3-11.2.1-12.1-.6-3.9-.7-12.7-.7-13.1 0-.8-.8-22.7-.8-23.5-.4-6.2-.4-12.8-.4-19.5z"/><path d="m176.4 65.1c2.7.2 4 2.3 6.5 2.3.8 1.7 3.8 1.1 4.1 3.3-2.3 4-5.1 11-5.3 15.8-.3 5.4 5.2 13.9 15.5 8.8 1.9-1 3.5-2.6 4.9-3.6 3-4.4 4.5-20.9 3.8-24.1-1-1.8-2-3.7-3-5.5-6.1-7.1-16.5-9.8-23-16.5-1.8-2.6-3.4-5.5-4.8-8.5-.1-2.2-1.2-5.8-1.1-8.6.7-.5.3-1.3.3-2.2.1-2.6 1.4-4.7 1.6-7.9 1.4-1.7 2.1-4.2 3.8-5.6 0-.7.5-.8.4-1.6 2.3-2.6 4.6-5.3 7.6-7.2.8-.2 1.5-.3 1.8-1 4.1-.6 8.7-1.7 12.3.7 3.1.5 6.1 2.2 7.6 4.7 1-.2 1 .7 1.6 1-2.3 2.4-3.2 6.3-5.5 8.6-4.3-1.6-8.6-5.1-13.3-3.6-1.9 1.5-4.1 3.5-5.2 6-1.1 2.6-1.1 6.7-.6 9.6.4 1.7 1.3 3.4 2.7 4.3 1.4 3.1 4.3 4.8 7.3 6.3.1.4.4.5.4.9 3.2 1.6 6.3 3 9 5 1.7 1.2 3 3 4.9 3.9 2.7 3.1 6.7 4.9 8.2 9.3.1.5.6.6.8 1 .6 2.3.6 4 1.6 5.9.5 6.9-1.1 15.1-3.1 20.6-1 2.8-2.5 5.2-3.5 8.1-.7.2-.8 1-1.4 1.3-1.4 3.4-4 5.6-5.9 8.5-.9.4-1.5 1.2-2.1 2-1.6.6-3.2 2.1-5.1 2-1.1 1.5-4.4.8-5.5 2.3-2.6.4-7.3.7-9.6-.4-.6-.3-1.1-.8-1.7-1-7.1-2.9-18.6-13.7-15.6-27.2.3-1.4 1-2.6 1.1-4.2 2.1-4.8 4.1-9.9 7.5-13.5z"/><path d="m237.7 55c-.2-7.2.4-14-.1-20.5 3.7-.1 7.7.1 12 .3-.2 1.4-1.7 13.1-1.6 15 0 1.6-.2 3.4 1.1 4.4 3.2-.6 6.4.6 10.2.5-.1 2.9-.9 5.6-.6 9.2-.4.4-1.5.1-1.9.5-1.5-.9-8.5-1.3-9.4.5.2 4.9.6 18.8.8 20.9.5 5.6 1.1 11.9 3.9 16.2 1.2 0 1.8.9 2.9.9s2.8-1.2 3.8-1.9c1.7-1.3 3.3-3.3 4.2-4.3 1 .3.9 1.6 1.3 2.8.3 1 1.8 3 1.6 4.3-.1.6-1.2 1.2-1.9 1.9-.8.7-1.2 1.6-1.8 2-.7.6-2.3 1.5-3.7 2.3-2.5 1.4-6.4 2.5-9.4 1.9-2.1-.4-3.4-1.9-4.8-3-8.5-5.8-6.7-39.4-6.7-41.4 0-.8.4-1.6-.1-2.3-.9-.2-1 .1-1.6.4-2.6.1-4.6.5-7 1-1-.8-1.7-10.4-1.6-11.5 1.8-.2 3.6-.2 5.5 0 1.6 0 3.4 1.3 4.9-.1z"/><path d="m344.1 45.6c-1.6 1.2-2.8 2.2-4.4 3.8-.7.7-1.6 2.1-2.3 2.2-.8.1-1.5-.8-2.2-1-3.1-.9-4.2.9-5.2 2.7-1 1.7-2 3.2-2.8 5.3-1.2 7.7-2.5 15.8-2 24.6.1 1.8-.1 3.6.1 4.9.1.5.4 1 .5 1.5.5 3 .9 5.7 2.5 7.6.9 1.1 3.8 2.9 5.3 2.5 1.1-.2 2.4-1.4 3.4-2.3 2.8-2.5 4.9-6.7 7.6-9.1 1 .7 1.8 1.6 2.5 2.7.6.9 1.8 2.4 1.8 3.3 0 1.4-2 3.4-2.9 4.6-1.2 1.6-1.7 3.1-2.9 4.6-1.8 2.2-4.2 3.6-5.5 5.6-2.6 1.9-6.6 4.2-10.4 2-2.2-1.2-20.1-11.5-7.2-58.7 1.1-2.6 2.3-5.4 3.8-8.2 1.3-2.4 3.4-3.9 5.1-6.1 1.9-.9 3.7-1.5 6.6-1.1 1.9.2 4.2 1.8 4.9 2.9.3.4.2 1 .5 1.4.4.7 1.3 1.2 1.8 1.9.7.6 1 1.5 1.4 2.4z"/><path d="m365.7 101.6c.6.1-.1.8.5.9-.1.4-.1.9-.3 1.3-.3-.5 0-1.7-.2-2.2z"/><path d="m365.9 106.2c-.3-.7.1-1.3-.1-2.1.6.3.1 1.6.1 2.1z"/></g><path d="m52.8 79.8c0-1.1-.1-2.2-.2-3.4 0-.4 0-.7.2-1h-18c0 .4 0 .8-.2 1.1.2.3.4.5.5.9.4.9.1 1.7-.5 2.3h18.2z" fill="#d72027"/><path d="m76.8 77.7c-.5-.6-.5-1.5-.2-2.2h-14.3c0 1.4.1 2.9.1 4.3h14.1c-.2-.7-.2-1.5.3-2.1z" fill="#d72027"/><path d="m96 79.8c-.4-1-.7-1.9-1-3-.1-.5-.1-1 .1-1.4h-15.1c.3.7.3 1.6-.2 2.2.4.6.5 1.4.2 2.1h16z" fill="#d72027"/><path d="m185.2 77.3c.1-.4.2-.7.3-1.1 0-.2.1-.3.2-.5 0-.1 0-.1.1-.2h-17.1c-.3 1.5-.9 2.9-1.5 4.3h16.8c-.5-1 0-2.2 1.2-2.5z" fill="#2e4b9f"/><path d="m221.2 79.8c.1-.5.1-1 .2-1.5 0-.6.3-1.1.6-1.4 0-.5 0-.9 0-1.4h-17.5c.4 1.3.6 2.8.6 4.3z" fill="#2e4b9f"/><path d="m249.1 75.5h-14.3v.3 4h14.4c.1-1.4 0-2.9-.1-4.3z" fill="#2e4b9f"/><path d="m286.4 79.8c0-1 .1-1.9.1-2.9 0-.5.2-1 .6-1.4h-14.2c-.2 1.1-.6 2.2-1 3.2.1.3.2.7.1 1.1z" fill="#2e4b9f"/><path d="m305.7 79.8c-.4-1.4-.7-2.8-.9-4.3h-15c.4.4.6.9.6 1.4 0 1-.1 1.9-.1 2.9z" fill="#2e4b9f"/><path d="m327.8 78.2c-1.2-.3-1.6-1.7-1.1-2.7h-12.8c.3 1.4.4 2.9.6 4.3h12.5c.1-.7.4-1.2.8-1.6z" fill="#2e4b9f"/><path d="m354.9 79.8h18.2c-.1-.5 0-1.1.3-1.6-.8-.7-.7-1.9-.1-2.7h-18.5c1.1 1.3 1.5 3 .1 4.3z" fill="#2e4b9f"/><path d="m154.4 79.8c-.1-1.2-.2-2.5-.2-3.7 0-.2 0-.4.1-.6h-10.3c.4.6.4 1.4 0 2 .4.6.6 1.5.2 2.3z" fill="#d72027"/><path d="m117.8 77.5c-.3-.6-.4-1.3-.1-1.9h-14.1c.2 1.4.1 2.9-.2 4.3h13c-.2-1.1.3-2.2 1.4-2.4z" fill="#d72027"/><path d="m20.1 79.8c-.1-1.2-.1-2.3-.1-3.5 0-.3.1-.6.2-.8h-15.6c.5 1.4.5 2.9 0 4.3z" fill="#d72027"/><path d="m5.2 111.9v.1h15.8c.2-1.4.3-2.9.3-4.3h-16.7c.5.4.8.9.7 1.5-.1 1-.1 1.9-.1 2.7z" fill="#d72027"/><path d="m54.1 111.9c0-1-.4-1.9-.3-2.9 0-.5.1-.9.2-1.2h-16.3c.1 1.4.1 2.9.1 4.3h16.2c.1-.1.1-.1.1-.2z" fill="#d72027"/><path d="m73 112.1c0-1.4.1-2.9.3-4.3h-14.6c.4 1.4.3 2.8.3 4.3z" fill="#d72027"/><path d="m100.1 109.2c-.5-.3-.7-.8-.8-1.4h-13.3c.2 1.4.5 2.9.8 4.3h14c-1.1-.6-1.3-2-.7-2.9z" fill="#d72027"/><path d="m139 112.1c-.1-1.4-.1-2.8.1-4.2 0 0 0 0 0-.1h-33.6c.4.8.3 1.9-.4 2.5.3.5.4 1.2.2 1.8z" fill="#d72027"/><path d="m156.4 109.4c0-.5 0-1.1 0-1.6h-12.2c0 1.4 0 2.9-.1 4.3h12.2c.1-.9.1-1.8.1-2.7z" fill="#d72027"/><path d="m196 111.2c1.5-.5 3-1.1 4.5-1.6 1.3-.4 2.6-.7 3.8-1.3.1-.1.3-.1.4-.2 0-.1.1-.2.1-.3h-27.2c.2.1.3.3.4.5s.2.5.3.7c.2 0 .4 0 .6.1.9.4 1.8.6 2.8.8.7.1 1.2.8 1.4 1.5.1 0 .2.1.3.1.4.1.7.3.9.6h9c1-.3 1.9-.6 2.7-.9z" fill="#2e4b9f"/><path d="m257.2 110.8c1.6-1.2 3.4-2 5.1-3h-21.6c.1.1.1.1.2.2h.3c1.1 0 1.7.7 1.9 1.5.6.1 1.1.4 1.3.8.4.1.8.4 1 .7l.6.3c.6 0 1 .3 1.3.6.1 0 .3.1.4.2h6.4c1.1-.3 2.2-.6 3.1-1.3z" fill="#2e4b9f"/><path d="m283.2 110.8c0-.6.2-1 .5-1.3-.1-.3-.2-.5-.2-.8s.1-.6.2-.9h-14.9c.1.3.1.7.1 1.1 0 .2-.1.3-.1.5.6.3 1 1 1.1 1.7 0 .3.1.6.1.9h13.6c-.3-.3-.4-.7-.4-1.2z" fill="#2e4b9f"/><path d="m308.8 111.9c.5-.6 1.3-1 2.1-1.2h.1c0-.1-.1-.1-.1-.2-.2-.5-.5-.9-.5-1.4-.1-.5 0-.9.1-1.3h-14.5c.2.2.3.5.4.8.4 1.2.6 2.3.7 3.5h11.5c.1-.1.1-.1.2-.2z" fill="#2e4b9f"/><path d="m337.9 110c.2-.4.6-.8 1.1-.9.1-.5.3-1 .7-1.3h-16.6c1.7 1.3 2.9 3.1 4.6 4.3h7.5c.2-.3.5-.6.8-.8.3-.7.9-1.3 1.9-1.3z" fill="#2e4b9f"/><path d="m366.5 112.1c-.2-.8.1-1.7.8-2.2 0-.1-.1-.3-.1-.4-.1-.6 0-1.2.3-1.7h-13.7c0 1.4-.1 2.9-.2 4.3z" fill="#2e4b9f"/><path d="m20.7 99.4h-15.5v.6c-.2 1.2-.1 2.5-.1 3.7h15.9c-.1-1.4-.2-2.9-.3-4.3z" fill="#d72027"/><path d="m73.9 103.7c.3-1.4.5-2.9.8-4.3h-15.1c0 1.4 0 2.9-.1 4.3z" fill="#d72027"/><path d="m139.5 103.7c.2-1.4.4-2.7.3-4.1 0-.1 0-.1 0-.2h-34.3v.2c0 1.5-.1 2.8-.4 4.1z" fill="#d72027"/><path d="m266.3 100.2c-.4-.2-.7-.4-.9-.8h-6.2c-.2.6-.7 1-1.5 1.1-.7.6-1.4 1.1-2.4 1.5-.9.4-1.5.1-2-.5-.4-.2-.7-.5-.9-1-.5-.3-.7-.7-.9-1.2h-14c0 .5-.2 1.1-.6 1.4.1 1 .4 2 .7 2.9h28.5c-.4-.8-.2-1.9.5-2.5-.2-.1-.3-.5-.3-.9z" fill="#2e4b9f"/><path d="m283.9 103.7c0-.3.1-.6.2-.9.5-.9.3-2.2.4-3.2 0-.1 0-.1 0-.2h-14.5c.2.8 0 1.7-.6 2.2.4.6.5 1.5.2 2.1z" fill="#2e4b9f"/><path d="m308.7 101c-.1-.6 0-1.1.3-1.5h-13.7c.7 1.3.8 2.8.8 4.3h13.8c-.6-.9-1-1.8-1.2-2.8z" fill="#2e4b9f"/><path d="m343.6 103.7c1-1.6 2.5-2.9 3.8-4.3h-30.2c.5 1.5 1.2 2.9 2.2 4.2 0 0 .1.1.1.1z" fill="#2e4b9f"/><path d="m354.1 103.7h13c0-.3-.1-.6-.2-.9-.1-.4-.2-.7-.3-1.1 0 .1-.4-.6-.1-.2-.5-.6-.7-1.4-.4-2.1h-12.3v1c.4.4.6.9.6 1.4-.1.7-.2 1.3-.3 1.9z" fill="#2e4b9f"/><path d="m390.9 102.7c.4-.5.8-1 1.3-1.4-.1-.1-.2-.1-.3-.2-.6-.4-1-1.1-1-1.7h-13.5c.6.4 1.2.9 1.6 1.5.8.9 1.4 1.9 2.1 2.9h9.4c.1-.4.2-.8.4-1.1z" fill="#2e4b9f"/><path d="m213.3 99.4h-44.3c.5.8 1 1.6 1.9 2.1 1 .6 1.9 1.2 2.4 2.2h36.2c1.2-1.5 2.4-3 3.8-4.3z" fill="#2e4b9f"/><path d="m155.4 103.7c.1-1.4.1-2.9.1-4.3h-11.7v.2c.1 1.4-.1 2.7-.3 4.1z" fill="#d72027"/><path d="m98.8 99.4h-14.3v.4c0 1.4.2 2.7.6 4h14.6c-.4-1.5-.7-2.9-.9-4.4z" fill="#d72027"/><path d="m53.3 99.6c0-.1 0-.1 0-.2h-16.1c.1.8.2 1.7.2 2.6 0 .6 0 1.2.1 1.7h16.5c-.5-1.3-.8-2.6-.7-4.1z" fill="#d72027"/><path d="m20.6 91.4h-15.8v4.3h15.7c0-1.4 0-2.9.1-4.3z" fill="#d72027"/><path d="m74.6 92.9c0-.6.3-1.1.7-1.5h-14.8c-.1 1.4-.2 2.9-.5 4.3h14.3c.2-.9.4-1.9.3-2.8z" fill="#d72027"/><path d="m97.6 91.8c0-.2 0-.3.1-.5h-15.2c0 .1 0 .1.1.2.3 1.3 1 2.7 1.1 4.1h14.3c-.4-1.2-.4-2.6-.4-3.8z" fill="#d72027"/><path d="m117.8 93.6c-.3-.7-.2-1.6.3-2.2h-13.3c.1 1.4.2 2.8.5 4.2v.1h12.7c-.4-.7-.5-1.5-.2-2.1z" fill="#d72027"/><path d="m155.1 95.7c-.2-1.4-.4-2.8-.4-4.3 0 0 0 0 0-.1h-11.5c.2.4.4.8.4 1.2 1 .6 1.4 2.2.6 3.1h10.9z" fill="#d72027"/><path d="m215.6 94.9c.7-1 1.5-1.9 2-3 .1-.2.2-.4.4-.5h-17.2c-.1.2-.3.3-.5.4-2.5 1.6-4.7 3.2-7.7 3.3-.2.2-.4.4-.6.6h23.3c0-.3.1-.5.3-.8z" fill="#2e4b9f"/><path d="m250 95.7c-.1-.1-.1-.3-.1-.4-.3-1.3-.5-2.6-.6-3.9h-13v.5 3.9h13.7z" fill="#2e4b9f"/><path d="m285.9 91.4h-15.5v4.3h14.5c.1-1.6.2-3.1 1-4.3z" fill="#2e4b9f"/><path d="m308.4 93.4c-.1-.7-.2-1.3-.4-2h-14.8c0 .1.1.2.1.3.2.7 0 1.4-.4 1.8.1.8.2 1.5.4 2.2h15.4c0-.8-.1-1.6-.3-2.3z" fill="#2e4b9f"/><path d="m328.7 93.1c-.3-.3-.7-.6-.9-1-.2-.2-.3-.5-.3-.7h-11.2c.1.2.2.5.2.8 0 1.1.4 2.2.6 3.3v.1h11.8c-.7-.6-.7-1.7-.2-2.5z" fill="#2e4b9f"/><path d="m350.4 94.8c.1-.8-.2-1.7-.7-2.2-.4-.4-.6-.8-.6-1.2h-8.1c0 .5-.2 1-.5 1.4-.4.5-.9 1-1.4 1.4-.1.6-.3 1.2-.9 1.5h11.3c.2-.4.5-.7.9-.9z" fill="#2e4b9f"/><path d="m366.5 95.7c-.2-1.4-.2-2.8-.2-4.2v-.1h-12.6c.6 1.3.9 2.9.6 4.3z" fill="#2e4b9f"/><path d="m387.3 93.6c-.2 0-.4 0-.5 0-1.4 0-2-1.2-1.9-2.2h-12.9c.4.4.7.9.7 1.5.6 0 1.2.3 1.5.9.2.4.4.5.9.8.5.2.8.7.9 1.1h11.9c-.7-.4-.9-1.3-.6-2.1z" fill="#2e4b9f"/><path d="m167.9 95.7h22.5c-.1 0-.2-.1-.3-.2-1.6-1.1-3.6-1.3-5.1-2.5-.6-.5-1.1-1-1.4-1.7h-17.4c0 .6 0 1.2-.1 1.8 1.5.2 2.1 1.5 1.8 2.6z" fill="#2e4b9f"/><path d="m34.5 67.7c0 1.4.1 2.8.1 4.2h18.4c-.1-1.3 0-2.6-.2-3.8 0-.2 0-.3-.1-.5z" fill="#d72027"/><path d="m20 68.1c0-.2 0-.3.1-.5h-15.6v1.1 3.2h15.3c.2-1.2.2-2.5.2-3.8z" fill="#d72027"/><path d="m185.8 68.2c-.1-.2-.2-.4-.2-.6h-12.8c0 .3-.1.5-.3.8-.6.8-1.2 1.6-2 2.3-.2.4-.4.8-.5 1.2h16.9c.1-.6.4-1.2 1.1-1.5-.9-.6-1.6-1.3-2.2-2.2z" fill="#2e4b9f"/><path d="m222 72c0-1.3-.1-2.6-.1-4 0-.1 0-.2 0-.4h-17.6c.5 1.5.8 3 .5 4.3h17.2z" fill="#2e4b9f"/><path d="m34.6 63.6h17.7c-.1-1.4-.1-2.9-.1-4.3h-47.3c.1 1.4 0 2.9-.1 4.3h18.8c.1-.1.2-.2.3-.3 2-1.3 4.3-1.8 6.7-2 .2 0 .5 0 .7.1.5-1 1.8-1.2 2.7-.7 1 .6 1.2 1.7.7 2.7 0 .1 0 .2-.1.2z" fill="#d72027"/><path d="m220.1 60.1c-.2-.2-.3-.5-.3-.8h-21.8c.5.4 1 .8 1.4 1.1 1.2.9 2.3 1.9 3.1 3.2h19.2c-.2-1.3-.8-2.4-1.6-3.5z" fill="#2e4b9f"/><path d="m53.3 91.7c0-.1 0-.2 0-.3h-17.6c.1.6.1 1.2.3 1.8.2.9.4 1.7.5 2.6h16.9c-.1-1.4-.1-2.8-.1-4.1z" fill="#d72027"/><path d="m53.5 83.3h-18c.1 1.4.1 2.9 0 4.3h18.2v-4c0-.1-.1-.2-.2-.3z" fill="#d72027"/><path d="m75.4 85.1c0-.7.4-1.3.9-1.7 0 0 0 0 0-.1h-14.3c.2.5.2 1-.1 1.5-.4.8-.3 1.8-.2 2.8h13.7z" fill="#d72027"/><path d="m97.2 83.4h-17v.1c0 1.4.2 2.8.3 4.2h16.7c-.2-1.5-.2-2.9 0-4.3z" fill="#d72027"/><path d="m117.7 85.4c-.4-.6-.6-1.4-.3-2.1h-13.3c.1.2.1.4.1.7 0 .9.2 2.3.2 3.6h12.7c-.2-.7 0-1.6.6-2.2z" fill="#d72027"/><path d="m154.9 87.7c0-1 .1-2 .2-3-.1-.4-.1-.9-.2-1.3h-11.5c.5.8.3 1.9-.4 2.6.3.6.4 1.2.2 1.7z" fill="#d72027"/><path d="m183 83.3h-16.8c0 .3-.2.7-.3.9.4 1.1.5 2.2.5 3.4h16.1c-.1-1.5 0-2.8.5-4.3z" fill="#2e4b9f"/><path d="m249.6 86.5c-.1-1.1-.1-2.1-.1-3.2h-14.5c0 1.4 0 2.9.1 4.3h14.7c0-.1.1-.2.1-.4-.2-.1-.3-.4-.3-.7z" fill="#2e4b9f"/><path d="m285.5 87.7c.1-1.1.2-2.2.3-3.3 0-.4.1-.7.3-1h-13.9v.3c-.1 1.4-.1 2.7-.4 4z" fill="#2e4b9f"/><path d="m306.7 83.3h-15.5c.1.2.1.4.1.6.1 1.3.4 2.5.7 3.7h15.4c-.1-1.4-.3-2.8-.7-4.3z" fill="#2e4b9f"/><path d="m326.6 84.1c0-.3.1-.6.2-.8h-12.1c.1 1.4.1 2.9.1 4.3h13.6c-1.1-.6-1.8-1.6-1.8-3.5z" fill="#2e4b9f"/><path d="m379.9 87.7c-.3-.6-.4-1.2-.1-1.8-.2 0-.4 0-.5-.1-1.4-.1-2-1.4-1.9-2.5h-22.6c.5.7.8 1.7.6 3-.1.5-.2 1-.5 1.3h10c-.1-1.1.5-2.2 1.9-2.2s2 1.2 1.9 2.2h11.2z" fill="#2e4b9f"/><path d="m220.3 83.4h-15.7c-.2.7-.4 1.3-.7 1.9.1.5 0 .9-.2 1.4-.2.3-.4.7-.6 1h16.3c.1-1.5.5-2.9.9-4.3z" fill="#2e4b9f"/><path d="m21.3 87.7c-.3-1.4-.5-2.8-.6-4.2v-.1h-16.4c.7 1.3.9 2.9.6 4.3z" fill="#d72027"/><path d="m35.2 1.9c.2 0-.2-.7.1-.8 6 .2 11.3-.3 16.6.6-.1 2.1 1.7 79.1 1.7 80.4 0 1.9.5 3.7.1 5.6-.3 2 .3 3.9.3 5.9s-.2 4-.1 6.2c0 .9.3 1.8.3 2.7.1 3.1-.1 6.9.3 9.8 0 .7-4.6.3-7.1.3-.9 0-1.8.5-2.8.6-.6.1-1.3-.1-1.8 0-1.7.3-3.3 1.6-5.4 1-1-1.5-.5-3.2-.7-4.9-.5-4.1-1.2-8.2-1.3-12.7-.1-3.5-.7-7.3-1-10.6-.2-2.1.1-4.4-.1-6.5-.1-.8-.6-5.9-.8-7.5-.1-.9-.9-8.8-.4-10.7-3.8 1-7.5 2.7-12 3.4-.1.9-.1 2.3-.7 3.1.5 1.3-.1 2.9-.1 4.4 0 .4.4.8.4 1.1 0 .4-.1 1.1-.1 1.6 0 2.1-.1 4.5.1 7 .1 1.3.6 2.8.6 4.1 0 .8-.1 1.8 0 3 0 .7-.2 1.3-.1 2 .1 2.4.6 4.7.6 7.2 0 1.3-.2 2.6-.3 3.9-.1 2.6.4 7.7-.3 10.8-5.3 1.1-10.2 1.4-15.2 2.5-.8-1.2-.7-2.4-.8-4.1-.4-3.9-.6-10.7-.6-14.9 0-1.8-.4-9.5-.4-11.3 0-1.7-.4-3.1-.3-4.8.3-4.2-1.3-37.4-1.3-44.3 0-1.9-.5-8-.6-9-.1-1.4-.8-12.7-.8-16.8-.1-2.7-1-6 .1-8 6.5-.7 11.8-.6 18.2-.6.9 1.2.5 2.5.6 3.8.1 3.9.1 8 .4 12.1.3 3.2.9 21.5 1.4 27.2.1.6-.4 5.3-.1 7.2 4.1-.2 7.3-1.9 12.3-2.1.1-3.7-.2-13.4-.1-13.8 0-.7-.1-8.1-.3-10.3-.4-4.6-.2-9.3 0-14.5.1-2.9-.1-5.8.1-8.7.3-.2.9-1 1.4-.6zm-22.1 1c-3.3-.8-6.9 0-10.4.3 0 .1-.1.2-.1.3.3 2.2.8 5.5.8 7.5 0 .9-.3 1.9-.3 2.8.2 4.5 1.2 8.9 1.4 13.4.1 1.3-.1 2.8 0 4.1.1.5.4 1 .4 1.6.1 2.2-.4 4.5-.3 6.8.1 2.5.5 5.4.6 8 0 1.2-.3 2.6-.1 3.7.1.4.4.8.4 1.3.2 3.2.3 6.8.4 9.4.1 2.7-.2 5.7.1 8.6.1.6.1 2.8.1 3.4.1 3.3.6 7-.1 10 1.1 9-.2 20 .8 29.4 2.9-.4 5.8-1 8.6-1.6 1.7-.3 3.3-.7 4.8-.7-.4-10 .6-21.8-.8-29-.5-2.4-.1-5.5-.1-8.5-.1-3.7-.2-6.9.8-10.4 3.2-.8 7.7-2.4 11.3-3.7 1.6-.6 3.8-1.9 4.5-.7.4 3.6-.3 7.7.7 11.6-.5.9-.4 2-.3 3.1.6 4.1 1.8 17.1 1.8 17.6 0 1.7.1 3.8.3 5.5.1.7.4 15.1 1.1 16.1 1 .3 1.9-.3 2.8-.4 3.1-.5 6.3-.6 10-.4.3-6.2-1.7-13-1.6-20 0-1.3.1-2.3 0-3.5-.3-4.8.1-8.9.1-13.4 0-2-.4-3.9-.3-5.8.1-1-.9-30.3-1.1-34.1 0-.4-.1-.8-.1-1.3-.1-11.1-.8-21.1 0-31.6-4.3-.5-9.5-.1-14-.1 1.2 2.5 1.4 8.5.8 11.6.7 1.8.1 2.8.1 4.7.1 2.8-.1 5.5.1 8.9.2 3.2.5 12.3.3 14.5-.2 1.9.2 4.1-.1 5.6-.3 1.2-1.1 2.1-1 3.7-2.7.8-5.5 1.6-8.6 2.3-2.5.5-5.6.1-7.5 1-1.6-1.9-1.1-4.3-1.1-6.9 0-3.3-.9-6.7-.6-10 .2-1.6.1-3 0-4.7-.2-3.7-.1-7.5-.4-11-.1-.8-.4-1.5-.4-2.3s-.1-1.5 0-2.4c.2-3.4-.4-6.7-.1-10 .1-1.4.6-2.8.6-4.2-1.4-.6-2.9-.6-4.3-.1z" fill="#000" fill-rule="nonzero"/><path d="m69 35c2.2-.2 4.6-.7 7-.7 1.9 0 4.1.3 5.8 0 .5-.1.9-.5 1.4-.6 1.1-.2 2.4-.1 3.5-.3.7-.1 1.4-.3 2.1-.4.3 1.4 1.5 3.2.7 4.8 1.1 4.2 2.4 13.1 2.4 13.5 1.1 1.2 8.2 53.5 8.2 57 .7 1.2 1 2.1 1.1 3.5-3.8 2.1-8.7 3.1-13.4 3.7-1.8-3.7-3.1-8.2-3.8-13.1-.6-4-2.3-7.4-2.7-11.4-1.2-2.7-2.6-14.2-3.4-17.5-2 2.9-.7 8.8-2.3 12.4.1 10.1-1.9 18.4-2.4 27.1-2.8.7-6.1-.1-9.4 0-1.4 0-3.5-.1-5.5 0-.2 0-.2-.1-.4-.1.6-5.6 1.1-10.9 1.8-16.4.2-1.7-.2-3.6.7-5.4 1.2-12.4 2.9-25.7 5.4-38.5.3-1.6.3-3.1.6-4.7.8-4.3 1.7-8.7 2.6-12.9zm-9.1 76.7c2.5.6 10.7.5 12.3.3.6-3.7 1-8.3 1.4-12.7.1-1.3.5-2.6.7-3.9.3-2.8 0-5.7.3-8.5.4-4 1.3-10.2 1.7-14.4 1.2-.6 2.9-.6 3.9 0 .6 1.5.9 2.4.7 3.9 1 2.5.8 5.4 2 7.8.6 4.3 4.2 17 4.9 20.6.7 3.3 1.2 6 1.8 9 3.3.3 6.7-1.2 9.4-2.7.5-.9-.3-1.7-.6-2.5-.6-2.2-.3-4.9-1.3-7-.1-1.8-6.9-40.9-7.8-45.4-.6-3-1.4-6.1-1.7-9.3-1.3-3.6-.7-8.5-2.1-11.7-1.8-.3-3.7.7-5.8.8-3.8.3-7.6-.7-10.2 1-.2 2.7-1.2 5.3-1.6 7.9-1.7 12.6-4.3 24.3-5.2 37.4-.8 3-1.1 7.6-1.6 11-.1.9-.5 2-.4 2.7.1.9-.2 1.5-.3 2.4.1 1.7-.7 12.4-.5 13.3z" fill="#000" fill-rule="nonzero"/><path d="m76.8 53.2c1.8 0 1.4 1.7 1.6 3.1 0 .2.4 2.6.4 3.7.1 1.7.4 5.4.3 6.1-1.4.7-2.8-.1-4.4.3-.7-4.1 1-11.9 1.8-13 .2 0 .3-.1.3-.2zm-1.3 11.9c.5.2 1.6.2 2.4.1.5-1.6-.1-7.2-.8-8.8-1.2.9-1.1 7.3-1.6 8.7z" fill="#000" fill-rule="nonzero"/><path d="m102.5 33.3c5.1.3 10.2 1.4 15.1 2 .1.5.5.6.8.8-.5 1.8-.1 3.9-.6 5.5.3 3.6.5 7.7.3 11.6-.1 3-.3 43 .9 44.6 1.3-.3 4.9.1 6.8.3 5.2.4 9.5-.8 14.4-.4.3 2.9-.2 5.1 0 7.9 0 .5-.3.6-.6.8.9 1.4-.1 2.8 0 3.9.1.8.7 1 .6 1.8-1.7.6-3.7.4-5.6.3-4.8-.2-9.9.3-14.8.6-2.5.1-5.2-.5-7.5.6-1.3-.7-3.3-.1-5.4-.6-.8.3-1 .7-2.1.4.3-7.8-.6-22.1-.8-23.8-.4-3.2-2.1-50.3-1.5-56.3zm3.1 21.9c.1.8.8 22.7.8 23.5 0 .4.1 9.2.7 13.1.1.9 0 11.1-.1 12.1-.4 2.6.1 5.3-.4 7.9 5.6.6 11.8-.3 17.5-.4 3.8-.1 7.9-.5 12.3-.3.4 0 1 .6 1.4 0 .7-1.8.3-4.2.4-6.5s1-4.7.1-6.3c-6.1 1-15.5.2-21.1 1.1-1.2-1.8-.8-3.9-1.1-5.9-.2-1.7-.3-4.1-.4-5.5 0-.6-1-23.6-.8-27.6.1-3.1 1.2-22.7.6-23.4-1.2-.4-2.5-.8-3.7-1.3-.3.1-.3.5-.7.6-1.8 0-3.9-1.1-5.8-.6-.2 6.7-.2 13.3.3 19.5z" fill="#000" fill-rule="nonzero"/><path d="m175.7 62.9c.8 0 1.2.9 1.8 1.3 1.7.9 4.1 1.2 5.9 2.2.9.5 1.3 1.6 2.7 1.3.5 1 2.2.9 2.4 2 .3 1.2-.9 1.7-1.7 2.6-1.3 3.5-3.2 9.2-4.1 13.5-.3 5 5.9 14.8 17.2 6.2 3.7-3.6 3.8-8.4 4.4-10.8-.2-1.7 1.6-12.1-3.4-17.7-2.9-4-7.6-7.1-12.2-9.7-.9-.5-1.8-1.4-2.7-1.9-2.9-1.7-5.6-2.6-7.9-4.9-2.1-2.2-3.9-4.2-5.4-7.5-.6-3.2-1.7-5.4-1.4-9.5.3-4.3 1.4-8.9 3-12.5.6-1.5 1.7-2.6 2.5-3.9.2-.4.2-.9.4-1.3.8-1.3 2.1-2.8 3.2-4 2.5-2.6 4.1-4.7 7.6-5.9 1-1 3.3-1.3 4.8-1.3 2.4-1.3 7.1-.2 10 1 3.7 1.6 7.2 4.2 9.4 6.5-.1.8.1 1.2.3 1.7-1.3 3.6-4 6-4.7 9.7-1.4 1.6-2.2.6-3.6.2-1.6-2-4.8-2.4-6.8-4-2.1-.4-3.3-.6-4.9-.4-1 .7-2.3 1.5-3.1 2.6-.1.1-.7 1.1-.7 1.2-.7 1.3-1.1 3.5-1.3 4.6-.2 1.3.2 2.4-.4 3.9 2 8.4 9.5 12.4 16.8 15.8.8 1.8 3.3 1.7 3.9 3.6 4 2 6.7 5.4 10.1 7.9 1.4 3.2 4 6 3.9 10.2.1.3.4.6.6 1 .7 2.2-.1 6-.3 7.9-.2 2.3-.1 5.1-.8 7.3-.2.5-3.9 15.8-13.1 24.3-.5 0-.5.4-1 .4-.4.6-1 1-1.3 1.7-3.4 2.1-7.7 3.3-11.7 4.7-2.6-.3-5.1.2-7.8-.1-6.2-.7-26-12.4-20-33.5 1.3-4.3 2.4-6.2 4.2-10.1 2.1-1.9 3-4.8 5.2-6.3zm-6.7 15.8c-.1 1.6-.7 2.8-1.1 4.2-2.4 7.4 2.7 21.8 17.3 28.2 2.4 1 7 .8 9.6.4 1.1-1.5 4.4-.8 5.5-2.3 1.8 0 3.4-1.4 5.1-2 .6-.8 1.2-1.6 2.1-2 1.9-2.9 4.5-5.1 5.9-8.5.6-.3.7-1.1 1.4-1.3 1-2.9 2.5-5.2 3.5-8.1 2-5.4 3.6-13.7 3.1-20.6-.9-1.9-1-3.6-1.6-5.9-.2-.4-.7-.5-.8-1-1.4-4.4-5.4-6.2-8.2-9.3-2-.8-3.2-2.7-4.9-3.9-2.8-2-5.8-3.4-9-5 0-.4-.4-.5-.4-.9-3-1.6-5.9-3.2-7.3-6.3-1.4-1-2.3-2.6-2.7-4.3-.6-2.9-.6-7.1.6-9.6 1.1-2.6 3.3-4.5 5.2-6 4.7-1.5 8.9 2 13.3 3.6 2.3-2.4 3.2-6.2 5.5-8.6-.5-.3-.5-1.2-1.6-1-1.5-2.6-4.6-4.2-7.6-4.7-3.5-2.4-8.1-1.3-12.3-.7-.3.7-1.1.8-1.8 1-3.1 1.9-5.3 4.6-7.6 7.2.1.8-.5.9-.4 1.6-1.7 1.4-2.4 3.9-3.8 5.6-.1 3.2-1.5 5.3-1.6 7.9 0 .9.4 1.7-.3 2.2-.1 2.9 1.1 6.5 1.1 8.6 1.4 3 3 5.9 4.8 8.5 6.5 6.7 16.8 9.5 23 16.5 1 1.8 2 3.6 3 5.5 3.5 14.8-3.3 22.9-3.8 24.1-1.5 1-3 2.6-4.9 3.6-10.3 5.2-15.8-3.3-15.5-8.8.3-4.8 3.1-11.7 5.3-15.8-.3-2.2-3.3-1.6-4.1-3.3-2.5 0-3.8-2.1-6.5-2.3-3.5 3.5-5.5 8.6-7.5 13.5z" fill="#000" fill-rule="nonzero"/><path d="m235.1 54.6c.9-1 .3-2.7.3-4 0-1 0-1.8-.1-2.9-.4-2.9.5-5.4.3-8.7-.1-1.2-.4-2.4-.3-3.6.4-.7 1-1.3 1.4-2 4.9-.2 10.3.4 14.9.3.1 1.6-.9 16.4-1.6 19.3 3.7.5 7.4.6 11.1 1.3 0 3.3-.1 7.8-.9 11.5-3.7.9-6.6-1.3-10.1-.4-.5 1.1-.1 3.4.1 5.7.1.7-.1 3.3-.1 3.9 0 1.3-1.3 26 4.5 27.2 1.5.3 2.4-1.6 3.9-1.9 1.9-1.9 3.4-4.2 5.9-5.5.5 1 .7 2.1 1.3 3.3.3.7.5 1.8.9 2.8.8 2.1 1.6 2.5-.1 4.2-1.7 1.6-3.6 3.8-5.8 5-.8.4-1.6.8-2.4 1.4-.7.5-3.7 1.1-4.8 1.3-.5.1-.8.5-1.1.5-1.5.1-3.6-.4-4.5-.8-2-.7-3.3-2.1-5.3-2.9-8.1-3.3-7.4-26.2-7.4-27.4-.1-4.9-.8-10.3 0-15.2-2.2-.5-5.2 1-7.2.5-.4.4-.9.7-1.8.6-.8-3-.6-7.4-1-10.9-.1-1.2 0-2.1.9-2.8 3-.4 6.6-.3 9 .2zm-2.6.4c-2-.2-3.8-.2-5.5 0-.1 1.1.7 10.7 1.6 11.5 2.4-.5 4.4-.9 7-1 .6-.3.8-.6 1.6-.4.6.6.1 1.5.1 2.3 0 2.1-2 36.8 6.7 41.4 1.4 1.1 2.7 2.6 4.8 3 3 .6 6.9-.5 9.4-1.9 1.4-.8 3-1.7 3.7-2.3.5-.4 1-1.3 1.8-2 .7-.7 1.8-1.2 1.9-1.9.2-1.3-1.3-3.2-1.6-4.3-.4-1.2-.2-2.5-1.3-2.8-.9 1-2.4 2.9-4.2 4.3-.9.7-2.7 1.9-3.8 1.9s-1.7-.9-2.9-.9c-2.8-4.4-3.4-10.6-3.9-16.2-.2-2-.5-16-.8-20.9.9-1.8 7.9-1.4 9.4-.5.4-.4 1.5-.1 1.9-.5-.2-3.6.5-6.2.6-9.2-3.8.1-7-1.1-10.2-.5-1.3-1-1.1-2.8-1.1-4.4 0-1.9 1.5-13.6 1.6-15-4.2-.1-8.3-.3-12-.3.5 6.5 0 13.3.1 20.5-1.2 1.5-3 .2-4.9.1z" fill="#000" fill-rule="nonzero"/><path d="m345.3 46.8c-2.8 1.5-4.8 3.7-6.8 6-1.6-.3-3.1-1.2-4.7-1.5-.8.2-1.1.9-1.9 1.1-.2 1-.6 1.9-1.4 2.4-1.2 3.3-1.4 6.9-2.3 10.4.1 1.2-.3 3.1-.1 4.8-1.2 5 .1 10.6.5 16.2 0 .6-.2 1.1-.1 1.6 0 .3.3.6.4.9.1.6-.1 1.3 0 1.9.3 3 1.6 6.3 2.9 8 1.7.4 3.5-.8 4.9-2 .5-.4 1.1-.9 1.5-1.4.8-.8 1-2 1.6-2.8.5-.7 1.6-1.8 2.3-2.7.1-.2.2-.4.4-.5.4-.4 1.7-2.1 2.4-2.2.9 0 2.7 2.3 3.3 2.9 1.1 1.3 1.8 2.3 2.5 3.6-.4 1.7-1.1 3.2-2.3 4.1-.5 1.6-1.5 2.7-2.7 3.7-1 2.6-2.7 4.5-4.8 6.1-1.1 1.4-2.1 2.5-3.7 3.6-1 .7-1.9 1.3-3.2 1.6-1.7.5-3.4.5-5.3-.1-2.3-.8-4.6-1.9-6.2-3.4-.5-.4-.9-1.3-1.4-1.9-.8-1-1.1-1.3-1.6-2.4-.1-.3-.5-.4-.6-.6-1-2-1.2-3.9-2.3-5.7-1.6-6.6-3.3-13.6-2.9-21.3.1-2.8.1-5.8.3-8.5.1-2.1.5-4.1 1-5.8.7-2.1.8-4.7 1.5-7 .6-2 1.4-4.9 2.7-6.3 1.6-4.8 5.1-8.7 8.4-12.2.9-.6 1.9-1.1 2.8-1.6.7.4 1.2-.3 1.8-.4.7-.1 2.5 0 3.4.1 1.8.2 2.9 1.2 4.3 2.3.7.6 1.6 1.2 2 1.8.2.3.2.7.4 1 .8 1 2.1 1.9 2.8 3 .1.2.9 1.7.9 1.9-.1.5-.8.9-.7 1.3zm-2.4-3.8c-.5-.7-1.3-1.2-1.8-1.9-.3-.4-.2-1-.5-1.4-.7-1.1-3.1-2.7-4.9-2.9-2.9-.3-4.7.3-6.6 1.1-1.6 2.1-3.8 3.6-5.1 6.1-8.4 16.3-10.9 42.4-2.9 59.8 1.2 2.6 4.1 5.9 6.3 7.2 3.8 2.1 7.8-.2 10.4-2 1.2-2 3.7-3.4 5.5-5.6 1.2-1.5 1.7-3 2.9-4.6.9-1.2 2.9-3.2 2.9-4.6 0-.9-1.2-2.4-1.8-3.3-.7-1.1-1.6-2-2.5-2.7-2.7 2.4-4.8 6.6-7.6 9.1-1 .9-2.3 2.1-3.4 2.3-1.6.3-4.4-1.5-5.3-2.5-1.6-1.9-2-4.6-2.5-7.6-.1-.5-.4-1-.5-1.5-.2-1.3 0-3.2-.1-4.9-.5-8.8.8-16.9 2-24.6.8-2.1 1.8-3.6 2.8-5.3s2.1-3.6 5.2-2.7c.7.2 1.3 1.1 2.2 1 .7-.1 1.6-1.5 2.3-2.2 1.6-1.6 2.8-2.6 4.4-3.8-.6-.8-.9-1.7-1.4-2.5z" fill="#000" fill-rule="nonzero"/><path d="m166.3 38.4c-1.1 2.4-3.1 3.8-4.4 6-1.7.1-2.4-.9-3.7-1.2-3.4 1.7-2.9 7.1-2.7 11 1.4 3.2 8.6.9 11 2.7-1.2 5-1.2 8.7-1.6 13.7-1 .8-2 .1-3.1 0-2.3-.3-4.6-.1-6.9-.4-1.4 2.4.6 7.8-.3 11 .6.9.5 6.8.7 8.2.1.5 1.7 23.2.7 24.1-1.2.1-6.1.2-7.5.3-1 0-4-.8-4.8-.2-.2.5 0-2.3-.3-4.7-.1-.8-1-30.6-1-31.5 0-1.3-.4-2.5-.3-3.9.1-1.3.3-3.2 0-4.6-4.9-.4-9.9 1-15.5.8-.8-3.7-.4-7.3-.3-10.9 0-1.5-.5-3.8 1.1-4.4 1.2-.4 4.3 0 5.2.1 1.5.1 3.2-.2 4.8-.1 2.3.1 4.7 1.2 5.8-1-.7-2.4-.4-5-.1-7.6.1-1.4.7-5.1 1-6 1-3.8 3.5-5.9 6.1-8.3 1.2.3 1.9-.6 3-.7 3.3-.2 6.8 1.4 9.3 3.1 1.9 1.2 2.8 3 3.8 4.5zm-37.8 22.6c.5 1.7-.3 4.4.7 6.3 1.4 2 4.5.9 8.2.7 2.9-.1 4.9-.3 6.8-.7.3.2.3.6.7.7.7 5 .5 11 0 15.2.7 4.8.9 9.5 1.1 15.2.1 2.4-.3 4.9-.1 7.3.1 2.2.9 4.3.3 6.7 2 1 6.7.1 7.6-.1-.6-6.8-.1-15.5-.6-21.8 0-.6-.2-1.5-.3-2-.5-2.4-.7-5.1-.8-7.6 0-.8.2-1.6.1-2.4-.3-3.2-1.1-7.4.6-9.1 4.1-.3 6.8.5 10.6.3-.2-4.5.6-8.1 1.3-12.4-4.4.1-7.1-.4-11.3-.8-.3-2.1-.5-5-.3-7.3.2-2.1 1.7-6.5 4.4-6.9 1.5-.2 2.3.7 3.8.8 1.1-1.8 3.1-2.7 4.2-4.5-.9-.4-.9-1.3-1.4-1.9-1.3-1.6-3.4-2.4-4.9-3.8-3-.2-5.6-1.5-7.6-.1-.4.3-.7.9-1.1 1.4s-1.1.8-1.4 1.2c-.7.9-.8 2.4-1.6 3 0 1.8-1.2 3.3-1.4 5-.2 1.3.2 2.7-.4 3.9.5.8.3 1.9.3 3 0 1.7.3 3.9-.6 5-1.2 1.6-4.8.9-6.3.4-3 .2-6.4 0-9.7-.3-1.2 1.3.2 4.4-.9 5.6z" fill="#000" fill-rule="nonzero"/><path d="m355.9 33.6c4.4-.5 9.4-.6 13.4-.9.1.7.8 0 1 .5-.4 2.6-.1 5.7-.6 8.3.8 3-.2 6.4-.4 9-.2 4.3.2 8.9-.3 13.2.9.2 1.6-.8 2-1.5 1.5-2 10.8-14.4 11.4-17 .5 0 .2-.9.9-.8.8-2.4 2.6-3.8 3.4-6.1 2.8.5 2.9 3.7 5.2 4.8.6 1 1.5 1.8 2.4 2.5.1.7.7.9.9 1.6-.9 2.3-21.7 28.4-22.3 29.8 1.6 2 2.9 4.2 4.8 5.8 1 2.2 3.3 3.1 4.3 5.3 2.1 1.7 3.3 4.3 5.6 5.8 0 .5.5.5.5 1.1 1.5.8 2.3 2.4 2.9 4.1.8.3 1.2.9 1.8 1.5-1.2 2.6-3.5 4.2-4.8 6.6-1.2.3-1.3 1.7-2.4 2.1-.8-.2-2.3-1.7-2.3-2.1-4-4.4-7-9.9-10.8-14.6-2.5-1.7-3.4-5-6.1-6.5.8 3.2.1 6.2.5 9.8.1.7-.1 10.3.8 14-.2.5-.2 1.7-.8 2.1-.2.1-.7 0-1.3 0-.7.1-1.4.4-1.8.4-1.7.2-5.2 0-7.4.1-1.3.1-2.6.6-3.3-.5 0-8.1 0-14.4.5-23.4-.3-1-.3-1.9.1-2.8-.1-3.9.2-9.4.1-14 0-1.8.5-3.6.5-5.4 0-.3-.1-.5-.1-.8.1-2.2.6-4.3.1-5.8.3-4.2.2-8.3.1-12.9 0-2 .3-4.2.3-6.4.2-2.6.2-5 1.2-6.9zm1.6 3.3c.2 2.2-.3 4.6-.3 6.6.1 2.8 0 5.2.3 8.3-.6 1-.2 1.8-.1 2.5.2 1-.1 1.7-.1 2.6 0 .6.2 1.4.1 2.1-.3 5.5-.3 11.7-.9 18.7.2.2.3.7.4 1.1-.9 3.1.1 6.6-.9 9.9.1 2.5.4 4.9.1 7.7-.1.7-.4 1.4-.5 2.1-.5 4.3.3 9.1-.4 12.7v.3c2.1.6 4.4-.3 6.2-.1 1.3.1 3.3.4 4.2-.7-.5-1.7-.5-3.6-.6-5.4-.3-5.6-1.7-22.4.4-22.4.5.1.3 1 .6 1.2 3.1 1.3 5.1 4 7.1 6.2.3.4.7.6 1 .9s.5.8.8 1.2c1.2 1.4 2.8 2.6 3.9 4 1.8 2.1 2.8 4.8 4.7 6.9.5 1.4 1.4 2.4 2 3.7 1.2.1 1.2-.7 1.6-1.3.4-.5 1-.6 1.3-1.1.2-.3.1-.7.3-.9.8-1.1 2.1-1.5 2.2-2.8-.8-.6-1.5-1.4-1.8-2.5-1.1-.6-1.5-2-2.8-2.4-.7-1.5-2.2-2.1-2.9-3.6-1.5-1.3-2.9-2.9-4.2-4.2-1.3-1.4-2.8-2.5-3.7-4.2-1.1-.4-1.8-1.8-2.8-3s-3-2.7-2.2-4.5c3.3-4.7 22-27.6 22.8-29.4-.4-.5-1.2-.6-1.1-1.6-1.7-.7-2-2.8-3.8-3.3-.3-.8-.7-1.3-1.3-1.9-2.5 3.4-15.1 23.3-17.2 25-.5 1.1-.8 2.4-1.8 3-.3-.1-.7-.2-.9-.5-.4-4.3-.8-8-.8-11.8 0-2.6.1-4.9.3-7.6.4-4.6.2-9.8 1.4-14.6-3.7.1-7.8 0-10.9.8 0 1.1.3 1.7.3 2.3z" fill="#000" fill-rule="nonzero"/><path d="m279.2 34.2c2.2-.2 4.6-.7 7-.7 1.9 0 4.1.3 5.8 0 .5-.1.9-.5 1.4-.6 1.1-.2 2.4-.1 3.5-.3.7-.1 1.4-.3 2.1-.4.3 1.4 1.5 3.2.7 4.8 1.1 4.2 2.4 13.1 2.4 13.5 1.1 1.2 8.2 53.5 8.2 57 .7 1.2 1 2.1 1.1 3.5-3.8 2.1-8.7 3.1-13.4 3.7-1.8-3.7-3.1-8.2-3.8-13.1-.6-4-2.3-7.4-2.7-11.4-1.2-2.8-2.6-14.2-3.4-17.5-2 2.9-.7 8.8-2.3 12.4.1 10.1-1.9 18.4-2.4 27.1-2.8.7-6.1-.1-9.4 0-1.4 0-3.5-.1-5.5 0-.2 0-.2-.1-.4-.1.6-5.6 1.1-10.9 1.8-16.4.2-1.7-.2-3.6.7-5.4 1.2-12.4 2.9-25.7 5.4-38.5.3-1.6.3-3.1.6-4.7.8-4.4 1.6-8.7 2.6-12.9zm-9.2 76.7c2.5.6 10.7.5 12.3.3.6-3.7 1-8.3 1.4-12.7.1-1.3.5-2.6.7-3.9.3-2.8 0-5.7.3-8.5.4-4 1.3-10.2 1.7-14.4 1.2-.6 2.9-.6 3.9 0 .6 1.5.9 2.4.7 3.9 1 2.5.8 5.4 2 7.8.6 4.3 4.2 17 4.9 20.6.7 3.3 1.2 6 1.8 9 3.3.3 6.7-1.2 9.4-2.7.6-.9-.3-1.7-.6-2.5-.6-2.2-.3-4.9-1.3-7-.1-1.8-6.9-40.9-7.8-45.4-.6-3-1.4-6.1-1.7-9.3-1.3-3.6-.7-8.5-2.1-11.7-1.8-.3-3.7.7-5.8.8-3.8.3-7.6-.7-10.2 1-.2 2.7-1.2 5.3-1.6 7.9-1.7 12.6-4.3 24.3-5.2 37.4-.8 3-1.1 7.6-1.6 11-.1.9-.5 2-.4 2.7.1.9-.2 1.5-.3 2.4.2 1.7-.6 12.3-.5 13.3z" fill="#000" fill-rule="nonzero"/><path d="m287 52.4c1.8 0 1.4 1.7 1.6 3.1 0 .2.4 2.6.4 3.7.1 1.7.4 5.4.3 6.1-1.4.7-2.8-.1-4.4.3-.7-4.1 1-11.9 1.8-13 .1-.1.2-.1.3-.2zm-1.4 11.8c.5.2 1.6.2 2.4.1.5-1.6-.1-7.2-.8-8.8-1.1 1-1 7.3-1.6 8.7z" fill="#000" fill-rule="nonzero"/></g></svg>