<svg id="icon-logo" viewBox="0 0 210.4 44" xmlns="http://www.w3.org/2000/svg" xmlns:xlink="http://www.w3.org/1999/xlink"><g><polygon points="28.1,22.2 10.9,0 0,0 0,42 11.5,42 11.5,19 29.5,42 39.7,42 39.7,0 28.1,0 	"></polygon><path d="M59.7,8.8c-9.6,0-16.4,7.5-16.4,17v0.1c0,10.1,7.2,16.9,17.4,16.9c6.5,0,11-2.6,14.1-6.6L68.5,31c-2.3,2.3-4.5,3.3-7.2,3.3
                    c-3.5,0-6.8-1.7-7.4-5.8H76c0.1-0.8,0.1-1.2,0.1-1.9C76,17,70.9,8.8,59.7,8.8z M53.8,23.2c0.6-3.7,2.8-6.2,5.9-6.2
                    c3.3,0,5.5,2.4,5.9,6.2H53.8z"></path><path d="M92.7,0H81.3v9.5h-3.8v9.2h3.8v13.2c0,7.7,4.1,10.7,10.9,10.7c3.2,0,5.9-0.7,7.9-1.9v-8.9c-1.4,0.7-2.8,1.1-4.3,1.1
                    c-2.1,0-3.1-1-3.1-3.2v-11h7.6V9.5h-7.6V0z"></path><path d="M125.2,27.1c0,3.5-2,5.5-4.7,5.5c-2.8,0-4.6-1.9-4.6-5.5V9.5h-11.4v21.2c0,7.4,4.1,11.9,11,11.9c4.6,0,7.6-2.5,9.7-5.2V42
                    h11.4V9.5h-11.4V27.1z"></path><path d="M163.3,9c-5.4-0.2-8.4,2.6-10.3,7.1V9.5h-11.4V42h11.4V31.9c0-7.5,3.4-10.9,9.3-10.9h1V9z"></path><path d="M179.1,9.1c-5.6,0-9.5,1-13.1,2.5l2.3,8c2.9-1.1,5.5-1.8,8.9-1.8c4.4,0,6.5,1.9,6.5,5.3v0.5c-1.9-0.7-4.8-1.3-7.8-1.3
                    c-7.6,0-12.7,3.5-12.7,10.2v0.1c0,6.5,4.7,10,10.9,10c4.3,0,7.3-1.6,9.5-4.1V42H195V23.3c0-4.6-1-7.9-3.5-10.3
                    C188.9,10.4,185,9.1,179.1,9.1z M183.9,30.1c0,3.4-2.5,5.7-6,5.7c-2.5,0-4.3-1.4-4.3-3.8v-0.1c0-2.5,2-4.3,5.5-4.3
                    c1.8,0,3.5,0.4,4.7,0.9V30.1z"></path><rect x="199" width="11.4" height="42"></rect></g></svg>
