<svg viewBox="0 0 210.4 44" xmlns="http://www.w3.org/2000/svg"><path d="m28.1 22.2-17.2-22.2h-10.9v42h11.5v-23l18 23h10.2v-42h-11.6z"/><path d="m59.7 8.8c-9.6 0-16.4 7.5-16.4 17v.1c0 10.1 7.2 16.9 17.4 16.9 6.5 0 11-2.6 14.1-6.6l-6.3-5.2c-2.3 2.3-4.5 3.3-7.2 3.3-3.5 0-6.8-1.7-7.4-5.8h22.1c.1-.8.1-1.2.1-1.9-.1-9.6-5.2-17.8-16.4-17.8zm-5.9 14.4c.6-3.7 2.8-6.2 5.9-6.2 3.3 0 5.5 2.4 5.9 6.2z"/><path d="m92.7 0h-11.4v9.5h-3.8v9.2h3.8v13.2c0 7.7 4.1 10.7 10.9 10.7 3.2 0 5.9-.7 7.9-1.9v-8.9c-1.4.7-2.8 1.1-4.3 1.1-2.1 0-3.1-1-3.1-3.2v-11h7.6v-9.2h-7.6z"/><path d="m125.2 27.1c0 3.5-2 5.5-4.7 5.5-2.8 0-4.6-1.9-4.6-5.5v-17.6h-11.4v21.2c0 7.4 4.1 11.9 11 11.9 4.6 0 7.6-2.5 9.7-5.2v4.6h11.4v-32.5h-11.4z"/><path d="m163.3 9c-5.4-.2-8.4 2.6-10.3 7.1v-6.6h-11.4v32.5h11.4v-10.1c0-7.5 3.4-10.9 9.3-10.9h1z"/><path d="m179.1 9.1c-5.6 0-9.5 1-13.1 2.5l2.3 8c2.9-1.1 5.5-1.8 8.9-1.8 4.4 0 6.5 1.9 6.5 5.3v.5c-1.9-.7-4.8-1.3-7.8-1.3-7.6 0-12.7 3.5-12.7 10.2v.1c0 6.5 4.7 10 10.9 10 4.3 0 7.3-1.6 9.5-4.1v3.5h11.4v-18.7c0-4.6-1-7.9-3.5-10.3-2.6-2.6-6.5-3.9-12.4-3.9zm4.8 21c0 3.4-2.5 5.7-6 5.7-2.5 0-4.3-1.4-4.3-3.8v-.1c0-2.5 2-4.3 5.5-4.3 1.8 0 3.5.4 4.7.9v1.6z"/><path d="m199 0h11.4v42h-11.4z"/></svg>