<svg clip-rule="evenodd" fill-rule="evenodd" stroke-linejoin="round" stroke-miterlimit="1.41421" viewBox="0 0 430 200" xmlns="http://www.w3.org/2000/svg"><g fill="#0a4bdc" fill-rule="nonzero" transform="translate(-106.323 32.5453)"><path d="m308.469 12.671h16.704c4.864 0 8.629 1.173 11.296 3.52 2.666 2.346 4 5.653 4 9.92 0 2.858-.726 5.354-2.176 7.488-1.451 2.133-3.499 3.733-6.144 4.8-.384.128-.576.362-.576.704 0 .17.064.384.192.64l2.24 3.2 5.312 14.528h-10.176l-6.592-17.92h-3.84v17.92h-10.24zm17.088 18.56c1.834 0 3.264-.448 4.288-1.344s1.536-2.155 1.536-3.776c0-1.622-.512-2.88-1.536-3.776s-2.454-1.344-4.288-1.344h-6.912v10.24z"/><path d="m370.421 43.455h-17.536c0 .554.021.96.064 1.216.341 3.754 2.73 5.632 7.168 5.632 2.176 0 4.608-.619 7.296-1.856l2.432 6.848c-2.816 1.877-6.059 2.816-9.728 2.816-4.352 0-7.936-1.035-10.752-3.104-2.816-2.07-4.48-4.726-4.992-7.968-.256-2.048-.384-3.883-.384-5.504 0-1.707.128-3.606.384-5.696.469-3.456 1.898-6.262 4.288-8.416 2.389-2.155 5.482-3.232 9.28-3.232 4.608 0 8.064 1.354 10.368 4.064 2.304 2.709 3.456 6.666 3.456 11.872zm-7.36-6.464c-.342-3.542-2.006-5.312-4.992-5.312-1.579 0-2.763.448-3.552 1.344-.79.896-1.291 2.218-1.504 3.968z"/><path d="m395.637 55.487c-.256-.342-.534-.512-.832-.512-.128 0-.342.106-.64.32-2.304 1.792-4.928 2.688-7.872 2.688-3.072 0-5.515-.896-7.328-2.688-1.814-1.792-2.72-4.096-2.72-6.912 0-2.987 1.056-5.302 3.168-6.944 2.112-1.643 4.81-2.464 8.096-2.464h5.568v-3.136c0-2.688-1.899-4.032-5.696-4.032-2.518 0-5.227.853-8.128 2.56l-2.624-7.168c3.626-2.091 7.445-3.136 11.456-3.136 4.48 0 7.861 1.066 10.144 3.2 2.282 2.133 3.424 4.97 3.424 8.512v12.8l3.392 4.864-7.36 4.8zm-7.296-4.224c1.45 0 2.602-.459 3.456-1.376.853-.918 1.28-2.102 1.28-3.552v-.832c0-.256-.107-.427-.32-.512-.214-.086-.491-.086-.832 0l-2.304.704h-1.984c-1.024 0-1.792.224-2.304.672s-.768 1.077-.768 1.888c0 .853.362 1.568 1.088 2.144.725.576 1.621.864 2.688.864z"/><path d="m423.477 58.239c-4.224 0-7.595-1.046-10.112-3.136-2.518-2.091-3.99-4.843-4.416-8.256-.256-2.048-.384-3.968-.384-5.76 0-2.134.128-4.054.384-5.76.469-3.371 1.941-6.091 4.416-8.16 2.474-2.07 5.781-3.104 9.92-3.104 2.005 0 3.861.266 5.568.8 1.706.533 3.136 1.29 4.288 2.272l-2.56 7.04c-1.024-.768-2.038-1.334-3.04-1.696-1.003-.363-2.208-.544-3.616-.544-1.75 0-3.158.448-4.224 1.344-1.067.896-1.643 2.026-1.728 3.392-.128 1.578-.192 3.05-.192 4.416 0 1.322.064 2.816.192 4.48.085 1.365.672 2.496 1.76 3.392s2.549 1.344 4.384 1.344c2.261 0 4.48-.683 6.656-2.048l2.432 6.848c-2.688 2.09-5.931 3.136-9.728 3.136z"/><path d="m449.141 57.407c-2.219.042-4.054-.651-5.504-2.08-1.451-1.43-2.176-3.275-2.176-5.536v-17.28h-5.056v-7.68h4.032c.426 0 .725-.118.896-.352.17-.235.362-.8.576-1.696.213-.896.448-2.048.704-3.456l.384-2.176h7.808v7.68h5.312v7.68h-5.312v15.616c0 .298.096.544.288.736s.437.288.736.288h4.864v8.256z"/><path d="m308.469 76.671h27.52v8.96h-17.28v8.96h16.192v8.96h-16.192v17.92h-10.24z"/><path d="m344.949 76.671h9.6v7.808h-9.6zm0 20.096h-5.76v-7.936h15.36v32.64h-9.6z"/><path d="m362.869 88.831h9.6v1.792c2.218-1.707 4.8-2.56 7.744-2.56 3.072 0 5.664.853 7.776 2.56 2.112 1.706 3.168 4.181 3.168 7.424v23.424h-9.6v-20.096c0-1.664-.31-2.848-.928-3.552-.619-.704-1.782-1.056-3.488-1.056-1.707 0-2.912.362-3.616 1.088-.704.725-1.056 1.898-1.056 3.52v20.096h-9.6z"/><path d="m406.837 121.407c-2.262 0-4.107-.715-5.536-2.144-1.43-1.43-2.144-3.254-2.144-5.472v-40.32h9.344v38.656c0 .298.096.544.288.736s.437.288.736.288h3.456v8.256z"/><path d="m436.213 119.487c-.256-.342-.534-.512-.832-.512-.128 0-.342.106-.64.32-2.304 1.792-4.928 2.688-7.872 2.688-3.072 0-5.515-.896-7.328-2.688-1.814-1.792-2.72-4.096-2.72-6.912 0-2.987 1.056-5.302 3.168-6.944 2.112-1.643 4.81-2.464 8.096-2.464h5.568v-3.136c0-2.688-1.899-4.032-5.696-4.032-2.518 0-5.227.853-8.128 2.56l-2.624-7.168c3.626-2.091 7.445-3.136 11.456-3.136 4.48 0 7.861 1.066 10.144 3.2 2.282 2.133 3.424 4.97 3.424 8.512v12.8l3.392 4.864-7.36 4.8zm-7.296-4.224c1.45 0 2.602-.459 3.456-1.376.853-.918 1.28-2.102 1.28-3.552v-.832c0-.256-.107-.427-.32-.512-.214-.086-.491-.086-.832 0l-2.304.704h-1.984c-1.024 0-1.792.224-2.304.672s-.768 1.077-.768 1.888c0 .853.362 1.568 1.088 2.144.725.576 1.621.864 2.688.864z"/><path d="m451.061 88.831h9.6v1.792c2.218-1.707 4.8-2.56 7.744-2.56 3.072 0 5.664.853 7.776 2.56 2.112 1.706 3.168 4.181 3.168 7.424v23.424h-9.6v-20.096c0-1.664-.31-2.848-.928-3.552-.619-.704-1.782-1.056-3.488-1.056-1.707 0-2.912.362-3.616 1.088-.704.725-1.056 1.898-1.056 3.52v20.096h-9.6z"/><path d="m497.973 122.111c-7.126 0-10.987-3.499-11.584-10.496-.214-2.902-.32-5.099-.32-6.592 0-2.219.106-4.374.32-6.464.341-3.456 1.504-6.07 3.488-7.84 1.984-1.771 4.896-2.656 8.736-2.656 1.365 0 2.677.181 3.936.544 1.258.362 2.272.842 3.04 1.44v-16.576h9.6v48h-9.6v-1.472c0-.512-.192-.768-.576-.768-.214 0-.47.085-.768.256l-4.096 2.368c-.64.17-1.366.256-2.176.256zm2.688-7.936c1.536 0 2.741-.416 3.616-1.248.874-.832 1.312-1.91 1.312-3.232v-9.216c0-1.408-.406-2.496-1.216-3.264-.811-.768-2.048-1.152-3.712-1.152-1.408 0-2.518.33-3.328.992-.811.661-1.259 1.525-1.344 2.592-.171 2.389-.256 4.202-.256 5.44 0 1.28.085 3.114.256 5.504.085 1.066.512 1.93 1.28 2.592.768.661 1.898.992 3.392.992z"/></g><path d="m148.954 72.17c1.785.521 3.556 1.087 5.315 1.698 17.831 6.221 29.354 15.968 29.354 26.045 0 10.511-12.315 20.787-31.242 27.143-1 .336-2.025.659-3.07.971.373 1.52.705 3.012.989 4.474 3.738 19.13.86 34.855-7.997 40.05-8.574 5.031-22.432.089-36.464-12.149-1.525-1.334-3.013-2.71-4.463-4.128-1.151 1.128-2.3 2.204-3.445 3.219-14.487 12.835-29.363 18.159-38.227 12.98-8.582-5.018-11.279-19.655-7.826-38.089.377-2.003.81-3.996 1.297-5.975-1.499-.433-2.988-.905-4.464-1.414-18.208-6.307-30.191-16.71-30.191-27.082 0-10.041 11.164-19.722 28.643-25.899 1.954-.69 3.996-1.339 6.111-1.948-.453-1.836-.86-3.685-1.221-5.542-3.622-18.76-1.073-33.753 7.532-38.801 8.973-5.265 23.918.389 38.828 13.807.927.837 1.839 1.69 2.735 2.561 1.339-1.309 2.709-2.584 4.111-3.824 14.226-12.548 28.313-17.797 36.925-12.763 8.983 5.25 11.614 21.197 7.59 40.992-.251 1.23-.524 2.455-.82 3.674zm-1.564 48.979c.943-.283 1.87-.576 2.772-.879h.002c16.341-5.489 26.407-13.887 26.407-20.357 0-6.073-9.321-13.955-24.598-19.285-1.581-.552-3.22-1.074-4.909-1.57-2.03 6.662-4.742 13.7-8.035 20.891 3.45 7.365 6.271 14.495 8.361 21.2zm-3.215 34.826c1.094-5.978.859-13.626-.794-22.086-.257-1.32-.556-2.67-.892-4.048-6.839 1.602-14.38 2.776-22.362 3.494-4.537 6.658-9.187 12.653-13.839 17.812 1.39 1.355 2.776 2.635 4.152 3.836 11.999 10.467 23.126 14.434 28.329 11.382 2.446-1.435 4.422-5.017 5.406-10.39zm-80.947 10.304c2.447 1.429 6.496 1.378 11.579-.441h.001c5.657-2.027 12.076-6.052 18.482-11.728 1.072-.952 2.121-1.932 3.145-2.936-4.821-5.244-9.605-11.233-14.172-17.748-8.001-.658-15.487-1.749-22.249-3.265-.453 1.84-.855 3.693-1.206 5.556-2.953 15.764-.788 27.518 4.42 30.562zm-31.493-56.418c4.558 3.955 11.206 7.58 19.257 10.369 1.348.465 2.707.896 4.076 1.293 2.085-6.891 4.834-14.126 8.147-21.436-3.271-7.201-5.981-14.323-8.047-21.134-1.912.547-3.807 1.152-5.683 1.812-14.949 5.283-23.912 13.055-23.912 19.148 0 2.864 2.068 6.393 6.162 9.948zm31.383-75.951c-5.185 3.042-7.246 15.167-4.143 31.24.336 1.728.714 3.447 1.135 5.156 6.833-1.569 14.267-2.741 22.032-3.471 4.528-6.477 9.268-12.42 14.064-17.641-.828-.802-1.654-1.578-2.477-2.318-12.873-11.586-25.087-16.207-30.611-12.966zm62.054 40.696c1.733 2.753 3.407 5.543 5.021 8.369 1.64 2.87 3.223 5.774 4.749 8.708 2.089-4.955 3.862-9.788 5.285-14.41-4.74-1.097-9.786-1.993-15.055-2.667zm-14.306-8.415c-3.204-4.327-6.463-8.316-9.716-11.888-3.304 3.613-6.59 7.596-9.797 11.884 6.501-.309 13.013-.307 19.513.004zm-43.605 25.487c1.487-2.921 3.041-5.807 4.661-8.654 1.621-2.85 3.309-5.662 5.061-8.431-5.234.662-10.257 1.536-14.968 2.604 1.435 4.688 3.192 9.543 5.246 14.481zm-5.343 31.587c4.709 1.039 9.808 1.868 15.215 2.48-1.794-2.823-3.523-5.688-5.183-8.594-1.627-2.849-3.188-5.737-4.681-8.66-2.098 5.044-3.893 10.003-5.351 14.774zm29.494 10.715c3.257 4.349 6.591 8.393 9.934 12.05 3.231-3.607 6.477-7.656 9.692-12.085-3.274.148-6.601.224-9.967.224-3.275 0-6.498-.063-9.659-.189zm49.143-11.024c-1.478-4.691-3.339-9.623-5.545-14.722-1.531 2.991-3.128 5.948-4.788 8.867-1.634 2.872-3.324 5.711-5.069 8.515 5.446-.662 10.614-1.553 15.402-2.66zm-24.364 3.527c2.778-4.23 5.419-8.55 7.92-12.953h.001c2.523-4.429 4.889-8.947 7.094-13.546-2.228-4.553-4.602-9.031-7.117-13.428-2.502-4.384-5.155-8.679-7.955-12.874-4.909-.379-9.95-.577-15.062-.577-5.089 0-10.123.197-15.034.573-2.828 4.202-5.499 8.511-8.005 12.918v-.002c-2.507 4.406-4.849 8.907-7.023 13.491 2.179 4.584 4.529 9.081 7.044 13.484 2.528 4.426 5.219 8.754 8.069 12.973 4.813.317 9.811.479 14.948.479 5.159 0 10.221-.183 15.12-.538zm26.676-59.43c3.473-17.091 1.323-30.124-4.205-33.356-5.191-3.034-16.583 1.211-28.773 11.963-1.294 1.145-2.56 2.322-3.796 3.53 4.719 5.153 9.419 11.107 13.956 17.655 7.787.741 15.226 1.933 22.075 3.535.268-1.104.514-2.213.743-3.327z" fill="#0047e5"/><g fill-rule="nonzero"><path d="m84.561 88.676h34.2v22.609h-34.2z" fill="#fff"/><path d="m92.611 88.676h6.803v22.609h-6.803z" fill="#0047e6"/><path d="m84.561 96.473h34.2v7.76h-34.2z" fill="#0047e6"/></g></svg>