<?xml version="1.0" encoding="UTF-8"?>
<svg width="530px" height="85px" viewBox="0 0 530 85" version="1.1" xmlns="http://www.w3.org/2000/svg" xmlns:xlink="http://www.w3.org/1999/xlink">
    <!-- Generator: Sketch 51.3 (57544) - http://www.bohemiancoding.com/sketch -->
    <title>Artboard</title>
    <desc>Created with Sketch.</desc>
    <defs>
        <polygon id="path-1" points="0.06 0.753 529.861 0.753 529.861 84.94 0.06 84.94"></polygon>
    </defs>
    <g id="Artboard" stroke="none" stroke-width="1" fill="none" fill-rule="evenodd">
        <g id="smec-logo-basic">
            <mask id="mask-2" fill="white">
                <use xlink:href="#path-1"></use>
            </mask>
            <g id="Clip-2"></g>
            <path d="M365.073,61.295 C363.644,66.241 361.41,69.875 358.371,72.199 C355.332,74.522 351.31,75.685 346.305,75.685 C338.44,75.685 332.362,72.646 328.071,66.568 C323.245,59.775 320.832,51.643 320.832,42.168 C320.832,32.396 323.335,24.382 328.339,18.125 C332.689,12.644 338.738,9.903 346.484,9.903 C353.454,9.903 358.401,12.197 361.321,16.785 C362.69,18.99 363.852,22.118 364.807,26.17 L373.922,23.31 C370.944,8.651 361.945,1.322 346.931,1.322 C334.894,1.322 325.538,5.94 318.867,15.176 C313.623,22.446 311,31.652 311,42.794 C311,55.069 314.307,65.137 320.922,73.004 C327.237,80.513 335.609,84.265 346.037,84.265 C354.796,84.265 361.737,81.763 366.862,76.757 C369.781,73.957 372.194,69.817 374.101,64.334 L365.073,61.295 Z M231.972,36.448 C232.687,27.809 235.175,21.18 239.435,16.561 C243.695,11.944 249.459,9.634 256.729,9.634 C265.191,9.634 271.327,12.823 275.142,19.198 C277.763,23.608 279.104,29.357 279.164,36.448 L231.972,36.448 Z M286.449,21.477 C284.69,16.025 281.636,11.512 277.286,7.936 C271.685,3.467 264.893,1.233 256.908,1.233 C246.599,1.233 238.258,4.957 231.882,12.405 C225.091,20.33 221.694,30.46 221.694,42.794 C221.694,55.664 225.357,65.973 232.687,73.719 C239.302,80.75 247.851,84.265 258.339,84.265 C264.953,84.265 270.821,82.67 275.947,79.483 C281.07,76.297 285.211,71.693 288.371,65.674 L279.968,60.848 C277.107,66.21 274.025,70.04 270.717,72.332 C267.41,74.628 263.313,75.775 258.428,75.775 C249.311,75.775 242.251,71.962 237.245,64.334 C233.848,59.15 231.912,52.596 231.435,44.671 L288.995,44.671 C289.053,34.66 288.205,26.929 286.449,21.477 Z M165.547,1.322 C154.76,1.322 145.942,5.404 139.09,13.567 C134.086,5.404 126.546,1.322 116.478,1.322 C107.598,1.322 99.675,4.868 92.703,11.958 L92.703,3.021 L83.854,3.021 L83.854,82.568 L92.703,82.568 L92.703,29.208 C92.703,23.31 94.743,18.603 98.824,15.086 C102.906,11.572 108.403,9.813 115.315,9.813 C121.809,9.813 126.577,11.377 129.616,14.506 C132.655,17.634 134.175,22.536 134.175,29.208 L134.175,82.568 L143.022,82.568 L143.022,29.208 C143.022,23.012 144.958,18.23 148.833,14.864 C152.705,11.498 158.186,9.813 165.279,9.813 C178.028,9.813 184.405,16.279 184.405,29.208 L184.405,82.568 L193.254,82.568 L193.254,28.225 C193.254,19.765 190.81,13.165 185.925,8.428 C181.038,3.69 174.246,1.322 165.547,1.322 Z M43.973,40.157 C41.768,39.115 38.342,37.909 33.695,36.537 C27.081,34.571 22.582,32.605 20.2,30.639 C17.816,28.672 16.624,25.901 16.624,22.326 C16.624,18.693 17.816,15.712 20.2,13.388 C22.761,10.946 26.336,9.724 30.925,9.724 C36.048,9.724 40.011,11.274 42.812,14.372 C44.181,15.922 45.463,18.246 46.654,21.343 L54.253,14.193 C48.83,5.613 41.084,1.322 31.014,1.322 C24.221,1.322 18.546,3.423 13.987,7.624 C9.429,11.825 7.149,17.024 7.149,23.22 C7.149,28.762 8.967,33.32 12.601,36.895 C14.211,38.445 16.102,39.741 18.278,40.782 C20.452,41.826 24.011,43.122 28.959,44.671 C35.988,46.876 40.591,48.917 42.767,50.793 C44.942,52.67 46.03,55.546 46.03,59.417 C46.03,64.186 44.346,68.12 40.98,71.215 C37.612,74.314 33.367,75.864 28.244,75.864 C18.411,75.864 12.006,70.025 9.028,58.345 L0,63.261 C3.039,70.711 6.748,76.074 11.127,79.35 C15.507,82.626 21.092,84.265 27.886,84.265 C35.869,84.265 42.455,81.763 47.638,76.757 C52.88,71.693 55.503,65.645 55.503,58.614 C55.503,52.656 53.596,47.83 49.783,44.134 C48.115,42.526 46.178,41.201 43.973,40.157 Z" id="Fill-1" fill="#000206" mask="url(#mask-2)"></path>
            <path d="M417.51,0.753 L522.948,0.753 C526.766,0.753 529.861,3.833 529.861,7.63 L529.861,78.123 C529.861,81.92 526.766,85 522.948,85 L417.51,85 C413.691,85 410.596,81.92 410.596,78.123 L410.596,7.63 C410.596,3.833 413.691,0.753 417.51,0.753" id="Fill-3" fill="#CEB265" mask="url(#mask-2)"></path>
        </g>
    </g>
</svg>