<svg height="77" viewBox="0 0 180 77" width="180" xmlns="http://www.w3.org/2000/svg" xmlns:xlink="http://www.w3.org/1999/xlink"><mask id="a" fill="#fff"/><mask id="b" fill="#fff"><path d="m.01675472.21067763h147.94443028v23.55420647h-147.94443028z" fill="#fff" fill-rule="evenodd"/></mask><g fill="none" fill-rule="nonzero"><path d="m101.944913 17.1493827c-.399041 1.3838135-1.022875 2.4005499-1.871502 3.0507688-.8486261.6499391-1.9717506.9753283-3.3693733.9753283-2.1962641 0-3.8935169-.8502647-5.0917585-2.5507941-1.3476377-1.9005752-2.0214566-4.1757817-2.0214566-6.8267385 0-2.73405286.698951-4.97624477 2.0962944-6.72685556 1.214717-1.53349811 2.9038717-2.30038706 5.0669056-2.30038706 1.9463397 0 3.3277664.64182534 4.1431624 1.92547601.382287.61692453.70677 1.49209003.973449 2.62577628l2.545321-.80018329c-.831593-4.10135902-3.344521-6.15189865-7.5371097-6.15189865-3.3612755 0-5.9738944 1.29204421-7.8367396 3.87613262-1.4643623 2.03403234-2.1968227 4.60972722-2.1968227 7.72708465 0 3.4343531.9234642 6.2512221 2.7706717 8.4522857 1.763434 2.1009008 4.1012755 3.1506517 7.0132453 3.1506517 2.4459094 0 4.384151-.7000204 5.815283-2.100621.815117-.7833962 1.488936-1.9417035 2.021457-3.4757612zm-37.1678262-6.9518021c.1996604-2.41705715.8944226-4.27174772 2.0840075-5.56407171 1.1895849-1.29176442 2.7991548-1.9380663 4.829268-1.9380663 2.3629735 0 4.0764226.89223234 5.1417434 2.67585768.7319018 1.23384906 1.1063698 2.84232938 1.1231245 4.82628033zm15.2124453-4.18865176c-.4911925-1.52538437-1.3440076-2.78805121-2.5587246-3.78856011-1.5640528-1.25035633-3.4606867-1.87539461-5.6904603-1.87539461-2.8787397 0-5.2079246 1.04191699-6.9883925 3.12575095-1.8963547 2.2172911-2.8449509 5.05150674-2.8449509 8.50236713 0 3.6008248 1.0228754 6.4851218 3.0697434 8.6523315 1.8472075 1.9671639 4.2344754 2.9506059 7.1632 2.9506059 1.8469283 0 3.4855396-.446256 4.9169509-1.3379288 1.4305736-.891393 2.5869283-2.1795202 3.4693434-3.8635423l-2.3464981-1.3502394c-.7989208 1.5002038-1.6595547 2.5717779-2.5832981 3.2130437-.9234642.6423849-2.0675321.9632976-3.4316453.9632976-2.5458792 0-4.5173509-1.0668178-5.9152528-3.201013-.9485963-1.4504021-1.4892151-3.2841089-1.6224151-5.5014h16.0733585c.0161962-2.80092125-.2206038-4.96393419-.7109585-6.48931856zm-33.7613132-5.63905391c-3.0122189 0-5.4746038 1.14207979-7.3879925 3.42595957-1.3973434-2.28387978-3.5028528-3.42595957-6.3142943-3.42595957-2.4796981 0-4.6921585.99211537-6.6390566 2.97578653v-2.50043289h-2.4710415v22.25600703h2.4710415v-14.92929382c0-1.6501682.5696603-2.96711321 1.7092603-3.95111483 1.1398793-.98316226 2.6748906-1.47530296 4.605034-1.47530296 1.8134189 0 3.1448604.43758275 3.9934868 1.31302803.8486264.8751655 1.2730792 2.24666847 1.2730792 4.11338976v14.92929382h2.4704831v-14.92929382c0-1.73354394.5406188-3.07147278 1.6226943-4.01322696 1.0812377-.94175417 2.6117811-1.41319083 4.5924679-1.41319083 3.5600981 0 5.3408453 1.80908571 5.3408453 5.42641779v14.92929382h2.4710415v-15.20432185c0-2.36697574-.6824754-4.21355256-2.0465887-5.53889111-1.3646717-1.32561833-3.2613056-1.98814771-5.6904603-1.98814771zm-33.9489661 10.86542587c-.6157358-.2915353-1.5724302-.6289552-2.87008299-1.0128194-1.8469283-.55005606-3.10325283-1.10011213-3.76841509-1.65016819-.66572076-.55033585-.99858114-1.32561833-.99858114-2.32584744 0-1.01645661.33286038-1.8504938.99858114-2.50071267.71514717-.68323342 1.71344905-1.02512992 2.99490566-1.02512992 1.43057362 0 2.53722262.43366577 3.31938872 1.30043774.3822867.43366576.7402792 1.08388463 1.0728603 1.95037682l2.1219849-2.00045823c-1.5143471-2.40054986-3.6773811-3.60110458-6.48938109-3.60110458-1.89691321 0-3.48163019.58782696-4.75470944 1.76320108-1.2728 1.17537412-1.90947924 2.62997305-1.90947924 4.36351698 0 1.55056496.50766792 2.8258221 1.52244528 3.82605121.44958491.4336658.97763774.7962663 1.58527547 1.0875218.60707925.2920949 1.60091321.6546955 2.98261887 1.0880814 1.96281505.6169246 3.24818115 1.1879645 3.85581885 1.7128399.6073585.5251553.9111774 1.3298151.9111774 2.4128604 0 1.3342917-.4702491 2.4349634-1.4101887 3.300896-.9404981.8670517-2.12589434 1.3007175-3.55646793 1.3007175-2.74581886 0-4.5343849-1.6336609-5.36597735-4.9015423l-2.52102642 1.3754199c.84862642 2.0843935 1.88434717 3.5848771 3.10716226 4.5014507 1.22309434.9165736 2.78267925 1.3751401 4.6798717 1.3751401 2.22921514 0 4.06832454-.7000204 5.51565284-2.100621 1.4638038-1.416828 2.1962641-3.1089639 2.1962641-5.0761277 0-1.6669553-.5325207-3.0171946-1.597283-4.0512777-.4657811-.4498932-1.0066792-.8206075-1.6224151-1.1127024z" fill="#000206" mask="url(#a)" transform="translate(16 27)"/><path d="m116.587698.21067763h29.443064c1.066159 0 1.930423.86173585 1.930423 1.92407709v19.72283938c0 1.0623412-.864264 1.9240771-1.930423 1.9240771h-29.443064c-1.066438 0-1.930702-.8617359-1.930702-1.9240771v-19.72283938c0-1.06234124.864264-1.92407709 1.930702-1.92407709" fill="#ceb265" mask="url(#b)" transform="translate(16 27)"/></g></svg>