<svg viewBox="0 0 238.78 70.5" xmlns="http://www.w3.org/2000/svg"><path d="m48.34 52.34a2 2 0 1 1 -3.87.62 1.64 1.64 0 0 1 0-.38h-1.33a2 2 0 1 1 -2.87 2 2 2 0 0 1 1-2.06h-1.53a2 2 0 1 1 -2.46-1.77l-.82-.82a2.26 2.26 0 0 1 0-3.22l2.33-2.33 6.62 6.62a2 2 0 0 1 .69-.25 2 2 0 0 1 2.24 1.59zm.58-35.81v6.9a2.22 2.22 0 0 1 -.67 1.66l-2.39 2.4 2.36 2.35.18.21a2.24 2.24 0 0 1 .52 1.45v7.5a2.38 2.38 0 0 1 -.19.93 2.6 2.6 0 0 1 -.46.69l-.16.18-.09.09-.18.16-1.93 1.95 1.4 1.4a2.29 2.29 0 0 1 0 3.23l-.15.14a2.28 2.28 0 0 1 -3.22 0l-3-3-.09-.1-2-2-2.28 2.28-.25.22a2.3 2.3 0 0 1 -3-.21l-3.92-3.96a2.26 2.26 0 0 1 0-3.22l1.81-1.78 3.72 3.72.46-.47-6.05-6.06a2.28 2.28 0 0 1 0-3.22l.14-.15a2.29 2.29 0 0 1 3.23 0l2.34 2.34.48-.49-4.77-4.78a2.28 2.28 0 0 1 0-3.22l.09-.09a2.29 2.29 0 0 1 3.23 0l8.52 8.52.52-.53-9-9a2.29 2.29 0 0 1 0-3.23l.16-.16a2.27 2.27 0 0 1 3.23 0l4.9 4.9.59-.58-4.15-4.14a2.29 2.29 0 0 1 0-3.23l.23-.22a2.28 2.28 0 0 1 3.22 0l1.57 1.57v-.95a2.28 2.28 0 0 1 2.28-2.28h.52a2.28 2.28 0 0 1 2.25 2.28zm-5.85 22.64-4.07-4.11-.49.48 4.12 4.12zm-15-1.55-2.77-2.76a2.27 2.27 0 0 0 -3.23 0l-3 3a2.28 2.28 0 0 0 0 3.22l2.29 2.29-4.15 4.15a2 2 0 0 0 -.69-.25 2 2 0 1 0 1.63 2.25 1.56 1.56 0 0 0 0-.37h1.28a1.9 1.9 0 0 0 -1 1.39 2 2 0 1 0 2.9-1.39h1.46a2 2 0 1 0 2.46-1.83l1.62-1.62 1-1 1.74-1.7-1.38-1.39a3.32 3.32 0 0 1 -.18-3.99zm34.44 9.09-2.33-2.33-6.61 6.62a1.91 1.91 0 0 0 -.68-.25 2 2 0 1 0 1.63 2.25 2.48 2.48 0 0 0 0-.38h1.3a2 2 0 1 0 1.83 0h1.54a2 2 0 1 0 2.46-1.77l.82-.82a2.28 2.28 0 0 0 .02-3.32zm7.08-5.71-3.92 3.92a2.29 2.29 0 0 1 -3 .21l-.25-.22-2.29-2.28-2 2-.1.1-3 3a2.29 2.29 0 0 1 -3.23 0l-.14-.14a2.29 2.29 0 0 1 0-3.23l1.4-1.4-1.93-1.93-.13-.14-.09-.09-.16-.18a2.38 2.38 0 0 1 -.46-.69 2.22 2.22 0 0 1 -.2-.93v-7.5a2.29 2.29 0 0 1 .52-1.45l.19-.21 2.35-2.35-2.39-2.4a2.26 2.26 0 0 1 -.67-1.66v-6.9a2.28 2.28 0 0 1 2.28-2.28h.52a2.29 2.29 0 0 1 2.29 2.28v.95l1.56-1.57a2.29 2.29 0 0 1 3.23 0l.22.22a2.29 2.29 0 0 1 0 3.23l-4.19 4.14.54.55 4.91-4.9a2.26 2.26 0 0 1 3.22 0l.17.16a2.29 2.29 0 0 1 0 3.23l-9 9 .53.53 8.52-8.52a2.29 2.29 0 0 1 3.23 0l.09.09a2.28 2.28 0 0 1 0 3.22l-4.78 4.78.49.49 2.34-2.34a2.28 2.28 0 0 1 3.22 0l.15.15a2.28 2.28 0 0 1 0 3.22l-6.06 6.06.47.47 3.73-3.69 1.82 1.84a2.28 2.28 0 0 1 0 3.16zm-9.08-5.48-.51-.46-4.12 4.11.49.49zm22 11.73a2 2 0 0 0 -.69.25l-4.15-4.15 2.29-2.29a2.28 2.28 0 0 0 0-3.22l-3-3a2.27 2.27 0 0 0 -3.23 0l-2.76 2.76a3.34 3.34 0 0 1 -.17 4l-1.43 1.4 1.63 1.67 1 1 1.61 1.62a2 2 0 1 0 2.47 1.83h1.52a2 2 0 1 0 1.94 0h1.27a2.4 2.4 0 0 0 0 .37 2 2 0 1 0 1.63-2.25zm19.29-14.93c0-1 .95-1.48 2.33-1.48a6.34 6.34 0 0 1 3.83 1.27l1.36-1.75a7.18 7.18 0 0 0 -5.17-2c-3.31 0-5.27 1.87-5.27 3.85 0 4.83 7.75 3.65 7.74 5.81 0 1-1.24 1.49-2.2 1.49a6.55 6.55 0 0 1 -4.12-1.49l-1.55 1.88a7.5 7.5 0 0 0 5.54 2.18c3.29 0 5.26-1.55 5.26-3.85 0-4.65-7.8-3.65-7.79-5.89zm8.43-1.28h3.87v10.68h2.78v-10.66h3.88v-2.33h-10.57zm20.63 4.79c0 1.92-.89 3.58-3 3.58s-3-1.66-3-3.58v-7.1h-2.96v7.5c0 3.29 1.76 5.72 5.89 5.72 3.77 0 5.9-2.41 5.9-5.72v-7.5h-2.87zm16.85-.67a6.58 6.58 0 0 1 -6.94 6.64h-4.68v-13.18h4.65c4.53 0 6.93 3.23 6.93 6.56zm-2.78 0a4 4 0 0 0 -4.23-4.13h-1.85v8.25h1.87a4 4 0 0 0 4.17-4.08zm4.5 6.52h2.89v-13h-2.89zm17.57-6.45c0 3.51-2.31 6.65-6.45 6.65s-6.46-3.14-6.46-6.65 2.3-6.64 6.42-6.64a6.31 6.31 0 0 1 6.49 6.64zm-2.87 0c0-2.1-1.22-4-3.67-4s-3.58 2-3.58 4 1.2 4 3.67 4 3.59-1.96 3.59-4.02zm15.37-.23h-.15l-4.54-6.28h-2.08v13h2.7v-8.25h.11l3.25 4.5h1.27l3.25-4.5h.11v8.25h2.71v-13h-2.13zm9.08 6.71h2.89v-13h-2.89zm4.16-13v2.32h3.86v10.68h2.78v-10.66h7.76v10.66h2.78v-10.66h3.88v-2.32h-21.06zm31.79 2.29v-2.27h-9.46v13h9.46v-2.23h-6.7v-3.07h6v-2.31h-6v-3.12z" fill="#010101"/></svg>