<svg height="77" viewBox="0 0 180 77" width="180" xmlns="http://www.w3.org/2000/svg" xmlns:xlink="http://www.w3.org/1999/xlink"><linearGradient id="a" x1="114.720775%" x2="39.539931%" y1="181.283245%" y2="100%"><stop offset="0" stop-color="#fff"/><stop offset="1"/></linearGradient><g fill="none" transform="translate(21 25)"><path d="m15.5 0 15.5 28h-31z" fill="url(#a)"/><path d="m52 21h12.4069038v-2.1400709h-9.3127615l9.1610878-12.99113477v-1.86879433h-12.1035565v2.14007092h9.0094143l-9.1610879 12.99113478zm25.3901674 0h11.1328452v-2.1400709h-8.6150628v-5.4556738h7.4926778v-2.1400709h-7.4926778v-5.12411348h8.6150628v-2.14007092h-11.1328452zm24.5407946 0h10.859833v-2.1400709h-4.155858v-12.71985818h4.155858v-2.14007092h-10.859833v2.14007092h4.186193v12.71985818h-4.186193zm28.726988 0h2.517782v-14.85992908h5.824268v-2.14007092h-14.105649v2.14007092h5.763599z" fill="#333"/></g></svg>