<?xml version="1.0" encoding="UTF-8"?>
<svg width="180px" height="77px" viewBox="0 0 180 77" version="1.1" xmlns="http://www.w3.org/2000/svg" xmlns:xlink="http://www.w3.org/1999/xlink">
    <!-- Generator: Sketch 51.3 (57544) - http://www.bohemiancoding.com/sketch -->
    <title>Artboard</title>
    <desc>Created with Sketch.</desc>
    <defs>
        <linearGradient x1="114.720775%" y1="181.283245%" x2="39.5399306%" y2="100%" id="linearGradient-1">
            <stop stop-color="#FFFFFF" offset="0%"></stop>
            <stop stop-color="#000000" offset="100%"></stop>
        </linearGradient>
    </defs>
    <g id="Artboard" stroke="none" stroke-width="1" fill="none" fill-rule="evenodd">
        <g id="zeit" transform="translate(21.000000, 25.000000)" fill-rule="nonzero">
            <polygon id="Triangle" fill="url(#linearGradient-1)" points="15.5 0 31 28 0 28"></polygon>
            <path d="M52,21 L64.4069038,21 L64.4069038,18.8599291 L55.0941423,18.8599291 L64.2552301,5.86879433 L64.2552301,4 L52.1516736,4 L52.1516736,6.14007092 L61.1610879,6.14007092 L52,19.1312057 L52,21 Z M77.3901674,21 L88.5230126,21 L88.5230126,18.8599291 L79.9079498,18.8599291 L79.9079498,13.4042553 L87.4006276,13.4042553 L87.4006276,11.2641844 L79.9079498,11.2641844 L79.9079498,6.14007092 L88.5230126,6.14007092 L88.5230126,4 L77.3901674,4 L77.3901674,21 Z M101.930962,21 L112.790795,21 L112.790795,18.8599291 L108.634937,18.8599291 L108.634937,6.14007092 L112.790795,6.14007092 L112.790795,4 L101.930962,4 L101.930962,6.14007092 L106.117155,6.14007092 L106.117155,18.8599291 L101.930962,18.8599291 L101.930962,21 Z M130.65795,21 L133.175732,21 L133.175732,6.14007092 L139,6.14007092 L139,4 L124.894351,4 L124.894351,6.14007092 L130.65795,6.14007092 L130.65795,21 Z" id="ZEIT" fill="#333333"></path>
        </g>
    </g>
</svg>