<svg height="514" viewBox="0 0 1000 514" width="1000" xmlns="http://www.w3.org/2000/svg"><g fill="none" fill-rule="evenodd" transform="translate(1 1)"><g fill="#fff8bc" stroke="#ccc" stroke-linecap="round" stroke-linejoin="round" stroke-width="2"><path d="m85.5 341 2.2 5.5 1.6 8.7.1 1.9-.3 5.3-1.9 4.8-5.1 7.7-1.4 3.6-1.5 7.7-.2 3 .1 2.3.4 2.7.1 2.1-.4 3.3-.8 2.4-1.4 2-1.6 1.4-1.7 2.1-.4 1.7.3 1.8 2.9 4.9 2.4 6.3.1.6-1.8-.1-5.6-1.8-3-1.7-5-4.9-14-4.5-3.3-2.5-1.6-2.4-.3-1.8.5-2 .3-4.5.5-1.9v-1.1l-.5-.6-.8.1-.5-.5.2-2.2-24.7-7.8-2.2-.3-6.9.8-2.4-.6 3.6-4.6.9-5-1.4-4.9-3.1-4.4-3.9-2.3v-1.7l1.3-2.9.2-1.3-1.2-2.7-1.2-1.7-.6-1.7.9-2.7-2.2-2-1.2-1.8 4.2-7.1 4.5-5.4.5-1.4.6-3.4.7-1.7 5-6.4 1.3-3 .1-8.2-3.7-3.3-4.9-2.2-3.9-5.9 3.1 1.8 1.9.5h2l.9-.5 1.6-1.7 1-.3.8.3.2 1.7.8.5 2.7.1.9-.1.7-.8.7-2.5.4-.7 1.6-.4 5.5.4-1.6-3.6-1.8-1.6 1.6-3.5 2.9-3.4 1.9-1 1.9-.2 1.9.7 1.5 1.6.5 2.3-.3 2.4.5 2 2.7 1.4 1-.1 1.6-1 .7-.2 3.9 1.5 3.9.3 2-.4 1.6-1.3.3 3.2 1.4 1.9 1.6 1.6 1.2 2.6.3 2.3 1.4.9 1.2-.5 1.1-1 1.5-.7 6.5 9.4 1.1 2.3-.6 2-3 2.4 1.5 1.6.3 2.1.1 2 .7 1.9 1.3 1.2h.9l1-.8 1.7-.8.6.1 1.4.8 1.2-.4 1.6-1.7 5.7-1.1 2.4 1.3-.1 3.5-2.3 7.2.3 2.4-.3 1.3-.6.6-1.7.5-.6.4-1.7 3.4.6.3z"/><path d="m851.5 424.6-.3-2.9-.7-1.3-1.6-1.3-.7-.9-.1-1.2.6-3.2.1-2 .4-1.8 1-1.8 4.7-4.1 6.3-8.4 3.4-5.1 1-2 .1-1.3-.3-1.6-4.8-6.1-1.1-2.1-.6-2.7-.1-2 1.4-6v-5.2l-3.6-13.9-.2-3-1-7.4-1.3-5.3-1.4-4.8-2.3-5.6-.2-1.6.4-1.6 2-2.8 1.4-1.4 1.5-.1.8 1 .8 2.2 2.4-1.4 7.6-7.9 7.5.1 3.4-.6 3.2-1.8 2.2-1.7 6.8-7.3.2-2 .1-2.3-.7-2.3-.4-2.8.4-4.3.7-2.2 1.3-2.3.8-1.3 4.3-8.4-3.8-6-4.5-5.2-2-3.4-1-2.4.1-11.9 4.5-.6 1.5-1.2 1.6-1.9.8-1.7.5-2.3.2-7.6 2-3.8 2.1-2.2 6.3-5 3.8-1.1 4.6-.3 9.1 3.1 5.2-2.7 2.5-2.6 4.5-3.2 1.9-1.7 1.3-2.4 1.8-4.9 3.2-2.7 2.8-1.3 1.6-.3 1.5.2 5.5-2.6 5.3-3.9 3-1.4 2.7-.4 2.1 1 4 3.1 2.1 1.1 1.5-1 1-1.8.1-1.6-.4-1.5v-1.4l.5-2.9 1.7-1.8.9-.4 2.5 1.5 1.6.3 2-.8 1.7-1.7.6 1.1 1.7 1.8-1.4 1.7-.6 2-.8 3.6 2.1 1.7-.7 3.2 3 1.6 4.2 1.5 3.1 2.8-8.2 6.9 1.4 1.6-.1 1.2-.6 1.2-.4 1.7-1.5 1.2-.3.5.1.9 1.4.6.2.4-.5 3.5-.8 2.5-1.3 2-2.1 1.7-4.5 1-1.7.9.1 2.1.8.9 2.7 1.3 1.1.7 1.2 3.7.9 1.2-2 2.2.2 3.4.9 3.9.2 6.4.7 1.9 1.1 1.5 1.5 1-2.7 1.2-9.6 1.3-10.3 2.6-5-.9-1.9-5.1-1.7 1.5-2.6 4.1-1.5 1.4-1.1.3-7.4-1.2-1.4-.9-1.4-1.5-1.1-2-.4-2-.7-1.8-1.7-1.2-10.5-4.1-5.5-.6-4.8 2.1-.7 1.9.2 2.6-.7 1.7-1.1 1-5.3 2.8-1.5 1.4-.9.5-.6-.1-1.4-1.5-1 .9-1.9 3.3-1.2 1.4 2.4 1.4 7.3 3 3.6-.8 8.6 3.5 4.4-.7 2.8 1.3 2.3 3 1.1 4-.7 3.7 2.2 1.3 1.8 1.8 1 2.5-.1 3-1.4 2.4-3.8 1.6-1.5 1.7.5 7.8-6.7 5.2-14.1 6.5-1.6-2.6-1.7-1.2-1.6.5-1.4 2.4.4 7.4-.3.6-1.3.9v1.1l.3.7 1.6 1 3.9 8.3.6 3.2-.9 2.6-1.9 1.7-4 2.2.4 3.4-2 4.2.5 3.2.7.7h2.2l.9 1.2v1.7l-1.1 3.3v1.1l1.7 1.1 4.5-2.1 2.1.2 1.6 2.3-.6 2.3-3 4-2.8 1.7-.8 2.8 1 2.5 2.6.9 1.5.8.5 1-.5 1-1.5 1-5.9 2.4-1.6 1.5 3.8.4 1.8.7 1.9 1.7.6 2.1-2.5.6h-3.4l-2.2.4-.5.6-1.4-.1-2.9-2.2-2.8-.3-5.3.6-4.9-1-1.8.3-1.2 2.1-.6 2.9-1.1.9-1.3.3-1.3 1.1-.3 1.2v2.2l-.9 1.4-.9.7-2.7 1.2-3.3 2.4-1.5 1.6-4.8 6.5-1.7 1.6-2.1 1-8.1 4.8z"/><path d="m867.1 308-7.6 7.9-2.4 1.4-.8-2.2-.8-1-1.5.1-1.4 1.4-2 2.8-.4 1.6.2 1.6 2.3 5.6 1.4 4.8 1.3 5.3 1 7.4.2 3 3.6 13.9v5.2l-1.4 6 .1 2 .6 2.7 1.1 2.1 4.8 6.1.3 1.6-.1 1.3-1 2-3.4 5.1-6.3 8.4-4.7 4.1-1 1.8-.4 1.8-.1 2-.6 3.2.1 1.2.7.9 1.6 1.3.7 1.3.3 2.9-5.4 1.4-.8.4-1.2 1.4.7.8.1 1.4-.9 5.9-.2 3.4.1 3.3 1.5 4.7 2.8 1.8 1.4 2.9.3 4.4-2.4-3.1-1.5-1-5.3-.9-8.8-4.5-3.7-.7-3.6.3-8.9 3.6-3.5.2-10-1.5-2.1-1.3-.4 2.9v2.4l-.8 1.7-1.3 1-1.7.5-2-.6-2.8.1-2.8.7-2 1.5-1.3 2.7-.4 2.2-.8 1.9-2.4 1.9-4 .7-2.9-1.8-3-2.6-3.8-1.5-24 1.3-13-1.4-1.1-1.5-8.2-9.4-1.6-4.6-.3-6.3-1.5-6.8-1.9-4.6-.7-2.6-.2-1.7.9-3.4.8-1.7.8-2.3.3-5.8-10.3-15.8-5.2-6.4-1.9-1.5-1.3-.9-2-.3-14.5 3.4-16.1 1.3-3.6-1.5-8.5.6-3.6-.3-13.3 4.7-2.4-.1-1.1-.2-.3-.5-1.4-1.1-2.2-1.1-9.3-2.9-5.3-3.8-3.4-1.5-4.6-.1-3.9.7-14.3 6.9-2 1.5-1.1 1.4-1.1 2.3-2 3.4-4.9 2.3-8.1 6.3-2.3.7-2.4.3-1.2-.5-1.8-1.3-5-4.2 5-6.5 5.6-10.4 1.5-3.7.7-2.2-.3-3.8.2-2.5 1.1-1.7 3.9-3.7 2.5-3.3.3-1.9-1-1.7-3.9-2.8-4.3-5.5-1.1-1.8-.9-3.7-.7-1.8-2.9-4.5-2.1-4.3-1.8-1.2-1.9.6-2 1.3-3.7.4-2.1 1-1.9 1.4-1.8.7-1.9-.6-2.3-1.6-4.1-3.9-3.4-7.1-3.9-13-1.2-6.9.1-1.5 1-3.6 1-2.8 12.1 2.3 1.3-.6 1.6-.4.4-.7 3.3-2.9.9-1.5.5-2v-2.6l-.6-3.2-1.3-2.6-1-1.6-1.6-1.9-1.5-1.9-1-2-.5-2-.1-1.9.3-3.8.3-2.4.7-2.8 1.7-2.2 2.2-1.8 13.9-7 1.5-.3 1.1.2 3.2 1.9 1.8.8 3.9.7 3.5 1.3 2 .5 5.7-.8 6 7 1.4 3.7.2 1.5.7 1.9.8-.1 2.6-1.9 6.4-1.7 4.9-2.3 1.7-.4 1.3.2 7.3 5.2 2.9 1.3 2.6.8 3.9-.1 3.2-.9 5.9-4.5 3.2-2 4.2-1.2 2.2-1.2 1.5-1.4.4-1.3 1.5-2 18.8-7.6 8.4-6.7 4.5 3.6h13.6l.8.4 1.2 1.3 3.9 3.3 2.8.4 3.3-.8 3.2-2 5.3-2.3 2.6-.7 2-.1 2.2.4h1.2l4.1-1.2 6.6-2.6 5.1-1.1 1.4-.9 1.2-1.4.8-1.5 3.6-4.6 5.4.8h.9l8-2 2.6.2 2.1.9 5.5 5.1 10.8 5.3 5.1 3.7 8.8.7 2.7 2.9 1.6 2.2 1.8 1.3 2.5 1.3 1.5.3 2.4-.2 1.7.3.9.9.6 1.4.8 5.6.4 2.2 1 2.6 1.3.9 1.4-.1 4.4-2.5 1.7-.3 1 .6.6.8.8 1.5.5 1.7-.2 2.7-.7 2.7.3 1.3 1.9.7h3.1l3.4 2.6 1.6 3.1 1.6 4.4 10.7 1.8 3.2 1.8 1.2 1.2 1.1.4h.9l1.3-.4 3.1-1.6.6.3.8 1.5.4 1.4.3 2.2.8 2.1 1.4 2.8z"/><path d="m557.6 402.2 5 4.2 1.8 1.3 1.2.5 2.4-.3 2.3-.7 8.1-6.3 4.9-2.3 2-3.4 1.1-2.3 1.1-1.4 2-1.5 14.3-6.9 3.9-.7 4.6.1 3.4 1.5 5.3 3.8 9.3 2.9 2.2 1.1 1.4 1.1.3.5 1.1.2 2.4.1 13.3-4.7 3.6.3 8.5-.6 3.6 1.5 16.1-1.3 14.5-3.4 2 .3 1.3.9 1.9 1.5 5.2 6.4 10.3 15.8-.3 5.8-.8 2.3-.8 1.7-.9 3.4.2 1.7.7 2.6 1.9 4.6 1.5 6.8.3 6.3 1.6 4.6 8.2 9.4 1.1 1.5-5.7-.6-7.5 2.4-4.9 7-2.5-3.7-1.9-.3-4.7 2.9-2.7.4-1.8-.2-1.7.7-2.2 3.2-1.5 3.2-1.9 6-2.5 5.6-.7.6-2.9 1.3-3.3.6-1.2-.8-2.2 1-.8.9-.6 1.3-1.5 1.8-1 2.4-1.7-.4-.6.2-2.6 2.8-1.4.8-1.3.4-2.9.3-1.2.5-2 2.8-1.1 3.7-1.2 3.1-2.3 1-1.7-1.8-1.5-3.3-1.7-2.4-4.6 1-2.1-.3-4.1-1.9-.7-.9-1.1-1.9-1.4-.3-4.4.9-27.7-.8-1.7-.4-7.4-6.4-1.9-1-2.1-.6-2.3-.1-4.4.8-2.2-.2-11.9-5.7-4-.7-8.5 1.4-1.8.1-8.6-2.1-2-.2-2 .4-2-.2-15.8-5.2-5.6-.2-1-.7-1.8-2.1-1-.4-7.9.6-5.8-1-13.3 2.9-5.3-.3-2.7-1.1-8.3-5.1-10.8-2.5-30.6-2.2-7.4-4.9-4.4-1.5-1.1.1-2.1.9h-1.2l-1.2-.5-2.4-1.8-1-.5.6-1.5 4.3-8.6 1-2.7.6-2.3.4-3.3 2.8-1.4 11.7-1.8 5.3-2.3 1.5-.2 1.4.5 4.6 3.5 1.1.2.9-.5.4-1.5-.8-1.5-7.8-11-6-6.4-1.4-1.9-.9-3.1-.3-2.5-.6-2.7-1.1-2-1.6-1.8-1.3-.9-2.7-2.5-1.1-2.2-1.3-1.7-.9-1.6-.4-1.9-.1-1.7.6-2.8 1.6-4 .1-2-1.1-1.6-11.2-3.7-1.8-1.4-1-1.5-.4-3.7 1.7-1.1.9-1.1.5-1.7 1-.8 1.2.1 1.7.7 5.1 3.3 6 3 8.1 2 4.2.5 6.3 2 10.4 6.8 2.2 1.2 2.5.6 3.9.5 9.8-.6 5.1-1.1 6.9-3.4 3-2.3 3.3-3.2 2-.5 2.4-.2 5.2 1.6 12 3.2 2.9.2 13.1 2.8 5.8.5 3.4 1.1 4.6 2.4 11.2 8.7z"/><path d="m676.5 84.1.3.6 2.4 2.3 8.2 1.9 4.3 1.8 4.2 2.2 4.7.7 2.2.8 1.8 1.5 1.3 2.2.2 2-.5 1.2-3-.3-.5.2-.3 1-.1 1.8-.2 1.2v1.7l.6 2 3 4.2 3.2 1.2.7 6.3 2.5 1.9.7 1.8 1.5 9.8-.9 16.9-.1 4.4-2-2.3-1.6-1-1.4-.4-6.5.3-2.4 1.1-1.9 1.9-1.9 2.8-1.8 1.5-18.8 4.5-2.7-.8-2.2-2.1-3.6-5.2-1.7-1.9-2-1.3-2.2-.8-5.9-.2-1.8 1.5-1.7 1.3-.9 1.2-.2 1.2-.8 7.9-.3 1.7-.7 1.6-.2 1.1.6 5.6.7 1.9v.7l-.7 1.2-1.5 1.8-.3.9-.1 1.6-1.9 3.5-1.2.9-1 .3-.2.9 2.4 2.9 21.1 16 6.9 3.4 4.1 1.3 2.8 1.5 2.8 2.2 1.4 1.7.9 1.4-.1 3.7-2.3 3.4-1.8 7.2-.1 4.5-.2 2.4-2.2 4.8-8.4 6.7-18.8 7.6-1.5 2-.4 1.3-1.5 1.4-2.2 1.2-4.2 1.2-3.2 2-5.9 4.5-3.2.9-3.9.1-2.6-.8-2.9-1.3-7.3-5.2-1.3-.2-1.7.4-4.9 2.3-6.4 1.7-2.6 1.9-.8.1-.7-1.9-.2-1.5-1.4-3.7-6-7-5.7.8-2-.5-3.5-1.3-3.9-.7-1.8-.8-3.2-1.9-1.1-.2-1.5.3-13.9 7-2.2 1.8-1.7 2.2-.7 2.8-.3 2.4-.3 3.8.1 1.9.5 2 1 2 1.5 1.9 1.6 1.9 1 1.6 1.3 2.6.6 3.2v2.6l-.5 2-.9 1.5-3.3 2.9-.4.7-1.6.4-1.3.6-12.1-2.3-7.5-4.8-4.6-4.8-1.1-2.6-.2-2.9.7-2.6 2-3.4.8-1.5.3-2-.3-1.7-2.2-3.8 4.8-14.8-.7-1.7-.9-1.8-3.3-.4-2.7-1.2-2-1.4-1-2.1.2-.9.9-.7 5.2-.2 2.1-.4 1.6-2.1-3.1-2.8-23.6-5.3-2.1-1.4-1.2-1.6-.5-1.7-1.7-7.2-.4-2.5-.1-2.6.3-5.5.3-2.3.5-1.7.4-.9.7-.6.9-.1 3.6 1 1.9.2 1.8-.5 1.2-1.4.1-1.5-1.1-1.4-2.5-1.5-4-2.9-8.9 4.1-7.5.9-5-.5-5.2-1.8-1.2-.8-3.9-4.1-3.2-1.9-3.3-.4-5.5.3-2.5.7-1.6 1.3-1.3 3.8-1.6 1-6.1 1.8-2.7 1-.3-2.1-2-4.4-9.2-9.6-1.2-2-1.2-2.3-.6-2.6.2-2.7.8-1.4 1.7-.2.8-.4 1.9-2.9.5-.7 5.2-3.6 1.7-2 2.4-3.8 1.2-1.3 2-1 7.2-1.5-.1-.4 2-1.7 4.2-2.3 4.9-4.7 2.1-1.5 13.6-5.4 18-3.2 4.4-2.5 12.8-11.2 1.8-3.1 1-5.2 1.2-2.3.2-2.1-.2-5.6.2-1.8.7-1.8 1.7-3.8.4-1.9-.3-1.7-1.2-1.9-.5-3.6-.5-1.6.7-1.4 1.2-1.1 4.3-1.6 4.3-.6 13.6 3.8 2.3 1.3 2.1 1.5 2 3.1 5.4 2.5.3.3 1.1-5.3 1.1-2.3.5.1 2.7-.4 1-.5 1.1-1 .6-1 2.3-4.9.8-2.6.4-2.8.1-3.3-.7-6.4.3-2.4 1.8-1.7-1.7-.8-.6-.6-1.4-2.7-.7.2.3-1.9 3.9-8.2 5.3 1.4 2.5 1.3 2.4 1.9 2.8 2.4 8.8 4.9 1.2 1.2 2.2 3.4.8 1.6.7.6 1.7.9.3 1.2-.3 1.3-1.6.3-.9 1.9-.9.8.6 2.7.5 1.1 2.3 2.9 1.1.9 4.4 1.9 18.6 2.1 13 4.6 1.2-.1 1-.5 2.7-2.1 6.8-2.9 2.1-2.2 2.9-7.8 1.9-1.3 3.1 3.7 5.3 2.8 1.5.3 2-.4 3.9-1.9 2-.2.8.8.2 2.6.4.8 1 .1 2-.7.9.2 1.4 1.9.8 1.8 1 1.3 2.2.2z"/><path d="m531.3 299.6-1 2.8-1 3.6-.1 1.5 1.2 6.9 3.9 13 3.4 7.1 4.1 3.9 2.3 1.6 1.9.6 1.8-.7 1.9-1.4 2.1-1 3.7-.4 2-1.3 1.9-.6 1.8 1.2 2.1 4.3 2.9 4.5.7 1.8.9 3.7 1.1 1.8 4.3 5.5 3.9 2.8 1 1.7-.3 1.9-2.5 3.3-3.9 3.7-1.1 1.7-.2 2.5.3 3.8-.7 2.2-1.5 3.7-5.6 10.4-5 6.5-3.9-5.1-11.2-8.7-4.6-2.4-3.4-1.1-5.8-.5-13.1-2.8-2.9-.2-12-3.2-5.2-1.6-2.4.2-2 .5-3.3 3.2-3 2.3-6.9 3.4-5.1 1.1-9.8.6-3.9-.5-2.5-.6-2.2-1.2-10.4-6.8-6.3-2-4.2-.5-8.1-2-6-3-5.1-3.3-1.7-.7-1.2-.1-1 .8-.5 1.7-.9 1.1-1.7 1.1-5.1-5-2.3-1.2-2.5-.6-3.5-.3-3.8-1.3-3.5-.1-4.5.9-3.1-.1-2.7.5-2.2 1-7.8 7.5-11.7 5.4-3.6 1.9.1-2.4-3.1-1.1-6.2 1.2.1-.9-.4-7.2-.4-1.9-1.1-2.7-1-1-2.2-1.8-.8-1.2-.6-2-.3-2.1v-3.6l.3-2.8 1.8-7.6-.3-3.9 3.6-1.9 1.9-.4 4 .2 14.6-5.3 4.6-2.8 1.9-.3 1.6.3 2.9 1.7 1.8.5 2 .1 4.2-.6 2.5-.9 1.7-.9 1.6-1.6 1.3-2.1 1.2-3.6 1-1.7.7-1 2.3-.9 6.4-.6 1.5-.7 1.4-.8 1.1-1.1 1.1-1.2.9-1.4 2.7-6 1.4-2.3 2.6-3.3.9-1.5.9-2.2-.3-1.3-2.6-6.4-.5-2.3-.1-1.6.7-2.4-.4-.9-1.2-1.4-4.7-3.1-2.7-2.5-3.3-5.9 4.5-4.1 2.5-1.2 4.7-1.2h4.7l7.3 1.9 2.3-.3-1.4 3.4 2.1 2.6 3.4 2.2 2.6 2.5-3.6 1.8-1.6 4.5.7 4.8 3.2 2.6 2 .4 1.3.4 1.1.9 5.9 6.6 6.4 4.9 1.5.6 2.2-1 1.3-.1 1.3.7 1.5 1.3 1.4-.1 1-.8 3.7-4.4-.1-1.6-1-3.3-.1-1.2v-3.3l.3-.5 1.2-3.2-.1-.2-.1-4.4.4.2 2.1-2.8v-.5l1.6-3.9.3-.4.3-2.4.1-2.3-.4-2.5-1-2.8-2.6-4.4-1.6-2-1.6-1.2-2-.3-3.3 1.4-2 .4-7.3-1.4-2.1-2.2 3.3-5.2.5-3.7.7-1.6 8.5-13.6-.7-.6-2.8-4.2-4.4-10.3-2.2-2.2-1.1-.6-2.6-2.7-3.2-1.9-1-1.6-.8-2.3 2.7-1 6.1-1.8 1.6-1 1.3-3.8 1.6-1.3 2.5-.7 5.5-.3 3.3.4 3.2 1.9 3.9 4.1 1.2.8 5.2 1.8 5 .5 7.5-.9 8.9-4.1 4 2.9 2.5 1.5 1.1 1.4-.1 1.5-1.2 1.4-1.8.5-1.9-.2-3.6-1-.9.1-.7.6-.4.9-.5 1.7-.3 2.3-.3 5.5.1 2.6.4 2.5 1.7 7.2.5 1.7 1.2 1.6 2.1 1.4 23.6 5.3 3.1 2.8-1.6 2.1-2.1.4-5.2.2-.9.7-.2.9 1 2.1 2 1.4 2.7 1.2 3.3.4.9 1.8.7 1.7-4.8 14.8 2.2 3.8.3 1.7-.3 2-.8 1.5-2 3.4-.7 2.6.2 2.9 1.1 2.6 4.6 4.8z"/><path d="m407.3 371.9.4 3.7 1 1.5 1.8 1.4 11.2 3.7 1.1 1.6-.1 2-1.6 4-.6 2.8.1 1.7.4 1.9.9 1.6 1.3 1.7 1.1 2.2 2.7 2.5 1.3.9 1.6 1.8 1.1 2 .6 2.7.3 2.5.9 3.1 1.4 1.9 6 6.4 7.8 11 .8 1.5-.4 1.5-.9.5-1.1-.2-4.6-3.5-1.4-.5-1.5.2-5.3 2.3-11.7 1.8-2.8 1.4-.4 3.3-.6 2.3-1 2.7-4.3 8.6-.6 1.5-.2-.1-6.5-.7-7.6 1-1.9-.2-2.2-1-4-2.8-7.1-1.2-5.4-2.2-4.5-4-2.5-6.1-1.1-4.2-2.2-1.4-2.7-.4-2.7-1.1-2-1.6-.3-1.3v-2.5l.3-2.2.9-2.7-.1-2.3-1.2-4.2-2-1.5-5.5-.2-1.8-.6-1.5-2.1-1.5-1.6-1.5-.7-3.1-.6-1.3-.5 1.9-1.9v-1.8l-.9-1.8-.9-2.1-.8-4.5-.5-2.2-.9-1.9 1.4-3.3 7.9-4.5 2.8-3.8v-2.6l3.6-1.9 11.7-5.4 7.8-7.5 2.2-1 2.7-.5 3.1.1 4.5-.9 3.5.1 3.8 1.3 3.5.3 2.5.6 2.3 1.2zm-9.2-102.5 3.3 5.9 2.7 2.5 4.7 3.1 1.2 1.4.4.9-.7 2.4.1 1.6.5 2.3 2.6 6.4.3 1.3-.9 2.2-.9 1.5-2.6 3.3-1.4 2.3-2.7 6-.9 1.4-1.1 1.2-1.1 1.1-1.4.8-1.5.7-6.4.6-2.3.9-.7 1-1 1.7-1.2 3.6-1.3 2.1-1.6 1.6-1.7.9-2.5.9-4.2.6-2-.1-1.8-.5-2.9-1.7-1.6-.3-1.9.3-4.6 2.8-14.6 5.3-4-.2-1.9.4-3.6 1.9.3 3.9-1.8 7.6-.3 2.8v3.6l.3 2.1.6 2 .8 1.2 2.2 1.8 1 1 1.1 2.7.4 1.9.4 7.2-.1.9-2.2.5-13.3 6.9-9.3.5-5.8 2-5.6 3-4.5 3.6-5.9.9-1.5 1-2.5 2.1-1.5.3-2.5-.9-4.2-3.2-2.5-.2h-2l-6.9-1.4-3.2.3-3.8 1.1-1.2.7-1.3.2-1.2-.2-1.1-.7-1.4-1.6-.9-.5-2.3-.6-1.3.3-1.1.9-1 1.5-4.5 4.4-4-.3-4.1-1.9-4.6-1.1-9.2 1.6-9.1 2.9-2.3 1.4-8.5 8.5-1.1 2.3-1.3 6.8-2.5 5.9v2.7l-.2 1-.5.6-1.5.6-.5.6-3 5-1.8 1.9-1.9.3-2.2-.8-4.5-.4-2.3.3-4.4 1.5-1.3.1-1.3-.6-2.2-1.9-1.2-.6h-1.3l-2.5.7-1.3-.1-3.8-2.1-1.5-.5-2.7.9-1.4-.1-.8-1.7.6-.9 2.9-2.4.6-1.3-1.3-1.9-10-6.1-2-.5-2.3.3-13.3 3.6-5.4-.6-4.3-3.4-.3-4.1 1.6-6.5-.7-3.2-1.1-1.4-4.5-3.6-2.7-4.4-1.4-1.5-.7-.4h-1.4l-3.8 2.1-3.3 3.8-2.3 4.4-.1 3.6-3.2.2-2.6-.7-2.1.4-2 3.4-.6 2.4-.1 1.6-.3 1.5-1.4 1.9-5.7 2.9-3.4 1h-.9l-.1-.6-2.4-6.3-2.9-4.9-.3-1.8.4-1.7 1.7-2.1 1.6-1.4 1.4-2 .8-2.4.4-3.3-.1-2.1-.4-2.7-.1-2.3.2-3 1.5-7.7 1.4-3.6 5.1-7.7 1.9-4.8.3-5.3-.1-1.9-1.6-8.7-2.2-5.5 8.5-1.1 2.8-1.1 5.9-3.6 2.5-2.3 2.4-3.2 2.9-5.9.8-1.2 1.3-.9 2.8-1 1.1-.7 2.2-2.9 1.9-3.9 1.2-4.4v-4.1l-.6-2.4-.7-1.8-1.1-1.2-1.8-1 1.3-7.7.1-1.8-.8-2.2-1.2-2.1-.1-1.7 1.9-.8 2.2-.4 1-.4.5.4.6 1.8-.2.7-.6 1-.5 1.2.2 1.7.7.9 1.1.7 2 1 5.6.8 1.5-.2 1.7-1.4 2.6-3.7 1.8-1.3 3.2.1 17.3 6.5.5.6 1.1 2 1.1.3 3.9-.5 5.2-2.4 1.9-.5 1.8.1 1.4.8 3 2.3-1.1 1.3-4.2 2.9.9 1.5 6.7 3.1 6.5 7.1.4.9.1 1.3-.3 1.3-.7.9 1.3 2.7 1.8 1 13.7.2 2.5-.8 8.6-5.9 3.3-.9 2.8 1.2-.3 5.2 3.1.4 2.9-1.3 1.8-2 1.8-2.4 2.5-2.3 2.4-.8 5.7-.2 2.1-.9 1.2-1.9-.5-1.4-1.5-1-1.6-.4 6.2-7.1 3-.7 3.2.4 2.9.9 6.2-1 2.8-1.1 2.4-2.7.7-1.8 1-4.5.9-2 3.6-3.2.5-.6 2.4.1 5.7 1.2h10.7l7.3 1.5 1.4-.4 1.3-3.3 1.5-.9 11-2.2 30 1.3 1.1-.2 3.7-4.9.5-1.2.1-1.8-.2-5.2-.4-1.1-1.7-1.5-1-1.3-.4-1-.2-1.6 2-.9 3.2-2.6 1.1-.7 1.9-.9-.4 2.9-.5 1.6-.8 1.1-.4 1.4.7 2.1 1.3 1.2 1.4-.2 2.9-1.5 2.9-.5 7.5 1.7 2.3-.4 5.1-2 2.1.4.7 1.2 1.3 4.1.7 1.6 1.1 1.3 3.9 3.1 1.8.9 2.7.1 2.8-.5 2-1z" fill-rule="nonzero"/><path d="m986.8 177.5-1.7 1.7-2 .8-1.6-.3-2.5-1.5-.9.4-1.7 1.8-.5 2.9v1.4l.4 1.5-.1 1.6-1 1.8-1.5 1-2.1-1.1-4-3.1-2.1-1-2.7.4-3 1.4-5.3 3.9-5.5 2.6-1.5-.2-1.6.3-2.8 1.3-3.2 2.7-1.8 4.9-1.3 2.4-1.9 1.7-4.5 3.2-2.5 2.6-5.2 2.7-9.1-3.1-4.6.3-3.8 1.1-6.3 5-2.1 2.2-2 3.8-.2 7.6-.5 2.3-.8 1.7-1.6 1.9-1.5 1.2-4.5.6-.1 11.9 1 2.4 2 3.4 4.5 5.2 3.8 6-4.3 8.4-.8 1.3-1.3 2.3-.7 2.2-.4 4.3.4 2.8.7 2.3-.1 2.3-.2 2-6.8 7.3-2.2 1.7-3.2 1.8-3.4.6-7.5-.1-4.5-4-1.4-2.8-.8-2.1-.3-2.2-.4-1.4-.8-1.5-.6-.3-3.1 1.6-1.3.4h-.9l-1.1-.4-1.2-1.2-3.2-1.8-10.7-1.8-1.6-4.4-1.6-3.1-3.4-2.6h-3.1l-1.9-.7-.3-1.3.7-2.7.2-2.7-.5-1.7-.8-1.5-.6-.8-1-.6-1.7.3-4.4 2.5-1.4.1-1.3-.9-1-2.6-.4-2.2-.8-5.6-.6-1.4-.9-.9-1.7-.3-2.4.2-1.5-.3-2.5-1.3-1.8-1.3-1.6-2.2-2.7-2.9-8.8-.7-5.1-3.7-10.8-5.3-5.5-5.1-2.1-.9-2.6-.2-8 2h-.9l-5.4-.8-3.6 4.6-.8 1.5-1.2 1.4-1.4.9-5.1 1.1-6.6 2.6-4.1 1.2h-1.2l-2.2-.4-2 .1-2.6.7-5.3 2.3-3.2 2-3.3.8-2.8-.4-3.9-3.3-1.2-1.3-.8-.4h-13.6l-4.5-3.6 2.2-4.8.2-2.4.1-4.5 1.8-7.2 2.3-3.4.1-3.7-.9-1.4-1.4-1.7-2.8-2.2-2.8-1.5-4.1-1.3-6.9-3.4-21.1-16-2.4-2.9.2-.9 1-.3 1.2-.9 1.9-3.5.1-1.6.3-.9 1.5-1.8.7-1.2v-.7l-.7-1.9-.6-5.6.2-1.1.7-1.6.3-1.7.8-7.9.2-1.2.9-1.2 1.7-1.3 1.8-1.5 5.9.2 2.2.8 2 1.3 1.7 1.9 3.6 5.2 2.2 2.1 2.7.8 18.8-4.5 1.8-1.5 1.9-2.8 1.9-1.9 2.4-1.1 6.5-.3 1.4.4 1.6 1 2 2.3.1-4.4.9-16.9-1.5-9.8-.7-1.8-2.5-1.9-.7-6.3-3.2-1.2-3-4.2-.6-2v-1.7l.2-1.2.1-1.8.3-1 .5-.2 3 .3.5-1.2-.2-2-1.3-2.2-1.8-1.5-2.2-.8-4.7-.7-4.2-2.2-4.3-1.8-8.2-1.9-2.4-2.3-.3-.6.6-.6.6-5.1v-6.1l.4-5.3 2.5-4 6.9-6.1.7-3.8 1.3-2.3.5-2.5.8-1.8 1.9-.8 6.9.9 6.7 2.8 2.7-.2 1.5-3.5-.9-1.6-.8-2.9.2-1.4 1-2.5 2.7-12.4v-5.5l-.5-6.1.1-5.7 1.7-4.2-.1-2 .6-1 2.9-.4 7.3 2.5 10.2.8.9 2.9.6 2.7-.1 2.7-.8 2.8 2.6.1 9.9-2.7.7-.5 1.8-2.1.5-1.1.3-2.7.5-.8h1l1.2 1.8.7.5h6.1l2.9.9 6.3 3.2 5.8 2 2.8 1.6 6.5 5.6 10.8 4.2 10.1 5.8 3 .7h3l2.2-.7 4.7-2.5 1.1-.3h4l.8.6.5 2.4.6 1 .9.4 2.5.2 1.5 1.1.9.4 1.1-.1-1.3 1.8 1.6-.4 1.5.1 1 .9.1 2.1 2.2-.6.7.8.2 2.4 13.2 9.6 6.9 3 12.1-.7 18.3 2.7 2.9-.5 1.7 1.4.7.2 2.1-.6 1.4-1.3 6.7-11.4 2.2-1.5 3.8.5 1.4-.1 2.3-1 1.2-.1 1.2.4 2.3 1.4 7.8 2.3 2.4.3 2.5 1 1 2.4.5 2.9 1 2.3 1.7 1.2 2.1.4 4.9-.2 2 .7 4.8 3.1 2.4.9 2.5-.3 5-1.8 2.2.2 3.1 4.3 1.8 13.2 4.5 5.2 1.2 9.3-1 3.5-2.1 2.3-2.2 1.7-.9 1.9-.7 2.6-3.5 5-1.3 2.6-.5 2.8-1.2 10.6-.9 2.7-.1 2.2.4 1.2 1.1.6 2.6.3 2.1 1.5 1.4 1.5.6 1.6-1.1 3 .9.8.9 2.1.6 2.1 2.2 1.2 1.4 1.3.8.3.6 1.5-.1 3.2 2.1 7.1.6 3.5v4.3l.9 3.1 3.3 3.6 1.8 1.1 2.1.3 1.4.9zm-76.3-35.1-3.6-6.3-.7-.9-4.1-.4-.5 1.5-1 .9-2.3.6-4.6 2.3-8.8 5.7-.7 1.1-1.5 1.4-1.1.7-1.7.5-1.7.2-3.2-1.5-1 1-1.2 2-.4 1.5v1.7l1 1.8 1 1.1 1 2.5-1.2 5.6 1.1 1.9.8.9.5 1.3 1.6.8 8 .7 3.5-.6 3.4-.1 1.8 1.3 2.4 1.1 1.2.3 2.9.1 1.4-1 .7-.7.8-1.7 1.1-.9 1.9-.6 6.1-.3 9.1 1.7-2.8-6-.9-2.8.6-5.3 1.1-4.8-.5-1.2-1-1-.5-2.5-.4-1.5-1.4-1.5-.7-1.6-1.3-1.3-2.5.5-1.2 2.3z" fill-rule="nonzero"/><path d="m910.5 142.4.5.5 1.2-2.3 2.5-.5 1.3 1.3.7 1.6 1.4 1.5.4 1.5.5 2.5 1 1 .5 1.2-1.1 4.8-.6 5.3.9 2.8 2.8 6-9.1-1.7-6.1.3-1.9.6-1.1.9-.8 1.7-.7.7-1.4 1-2.9-.1-1.2-.3-2.4-1.1-1.8-1.3-3.4.1-3.5.6-8-.7-1.6-.8-.5-1.3-.8-.9-1.1-1.9 1.2-5.6-1-2.5-1-1.1-1-1.8v-1.7l.4-1.5 1.2-2 1-1 3.2 1.5 1.7-.2 1.7-.5 1.1-.7 1.5-1.4.7-1.1 8.8-5.7 4.6-2.3 2.3-.6 1-.9.5-1.5 4.1.4.7.9z"/></g><circle cx="243.5" cy="357.5" fill="#e63d31" r="11.5"/><circle cx="899.5" cy="157.5" fill="#e63d31" r="11.5"/><circle cx="604.5" cy="134.5" fill="#e63d31" r="11.5"/></g></svg>