
<svg width="1000px" height="514px" viewBox="0 0 1000 514" version="1.1" xmlns="http://www.w3.org/2000/svg" xmlns:xlink="http://www.w3.org/1999/xlink">
    <g id="Page-1" stroke="none" stroke-width="1" fill="none" fill-rule="evenodd">
        <g id="austria" transform="translate(1.000000, 1.000000)">
            <polygon id="AUT2320" stroke="#ccc" stroke-width="2" fill="#FFF8BC" stroke-linecap="round" stroke-linejoin="round" points="85.5 341 87.7 346.5 89.3 355.2 89.4 357.1 89.1 362.4 87.2 367.2 82.1 374.9 80.7 378.5 79.2 386.2 79 389.2 79.1 391.5 79.5 394.2 79.6 396.3 79.2 399.6 78.4 402 77 404 75.4 405.4 73.7 407.5 73.3 409.2 73.6 411 76.5 415.9 78.9 422.2 79 422.8 77.2 422.7 71.6 420.9 68.6 419.2 63.6 414.3 49.6 409.8 46.3 407.3 44.7 404.9 44.4 403.1 44.9 401.1 45.2 396.6 45.7 394.7 45.7 393.6 45.2 393 44.4 393.1 43.9 392.6 44.1 390.4 19.4 382.6 17.2 382.3 10.3 383.1 7.9 382.5 11.5 377.9 12.4 372.9 11 368 7.9 363.6 4 361.3 4 359.6 5.3 356.7 5.5 355.4 4.3 352.7 3.1 351 2.5 349.3 3.4 346.6 1.2 344.6 -1.42108547e-14 342.8 4.2 335.7 8.7 330.3 9.2 328.9 9.8 325.5 10.5 323.8 15.5 317.4 16.8 314.4 16.9 306.2 13.2 302.9 8.3 300.7 4.4 294.8 7.5 296.6 9.4 297.1 11.4 297.1 12.3 296.6 13.9 294.9 14.9 294.6 15.7 294.9 15.9 296.6 16.7 297.1 19.4 297.2 20.3 297.1 21 296.3 21.7 293.8 22.1 293.1 23.7 292.7 29.2 293.1 27.6 289.5 25.8 287.9 27.4 284.4 30.3 281 32.2 280 34.1 279.8 36 280.5 37.5 282.1 38 284.4 37.7 286.8 38.2 288.8 40.9 290.2 41.9 290.1 43.5 289.1 44.2 288.9 48.1 290.4 52 290.7 54 290.3 55.6 289 55.9 292.2 57.3 294.1 58.9 295.7 60.1 298.3 60.4 300.6 61.8 301.5 63 301 64.1 300 65.6 299.3 72.1 308.7 73.2 311 72.6 313 69.6 315.4 71.1 317 71.4 319.1 71.5 321.1 72.2 323 73.5 324.2 74.4 324.2 75.4 323.4 77.1 322.6 77.7 322.7 79.1 323.5 80.3 323.1 81.9 321.4 87.6 320.3 90 321.6 89.9 325.1 87.6 332.3 87.9 334.7 87.6 336 87 336.6 85.3 337.1 84.7 337.5 83 340.9 83.6 341.2 85.5 341"></polygon>
            <polygon id="AUT2322" stroke="#ccc" stroke-width="2" fill="#FFF8BC" stroke-linecap="round" stroke-linejoin="round" points="851.5 424.6 851.2 421.7 850.5 420.4 848.9 419.1 848.2 418.2 848.1 417 848.7 413.8 848.8 411.8 849.2 410 850.2 408.2 854.9 404.1 861.2 395.7 864.6 390.6 865.6 388.6 865.7 387.3 865.4 385.7 860.6 379.6 859.5 377.5 858.9 374.8 858.8 372.8 860.2 366.8 860.2 361.6 856.6 347.7 856.4 344.7 855.4 337.3 854.1 332 852.7 327.2 850.4 321.6 850.2 320 850.6 318.4 852.6 315.6 854 314.2 855.5 314.1 856.3 315.1 857.1 317.3 859.5 315.9 867.1 308 874.6 308.1 878 307.5 881.2 305.7 883.4 304 890.2 296.7 890.4 294.7 890.5 292.4 889.8 290.1 889.4 287.3 889.8 283 890.5 280.8 891.8 278.5 892.6 277.2 896.9 268.8 893.1 262.8 888.6 257.6 886.6 254.2 885.6 251.8 885.7 239.9 890.2 239.3 891.7 238.1 893.3 236.2 894.1 234.5 894.6 232.2 894.8 224.6 896.8 220.8 898.9 218.6 905.2 213.6 909 212.5 913.6 212.2 922.7 215.3 927.9 212.6 930.4 210 934.9 206.8 936.8 205.1 938.1 202.7 939.9 197.8 943.1 195.1 945.9 193.8 947.5 193.5 949 193.7 954.5 191.1 959.8 187.2 962.8 185.8 965.5 185.4 967.6 186.4 971.6 189.5 973.7 190.6 975.2 189.6 976.2 187.8 976.3 186.2 975.9 184.7 975.9 183.3 976.4 180.4 978.1 178.6 979 178.2 981.5 179.7 983.1 180 985.1 179.2 986.8 177.5 987.4 178.6 989.1 180.4 987.7 182.1 987.1 184.1 986.3 187.7 988.4 189.4 987.7 192.6 990.7 194.2 994.9 195.7 998 198.5 989.8 205.4 991.2 207 991.1 208.2 990.5 209.4 990.1 211.1 988.6 212.3 988.3 212.8 988.4 213.7 989.8 214.3 990 214.7 989.5 218.2 988.7 220.7 987.4 222.7 985.3 224.4 980.8 225.4 979.1 226.3 979.2 228.4 980 229.3 982.7 230.6 983.8 231.3 985 235 985.9 236.2 983.9 238.4 984.1 241.8 985 245.7 985.2 252.1 985.9 254 987 255.5 988.5 256.5 985.8 257.7 976.2 259 965.9 261.6 960.9 260.7 959 255.6 957.3 257.1 954.7 261.2 953.2 262.6 952.1 262.9 944.7 261.7 943.3 260.8 941.9 259.3 940.8 257.3 940.4 255.3 939.7 253.5 938 252.3 927.5 248.2 922 247.6 917.2 249.7 916.5 251.6 916.7 254.2 916 255.9 914.9 256.9 909.6 259.7 908.1 261.1 907.2 261.6 906.6 261.5 905.2 260 904.2 260.9 902.3 264.2 901.1 265.6 903.5 267 910.8 270 914.4 269.2 923 272.7 927.4 272 930.2 273.3 932.5 276.3 933.6 280.3 932.9 284 935.1 285.3 936.9 287.1 937.9 289.6 937.8 292.6 936.4 295 932.6 296.6 931.1 298.3 931.6 306.1 924.9 311.3 910.8 317.8 909.2 315.2 907.5 314 905.9 314.5 904.5 316.9 904.9 324.3 904.6 324.9 903.3 325.8 903.3 326.9 903.6 327.6 905.2 328.6 909.1 336.9 909.7 340.1 908.8 342.7 906.9 344.4 902.9 346.6 903.3 350 901.3 354.2 901.8 357.4 902.5 358.1 904.7 358.1 905.6 359.3 905.6 361 904.5 364.3 904.5 365.4 906.2 366.5 910.7 364.4 912.8 364.6 914.4 366.9 913.8 369.2 910.8 373.2 908 374.9 907.2 377.7 908.2 380.2 910.8 381.1 912.3 381.9 912.8 382.9 912.3 383.9 910.8 384.9 904.9 387.3 903.3 388.8 907.1 389.2 908.9 389.9 910.8 391.6 911.4 393.7 908.9 394.3 905.5 394.3 903.3 394.7 902.8 395.3 901.4 395.2 898.5 393 895.7 392.7 890.4 393.3 885.5 392.3 883.7 392.6 882.5 394.7 881.9 397.6 880.8 398.5 879.5 398.8 878.2 399.9 877.9 401.1 877.9 403.3 877 404.7 876.1 405.4 873.4 406.6 870.1 409 868.6 410.6 863.8 417.1 862.1 418.7 860 419.7 851.9 424.5 851.5 424.6"></polygon>
            <polygon id="AUT2323" stroke="#ccc" stroke-width="2" fill="#FFF8BC" stroke-linecap="round" stroke-linejoin="round" points="867.1 308 859.5 315.9 857.1 317.3 856.3 315.1 855.5 314.1 854 314.2 852.6 315.6 850.6 318.4 850.2 320 850.4 321.6 852.7 327.2 854.1 332 855.4 337.3 856.4 344.7 856.6 347.7 860.2 361.6 860.2 366.8 858.8 372.8 858.9 374.8 859.5 377.5 860.6 379.6 865.4 385.7 865.7 387.3 865.6 388.6 864.6 390.6 861.2 395.7 854.9 404.1 850.2 408.2 849.2 410 848.8 411.8 848.7 413.8 848.1 417 848.2 418.2 848.9 419.1 850.5 420.4 851.2 421.7 851.5 424.6 846.1 426 845.3 426.4 844.1 427.8 844.8 428.6 844.9 430 844 435.9 843.8 439.3 843.9 442.6 845.4 447.3 848.2 449.1 849.6 452 849.9 456.4 847.5 453.3 846 452.3 840.7 451.4 831.9 446.9 828.2 446.2 824.6 446.5 815.7 450.1 812.2 450.3 802.2 448.8 800.1 447.5 799.7 450.4 799.7 452.8 798.9 454.5 797.6 455.5 795.9 456 793.9 455.4 791.1 455.5 788.3 456.2 786.3 457.7 785 460.4 784.6 462.6 783.8 464.5 781.4 466.4 777.4 467.1 774.5 465.3 771.5 462.7 767.7 461.2 743.7 462.5 730.7 461.1 729.6 459.6 721.4 450.2 719.8 445.6 719.5 439.3 718 432.5 716.1 427.9 715.4 425.3 715.2 423.6 716.1 420.2 716.9 418.5 717.7 416.2 718 410.4 707.7 394.6 702.5 388.2 700.6 386.7 699.3 385.8 697.3 385.5 682.8 388.9 666.7 390.2 663.1 388.7 654.6 389.3 651 389 637.7 393.7 635.3 393.6 634.2 393.4 633.9 392.9 632.5 391.8 630.3 390.7 621 387.8 615.7 384 612.3 382.5 607.7 382.4 603.8 383.1 589.5 390 587.5 391.5 586.4 392.9 585.3 395.2 583.3 398.6 578.4 400.9 570.3 407.2 568 407.9 565.6 408.2 564.4 407.7 562.6 406.4 557.6 402.2 562.6 395.7 568.2 385.3 569.7 381.6 570.4 379.4 570.1 375.6 570.3 373.1 571.4 371.4 575.3 367.7 577.8 364.4 578.1 362.5 577.1 360.8 573.2 358 568.9 352.5 567.8 350.7 566.9 347 566.2 345.2 563.3 340.7 561.2 336.4 559.4 335.2 557.5 335.8 555.5 337.1 551.8 337.5 549.7 338.5 547.8 339.9 546 340.6 544.1 340 541.8 338.4 537.7 334.5 534.3 327.4 530.4 314.4 529.2 307.5 529.3 306 530.3 302.4 531.3 299.6 543.4 301.9 544.7 301.3 546.3 300.9 546.7 300.2 550 297.3 550.9 295.8 551.4 293.8 551.4 291.2 550.8 288 549.5 285.4 548.5 283.8 546.9 281.9 545.4 280 544.4 278 543.9 276 543.8 274.1 544.1 270.3 544.4 267.9 545.1 265.1 546.8 262.9 549 261.1 562.9 254.1 564.4 253.8 565.5 254 568.7 255.9 570.5 256.7 574.4 257.4 577.9 258.7 579.9 259.2 585.6 258.4 591.6 265.4 593 269.1 593.2 270.6 593.9 272.5 594.7 272.4 597.3 270.5 603.7 268.8 608.6 266.5 610.3 266.1 611.6 266.3 618.9 271.5 621.8 272.8 624.4 273.6 628.3 273.5 631.5 272.6 637.4 268.1 640.6 266.1 644.8 264.9 647 263.7 648.5 262.3 648.9 261 650.4 259 669.2 251.4 677.6 244.7 682.1 248.3 695.7 248.3 696.5 248.7 697.7 250 701.6 253.3 704.4 253.7 707.7 252.9 710.9 250.9 716.2 248.6 718.8 247.9 720.8 247.8 723 248.2 724.2 248.2 728.3 247 734.9 244.4 740 243.3 741.4 242.4 742.6 241 743.4 239.5 747 234.9 752.4 235.7 753.3 235.7 761.3 233.7 763.9 233.9 766 234.8 771.5 239.9 782.3 245.2 787.4 248.9 796.2 249.6 798.9 252.5 800.5 254.7 802.3 256 804.8 257.3 806.3 257.6 808.7 257.4 810.4 257.7 811.3 258.6 811.9 260 812.7 265.6 813.1 267.8 814.1 270.4 815.4 271.3 816.8 271.2 821.2 268.7 822.9 268.4 823.9 269 824.5 269.8 825.3 271.3 825.8 273 825.6 275.7 824.9 278.4 825.2 279.7 827.1 280.4 830.2 280.4 833.6 283 835.2 286.1 836.8 290.5 847.5 292.3 850.7 294.1 851.9 295.3 853 295.7 853.9 295.7 855.2 295.3 858.3 293.7 858.9 294 859.7 295.5 860.1 296.9 860.4 299.1 861.2 301.2 862.6 304 867.1 308"></polygon>
            <polygon id="AUT2325" stroke="#ccc" stroke-width="2" fill="#FFF8BC" stroke-linecap="round" stroke-linejoin="round" points="557.6 402.2 562.6 406.4 564.4 407.7 565.6 408.2 568 407.9 570.3 407.2 578.4 400.9 583.3 398.6 585.3 395.2 586.4 392.9 587.5 391.5 589.5 390 603.8 383.1 607.7 382.4 612.3 382.5 615.7 384 621 387.8 630.3 390.7 632.5 391.8 633.9 392.9 634.2 393.4 635.3 393.6 637.7 393.7 651 389 654.6 389.3 663.1 388.7 666.7 390.2 682.8 388.9 697.3 385.5 699.3 385.8 700.6 386.7 702.5 388.2 707.7 394.6 718 410.4 717.7 416.2 716.9 418.5 716.1 420.2 715.2 423.6 715.4 425.3 716.1 427.9 718 432.5 719.5 439.3 719.8 445.6 721.4 450.2 729.6 459.6 730.7 461.1 725 460.5 717.5 462.9 712.6 469.9 710.1 466.2 708.2 465.9 703.5 468.8 700.8 469.2 699 469 697.3 469.7 695.1 472.9 693.6 476.1 691.7 482.1 689.2 487.7 688.5 488.3 685.6 489.6 682.3 490.2 681.1 489.4 678.9 490.4 678.1 491.3 677.5 492.6 676 494.4 675 496.8 673.3 496.4 672.7 496.6 670.1 499.4 668.7 500.2 667.4 500.6 664.5 500.9 663.3 501.4 661.3 504.2 660.2 507.9 659 511 656.7 512 655 510.2 653.5 506.9 651.8 504.5 647.2 505.5 645.1 505.2 641 503.3 640.3 502.4 639.2 500.5 637.8 500.2 633.4 501.1 605.7 500.3 604 499.9 596.6 493.5 594.7 492.5 592.6 491.9 590.3 491.8 585.9 492.6 583.7 492.4 571.8 486.7 567.8 486 559.3 487.4 557.5 487.5 548.9 485.4 546.9 485.2 544.9 485.6 542.9 485.4 527.1 480.2 521.5 480 520.5 479.3 518.7 477.2 517.7 476.8 509.8 477.4 504 476.4 490.7 479.3 485.4 479 482.7 477.9 474.4 472.8 463.6 470.3 433 468.1 425.6 463.2 421.2 461.7 420.1 461.8 418 462.7 416.8 462.7 415.6 462.2 413.2 460.4 412.2 459.9 412.8 458.4 417.1 449.8 418.1 447.1 418.7 444.8 419.1 441.5 421.9 440.1 433.6 438.3 438.9 436 440.4 435.8 441.8 436.3 446.4 439.8 447.5 440 448.4 439.5 448.8 438 448 436.5 440.2 425.5 434.2 419.1 432.8 417.2 431.9 414.1 431.6 411.6 431 408.9 429.9 406.9 428.3 405.1 427 404.2 424.3 401.7 423.2 399.5 421.9 397.8 421 396.2 420.6 394.3 420.5 392.6 421.1 389.8 422.7 385.8 422.8 383.8 421.7 382.2 410.5 378.5 408.7 377.1 407.7 375.6 407.3 371.9 409 370.8 409.9 369.7 410.4 368 411.4 367.2 412.6 367.3 414.3 368 419.4 371.3 425.4 374.3 433.5 376.3 437.7 376.8 444 378.8 454.4 385.6 456.6 386.8 459.1 387.4 463 387.9 472.8 387.3 477.9 386.2 484.8 382.8 487.8 380.5 491.1 377.3 493.1 376.8 495.5 376.6 500.7 378.2 512.7 381.4 515.6 381.6 528.7 384.4 534.5 384.9 537.9 386 542.5 388.4 553.7 397.1 557.6 402.2"></polygon>
            <polygon id="AUT2326" stroke="#ccc" stroke-width="2" fill="#FFF8BC" stroke-linecap="round" stroke-linejoin="round" points="676.5 84.1 676.8 84.7 679.2 87 687.4 88.9 691.7 90.7 695.9 92.9 700.6 93.6 702.8 94.4 704.6 95.9 705.9 98.1 706.1 100.1 705.6 101.3 702.6 101 702.1 101.2 701.8 102.2 701.7 104 701.5 105.2 701.5 106.9 702.1 108.9 705.1 113.1 708.3 114.3 709 120.6 711.5 122.5 712.2 124.3 713.7 134.1 712.8 151 712.7 155.4 710.7 153.1 709.1 152.1 707.7 151.7 701.2 152 698.8 153.1 696.9 155 695 157.8 693.2 159.3 674.4 163.8 671.7 163 669.5 160.9 665.9 155.7 664.2 153.8 662.2 152.5 660 151.7 654.1 151.5 652.3 153 650.6 154.3 649.7 155.5 649.5 156.7 648.7 164.6 648.4 166.3 647.7 167.9 647.5 169 648.1 174.6 648.8 176.5 648.8 177.2 648.1 178.4 646.6 180.2 646.3 181.1 646.2 182.7 644.3 186.2 643.1 187.1 642.1 187.4 641.9 188.3 644.3 191.2 665.4 207.2 672.3 210.6 676.4 211.9 679.2 213.4 682 215.6 683.4 217.3 684.3 218.7 684.2 222.4 681.9 225.8 680.1 233 680 237.5 679.8 239.9 677.6 244.7 669.2 251.4 650.4 259 648.9 261 648.5 262.3 647 263.7 644.8 264.9 640.6 266.1 637.4 268.1 631.5 272.6 628.3 273.5 624.4 273.6 621.8 272.8 618.9 271.5 611.6 266.3 610.3 266.1 608.6 266.5 603.7 268.8 597.3 270.5 594.7 272.4 593.9 272.5 593.2 270.6 593 269.1 591.6 265.4 585.6 258.4 579.9 259.2 577.9 258.7 574.4 257.4 570.5 256.7 568.7 255.9 565.5 254 564.4 253.8 562.9 254.1 549 261.1 546.8 262.9 545.1 265.1 544.4 267.9 544.1 270.3 543.8 274.1 543.9 276 544.4 278 545.4 280 546.9 281.9 548.5 283.8 549.5 285.4 550.8 288 551.4 291.2 551.4 293.8 550.9 295.8 550 297.3 546.7 300.2 546.3 300.9 544.7 301.3 543.4 301.9 531.3 299.6 523.8 294.8 519.2 290 518.1 287.4 517.9 284.5 518.6 281.9 520.6 278.5 521.4 277 521.7 275 521.4 273.3 519.2 269.5 524 254.7 523.3 253 522.4 251.2 519.1 250.8 516.4 249.6 514.4 248.2 513.4 246.1 513.6 245.2 514.5 244.5 519.7 244.3 521.8 243.9 523.4 241.8 520.3 239 496.7 233.7 494.6 232.3 493.4 230.7 492.9 229 491.2 221.8 490.8 219.3 490.7 216.7 491 211.2 491.3 208.9 491.8 207.2 492.2 206.3 492.9 205.7 493.8 205.6 497.4 206.6 499.3 206.8 501.1 206.3 502.3 204.9 502.4 203.4 501.3 202 498.8 200.5 494.8 197.6 485.9 201.7 478.4 202.6 473.4 202.1 468.2 200.3 467 199.5 463.1 195.4 459.9 193.5 456.6 193.1 451.1 193.4 448.6 194.1 447 195.4 445.7 199.2 444.1 200.2 438 202 435.3 203 435 200.9 433 196.5 423.8 186.9 422.6 184.9 421.4 182.6 420.8 180 421 177.3 421.8 175.9 423.5 175.7 424.3 175.3 426.2 172.4 426.7 171.7 431.9 168.1 433.6 166.1 436 162.3 437.2 161 439.2 160 446.4 158.5 446.3 158.1 448.3 156.4 452.5 154.1 457.4 149.4 459.5 147.9 473.1 142.5 491.1 139.3 495.5 136.8 508.3 125.6 510.1 122.5 511.1 117.3 512.3 115 512.5 112.9 512.3 107.3 512.5 105.5 513.2 103.7 514.9 99.9 515.3 98 515 96.3 513.8 94.4 513.3 90.8 512.8 89.2 513.5 87.8 514.7 86.7 519 85.1 523.3 84.5 536.9 88.3 539.2 89.6 541.3 91.1 543.3 94.2 548.7 96.7 549 97 550.1 91.7 551.2 89.4 551.7 89.5 554.4 89.1 555.4 88.6 556.5 87.6 557.1 86.6 559.4 81.7 560.2 79.1 560.6 76.3 560.7 73 560 66.6 560.3 64.2 562.1 62.5 560.4 61.7 559.8 61.1 558.4 58.4 557.7 58.6 558 56.7 561.9 48.5 567.2 49.9 569.7 51.2 572.1 53.1 574.9 55.5 583.7 60.4 584.9 61.6 587.1 65 587.9 66.6 588.6 67.2 590.3 68.1 590.6 69.3 590.3 70.6 588.7 70.9 587.8 72.8 586.9 73.6 587.5 76.3 588 77.4 590.3 80.3 591.4 81.2 595.8 83.1 614.4 85.2 627.4 89.8 628.6 89.7 629.6 89.2 632.3 87.1 639.1 84.2 641.2 82 644.1 74.2 646 72.9 649.1 76.6 654.4 79.4 655.9 79.7 657.9 79.3 661.8 77.4 663.8 77.2 664.6 78 664.8 80.6 665.2 81.4 666.2 81.5 668.2 80.8 669.1 81 670.5 82.9 671.3 84.7 672.3 86 674.5 86.2 676.5 84.1"></polygon>
            <polygon id="AUT2327" stroke="#ccc" stroke-width="2" fill="#FFF8BC" stroke-linecap="round" stroke-linejoin="round" points="531.3 299.6 530.3 302.4 529.3 306 529.2 307.5 530.4 314.4 534.3 327.4 537.7 334.5 541.8 338.4 544.1 340 546 340.6 547.8 339.9 549.7 338.5 551.8 337.5 555.5 337.1 557.5 335.8 559.4 335.2 561.2 336.4 563.3 340.7 566.2 345.2 566.9 347 567.8 350.7 568.9 352.5 573.2 358 577.1 360.8 578.1 362.5 577.8 364.4 575.3 367.7 571.4 371.4 570.3 373.1 570.1 375.6 570.4 379.4 569.7 381.6 568.2 385.3 562.6 395.7 557.6 402.2 553.7 397.1 542.5 388.4 537.9 386 534.5 384.9 528.7 384.4 515.6 381.6 512.7 381.4 500.7 378.2 495.5 376.6 493.1 376.8 491.1 377.3 487.8 380.5 484.8 382.8 477.9 386.2 472.8 387.3 463 387.9 459.1 387.4 456.6 386.8 454.4 385.6 444 378.8 437.7 376.8 433.5 376.3 425.4 374.3 419.4 371.3 414.3 368 412.6 367.3 411.4 367.2 410.4 368 409.9 369.7 409 370.8 407.3 371.9 402.2 366.9 399.9 365.7 397.4 365.1 393.9 364.8 390.1 363.5 386.6 363.4 382.1 364.3 379 364.2 376.3 364.7 374.1 365.7 366.3 373.2 354.6 378.6 351 380.5 351.1 378.1 348 377 341.8 378.2 341.9 377.3 341.5 370.1 341.1 368.2 340 365.5 339 364.5 336.8 362.7 336 361.5 335.4 359.5 335.1 357.4 335.1 353.8 335.4 351 337.2 343.4 336.9 339.5 340.5 337.6 342.4 337.2 346.4 337.4 361 332.1 365.6 329.3 367.5 329 369.1 329.3 372 331 373.8 331.5 375.8 331.6 380 331 382.5 330.1 384.2 329.2 385.8 327.6 387.1 325.5 388.3 321.9 389.3 320.2 390 319.2 392.3 318.3 398.7 317.7 400.2 317 401.6 316.2 402.7 315.1 403.8 313.9 404.7 312.5 407.4 306.5 408.8 304.2 411.4 300.9 412.3 299.4 413.2 297.2 412.9 295.9 410.3 289.5 409.8 287.2 409.7 285.6 410.4 283.2 410 282.3 408.8 280.9 404.1 277.8 401.4 275.3 398.1 269.4 402.6 265.3 405.1 264.1 409.8 262.9 414.5 262.9 421.8 264.8 424.1 264.5 422.7 267.9 424.8 270.5 428.2 272.7 430.8 275.2 427.2 277 425.6 281.5 426.3 286.3 429.5 288.9 431.5 289.3 432.8 289.7 433.9 290.6 439.8 297.2 446.2 302.1 447.7 302.7 449.9 301.7 451.2 301.6 452.5 302.3 454 303.6 455.4 303.5 456.4 302.7 460.1 298.3 460 296.7 459 293.4 458.9 292.2 458.9 288.9 459.2 288.4 460.4 285.2 460.3 285 460.2 280.6 460.6 280.8 462.7 278 462.7 277.5 464.3 273.6 464.6 273.2 464.9 270.8 465 268.5 464.6 266 463.6 263.2 461 258.8 459.4 256.8 457.8 255.6 455.8 255.3 452.5 256.7 450.5 257.1 443.2 255.7 441.1 253.5 444.4 248.3 444.9 244.6 445.6 243 454.1 229.4 453.4 228.8 450.6 224.6 446.2 214.3 444 212.1 442.9 211.5 440.3 208.8 437.1 206.9 436.1 205.3 435.3 203 438 202 444.1 200.2 445.7 199.2 447 195.4 448.6 194.1 451.1 193.4 456.6 193.1 459.9 193.5 463.1 195.4 467 199.5 468.2 200.3 473.4 202.1 478.4 202.6 485.9 201.7 494.8 197.6 498.8 200.5 501.3 202 502.4 203.4 502.3 204.9 501.1 206.3 499.3 206.8 497.4 206.6 493.8 205.6 492.9 205.7 492.2 206.3 491.8 207.2 491.3 208.9 491 211.2 490.7 216.7 490.8 219.3 491.2 221.8 492.9 229 493.4 230.7 494.6 232.3 496.7 233.7 520.3 239 523.4 241.8 521.8 243.9 519.7 244.3 514.5 244.5 513.6 245.2 513.4 246.1 514.4 248.2 516.4 249.6 519.1 250.8 522.4 251.2 523.3 253 524 254.7 519.2 269.5 521.4 273.3 521.7 275 521.4 277 520.6 278.5 518.6 281.9 517.9 284.5 518.1 287.4 519.2 290 523.8 294.8 531.3 299.6"></polygon>
            <path d="M407.3,371.9 L407.7,375.6 L408.7,377.1 L410.5,378.5 L421.7,382.2 L422.8,383.8 L422.7,385.8 L421.1,389.8 L420.5,392.6 L420.6,394.3 L421,396.2 L421.9,397.8 L423.2,399.5 L424.3,401.7 L427,404.2 L428.3,405.1 L429.9,406.9 L431,408.9 L431.6,411.6 L431.9,414.1 L432.8,417.2 L434.2,419.1 L440.2,425.5 L448,436.5 L448.8,438 L448.4,439.5 L447.5,440 L446.4,439.8 L441.8,436.3 L440.4,435.8 L438.9,436 L433.6,438.3 L421.9,440.1 L419.1,441.5 L418.7,444.8 L418.1,447.1 L417.1,449.8 L412.8,458.4 L412.2,459.9 L412,459.8 L405.5,459.1 L397.9,460.1 L396,459.9 L393.8,458.9 L389.8,456.1 L382.7,454.9 L377.3,452.7 L372.8,448.7 L370.3,442.6 L369.2,438.4 L367,437 L364.3,436.6 L361.6,435.5 L359.6,433.9 L359.3,432.6 L359.3,430.1 L359.6,427.9 L360.5,425.2 L360.4,422.9 L359.2,418.7 L357.2,417.2 L351.7,417 L349.9,416.4 L348.4,414.3 L346.9,412.7 L345.4,412 L342.3,411.4 L341,410.9 L342.9,409 L342.9,407.2 L342,405.4 L341.1,403.3 L340.3,398.8 L339.8,396.6 L338.9,394.7 L340.3,391.4 L348.2,386.9 L351,383.1 L351,380.5 L354.6,378.6 L366.3,373.2 L374.1,365.7 L376.3,364.7 L379,364.2 L382.1,364.3 L386.6,363.4 L390.1,363.5 L393.9,364.8 L397.4,365.1 L399.9,365.7 L402.2,366.9 L407.3,371.9 Z M398.1,269.4 L401.4,275.3 L404.1,277.8 L408.8,280.9 L410,282.3 L410.4,283.2 L409.7,285.6 L409.8,287.2 L410.3,289.5 L412.9,295.9 L413.2,297.2 L412.3,299.4 L411.4,300.9 L408.8,304.2 L407.4,306.5 L404.7,312.5 L403.8,313.9 L402.7,315.1 L401.6,316.2 L400.2,317 L398.7,317.7 L392.3,318.3 L390,319.2 L389.3,320.2 L388.3,321.9 L387.1,325.5 L385.8,327.6 L384.2,329.2 L382.5,330.1 L380,331 L375.8,331.6 L373.8,331.5 L372,331 L369.1,329.3 L367.5,329 L365.6,329.3 L361,332.1 L346.4,337.4 L342.4,337.2 L340.5,337.6 L336.9,339.5 L337.2,343.4 L335.4,351 L335.1,353.8 L335.1,357.4 L335.4,359.5 L336,361.5 L336.8,362.7 L339,364.5 L340,365.5 L341.1,368.2 L341.5,370.1 L341.9,377.3 L341.8,378.2 L339.6,378.7 L326.3,385.6 L317,386.1 L311.2,388.1 L305.6,391.1 L301.1,394.7 L295.2,395.6 L293.7,396.6 L291.2,398.7 L289.7,399 L287.2,398.1 L283,394.9 L280.5,394.7 L278.5,394.7 L271.6,393.3 L268.4,393.6 L264.6,394.7 L263.4,395.4 L262.1,395.6 L260.9,395.4 L259.8,394.7 L258.4,393.1 L257.5,392.6 L255.2,392 L253.9,392.3 L252.8,393.2 L251.8,394.7 L247.3,399.1 L243.3,398.8 L239.2,396.9 L234.6,395.8 L225.4,397.4 L216.3,400.3 L214,401.7 L205.5,410.2 L204.4,412.5 L203.1,419.3 L200.6,425.2 L200.6,427.9 L200.4,428.9 L199.9,429.5 L198.4,430.1 L197.9,430.7 L194.9,435.7 L193.1,437.6 L191.2,437.9 L189,437.1 L184.5,436.7 L182.2,437 L177.8,438.5 L176.5,438.6 L175.2,438 L173,436.1 L171.8,435.5 L170.5,435.5 L168,436.2 L166.7,436.1 L162.9,434 L161.4,433.5 L158.7,434.4 L157.3,434.3 L156.5,432.6 L157.1,431.7 L160,429.3 L160.6,428 L159.3,426.1 L149.3,420 L147.3,419.5 L145,419.8 L131.7,423.4 L126.3,422.8 L122,419.4 L121.7,415.3 L123.3,408.8 L122.6,405.6 L121.5,404.2 L117,400.6 L114.3,396.2 L112.9,394.7 L112.2,394.3 L110.8,394.3 L107,396.4 L103.7,400.2 L101.4,404.6 L101.3,408.2 L98.1,408.4 L95.5,407.7 L93.4,408.1 L91.4,411.5 L90.8,413.9 L90.7,415.5 L90.4,417 L89,418.9 L83.3,421.8 L79.9,422.8 L79,422.8 L78.9,422.2 L76.5,415.9 L73.6,411 L73.3,409.2 L73.7,407.5 L75.4,405.4 L77,404 L78.4,402 L79.2,399.6 L79.6,396.3 L79.5,394.2 L79.1,391.5 L79,389.2 L79.2,386.2 L80.7,378.5 L82.1,374.9 L87.2,367.2 L89.1,362.4 L89.4,357.1 L89.3,355.2 L87.7,346.5 L85.5,341 L94,339.9 L96.8,338.8 L102.7,335.2 L105.2,332.9 L107.6,329.7 L110.5,323.8 L111.3,322.6 L112.6,321.7 L115.4,320.7 L116.5,320 L118.7,317.1 L120.6,313.2 L121.8,308.8 L121.8,304.7 L121.2,302.3 L120.5,300.5 L119.4,299.3 L117.6,298.3 L118.9,290.6 L119,288.8 L118.2,286.6 L117,284.5 L116.9,282.8 L118.8,282 L121,281.6 L122,281.2 L122.5,281.6 L123.1,283.4 L122.9,284.1 L122.3,285.1 L121.8,286.3 L122,288 L122.7,288.9 L123.8,289.6 L125.8,290.6 L131.4,291.4 L132.9,291.2 L134.6,289.8 L137.2,286.1 L139,284.8 L142.2,284.9 L159.5,291.4 L160,292 L161.1,294 L162.2,294.3 L166.1,293.8 L171.3,291.4 L173.2,290.9 L175,291 L176.4,291.8 L179.4,294.1 L178.3,295.4 L174.1,298.3 L175,299.8 L181.7,302.9 L188.2,310 L188.6,310.9 L188.7,312.2 L188.4,313.5 L187.7,314.4 L189,317.1 L190.8,318.1 L204.5,318.3 L207,317.5 L215.6,311.6 L218.9,310.7 L221.7,311.9 L221.4,317.1 L224.5,317.5 L227.4,316.2 L229.2,314.2 L231,311.8 L233.5,309.5 L235.9,308.7 L241.6,308.5 L243.7,307.6 L244.9,305.7 L244.4,304.3 L242.9,303.3 L241.3,302.9 L247.5,295.8 L250.5,295.1 L253.7,295.5 L256.6,296.4 L262.8,295.4 L265.6,294.3 L268,291.6 L268.7,289.8 L269.7,285.3 L270.6,283.3 L274.2,280.1 L274.7,279.5 L277.1,279.6 L282.8,280.8 L293.5,280.8 L300.8,282.3 L302.2,281.9 L303.5,278.6 L305,277.7 L316,275.5 L346,276.8 L347.1,276.6 L350.8,271.7 L351.3,270.5 L351.4,268.7 L351.2,263.5 L350.8,262.4 L349.1,260.9 L348.1,259.6 L347.7,258.6 L347.5,257 L349.5,256.1 L352.7,253.5 L353.8,252.8 L355.7,251.9 L355.3,254.8 L354.8,256.4 L354,257.5 L353.6,258.9 L354.3,261 L355.6,262.2 L357,262 L359.9,260.5 L362.8,260 L370.3,261.7 L372.6,261.3 L377.7,259.3 L379.8,259.7 L380.5,260.9 L381.8,265 L382.5,266.6 L383.6,267.9 L387.5,271 L389.3,271.9 L392,272 L394.8,271.5 L396.8,270.5 L398.1,269.4 Z" id="AUT2329" stroke="#ccc" stroke-width="2" fill="#FFF8BC" fill-rule="nonzero" stroke-linecap="round" stroke-linejoin="round"></path>
            <path d="M986.8,177.5 L985.1,179.2 L983.1,180 L981.5,179.7 L979,178.2 L978.1,178.6 L976.4,180.4 L975.9,183.3 L975.9,184.7 L976.3,186.2 L976.2,187.8 L975.2,189.6 L973.7,190.6 L971.6,189.5 L967.6,186.4 L965.5,185.4 L962.8,185.8 L959.8,187.2 L954.5,191.1 L949,193.7 L947.5,193.5 L945.9,193.8 L943.1,195.1 L939.9,197.8 L938.1,202.7 L936.8,205.1 L934.9,206.8 L930.4,210 L927.9,212.6 L922.7,215.3 L913.6,212.2 L909,212.5 L905.2,213.6 L898.9,218.6 L896.8,220.8 L894.8,224.6 L894.6,232.2 L894.1,234.5 L893.3,236.2 L891.7,238.1 L890.2,239.3 L885.7,239.9 L885.6,251.8 L886.6,254.2 L888.6,257.6 L893.1,262.8 L896.9,268.8 L892.6,277.2 L891.8,278.5 L890.5,280.8 L889.8,283 L889.4,287.3 L889.8,290.1 L890.5,292.4 L890.4,294.7 L890.2,296.7 L883.4,304 L881.2,305.7 L878,307.5 L874.6,308.1 L867.1,308 L862.6,304 L861.2,301.2 L860.4,299.1 L860.1,296.9 L859.7,295.5 L858.9,294 L858.3,293.7 L855.2,295.3 L853.9,295.7 L853,295.7 L851.9,295.3 L850.7,294.1 L847.5,292.3 L836.8,290.5 L835.2,286.1 L833.6,283 L830.2,280.4 L827.1,280.4 L825.2,279.7 L824.9,278.4 L825.6,275.7 L825.8,273 L825.3,271.3 L824.5,269.8 L823.9,269 L822.9,268.4 L821.2,268.7 L816.8,271.2 L815.4,271.3 L814.1,270.4 L813.1,267.8 L812.7,265.6 L811.9,260 L811.3,258.6 L810.4,257.7 L808.7,257.4 L806.3,257.6 L804.8,257.3 L802.3,256 L800.5,254.7 L798.9,252.5 L796.2,249.6 L787.4,248.9 L782.3,245.2 L771.5,239.9 L766,234.8 L763.9,233.9 L761.3,233.7 L753.3,235.7 L752.4,235.7 L747,234.9 L743.4,239.5 L742.6,241 L741.4,242.4 L740,243.3 L734.9,244.4 L728.3,247 L724.2,248.2 L723,248.2 L720.8,247.8 L718.8,247.9 L716.2,248.6 L710.9,250.9 L707.7,252.9 L704.4,253.7 L701.6,253.3 L697.7,250 L696.5,248.7 L695.7,248.3 L682.1,248.3 L677.6,244.7 L679.8,239.9 L680,237.5 L680.1,233 L681.9,225.8 L684.2,222.4 L684.3,218.7 L683.4,217.3 L682,215.6 L679.2,213.4 L676.4,211.9 L672.3,210.6 L665.4,207.2 L644.3,191.2 L641.9,188.3 L642.1,187.4 L643.1,187.1 L644.3,186.2 L646.2,182.7 L646.3,181.1 L646.6,180.2 L648.1,178.4 L648.8,177.2 L648.8,176.5 L648.1,174.6 L647.5,169 L647.7,167.9 L648.4,166.3 L648.7,164.6 L649.5,156.7 L649.7,155.5 L650.6,154.3 L652.3,153 L654.1,151.5 L660,151.7 L662.2,152.5 L664.2,153.8 L665.9,155.7 L669.5,160.9 L671.7,163 L674.4,163.8 L693.2,159.3 L695,157.8 L696.9,155 L698.8,153.1 L701.2,152 L707.7,151.7 L709.1,152.1 L710.7,153.1 L712.7,155.4 L712.8,151 L713.7,134.1 L712.2,124.3 L711.5,122.5 L709,120.6 L708.3,114.3 L705.1,113.1 L702.1,108.9 L701.5,106.9 L701.5,105.2 L701.7,104 L701.8,102.2 L702.1,101.2 L702.6,101 L705.6,101.3 L706.1,100.1 L705.9,98.1 L704.6,95.9 L702.8,94.4 L700.6,93.6 L695.9,92.9 L691.7,90.7 L687.4,88.9 L679.2,87 L676.8,84.7 L676.5,84.1 L677.1,83.5 L677.7,78.4 L677.7,72.3 L678.1,67 L680.6,63 L687.5,56.9 L688.2,53.1 L689.5,50.8 L690,48.3 L690.8,46.5 L692.7,45.7 L699.6,46.6 L706.3,49.4 L709,49.2 L710.5,45.7 L709.6,44.1 L708.8,41.2 L709,39.8 L710,37.3 L712.7,24.9 L712.7,19.4 L712.2,13.3 L712.3,7.6 L714,3.4 L713.9,1.4 L714.5,0.4 L717.4,2.84217094e-14 L724.7,2.5 L734.9,3.3 L735.8,6.2 L736.4,8.9 L736.3,11.6 L735.5,14.4 L738.1,14.5 L748,11.8 L748.7,11.3 L750.5,9.2 L751,8.1 L751.3,5.4 L751.8,4.6 L752.8,4.6 L754,6.4 L754.7,6.9 L760.8,6.9 L763.7,7.8 L770,11 L775.8,13 L778.6,14.6 L785.1,20.2 L795.9,24.4 L806,30.2 L809,30.9 L812,30.9 L814.2,30.2 L818.9,27.7 L820,27.4 L824,27.4 L824.8,28 L825.3,30.4 L825.9,31.4 L826.8,31.8 L829.3,32 L830.8,33.1 L831.7,33.5 L832.8,33.4 L831.5,35.2 L833.1,34.8 L834.6,34.9 L835.6,35.8 L835.7,37.9 L837.9,37.3 L838.6,38.1 L838.8,40.5 L852,50.1 L858.9,53.1 L871,52.4 L889.3,55.1 L892.2,54.6 L893.9,56 L894.6,56.2 L896.7,55.6 L898.1,54.3 L904.8,42.9 L907,41.4 L910.8,41.9 L912.2,41.8 L914.5,40.8 L915.7,40.7 L916.9,41.1 L919.2,42.5 L927,44.8 L929.4,45.1 L931.9,46.1 L932.9,48.5 L933.4,51.4 L934.4,53.7 L936.1,54.9 L938.2,55.3 L943.1,55.1 L945.1,55.8 L949.9,58.9 L952.3,59.8 L954.8,59.5 L959.8,57.7 L962,57.9 L965.1,62.2 L966.9,75.4 L971.4,80.6 L972.6,89.9 L971.6,93.4 L969.5,95.7 L967.3,97.4 L966.4,99.3 L965.7,101.9 L962.2,106.9 L960.9,109.5 L960.4,112.3 L959.2,122.9 L958.3,125.6 L958.2,127.8 L958.6,129 L959.7,129.6 L962.3,129.9 L964.4,131.4 L965.8,132.9 L966.4,134.5 L965.3,137.5 L966.2,138.3 L967.1,140.4 L967.7,142.5 L969.9,143.7 L971.3,145 L972.1,145.3 L972.7,146.8 L972.6,150 L974.7,157.1 L975.3,160.6 L975.3,164.9 L976.2,168 L979.5,171.6 L981.3,172.7 L983.4,173 L984.8,173.9 L986.8,177.5 Z M910.5,142.4 L906.9,136.1 L906.2,135.2 L902.1,134.8 L901.6,136.3 L900.6,137.2 L898.3,137.8 L893.7,140.1 L884.9,145.8 L884.2,146.9 L882.7,148.3 L881.6,149 L879.9,149.5 L878.2,149.7 L875,148.2 L874,149.2 L872.8,151.2 L872.4,152.7 L872.4,154.4 L873.4,156.2 L874.4,157.3 L875.4,159.8 L874.2,165.4 L875.3,167.3 L876.1,168.2 L876.6,169.5 L878.2,170.3 L886.2,171 L889.7,170.4 L893.1,170.3 L894.9,171.6 L897.3,172.7 L898.5,173 L901.4,173.1 L902.8,172.1 L903.5,171.4 L904.3,169.7 L905.4,168.8 L907.3,168.2 L913.4,167.9 L922.5,169.6 L919.7,163.6 L918.8,160.8 L919.4,155.5 L920.5,150.7 L920,149.5 L919,148.5 L918.5,146 L918.1,144.5 L916.7,143 L916,141.4 L914.7,140.1 L912.2,140.6 L911,142.9 L910.5,142.4 Z" id="AUT2330" stroke="#ccc" stroke-width="2" fill="#FFF8BC" fill-rule="nonzero" stroke-linecap="round" stroke-linejoin="round"></path>
            <polygon id="AUT2331" stroke="#ccc" stroke-width="2" fill="#FFF8BC" stroke-linecap="round" stroke-linejoin="round" points="910.5 142.4 911 142.9 912.2 140.6 914.7 140.1 916 141.4 916.7 143 918.1 144.5 918.5 146 919 148.5 920 149.5 920.5 150.7 919.4 155.5 918.8 160.8 919.7 163.6 922.5 169.6 913.4 167.9 907.3 168.2 905.4 168.8 904.3 169.7 903.5 171.4 902.8 172.1 901.4 173.1 898.5 173 897.3 172.7 894.9 171.6 893.1 170.3 889.7 170.4 886.2 171 878.2 170.3 876.6 169.5 876.1 168.2 875.3 167.3 874.2 165.4 875.4 159.8 874.4 157.3 873.4 156.2 872.4 154.4 872.4 152.7 872.8 151.2 874 149.2 875 148.2 878.2 149.7 879.9 149.5 881.6 149 882.7 148.3 884.2 146.9 884.9 145.8 893.7 140.1 898.3 137.8 900.6 137.2 901.6 136.3 902.1 134.8 906.2 135.2 906.9 136.1 910.5 142.4"></polygon>
            <circle id="Oval" fill="#E63D31" cx="243.5" cy="357.5" r="11.5"></circle>
            <circle id="Oval" fill="#E63D31" cx="899.5" cy="157.5" r="11.5"></circle>
            <circle id="Oval" fill="#E63D31" cx="604.5" cy="134.5" r="11.5"></circle>
        </g>
    </g>
</svg>
