<svg height="175" viewBox="0 0 1039 175" width="1039" xmlns="http://www.w3.org/2000/svg" xmlns:xlink="http://www.w3.org/1999/xlink"><linearGradient id="a"><stop offset="0" stop-color="#3023ae"/><stop offset="1" stop-color="#c86dd7"/></linearGradient><linearGradient id="b" x1="0%" x2="101.999998%" xlink:href="#a" y1="0%" y2="100.999999%"/><radialGradient id="c" cx="38.727896%" cy="38.596511%" gradientTransform="matrix(.11464119 .17090327 -.01988511 .98528781 .350556 -.060509)" r="474.819354%" xlink:href="#a"/><g fill="none" fill-rule="evenodd"><path d="m74.176 0 75.824 45.742v85.323l-75.824 43.266-74.176-43.266v-91.085z" fill="url(#b)"/><path d="m211.448 138.296c-4.704024 0-8.975981-.527995-12.816-1.584s-7.295985-2.495991-10.368-4.32-5.735989-4.007987-7.992-6.552-4.103993-5.255986-5.544-8.136l16.416-9.504c2.208011 3.552018 4.823985 6.479988 7.848 8.784s7.031975 3.456 12.024 3.456c4.224021 0 7.559988-.935991 10.008-2.808s3.672-4.247986 3.672-7.128c0-3.456017-1.295987-6.047991-3.888-7.776s-6.191977-3.5999899-10.8-5.616l-5.04-2.16c-3.648018-1.5360077-6.959985-3.2159909-9.936-5.04s-5.519989-3.935988-7.632-6.336-3.743994-5.1359846-4.896-8.208-1.728-6.6719794-1.728-10.8c0-3.7440187.695993-7.2479837 2.088-10.512s3.359987-6.095988 5.904-8.496 5.639982-4.2719933 9.288-5.616 7.727977-2.016 12.24-2.016c6.432032 0 11.975977 1.2239878 16.632 3.672s8.663983 6.5999707 12.024 12.456l-15.696 10.08c-1.728009-3.0720154-3.59999-5.2799933-5.616-6.624s-4.463986-2.016-7.344-2.016c-2.976015 0-5.327991.8159918-7.056 2.448s-2.592 3.6959875-2.592 6.192c0 3.0720154.98399 5.3999921 2.952 6.984s5.111978 3.3359904 9.432 5.256l5.04 2.16c4.320022 1.8240091 8.135983 3.7199902 11.448 5.688s6.095989 4.1759878 8.352 6.624 3.983994 5.2319844 5.184 8.352c1.200006 3.120016 1.8 6.791979 1.8 11.016 0 4.512023-.839992 8.519982-2.52 12.024s-4.007985 6.455988-6.984 8.856-6.50398 4.199994-10.584 5.4-8.519976 1.8-13.32 1.8zm96.192 0c-7.008035 0-13.583969-1.271987-19.728-3.816s-11.471977-6.047978-15.984-10.512-8.087987-9.767969-10.728-15.912-3.96-12.815964-3.96-20.016 1.319987-13.8719693 3.96-20.016 6.215977-11.4479777 10.728-15.912 9.839969-7.9439875 15.984-10.44 12.719965-3.744 19.728-3.744c8.928045 0 16.583968 1.6079839 22.968 4.824s11.783978 8.2799654 16.2 15.192l-15.408 10.944c-2.304012-3.7440187-5.42398-6.815988-9.36-9.216s-8.735972-3.6-14.4-3.6c-4.416022 0-8.447982.8159918-12.096 2.448s-6.767987 3.8639858-9.36 6.696-4.607993 6.1919806-6.048 10.08-2.16 8.135977-2.16 12.744.719993 8.8799803 2.16 12.816c1.440007 3.93602 3.455987 7.343986 6.048 10.224s5.711982 5.135992 9.36 6.768 7.679978 2.448 12.096 2.448c6.336032 0 11.423981-1.343987 15.264-4.032s7.151986-6.143979 9.936-10.368l15.696 10.8c-4.320022 6.624033-9.839966 11.879981-16.56 15.768s-14.831952 5.832-24.336 5.832zm82.368-43.2c8.256041 0 14.255981-1.4399856 18-4.32s5.616-7.7759654 5.616-14.688-1.895981-11.8559851-5.688-14.832-9.767959-4.464-17.928-4.464h-6.336v38.304zm45.792 41.904h-23.328l-16.128-24.768c-1.92001.288001-3.83999.432-5.76.432h-6.912v24.336h-20.16v-97.92h27.072c13.728069 0 24.455961 3.1679683 32.184 9.504s11.592 15.50394 11.592 27.504c0 7.6800384-1.631984 13.9679755-4.896 18.864s-7.91997 8.735986-13.968 11.52zm16.56-97.92h20.16v97.92h-20.16zm67.392 57.888c8.256041 0 14.255981-1.6559834 18-4.968s5.616-8.3279664 5.616-15.048c0-6.8160341-1.895981-11.8799834-5.688-15.192s-9.767959-4.968-17.928-4.968h-6.336v40.176zm-26.496-57.888h27.072c6.816034 0 12.935973.8639914 18.36 2.592s10.007981 4.2239837 13.752 7.488 6.62399 7.2479765 8.64 11.952 3.024 9.9839707 3.024 15.84c0 5.9520298-1.00799 11.2559767-3.024 15.912s-4.895981 8.591984-8.64 11.808-8.327973 5.687991-13.752 7.416-11.543966 2.592-18.36 2.592h-6.912v22.32h-20.16zm107.424 17.712h-27.936v-17.712h76.032v17.712h-27.936v80.208h-20.16zm104.256 81.504c-7.008035 0-13.583969-1.271987-19.728-3.816s-11.471977-6.047978-15.984-10.512-8.087987-9.767969-10.728-15.912-3.96-12.815964-3.96-20.016 1.319987-13.8719693 3.96-20.016 6.215977-11.4479777 10.728-15.912 9.839969-7.9439875 15.984-10.44 12.719965-3.744 19.728-3.744c8.928045 0 16.583968 1.6079839 22.968 4.824s11.783978 8.2799654 16.2 15.192l-15.408 10.944c-2.304012-3.7440187-5.42398-6.815988-9.36-9.216s-8.735972-3.6-14.4-3.6c-4.416022 0-8.447982.8159918-12.096 2.448s-6.767987 3.8639858-9.36 6.696-4.607993 6.1919806-6.048 10.08-2.16 8.135977-2.16 12.744.719993 8.8799803 2.16 12.816c1.440007 3.93602 3.455987 7.343986 6.048 10.224s5.711982 5.135992 9.36 6.768 7.679978 2.448 12.096 2.448c6.336032 0 11.423981-1.343987 15.264-4.032s7.151986-6.143979 9.936-10.368l15.696 10.8c-4.320022 6.624033-9.839966 11.879981-16.56 15.768s-14.831952 5.832-24.336 5.832zm101.808-18c4.416022 0 8.471982-.815992 12.168-2.448s6.863987-3.887986 9.504-6.768 4.679993-6.28798 6.12-10.224c1.440007-3.9360197 2.16-8.207977 2.16-12.816s-.719993-8.8799803-2.16-12.816-3.479987-7.3439856-6.12-10.224-5.807982-5.1359918-9.504-6.768-7.751978-2.448-12.168-2.448c-4.512023 0-8.591982.8159918-12.24 2.448s-6.791987 3.8879856-9.432 6.768-4.679993 6.2879803-6.12 10.224-2.16 8.207977-2.16 12.816.719993 8.8799803 2.16 12.816c1.440007 3.93602 3.479987 7.343986 6.12 10.224s5.783982 5.135992 9.432 6.768 7.727977 2.448 12.24 2.448zm0 18c-7.104036 0-13.727969-1.271987-19.872-3.816s-11.495977-6.047978-16.056-10.512-8.159987-9.767969-10.8-15.912-3.96-12.815964-3.96-20.016 1.319987-13.8719693 3.96-20.016 6.239977-11.4479777 10.8-15.912 9.911969-7.9679873 16.056-10.512 12.767964-3.816 19.872-3.816c7.008035 0 13.607969 1.2719873 19.8 3.816s11.567977 6.0479777 16.128 10.512 8.159987 9.7679693 10.8 15.912 3.96 12.815964 3.96 20.016-1.319987 13.871969-3.96 20.016-6.239977 11.447978-10.8 15.912-9.935969 7.967987-16.128 10.512-12.791965 3.816-19.8 3.816zm96.912-46.8c-1.248006-1.1520058-2.543993-2.4959923-3.888-4.032s-2.591994-2.9759933-3.744-4.32c-1.344007-1.6320082-2.687993-3.3119914-4.032-5.04.192001 2.1120106.431999 4.2239894.72 6.336.192001 1.8240091.359999 3.7679897.504 5.832s.216 3.9599914.216 5.688v41.04h-18.864v-98.784h2.016l49.392 46.368c1.152006 1.1520058 2.399993 2.4959923 3.744 4.032s2.591994 2.9759933 3.744 4.32c1.344007 1.6320082 2.687993 3.3119914 4.032 5.04-.288001-2.1120106-.527999-4.2239894-.72-6.336-.192001-1.8240091-.336-3.7679897-.432-5.832s-.144-3.9599914-.144-5.688v-41.04h18.864v98.784h-2.016zm71.856-52.416h63.072v17.712h-42.912v32.4h39.024v18h-39.024v29.808h-20.16z" fill="url(#c)"/></g></svg>