<svg height="199" viewBox="0 0 590 199" width="590" xmlns="http://www.w3.org/2000/svg" xmlns:xlink="http://www.w3.org/1999/xlink"><radialGradient id="a" cx="88.226743%" cy="44.887682%" gradientTransform="matrix(.99172174 -.11085532 .12840554 .8561752 -.050335 .162364)" r="63.106181%"><stop offset="0" stop-color="#f7681e"/><stop offset="1" stop-color="#f7df00"/></radialGradient><mask id="b" fill="#fff"><path d="m93.4167773.70965382h108.7375787v165.27491718l-74.401254.243785-34.3363247 19.527099-20.5375039-11.93919h-15.3035158-56.45419037v-173.10661118z" fill="#fff" fill-rule="evenodd"/></mask><g fill="none" fill-rule="evenodd" transform="translate(-6 -23)"><path d="m93.4167773 27.2727273 69.1624147 41.5836363v77.5663634l-69.1624147 39.332728-67.6592015-39.332728v-82.8045452z" fill="#fff"/><path d="m93.4167773 27.2727273 69.1624147 41.5836363v77.5663634l-69.1624147 39.332728-67.6592015-39.332728v-82.8045452z" fill="url(#a)" fill-rule="evenodd"/><path d="m93.4585209 25.5475774 70.6206711 42.4604075v79.2872911l-70.6706296 40.190451-69.1509866-40.199956v-84.5645388z" stroke="#fff" stroke-width="3"/><path d="m178.493939 62.9090909h19.545455l15.245454 34.1393939c.868692 1.9111207 1.693936 4.0393822 2.475758 6.3848482.781822 2.345467 1.520199 4.517162 2.215152 6.515152.781822 2.345466 1.520198 4.734331 2.215151 7.166667.608084-2.432336 1.303026-4.821201 2.084849-7.166667.694953-1.99799 1.433329-4.147968 2.215151-6.45s1.607066-4.4520104 2.475758-6.4500002l14.854545-34.1393939h17.721212l-38.830303 89.3878791h-1.824242zm93.427273 0h18.242424v88.6060611h-18.242424zm57.20303 16.0272727h-25.278787v-16.0272727h68.8v16.0272727h-25.278788v72.5787884h-18.242425zm89.257576 47.3000004-6.384848-15.375758c-.694953-1.563644-1.346462-3.257567-1.954546-5.081818-.608084-1.824252-1.172724-3.561608-1.693939-5.212121-.608084-1.8242519-1.172725-3.69191-1.69394-5.6030306-.608083 1.9111206-1.172724 3.7787787-1.693939 5.6030306-.521215 1.650513-1.064139 3.387869-1.628788 5.212121-.564649 1.824251-1.194441 3.518174-1.889394 5.081818l-6.384848 15.375758zm-12.248485-64.1090913h1.563637l40.524242 89.3878793h-19.154545l-4.169697-10.033334h-35.963637l-4.169697 10.033334h-17.590909zm54.075758.7818182h18.242424v72.5787881h40.133333v16.027273h-58.375757zm85.869697 60.4606061-33.618182-60.4606061h20.19697l15.636363 28.5363636c.868692 1.5636442 1.715653 3.3227175 2.540909 5.2772728.825257 1.9545552 1.585351 3.8004967 2.280304 5.5378787l2.345454 5.993939c.694953-1.997989 1.433329-3.995949 2.215152-5.993939.694953-1.737382 1.433329-3.5616065 2.215151-5.4727272s1.607066-3.691911 2.475758-5.3424243l14.984848-28.5363636h18.633333l-31.533333 59.1575761v29.448485h-18.372727z" fill="#f7df1e"/><g mask="url(#b)"><g transform="translate(6.060606 30.30303)"><g fill-rule="evenodd"><path d="m169.69038 108.044497c.07661-1.607324-.517464-3.174745-1.641681-4.331454-1.392781-1.417472-3.431644-2.107764-6.233093-2.107764-.450139 0-.910868 0-1.376894.052694 1.318641-1.8917181 2.266579-3.9204408 2.34072-5.9017389.089238-2.1422132-.845651-4.2000747-2.520775-5.5486883-1.033569-.8798267-2.346858-1.3670605-3.707023-1.3753159-1.795257 0-7.202214 0-16.528022 19.7286701-7.371456 5.233372-16.221606 8.004547-25.276596 7.914653-1.69859-.007289-3.395603-.10403-5.083916-.289818l.254196-.200237c1.451572-1.19695 2.786692-2.527195 3.987697-3.973135 1.250596.686652 2.802809.497574 3.850007-.468978 1.977077-1.907446 3.75167-4.01224 5.295746-6.281136 1.284855.396697 2.683195-.019886 3.537558-1.053882 3.918863-4.9606549 6.918926-10.5758642 8.859783-16.5828319.175955-.0816639.344309-.1786473.503096-.2898175.105915-.0737718 9.002768-6.4550268 4.983297-18.1583856l.291266-.1264658c1.337922-.7740398 1.958164-2.3672697 1.4934-3.8361302-.121802-.3899363-2.510183-7.6617216-10.220789-13.4844192.791609-1.3107907.572266-2.9913345-.529575-4.0574454-3.905291-3.4091481-8.661683-5.7081667-13.768939-6.6552644l-2.716718-7.3508264 1.265683.1264658h.323041c1.087043.0017312 2.105644-.5277646 2.725116-1.416587.619471-.8888224.760832-2.0236507.378191-3.0360641-.370702-.9801102-1.7423-3.2512257-6.74678-5.2694096 1.175655-9.4849373-3.177448-21.36745603-3.357503-21.92601345-.530875-1.41985614-1.966719-2.29621412-3.479305-2.12357207-19.2023749 1.99710624-25.8379445 12.36203492-27.9774258 17.57348112-1.2321436.3126516-2.4872353.6639456-3.7652754 1.0538819-.5430484-1.1595097-1.7117654-1.9012211-2.9973921-1.9022569h-.0370702c-.5295746 0-12.5932838.2529317-21.7972901 10.9551026-6.3516933-2.1274204-12.9988035-3.2528762-19.7001748-3.3355363-7.376974 0-13.9542904 1.5228594-19.5571895 4.5633087-1.09125857.5934804-1.75608227 1.7455385-1.72111745 2.9824859.03177447 1.0538819.74140442 10.433431 16.03551855 29.150374-3.3839816 3.9573266-9.8977491 12.6096972-10.6868152 21.341109-.1416377 1.5859082.8771919 3.0455492 2.4201559 3.4672715l.1429851.0368859c-1.0061917 6.4128715-.4660256 13.4106474 4.0724286 18.9698744.6272564.771804 1.5708908 1.220947 2.5684368 1.222503h.1006191c2.3195367 6.412872 6.0848121 13.468611 12.0848922 17.552404.8116229.551657 1.8276726.715843 2.7730313.448102.9453588-.267741 1.7222223-.93971 2.1202379-1.833957 2.2814363 1.489784 4.7130192 2.738383 7.2551718 3.725473-1.48141.152091-2.9697437.22772-4.459018.226584-4.9149648-.00455-9.7907861-.869628-14.4044288-2.555664-8.4731935-9.832718-15.0716928-14.817579-19.54659812-14.822849-1.97293932-.037563-3.82845754.930299-4.91974794 2.566203-1.25164068 1.74537-1.59928105 3.977183-.93734702 6.017665.60901078 1.886449 2.06004515 3.588468 3.83941577 5.053364-3.91355621.795681-5.47580125 2.197344-6.35489507 3.346075-1.12331074 1.516161-1.44091528 3.47905-.85261509 5.26941.4607299 1.51759 2.11829836 5.037556 7.79533796 5.048094 1.00685479-.00724 2.01130531-.098901 3.00268791-.274009-.4668444 1.125166-.666203 2.342418-.582532 3.556852.1533999 1.635446 1.0535256 3.110062 2.4413388 3.999482.9060965.592474 1.9661224.909267 3.0503496.911607 2.7061262 0 5.1845353-2.002375 7.1598485-4.36834 1.2021343 2.107764 2.9762092 3.867747 5.5658289 3.867747.7265461-.000789 1.4460029-.142175 2.1182984-.416284 1.748748-.654972 3.0799125-2.098862 3.58522-3.888824.1677335-.612648.2444522-1.246423.227717-1.881179 2.9245456.48586 5.8841677.73259 8.8491914.737717 1.7370047 0 3.500488-.079041 5.2374927-.242393 8.0463308-.786848 15.8460345-3.202272 22.9199882-7.097895l-.2436043 24.239285c3.4082265.537151 6.8548753.796215 10.3055215.774603 7.5075704-.028515 14.9549031-1.334851 22.019711-3.862477l-4.0300622-25.488135c4.9121372 1.259486 9.9620812 1.909051 15.0346222 1.933874h1.17036c7.756161-.129527 15.399276-1.872401 22.438076-5.116597.162879.616758.41627 1.206246.751996 1.749444.968971 1.589178 2.640525 2.624302 4.501384 2.787518.218046.024253.437267.036567.656672.036885 1.5629.007594 3.052341-.659418 4.08302-1.828485.862795-1.041688 1.457211-2.27706 1.731709-3.599007 2.022975 1.396394 4.310737 2.524048 6.439627 2.529317 1.651677.024517 3.231129-.672686 4.321329-1.907526 1.099071-1.226591 1.569767-2.888183 1.276274-4.505345-.245774-1.194549-.765964-2.316322-1.519879-3.277573 7.705311-.80095 9.039839-4.916359 9.092796-7.466754z" fill="#fff"/><path d="m166.665696 107.544363c.149045-7.031535-16.916573-.403539-16.916573-.403539s14.372167-10.6191665 8.6233-15.5943095c-4.753461-4.1293688-12.913658 12.9298445-15.564524 18.8447365-17.092233 13.267048-40.939384 12.587112-60.8262053-1.779996l-3.1938149 4.803777c11.7106547 8.446688 24.6615742 12.570528 37.1121292 12.332827 9.348962-.138529 18.488699-2.894332 26.455434-7.976813-1.016698 2.669994-1.527709 7.014952 1.783213 7.401908 4.25842.497514 3.119292-9.574387 3.119292-9.574387s8.28795 9.325629 11.327397 5.726943c3.039448-3.598687-7.745001-9.828672-7.745001-9.828672s15.676308 3.073533 15.825353-3.952475z" fill="#e63d31"/><path d="m75.7575758 155.709919c2.3170448.246945 4.6456933.363638 6.97535.349549 6.3639952-.029308 12.6903208-.99656 18.7822262-2.871676l-6.8116595-44.096883-18.4812454.344171z" fill="#e63d31"/><path d="m89.3939394 109.887127-4.3387737-3.826521c-15.4385812 19.869563-38.2557395 27.352537-58.1502146 19.115597-4.0832386-5.102028-16.3542488-19.631469-19.8625333-14.200644-4.25891895 6.547603 12.3295704 12.947813 12.3295704 12.947813s-18.14831842-1.700676-16.19453935 5.221075 16.26374675-.62925 16.26374675-.62925-8.7786967 9.274352-4.8977568 11.984096c3.8809399 2.709743 9.4281818-8.905873 9.4281818-8.905873s1.5065926 10.272082 5.4780345 8.571407c3.0930399-1.326528 1.4799744-5.470508-.1863277-7.817441 6.2011868 1.910618 12.6851295 2.558754 19.1118988 1.910426 15.0925441-1.524939 29.8390509-9.988636 41.0187132-24.370685z" fill="#e63d31"/><path d="m142.424242 109.64985c-17.057829 12.541276-40.704244 11.767522-60.4380203-2.074092l-3.1983429 4.669395c11.7272575 8.210398 24.6965382 12.218878 37.1647452 11.987826 9.180751-.134788 18.162749-2.715286 26.034512-7.47963.250536-2.337384.335826-4.723128.437106-7.103499z" fill="#e63d31"/><path d="m84.9536005 107.575758c-15.3507305 17.492853-37.7864136 24.385222-57.6808732 17.913996.5441592 2.018406 1.0012529 4.047084 1.4637882 6.086034 6.1027854 1.576973 12.4574919 2.098967 18.7571669 1.540768 15.4214712-1.37642 30.4729142-9.044309 41.900257-22.084342z" fill="#e63d31"/><path d="m73.961691 113.636364-31.0025772-10.29397-9.6656348-35.7745607-2.8858215-11.4004536-13.7409908-20.6770877 6.2410556-5.8365707 20.5741466 2.3073595 23.0332293 8.1491743 25.8283687-23.6242151 13.0795461-11.94058545 1.680284 29.91176975 15.623976 21.9618674-2.053681 23.9336109-19.597981 26.3353624z" fill="#fff"/></g><path d="m142.424242 65.4711321s-3.458724-10.7135537-16.424918-15.7173951c0 0 4.826127-1.0091341 6.397299-.3241778-3.968217-3.3392156-8.87446-5.4378762-14.081566-6.0234329l-5.28729-13.9867038 6.601069.6378982s-.874065-2.2744733-7.53412-4.2613696c2.573934-8.7266574-2.681182-22.76564807-2.681182-22.76564807-20.1088622 2.04964034-25.0744106 13.46383647-26.1307961 16.95136227-5.9863451 1.3897279-11.8155169 3.3584927-17.4008689 5.8770299 0 0 3.4694491-4.6221481 8.000646-6.1907504 0 0-12.4138709.1202595-20.9829275 11.5030836 0 0-22.0339507-8.9567192-39.2632239.2091469 0 0 .2734806 9.3645558 17.3097087 29.1080301 0 0-10.9445835 10.8965574-11.9098088 21.3800495 0 0 5.0674333-10.3109459 8.8210875-13.1396587 0 0-12.8374976 21.0506429-2.8366901 33.1184238 0 0-1.7213186-8.4756816.3860901-11.4612546 0 0 .4879751 8.1044452 3.823365 14.6141446l-.4611632-.177775c.4535125.329727.8704641.70474 1.2440683 1.118937l.0857978.109802c1.2248494.07399 2.4410818.248903 3.6356823.522867-.9973996-2.431333-1.7749423-5.113643-1.313779-6.8757066 1.2354987 2.6817956 2.6321381 5.2902046 4.1826433 7.8116396.471888.188232.9491383.360778 1.4103016.585611 2.8474149 1.369913 5.550046 2.849628 8.2258653 4.46006l4.3220648.31372c6.9710722 1.568602 11.5719799 3.011716 19.1436368 3.461382 6.922811.407837 13.7437371.982991 20.6236492 1.772521 3.3139405.376465 5.609032-.679728 9.2018154-1.38037 4.9012004-.951619 7.6681794-3.299293.1501462 1.129394 1.9754782-1.165431 4.0825932-2.104117 6.2793272-2.797341l-.085798-.041829c.423627-.19869.847254-.407837 1.281605-.622213 1.133565-.57622 2.195179-1.278015 3.163794-2.091469 2.638283-2.117614 6.391938-6.054805 9.073119-12.6899931 0 0-.359278 7.1789701-1.286967 8.4129371 0 0 8.274127-7.487462 9.040944-15.6860231 0 0 .037537 7.2312566-.38609 8.7109711 0 0 8.719203-10.2586587 9.780951-22.3212104 0 0 .70247 4.125424.353916 4.9829266 0 0 10.18849-6.9436795.423627-20.5382328 1.953001.0526965 3.798321.8843124 5.104969 2.3006167zm-108.5074205-14.1174207c-7.4268731-4.271827-12.7195256-16.1879758-12.7195256-16.1879758 8.6870285-4.7476363 23.1117857 1.845722 23.1117857 1.845722-6.2739651 5.4796507-10.3922601 14.3317964-10.3922601 14.3317964zm55.7310416 25.881938c-8.3170255 2.4365622-17.6957988-1.6418038-20.7362588-11.4455682s-.6434836-25.9655968 7.6520924-28.402159c8.295576-2.4365623 19.4224798 9.7723923 22.4414903 19.5761567 3.019011 9.8037644-1.0402985 17.8297796-9.3573239 20.2611131zm16.2640479-48.9769926s-11.378935-6.1802931-15.5669407-7.0221097c-1.8071164-.3607785 3.587421-9.6103034 14.6875127-12.02595099.005363 0 5.072796 13.07168589.879428 19.04283199z" fill="#e63d31" fill-rule="nonzero"/><path d="m24.2424242 91.0533594s2.4599663 21.5671416 14.0223346 29.5557596c0 0-4.4616519-8.509846-5.1517067-12.64244 0 0 6.3895913 16.408047 31.6687737 17.790897-4.7589025-1.521631-9.0626842-4.226595-12.5158027-7.866289 0 0 33.7126 12.929647 55.3097349-4.494263l-46.6814164-6.573856s-22.7770754-17.4292286-23.2722292-17.4292286-13.3796882 1.65942-13.3796882 1.65942z" fill="#e63d31" fill-rule="evenodd"/><path d="m69.8749593 99.9691767c10.3520549 3.1484073 22.4042647 1.4857653 35.8759687-4.9677114.283182-.139552.391922-.4676266.24288-.7327753-.149043-.2651487-.49943-.366965-.782611-.2274131-14.3946461 6.8931421-27.078342 8.2171911-37.7110573 3.9468796-16.5373806-6.6505678-22.4258539-24.8031814-22.4798271-24.9851119-.1324424-.2205447-.4105107-.3256118-.66934-.2529077-.2588292.0727042-.4292095.303739-.4101235.5561251.0593705.186984 6.104366 18.8247455 23.1329025 25.6724046.9139457.3739681 1.8476817.7041381 2.8012077.9905101z" fill="#fff" fill-rule="evenodd"/><path d="m39.3939394 77.6949152s1.6057348-16.9893633 12.1212121-5.559848c0 0-8.9775171-7.7454822-11.9908765 8.1679631" fill="#fff" fill-rule="evenodd"/><path d="m101.538118 70.764299c-6.6233883 3.9609233 10.28833 6.5084283 10.28833 6.5084283s2.941888-5.553114 3.311694-10.1341536c.369806-4.5810397-6.998713-.335198-13.600024 3.6257253z" fill="#fff" fill-rule="evenodd"/><ellipse cx="77.785089" cy="67.410541" fill="#e63d31" fill-rule="evenodd" rx="4.006824" ry="6.602563" transform="matrix(.97495565 -.22239939 .22239939 .97495565 -13.043986 18.98761)"/><ellipse cx="105.723728" cy="57.937052" fill="#fff" fill-rule="evenodd" rx="4.006824" ry="6.602563" transform="matrix(.97495565 -.22239939 .22239939 .97495565 -10.237383 24.963889)"/></g></g><path d="m196.02 183.8h1.52l5.8 14.2h-1.92l-1.68-4.16h-5.96l-1.66 4.16h-1.92zm3.32 8.64-2.56-6.56-2.64 6.56zm14.84-8.56h1.7l1.88 4.94 1.9-4.94h1.7l-2.46 6.18 2.44 5.86 4.8-12.12h1.96l-5.94 14.2h-1.56l-2.82-6.7-2.84 6.7h-1.56l-5.92-14.2h1.94l4.82 12.12 2.42-5.86zm21.02 14.22c-1.000005 0-1.909996-.203331-2.73-.61s-1.52333-.946663-2.11-1.62-1.039998-1.443329-1.36-2.31-.48-1.753329-.48-2.66c0-.946671.169998-1.853329.51-2.72s.809997-1.63333 1.41-2.3 1.309996-1.196665 2.13-1.59 1.709995-.59 2.67-.59c1.000005 0 1.906663.209998 2.72.63s1.51333.969997 2.1 1.65 1.039998 1.449996 1.36 2.31.48 1.736662.48 2.63c0 .946671-.169998 1.853329-.51 2.72s-.806664 1.629997-1.4 2.29-1.299996 1.186665-2.12 1.58-1.709995.59-2.67.59zm-4.86-7.2c0 .720004.116666 1.416663.35 2.09.233335.673337.563331 1.269997.99 1.79s.939997.933332 1.54 1.24 1.266663.46 2 .46c.760004 0 1.439997-.163332 2.04-.49s1.109998-.753331 1.53-1.28.739999-1.12333.96-1.79.33-1.339997.33-2.02c0-.720004-.116665-1.416663-.35-2.09-.233334-.673337-.566664-1.266664-1-1.78s-.946664-.923332-1.54-1.23-1.249996-.46-1.97-.46c-.760004 0-1.439997.159998-2.04.48s-1.109998.739997-1.53 1.26-.743332 1.11333-.97 1.78-.34 1.346663-.34 2.04zm14.06 7.1v-14.2h6.08c.62667 0 1.203331.129999 1.73.39s.979998.606664 1.36 1.04.676666.919997.89 1.46.32 1.089997.32 1.65c0 .493336-.069999.969998-.21 1.43s-.339999.876665-.6 1.25-.573331.693332-.94.96-.776664.459999-1.23.58l3.44 5.44h-2.04l-3.24-5.1h-3.76v5.1zm1.8-6.7h4.3c.373335 0 .709998-.079999 1.01-.24.300001-.160001.556666-.376665.77-.65s.379999-.589998.5-.95.18-.733331.18-1.12c0-.400002-.069999-.776665-.21-1.13s-.326665-.666665-.56-.94-.506665-.486666-.82-.64-.643332-.23-.99-.23h-4.18zm11.34 6.7v-14.18h1.8v7.84l7.32-7.86h1.94l-5.7 6.26 6.02 7.94h-1.96l-5.16-6.9-2.46 2.56v4.34zm21.38-11.22c-.160001-.186668-.373332-.366666-.64-.54s-.566665-.329999-.9-.47-.696665-.253333-1.09-.34-.803331-.13-1.23-.13c-1.106672 0-1.916664.206665-2.43.62s-.77.979996-.77 1.7c0 .386669.073333.706665.22.96s.376665.469999.69.65.703331.336666 1.17.47 1.019997.273333 1.66.42c.733337.160001 1.396664.343332 1.99.55s1.099998.463332 1.52.77.739999.679998.96 1.12.33.979997.33 1.62c0 .680003-.133332 1.269997-.4 1.77s-.629998.913332-1.09 1.24-1.00333.566666-1.63.72-1.306663.23-2.04.23c-1.093339 0-2.129995-.169998-3.11-.51s-1.869996-.836663-2.67-1.49l.86-1.52c.213334.226668.489998.453332.83.68s.726665.429999 1.16.61c.433336.180001.899997.326666 1.4.44.500002.113334 1.023331.17 1.57.17 1.013338 0 1.799997-.179998 2.36-.54s.84-.899996.84-1.62c0-.400002-.089999-.736665-.27-1.01s-.443332-.509999-.79-.71-.776664-.376666-1.29-.53-1.096663-.309999-1.75-.47c-.720004-.173334-1.353331-.359999-1.9-.56s-1.003331-.439999-1.37-.72c-.366668-.280001-.643332-.619998-.83-1.02s-.28-.879997-.28-1.44c0-.680003.126665-1.279997.38-1.8s.606664-.959998 1.06-1.32.99333-.629999 1.62-.81 1.306663-.27 2.04-.27c.960005 0 1.826663.146665 2.6.44s1.459997.686664 2.06 1.18zm15.26-2.98v14.2h-1.8v-6.46h-7.82v6.46h-1.8v-14.2h1.8v6.14h7.82v-6.14zm9.16 14.3c-1.000005 0-1.909996-.203331-2.73-.61s-1.52333-.946663-2.11-1.62-1.039998-1.443329-1.36-2.31-.48-1.753329-.48-2.66c0-.946671.169998-1.853329.51-2.72s.809997-1.63333 1.41-2.3 1.309996-1.196665 2.13-1.59 1.709995-.59 2.67-.59c1.000005 0 1.906663.209998 2.72.63s1.51333.969997 2.1 1.65 1.039998 1.449996 1.36 2.31.48 1.736662.48 2.63c0 .946671-.169998 1.853329-.51 2.72s-.806664 1.629997-1.4 2.29-1.299996 1.186665-2.12 1.58-1.709995.59-2.67.59zm-4.86-7.2c0 .720004.116665 1.416663.35 2.09.233334.673337.563331 1.269997.99 1.79s.939997.933332 1.54 1.24 1.266663.46 2 .46c.760004 0 1.439997-.163332 2.04-.49s1.109998-.753331 1.53-1.28.739999-1.12333.96-1.79.33-1.339997.33-2.02c0-.720004-.116666-1.416663-.35-2.09-.233335-.673337-.566664-1.266664-1-1.78-.433335-.513336-.946664-.923332-1.54-1.23s-1.249996-.46-1.97-.46c-.760004 0-1.439997.159998-2.04.48s-1.109998.739997-1.53 1.26-.743332 1.11333-.97 1.78-.34 1.346663-.34 2.04zm14.06 7.1v-14.2h5.92c.62667 0 1.203331.129999 1.73.39s.979998.606664 1.36 1.04.676666.919997.89 1.46.32 1.089997.32 1.65c0 .58667-.099999 1.153331-.3 1.7s-.483331 1.033331-.85 1.46c-.366668.426669-.806664.766665-1.32 1.02s-1.08333.38-1.71.38h-4.24v5.1zm1.8-6.7h4.14c.373335 0 .709999-.076666 1.01-.23.300002-.153334.556666-.366665.77-.64s.379999-.589998.5-.95.18-.739998.18-1.14c0-.413335-.069999-.799998-.21-1.16s-.326665-.673332-.56-.94c-.233334-.266668-.506665-.473333-.82-.62s-.643332-.22-.99-.22h-4.02zm24.84-5.9h-4.9v12.6h-1.8v-12.6h-4.9v-1.6h11.6zm7.38 12.7c-1.000005 0-1.909996-.203331-2.73-.61s-1.52333-.946663-2.11-1.62-1.039998-1.443329-1.36-2.31-.48-1.753329-.48-2.66c0-.946671.169998-1.853329.51-2.72s.809997-1.63333 1.41-2.3 1.309996-1.196665 2.13-1.59 1.709995-.59 2.67-.59c1.000005 0 1.906663.209998 2.72.63s1.51333.969997 2.1 1.65 1.039998 1.449996 1.36 2.31.48 1.736662.48 2.63c0 .946671-.169998 1.853329-.51 2.72s-.806664 1.629997-1.4 2.29-1.299996 1.186665-2.12 1.58-1.709995.59-2.67.59zm-4.86-7.2c0 .720004.116665 1.416663.35 2.09s.563331 1.269997.99 1.79.939997.933332 1.54 1.24 1.266663.46 2 .46c.760004 0 1.439997-.163332 2.04-.49s1.109998-.753331 1.53-1.28.739999-1.12333.96-1.79.33-1.339997.33-2.02c0-.720004-.116665-1.416663-.35-2.09-.233334-.673337-.566664-1.266664-1-1.78-.433335-.513336-.946664-.923332-1.54-1.23s-1.249996-.46-1.97-.46c-.760004 0-1.439997.159998-2.04.48s-1.109998.739997-1.53 1.26-.743332 1.11333-.97 1.78-.34 1.346663-.34 2.04zm19.9 5.58c.826671 0 1.513331-.159998 2.06-.48s.983332-.736664 1.31-1.25.556666-1.099997.69-1.76.2-1.329997.2-2.01v-7.18h1.8v7.18c0 .960005-.109999 1.869996-.33 2.73s-.569998 1.616663-1.05 2.27-1.103329 1.169998-1.87 1.55c-.76667.380002-1.696661.57-2.79.57-1.133339 0-2.086663-.199998-2.86-.6s-1.396664-.929997-1.87-1.59-.813332-1.419996-1.02-2.28-.31-1.743329-.31-2.65v-7.18h1.8v7.18c0 .70667.069999 1.389997.21 2.05s.373332 1.243331.7 1.75.759997.916665 1.3 1.23 1.216663.47 2.03.47zm9.26 1.52v-14.2h6.08c.62667 0 1.203331.129999 1.73.39s.979998.606664 1.36 1.04.676666.919997.89 1.46.32 1.089997.32 1.65c0 .493336-.069999.969998-.21 1.43s-.339999.876665-.6 1.25-.573331.693332-.94.96c-.366668.266668-.776664.459999-1.23.58l3.44 5.44h-2.04l-3.24-5.1h-3.76v5.1zm1.8-6.7h4.3c.373335 0 .709999-.079999 1.01-.24.300002-.160001.556666-.376665.77-.65s.379999-.589998.5-.95.18-.733331.18-1.12c0-.400002-.069999-.776665-.21-1.13s-.326665-.666665-.56-.94c-.233334-.273335-.506665-.486666-.82-.64s-.643332-.23-.99-.23h-4.18zm16.4 6.7v-14.2h1.8v14.2zm7-10.84v10.84h-1.8v-14.2h1.4l8.8 11.06v-11.04h1.8v14.18h-1.52zm22.36-3.36h1.52l5.8 14.2h-1.92l-1.68-4.16h-5.96l-1.66 4.16h-1.92zm3.32 8.64-2.56-6.56-2.64 6.56zm11.16 4.04c.826671 0 1.513331-.159998 2.06-.48s.983332-.736664 1.31-1.25.556666-1.099997.69-1.76.2-1.329997.2-2.01v-7.18h1.8v7.18c0 .960005-.109999 1.869996-.33 2.73s-.569998 1.616663-1.05 2.27-1.103329 1.169998-1.87 1.55c-.76667.380002-1.696661.57-2.79.57-1.133339 0-2.086663-.199998-2.86-.6s-1.396664-.929997-1.87-1.59-.813332-1.419996-1.02-2.28-.31-1.743329-.31-2.65v-7.18h1.8v7.18c0 .70667.069999 1.389997.21 2.05s.373332 1.243331.7 1.75.759997.916665 1.3 1.23 1.216663.47 2.03.47zm17.6-9.7c-.160001-.186668-.373332-.366666-.64-.54s-.566665-.329999-.9-.47-.696665-.253333-1.09-.34-.803331-.13-1.23-.13c-1.106672 0-1.916664.206665-2.43.62s-.77.979996-.77 1.7c0 .386669.073333.706665.22.96s.376665.469999.69.65.703331.336666 1.17.47 1.019997.273333 1.66.42c.733337.160001 1.396664.343332 1.99.55s1.099998.463332 1.52.77.739999.679998.96 1.12.33.979997.33 1.62c0 .680003-.133332 1.269997-.4 1.77s-.629998.913332-1.09 1.24-1.00333.566666-1.63.72-1.306663.23-2.04.23c-1.093339 0-2.129995-.169998-3.11-.51s-1.869996-.836663-2.67-1.49l.86-1.52c.213334.226668.489998.453332.83.68s.726664.429999 1.16.61.899998.326666 1.4.44c.500003.113334 1.023331.17 1.57.17 1.013338 0 1.799997-.179998 2.36-.54s.84-.899996.84-1.62c0-.400002-.089999-.736665-.27-1.01s-.443332-.509999-.79-.71-.776664-.376666-1.29-.53-1.096663-.309999-1.75-.47c-.720004-.173334-1.353331-.359999-1.9-.56s-1.003331-.439999-1.37-.72-.643332-.619998-.83-1.02-.28-.879997-.28-1.44c0-.680003.126665-1.279997.38-1.8s.606664-.959998 1.06-1.32.99333-.629999 1.62-.81 1.306663-.27 2.04-.27c.960005 0 1.826663.146665 2.6.44s1.459997.686664 2.06 1.18zm14.08-1.38h-4.9v12.6h-1.8v-12.6h-4.9v-1.6h11.6zm2.04 12.6v-14.2h6.08c.62667 0 1.203331.129999 1.73.39s.979998.606664 1.36 1.04.676666.919997.89 1.46.32 1.089997.32 1.65c0 .493336-.069999.969998-.21 1.43s-.339999.876665-.6 1.25-.573332.693332-.94.96c-.366669.266668-.776664.459999-1.23.58l3.44 5.44h-2.04l-3.24-5.1h-3.76v5.1zm1.8-6.7h4.3c.373335 0 .709999-.079999 1.01-.24s.556666-.376665.77-.65.379999-.589998.5-.95.18-.733331.18-1.12c0-.400002-.069999-.776665-.21-1.13s-.326666-.666665-.56-.94c-.233335-.273335-.506665-.486666-.82-.64s-.643332-.23-.99-.23h-4.18zm11.34 6.7v-14.2h1.8v14.2zm9.52-14.2h1.52l5.8 14.2h-1.92l-1.68-4.16h-5.96l-1.66 4.16h-1.92zm3.32 8.64-2.56-6.56-2.64 6.56zm-295.7 15.44h1.7l1.88 4.94 1.9-4.94h1.7l-2.46 6.18 2.44 5.86 4.8-12.12h1.96l-5.94 14.2h-1.56l-2.82-6.7-2.84 6.7h-1.56l-5.92-14.2h1.94l4.82 12.12 2.42-5.86zm15.78 14.12v-14.2h1.8v14.2zm15.44-12.6h-4.9v12.6h-1.8v-12.6h-4.9v-1.6h11.6zm13.46-1.6v14.2h-1.8v-6.46h-7.82v6.46h-1.8v-14.2h1.8v6.14h7.82v-6.14zm8.18 0 4.7 11.94 4.68-11.94h1.9l-5.8 14.2h-1.56l-5.82-14.2zm13.2 14.2v-14.2h1.8v14.2zm15.44-12.6h-4.9v12.6h-1.8v-12.6h-4.9v-1.6h11.6zm5.02-1.6h1.52l5.8 14.2h-1.92l-1.68-4.16h-5.96l-1.66 4.16h-1.92zm3.32 8.64-2.56-6.56-2.64 6.56zm5.9 5.56v-14.2h1.8v12.6h7.92v1.6zm10.04-14.2 4.3 7.4 4.34-7.4h1.96l-5.4 9.02v5.18h-1.8v-5.22l-5.38-8.98zm16.88 14.2v-14.2h9.38v1.6h-7.58v4.74h6.38v1.5h-6.38v6.36zm11.66 0v-14.2h6.08c.62667 0 1.203331.129999 1.73.39s.979998.606664 1.36 1.04c.380002.433335.676666.919997.89 1.46s.32 1.089997.32 1.65c0 .493336-.069999.969998-.21 1.43s-.339999.876665-.6 1.25-.573331.693332-.94.96c-.366668.266668-.776664.459999-1.23.58l3.44 5.44h-2.04l-3.24-5.1h-3.76v5.1zm1.8-6.7h4.3c.373335 0 .709999-.079999 1.01-.24s.556666-.376665.77-.65.379999-.589998.5-.95.18-.733331.18-1.12c0-.400002-.069999-.776665-.21-1.13s-.326665-.666665-.56-.94c-.233334-.273335-.506665-.486666-.82-.64s-.643332-.23-.99-.23h-4.18zm11.34 6.7v-14.2h1.8v14.2zm14.84-1.6v1.6h-9.64v-14.2h9.46v1.6h-7.66v4.6h6.66v1.5h-6.66v4.9zm2.46 1.6v-14.2h4.92c1.133339 0 2.129996.186665 2.99.56s1.576664.879997 2.15 1.52 1.003332 1.389996 1.29 2.25.43 1.776662.43 2.75c0 1.080005-.159998 2.056662-.48 2.93s-.779997 1.619997-1.38 2.24-1.323329 1.099998-2.17 1.44-1.789995.51-2.83.51zm9.96-7.12c0-.800004-.109999-1.536663-.33-2.21s-.546664-1.249998-.98-1.73c-.433335-.480002-.96333-.856665-1.59-1.13s-1.339996-.41-2.14-.41h-3.12v11h3.12c.813337 0 1.536664-.139999 2.17-.42.633337-.280001 1.159998-.666664 1.58-1.16s.739999-1.076663.96-1.75.33-1.403329.33-2.19zm16.64 7.12v-10.98l-4.72 8.42h-1.02l-4.74-8.42v10.98h-1.8v-14.2h1.9l5.14 9.22 5.16-9.22h1.88v14.2zm9.52-14.2h1.52l5.8 14.2h-1.92l-1.68-4.16h-5.96l-1.66 4.16h-1.92zm3.32 8.64-2.56-6.56-2.64 6.56zm7.7-5.28v10.84h-1.8v-14.2h1.4l8.8 11.06v-11.04h1.8v14.18h-1.52z" fill="#fff"/></g></svg>