
<svg width="590px" height="199px" viewBox="0 0 590 199" version="1.1" xmlns="http://www.w3.org/2000/svg" xmlns:xlink="http://www.w3.org/1999/xlink">
    <defs>
        <radialGradient cx="88.2267431%" cy="44.8876818%" fx="88.2267431%" fy="44.8876818%" r="63.1061809%" gradientTransform="translate(0.882267,0.448877),scale(1.000000,0.863322),rotate(-7.377464),translate(-0.882267,-0.448877)" id="radialGradient-1">
            <stop stop-color="#F7681E" offset="0%"></stop>
            <stop stop-color="#F7DF00" offset="100%"></stop>
        </radialGradient>
        <polygon id="path-2" points="93.4167773 27.2727273 162.579192 68.8563636 162.579192 146.422727 93.4167773 185.755455 25.7575758 146.422727 25.7575758 63.6181818"></polygon>
        <polygon id="path-3" points="93.4167773 0.709653815 202.154356 0.709653815 202.154356 165.984571 127.753102 166.228356 93.4167773 185.755455 72.8792734 173.816265 57.5757576 173.816265 1.12156723 173.816265 1.12156723 0.709653815"></polygon>
    </defs>
    <g id="Page-1" stroke="none" stroke-width="1" fill="none" fill-rule="evenodd">
        <g id="Group" transform="translate(-6.000000, -23.000000)">
            <polygon id="x" fill="#FFFFFF" points="93.4167773 27.2727273 162.579192 68.8563636 162.579192 146.422727 93.4167773 185.755455 25.7575758 146.422727 25.7575758 63.6181818"></polygon>
            <g id="x">
                <use fill="url(#radialGradient-1)" fill-rule="evenodd" style="mix-blend-mode: difference;" xlink:href="#path-2"></use>
                <path stroke="#FFFFFF" stroke-width="3" d="M93.4585209,25.5475774 L164.079192,68.0079849 L164.079192,147.295276 L93.4085624,187.485727 L24.2575758,147.285771 L24.2575758,62.7212322 L93.4585209,25.5475774 Z"></path>
            </g>
            <path d="M178.493939,62.9090909 L198.039394,62.9090909 L213.284848,97.0484848 C214.15354,98.9596055 214.978784,101.087867 215.760606,103.433333 C216.542428,105.7788 217.280805,107.950495 217.975758,109.948485 C218.75758,112.293951 219.495956,114.682816 220.190909,117.115152 C220.798993,114.682816 221.493935,112.293951 222.275758,109.948485 C222.970711,107.950495 223.709087,105.800517 224.490909,103.498485 C225.272731,101.196453 226.097975,99.0464746 226.966667,97.0484848 L241.821212,62.9090909 L259.542424,62.9090909 L220.712121,152.29697 L218.887879,152.29697 L178.493939,62.9090909 Z M271.921212,62.9090909 L290.163636,62.9090909 L290.163636,151.515152 L271.921212,151.515152 L271.921212,62.9090909 Z M329.124242,78.9363636 L303.845455,78.9363636 L303.845455,62.9090909 L372.645455,62.9090909 L372.645455,78.9363636 L347.366667,78.9363636 L347.366667,151.515152 L329.124242,151.515152 L329.124242,78.9363636 Z M418.381818,126.236364 L411.99697,110.860606 C411.302017,109.296962 410.650508,107.603039 410.042424,105.778788 C409.43434,103.954536 408.8697,102.21718 408.348485,100.566667 C407.740401,98.7424151 407.17576,96.874757 406.654545,94.9636364 C406.046462,96.874757 405.481821,98.7424151 404.960606,100.566667 C404.439391,102.21718 403.896467,103.954536 403.331818,105.778788 C402.767169,107.603039 402.137377,109.296962 401.442424,110.860606 L395.057576,126.236364 L418.381818,126.236364 Z M406.133333,62.1272727 L407.69697,62.1272727 L448.221212,151.515152 L429.066667,151.515152 L424.89697,141.481818 L388.933333,141.481818 L384.763636,151.515152 L367.172727,151.515152 L406.133333,62.1272727 Z M460.209091,62.9090909 L478.451515,62.9090909 L478.451515,135.487879 L518.584848,135.487879 L518.584848,151.515152 L460.209091,151.515152 L460.209091,62.9090909 Z M546.078788,123.369697 L512.460606,62.9090909 L532.657576,62.9090909 L548.293939,91.4454545 C549.162631,93.0090987 550.009592,94.768172 550.834848,96.7227273 C551.660105,98.6772825 552.420199,100.523224 553.115152,102.260606 L555.460606,108.254545 C556.155559,106.256556 556.893935,104.258596 557.675758,102.260606 C558.370711,100.523224 559.109087,98.6989995 559.890909,96.7878788 C560.672731,94.8767581 561.497975,93.0959678 562.366667,91.4454545 L577.351515,62.9090909 L595.984848,62.9090909 L564.451515,122.066667 L564.451515,151.515152 L546.078788,151.515152 L546.078788,123.369697 Z" id="VITALY" fill="#F7DF1E"></path>
            <g id="Group-2">
                <mask id="mask-4" fill="white">
                    <use xlink:href="#path-3"></use>
                </mask>
                <g id="x"></g>
                <g id="cat-just-friendly" mask="url(#mask-4)">
                    <g transform="translate(6.060606, 30.303030)">
                        <path d="M169.69038,108.044497 C169.76699,106.437173 169.172916,104.869752 168.048699,103.713043 C166.655918,102.295571 164.617055,101.605279 161.815606,101.605279 C161.365467,101.605279 160.904738,101.605279 160.438712,101.657973 C161.757353,99.7662549 162.705291,97.7375322 162.779432,95.7562341 C162.86867,93.6140209 161.933781,91.5561594 160.258657,90.2075458 C159.225088,89.3277191 157.911799,88.8404853 156.551634,88.8322299 C154.756377,88.8322299 149.34942,88.8322299 140.023612,108.5609 C132.652156,113.794272 123.802006,116.565447 114.747016,116.475553 C113.048426,116.468264 111.351413,116.371523 109.6631,116.185735 L109.917296,115.985498 C111.368868,114.788548 112.703988,113.458303 113.904993,112.012363 C115.155589,112.699015 116.707802,112.509937 117.755,111.543385 C119.732077,109.635939 121.50667,107.531145 123.050746,105.262249 C124.335601,105.658946 125.733941,105.242363 126.588304,104.208367 C130.507167,99.2477121 133.50723,93.6325028 135.448087,87.6255351 C135.624042,87.5438712 135.792396,87.4468878 135.951183,87.3357176 C136.057098,87.2619458 144.953951,80.8806908 140.93448,69.177332 L141.225746,69.0508662 C142.563668,68.2768264 143.18391,66.6835965 142.719146,65.214736 C142.597344,64.8247997 140.208963,57.5530144 132.498357,51.7303168 C133.289966,50.4195261 133.070623,48.7389823 131.968782,47.6728714 C128.063491,44.2637233 123.307099,41.9647047 118.199843,41.017607 L115.483125,33.6667806 L116.748808,33.7932464 L117.071849,33.7932464 C118.158892,33.7949776 119.177493,33.2654818 119.796965,32.3766594 C120.416436,31.487837 120.557797,30.3530087 120.175156,29.3405953 C119.804454,28.3604851 118.432856,26.0893696 113.428376,24.0711857 C114.604031,14.5862484 110.250928,2.70372967 110.070873,2.14517225 C109.539998,0.725316109 108.104154,-0.151041874 106.591568,0.0216001778 C87.3891931,2.01870642 80.7536235,12.3836351 78.6141422,17.5950813 C77.3819986,17.9077329 76.1269069,18.2590269 74.8488668,18.6489632 C74.3058184,17.4894535 73.1371014,16.7477421 71.8514747,16.7467063 L71.8144045,16.7467063 C71.2848299,16.7467063 59.2211207,16.999638 50.0171144,27.7018089 C43.6654211,25.5743885 37.0183109,24.4489327 30.3169396,24.3662726 C22.9399656,24.3662726 16.3626492,25.889132 10.7597501,28.9295813 C9.66849153,29.5230617 9.00366783,30.6751198 9.03863265,31.9120672 C9.07040712,32.9659491 9.78003707,42.3454982 25.0741512,61.0624412 C21.6901696,65.0197678 15.1764021,73.6721384 14.387336,82.4035502 C14.2456983,83.9894584 15.2645279,85.4490994 16.8074919,85.8708217 L16.950477,85.9077076 C15.9442853,92.3205791 16.4844514,99.318355 21.0229056,104.877582 C21.650162,105.649386 22.5937964,106.098529 23.5913424,106.100085 L23.6919615,106.100085 C26.0114982,112.512957 29.7767736,119.568696 35.7768537,123.652489 C36.5884766,124.204146 37.6045263,124.368332 38.549885,124.100591 C39.4952438,123.83285 40.2721073,123.160881 40.6701229,122.266634 C42.9515592,123.756418 45.3831421,125.005017 47.9252947,125.992107 C46.4438847,126.144198 44.955551,126.219827 43.4662767,126.218691 C38.5513119,126.214141 33.6754906,125.349063 29.0618479,123.663027 C20.5886544,113.830309 13.9901551,108.845448 9.51524978,108.840178 C7.54231046,108.802615 5.68679224,109.770477 4.59550184,111.406381 C3.34386116,113.151751 2.99622079,115.383564 3.65815482,117.424046 C4.2671656,119.310495 5.71819997,121.012514 7.49757059,122.47741 C3.58401438,123.273091 2.02176934,124.674754 1.14267552,125.823485 C0.0193647829,127.339646 -0.298239758,129.302535 0.290060433,131.092895 C0.750790325,132.610485 2.40835879,136.130451 8.08539839,136.140989 C9.09225318,136.133749 10.0967037,136.042088 11.0880863,135.86698 C10.6212419,136.992146 10.4218833,138.209398 10.5055543,139.423832 C10.6589542,141.059278 11.5590799,142.533894 12.9468931,143.423314 C13.8529896,144.015788 14.9130155,144.332581 15.9972427,144.334921 C18.7033689,144.334921 21.181778,142.332546 23.1570912,139.966581 C24.3592255,142.074345 26.1333004,143.834328 28.7229201,143.834328 C29.4494662,143.833539 30.168923,143.692153 30.8412185,143.418044 C32.5899665,142.763072 33.921131,141.319182 34.4264385,139.52922 C34.594172,138.916572 34.6708907,138.282797 34.6541555,137.648041 C37.5787011,138.133901 40.5383232,138.380631 43.5033469,138.385758 C45.2403516,138.385758 47.0038349,138.306717 48.7408396,138.143365 C56.7871704,137.356517 64.5868741,134.941093 71.6608278,131.04547 L71.4172235,155.284755 C74.82545,155.821906 78.2720988,156.08097 81.722745,156.059358 C89.2303154,156.030843 96.6776481,154.724507 103.742456,152.196881 L99.7123938,126.708746 C104.624531,127.968232 109.674475,128.617797 114.747016,128.64262 L115.917376,128.64262 C123.673537,128.513093 131.316652,126.770219 138.355452,123.526023 C138.518331,124.142781 138.771722,124.732269 139.107448,125.275467 C140.076419,126.864645 141.747973,127.899769 143.608832,128.062985 C143.826878,128.087238 144.046099,128.099552 144.265504,128.09987 C145.828404,128.107464 147.317845,127.440452 148.348524,126.271385 C149.211319,125.229697 149.805735,123.994325 150.080233,122.672378 C152.103208,124.068772 154.39097,125.196426 156.51986,125.201695 C158.171537,125.226212 159.750989,124.529009 160.841189,123.294169 C161.94026,122.067578 162.410956,120.405986 162.117463,118.788824 C161.871689,117.594275 161.351499,116.472502 160.597584,115.511251 C168.302895,114.710301 169.637423,110.594892 169.69038,108.044497 Z" id="Path" fill="#FFFFFF" fill-rule="evenodd"></path>
                        <path d="M166.665696,107.544363 C166.814741,100.512828 149.749123,107.140824 149.749123,107.140824 C149.749123,107.140824 164.12129,96.5216575 158.372423,91.5465145 C153.618962,87.4171457 145.458765,104.476359 142.807899,110.391251 C125.715666,123.658299 101.868515,122.978363 81.9816937,108.611255 L78.7878788,113.415032 C90.4985335,121.86172 103.449453,125.98556 115.900008,125.747859 C125.24897,125.60933 134.388707,122.853527 142.355442,117.771046 C141.338744,120.44104 140.827733,124.785998 144.138655,125.172954 C148.397075,125.670468 147.257947,115.598567 147.257947,115.598567 C147.257947,115.598567 155.545897,124.924196 158.585344,121.32551 C161.624792,117.726823 150.840343,111.496838 150.840343,111.496838 C150.840343,111.496838 166.516651,114.570371 166.665696,107.544363 Z" id="Path" fill="#F7DF1E" fill-rule="evenodd"></path>
                        <path d="M75.7575758,155.709919 C78.0746206,155.956864 80.4032691,156.073557 82.7329258,156.059468 C89.096921,156.03016 95.4232466,155.062908 101.515152,153.187792 L94.7034925,109.090909 L76.2222471,109.43508 L75.7575758,155.709919 Z" id="Path" fill="#F7DF1E" fill-rule="evenodd"></path>
                        <path d="M89.3939394,109.887127 L85.0551657,106.060606 C69.6165845,125.930169 46.7994262,133.413143 26.9049511,125.176203 C22.8217125,120.074175 10.5507023,105.544734 7.0424178,110.975559 C2.78349885,117.523162 19.3719882,123.923372 19.3719882,123.923372 C19.3719882,123.923372 1.22366978,122.222696 3.17744885,129.144447 C5.13122792,136.066198 19.4411956,128.515197 19.4411956,128.515197 C19.4411956,128.515197 10.6624989,137.789549 14.5434388,140.499293 C18.4243787,143.209036 23.9716206,131.59342 23.9716206,131.59342 C23.9716206,131.59342 25.4782132,141.865502 29.4496551,140.164827 C32.542695,138.838299 30.9296295,134.694319 29.2633274,132.347386 C35.4645142,134.258004 41.9484569,134.90614 48.3752262,134.257812 C63.4677703,132.732873 78.2142771,124.269176 89.3939394,109.887127 Z" id="Path" fill="#F7DF1E" fill-rule="evenodd"></path>
                        <path d="M142.424242,109.64985 C125.366413,122.191126 101.719998,121.417372 81.9862217,107.575758 L78.7878788,112.245153 C90.5151363,120.455551 103.484417,124.464031 115.952624,124.232979 C125.133375,124.098191 134.115373,121.517693 141.987136,116.753349 C142.237672,114.415965 142.322962,112.030221 142.424242,109.64985 Z" id="Path" fill="#F7DF1E" fill-rule="evenodd"></path>
                        <path d="M84.9536005,107.575758 C69.60287,125.068611 47.1671869,131.96098 27.2727273,125.489754 C27.8168865,127.50816 28.2739802,129.536838 28.7365155,131.575788 C34.8393009,133.152761 41.1940074,133.674755 47.4936824,133.116556 C62.9151536,131.740136 77.9665966,124.072247 89.3939394,111.032214 L84.9536005,107.575758 Z" id="Path" fill="#F7DF1E" fill-rule="evenodd"></path>
                        <polygon id="Path" fill="#FFFFFF" fill-rule="evenodd" points="73.961691 113.636364 42.9591138 103.342394 33.293479 67.5678333 30.4076575 56.1673797 16.6666667 35.490292 22.9077223 29.6537213 43.4818689 31.9610808 66.5150982 40.1102551 92.3434669 16.48604 105.423013 4.54545455 107.103297 34.4572243 122.727273 56.4190917 120.673592 80.3527026 101.075611 106.688065"></polygon>
                        <path d="M142.424242,65.4711321 C142.424242,65.4711321 138.965518,54.7575784 125.999324,49.753737 C125.999324,49.753737 130.825451,48.7446029 132.396623,49.4295592 C128.428406,46.0903436 123.522163,43.991683 118.315057,43.4061263 L113.027767,29.4194225 L119.628836,30.0573207 C119.628836,30.0573207 118.754771,27.7828474 112.094716,25.7959511 C114.66865,17.0692937 109.413534,3.03030303 109.413534,3.03030303 C89.3046718,5.07994337 84.3391234,16.4941395 83.2827379,19.9816653 C77.2963928,21.3713932 71.467221,23.340158 65.881869,25.8586952 C65.881869,25.8586952 69.3513181,21.2365471 73.882515,19.6679448 C73.882515,19.6679448 61.4686441,19.7882043 52.8995875,31.1710284 C52.8995875,31.1710284 30.8656368,22.2143092 13.6363636,31.3801753 C13.6363636,31.3801753 13.9098442,40.7447311 30.9460723,60.4882054 C30.9460723,60.4882054 20.0014888,71.3847628 19.0362635,81.8682549 C19.0362635,81.8682549 24.1036968,71.557309 27.857351,68.7285962 C27.857351,68.7285962 15.0198534,89.7792391 25.0206609,101.84702 C25.0206609,101.84702 23.2993423,93.3713384 25.406751,90.3857654 C25.406751,90.3857654 25.8947261,98.4902106 29.230116,104.99991 L28.7689528,104.822135 C29.2224653,105.151862 29.6394169,105.526875 30.0130211,105.941072 L30.0988189,106.050874 C31.3236683,106.124864 32.5399007,106.299777 33.7345012,106.573741 C32.7371016,104.142408 31.9595589,101.460098 32.4207222,99.6980344 C33.6562209,102.37983 35.0528603,104.988239 36.6033655,107.509674 C37.0752535,107.697906 37.5525038,107.870452 38.0136671,108.095285 C40.861082,109.465198 43.5637131,110.944913 46.2395324,112.555345 L50.5615972,112.869065 C57.5326694,114.437667 62.1335771,115.880781 69.705234,116.330447 C76.628045,116.738284 83.4489711,117.313438 90.3288832,118.102968 C93.6428237,118.479433 95.9379152,117.42324 99.5306986,116.722598 C104.431899,115.770979 107.198878,113.423305 99.6808448,117.851992 C101.656323,116.686561 103.763438,115.747875 105.960172,115.054651 L105.874374,115.012822 C106.298001,114.814132 106.721628,114.604985 107.155979,114.390609 C108.289544,113.814389 109.351158,113.112594 110.319773,112.29914 C112.958056,110.181526 116.711711,106.244335 119.392892,99.6091469 C119.392892,99.6091469 119.033614,106.788117 118.105925,108.022084 C118.105925,108.022084 126.380052,100.534622 127.146869,92.3360609 C127.146869,92.3360609 127.184406,99.5673175 126.760779,101.047032 C126.760779,101.047032 135.479982,90.7883733 136.54173,78.7258216 C136.54173,78.7258216 137.2442,82.8512456 136.895646,83.7087482 C136.895646,83.7087482 147.084136,76.7650687 137.319273,63.1705154 C139.272274,63.2232119 141.117594,64.0548278 142.424242,65.4711321 Z M33.9168215,51.3537114 C26.4899484,47.0818844 21.1972959,35.1657356 21.1972959,35.1657356 C29.8843244,30.4180993 44.3090816,37.0114576 44.3090816,37.0114576 C38.0351165,42.4911083 33.9168215,51.343254 33.9168215,51.343254 L33.9168215,51.3537114 Z M89.6478631,77.2356494 C81.3308376,79.6722116 71.9520643,75.5938456 68.9116043,65.7900812 C65.8711443,55.9863168 68.2681207,39.8244844 76.5636967,37.3879222 C84.8592727,34.9513599 95.9861765,47.1603145 99.005187,56.9640789 C102.024198,66.7678433 97.9648885,74.7938585 89.6478631,77.225192 L89.6478631,77.2356494 Z M105.911911,28.2586568 C105.911911,28.2586568 94.532976,22.0783637 90.3449703,21.2365471 C88.5378539,20.8757686 93.9323913,11.6262437 105.032483,9.21059611 C105.037846,9.21059611 110.105279,22.282282 105.911911,28.2534281 L105.911911,28.2586568 Z" id="Shape" fill="#F7DF1E" fill-rule="nonzero"></path>
                        <path d="M24.2424242,91.0533594 C24.2424242,91.0533594 26.7023905,112.620501 38.2647588,120.609119 C38.2647588,120.609119 33.8031069,112.099273 33.1130521,107.966679 C33.1130521,107.966679 39.5026434,124.374726 64.7818258,125.757576 C60.0229233,124.235945 55.7191416,121.530981 52.2660231,117.891287 C52.2660231,117.891287 85.9786231,130.820934 107.575758,113.397024 L60.8943416,106.823168 C60.8943416,106.823168 38.1172662,89.3939394 37.6221124,89.3939394 C37.1269586,89.3939394 24.2424242,91.0533594 24.2424242,91.0533594 Z" id="Path" fill="#F7DF1E" fill-rule="evenodd"></path>
                        <path d="M69.8749593,99.9691767 C80.2270142,103.117584 92.279224,101.454942 105.750928,95.0014653 C106.03411,94.8619133 106.14285,94.5338387 105.993808,94.26869 C105.844765,94.0035413 105.494378,93.901725 105.211197,94.0412769 C90.8165509,100.934419 78.132855,102.258468 67.5001397,97.9881565 C50.9627591,91.3375887 45.0742858,73.1849751 45.0203126,73.0030446 C44.8878702,72.7824999 44.6098019,72.6774328 44.3509726,72.7501369 C44.0921434,72.8228411 43.9217631,73.0538759 43.9408491,73.306262 C44.0002196,73.493246 50.0452151,92.1310075 67.0737516,98.9786666 C67.9876973,99.3526347 68.9214333,99.6828047 69.8749593,99.9691767 Z" id="Path" fill="#FFFFFF" fill-rule="evenodd"></path>
                        <path d="M39.3939394,77.6949152 C39.3939394,77.6949152 40.9996742,60.7055519 51.5151515,72.1350672 C51.5151515,72.1350672 42.5376344,64.389585 39.524275,80.3030303" id="Path" fill="#FFFFFF" fill-rule="evenodd"></path>
                        <path d="M101.538118,70.764299 C94.9147297,74.7252223 111.826448,77.2727273 111.826448,77.2727273 C111.826448,77.2727273 114.768336,71.7196133 115.138142,67.1385737 C115.507948,62.557534 108.139429,66.8033757 101.538118,70.764299 Z" id="Path" fill="#FFFFFF" fill-rule="evenodd"></path>
                        <ellipse id="Oval" fill="#F7DF1E" fill-rule="evenodd" transform="translate(77.785089, 67.410540) rotate(-12.850000) translate(-77.785089, -67.410540) " cx="77.7850889" cy="67.4105405" rx="4.00682449" ry="6.60256331"></ellipse>
                        <ellipse id="Oval" fill="#FFFFFF" fill-rule="evenodd" transform="translate(105.723728, 57.937052) rotate(-12.850000) translate(-105.723728, -57.937052) " cx="105.723728" cy="57.9370521" rx="4.00682449" ry="6.60256331"></ellipse>
                    </g>
                </g>
            </g>
            <path d="M196.02,183.8 L197.54,183.8 L203.34,198 L201.42,198 L199.74,193.84 L193.78,193.84 L192.12,198 L190.2,198 L196.02,183.8 Z M199.34,192.44 L196.78,185.88 L194.14,192.44 L199.34,192.44 Z M214.18,183.88 L215.88,183.88 L217.76,188.82 L219.66,183.88 L221.36,183.88 L218.9,190.06 L221.34,195.92 L226.14,183.8 L228.1,183.8 L222.16,198 L220.6,198 L217.78,191.3 L214.94,198 L213.38,198 L207.46,183.8 L209.4,183.8 L214.22,195.92 L216.64,190.06 L214.18,183.88 Z M235.2,198.1 C234.199995,198.1 233.290004,197.896669 232.47,197.49 C231.649996,197.083331 230.94667,196.543337 230.36,195.87 C229.77333,195.196663 229.320002,194.426671 229,193.56 C228.679998,192.693329 228.52,191.806671 228.52,190.9 C228.52,189.953329 228.689998,189.046671 229.03,188.18 C229.370002,187.313329 229.839997,186.54667 230.44,185.88 C231.040003,185.21333 231.749996,184.683335 232.57,184.29 C233.390004,183.896665 234.279995,183.7 235.24,183.7 C236.240005,183.7 237.146663,183.909998 237.96,184.33 C238.773337,184.750002 239.47333,185.299997 240.06,185.98 C240.64667,186.660003 241.099998,187.429996 241.42,188.29 C241.740002,189.150004 241.9,190.026662 241.9,190.92 C241.9,191.866671 241.730002,192.773329 241.39,193.64 C241.049998,194.506671 240.583336,195.269997 239.99,195.93 C239.396664,196.590003 238.690004,197.116665 237.87,197.51 C237.049996,197.903335 236.160005,198.1 235.2,198.1 Z M230.34,190.9 C230.34,191.620004 230.456666,192.316663 230.69,192.99 C230.923335,193.663337 231.253331,194.259997 231.68,194.78 C232.106669,195.300003 232.619997,195.713332 233.22,196.02 C233.820003,196.326668 234.486663,196.48 235.22,196.48 C235.980004,196.48 236.659997,196.316668 237.26,195.99 C237.860003,195.663332 238.369998,195.236669 238.79,194.71 C239.210002,194.183331 239.529999,193.58667 239.75,192.92 C239.970001,192.25333 240.08,191.580003 240.08,190.9 C240.08,190.179996 239.963335,189.483337 239.73,188.81 C239.496666,188.136663 239.163336,187.543336 238.73,187.03 C238.296664,186.516664 237.783336,186.106668 237.19,185.8 C236.596664,185.493332 235.940004,185.34 235.22,185.34 C234.459996,185.34 233.780003,185.499998 233.18,185.82 C232.579997,186.140002 232.070002,186.559997 231.65,187.08 C231.229998,187.600003 230.906668,188.19333 230.68,188.86 C230.453332,189.52667 230.34,190.206663 230.34,190.9 Z M244.4,198 L244.4,183.8 L250.48,183.8 C251.10667,183.8 251.683331,183.929999 252.21,184.19 C252.736669,184.450001 253.189998,184.796664 253.57,185.23 C253.950002,185.663336 254.246666,186.149997 254.46,186.69 C254.673334,187.230003 254.78,187.779997 254.78,188.34 C254.78,188.833336 254.710001,189.309998 254.57,189.77 C254.429999,190.230002 254.230001,190.646665 253.97,191.02 C253.709999,191.393335 253.396669,191.713332 253.03,191.98 C252.663331,192.246668 252.253336,192.439999 251.8,192.56 L255.24,198 L253.2,198 L249.96,192.9 L246.2,192.9 L246.2,198 L244.4,198 Z M246.2,191.3 L250.5,191.3 C250.873335,191.3 251.209998,191.220001 251.51,191.06 C251.810001,190.899999 252.066666,190.683335 252.28,190.41 C252.493334,190.136665 252.659999,189.820002 252.78,189.46 C252.900001,189.099998 252.96,188.726669 252.96,188.34 C252.96,187.939998 252.890001,187.563335 252.75,187.21 C252.609999,186.856665 252.423335,186.543335 252.19,186.27 C251.956665,185.996665 251.683335,185.783334 251.37,185.63 C251.056665,185.476666 250.726668,185.4 250.38,185.4 L246.2,185.4 L246.2,191.3 Z M257.54,198 L257.54,183.82 L259.34,183.82 L259.34,191.66 L266.66,183.8 L268.6,183.8 L262.9,190.06 L268.92,198 L266.96,198 L261.8,191.1 L259.34,193.66 L259.34,198 L257.54,198 Z M278.92,186.78 C278.759999,186.593332 278.546668,186.413334 278.28,186.24 C278.013332,186.066666 277.713335,185.910001 277.38,185.77 C277.046665,185.629999 276.683335,185.516667 276.29,185.43 C275.896665,185.343333 275.486669,185.3 275.06,185.3 C273.953328,185.3 273.143336,185.506665 272.63,185.92 C272.116664,186.333335 271.86,186.899996 271.86,187.62 C271.86,188.006669 271.933333,188.326665 272.08,188.58 C272.226667,188.833335 272.456665,189.049999 272.77,189.23 C273.083335,189.410001 273.473331,189.566666 273.94,189.7 C274.406669,189.833334 274.959997,189.973333 275.6,190.12 C276.333337,190.280001 276.996664,190.463332 277.59,190.67 C278.183336,190.876668 278.689998,191.133332 279.11,191.44 C279.530002,191.746668 279.849999,192.119998 280.07,192.56 C280.290001,193.000002 280.4,193.539997 280.4,194.18 C280.4,194.860003 280.266668,195.449997 280,195.95 C279.733332,196.450003 279.370002,196.863332 278.91,197.19 C278.449998,197.516668 277.90667,197.756666 277.28,197.91 C276.65333,198.063334 275.973337,198.14 275.24,198.14 C274.146661,198.14 273.110005,197.970002 272.13,197.63 C271.149995,197.289998 270.260004,196.793337 269.46,196.14 L270.32,194.62 C270.533334,194.846668 270.809998,195.073332 271.15,195.3 C271.490002,195.526668 271.876665,195.729999 272.31,195.91 C272.743336,196.090001 273.209997,196.236666 273.71,196.35 C274.210002,196.463334 274.733331,196.52 275.28,196.52 C276.293338,196.52 277.079997,196.340002 277.64,195.98 C278.200003,195.619998 278.48,195.080004 278.48,194.36 C278.48,193.959998 278.390001,193.623335 278.21,193.35 C278.029999,193.076665 277.766668,192.840001 277.42,192.64 C277.073332,192.439999 276.643336,192.263334 276.13,192.11 C275.616664,191.956666 275.033337,191.800001 274.38,191.64 C273.659996,191.466666 273.026669,191.280001 272.48,191.08 C271.933331,190.879999 271.476669,190.640001 271.11,190.36 C270.743332,190.079999 270.466668,189.740002 270.28,189.34 C270.093332,188.939998 270,188.460003 270,187.9 C270,187.219997 270.126665,186.620003 270.38,186.1 C270.633335,185.579997 270.986664,185.140002 271.44,184.78 C271.893336,184.419998 272.43333,184.150001 273.06,183.97 C273.68667,183.789999 274.366663,183.7 275.1,183.7 C276.060005,183.7 276.926663,183.846665 277.7,184.14 C278.473337,184.433335 279.159997,184.826664 279.76,185.32 L278.92,186.78 Z M294.18,183.8 L294.18,198 L292.38,198 L292.38,191.54 L284.56,191.54 L284.56,198 L282.76,198 L282.76,183.8 L284.56,183.8 L284.56,189.94 L292.38,189.94 L292.38,183.8 L294.18,183.8 Z M303.34,198.1 C302.339995,198.1 301.430004,197.896669 300.61,197.49 C299.789996,197.083331 299.08667,196.543337 298.5,195.87 C297.91333,195.196663 297.460002,194.426671 297.14,193.56 C296.819998,192.693329 296.66,191.806671 296.66,190.9 C296.66,189.953329 296.829998,189.046671 297.17,188.18 C297.510002,187.313329 297.979997,186.54667 298.58,185.88 C299.180003,185.21333 299.889996,184.683335 300.71,184.29 C301.530004,183.896665 302.419995,183.7 303.38,183.7 C304.380005,183.7 305.286663,183.909998 306.1,184.33 C306.913337,184.750002 307.61333,185.299997 308.2,185.98 C308.78667,186.660003 309.239998,187.429996 309.56,188.29 C309.880002,189.150004 310.04,190.026662 310.04,190.92 C310.04,191.866671 309.870002,192.773329 309.53,193.64 C309.189998,194.506671 308.723336,195.269997 308.13,195.93 C307.536664,196.590003 306.830004,197.116665 306.01,197.51 C305.189996,197.903335 304.300005,198.1 303.34,198.1 Z M298.48,190.9 C298.48,191.620004 298.596665,192.316663 298.83,192.99 C299.063334,193.663337 299.393331,194.259997 299.82,194.78 C300.246669,195.300003 300.759997,195.713332 301.36,196.02 C301.960003,196.326668 302.626663,196.48 303.36,196.48 C304.120004,196.48 304.799997,196.316668 305.4,195.99 C306.000003,195.663332 306.509998,195.236669 306.93,194.71 C307.350002,194.183331 307.669999,193.58667 307.89,192.92 C308.110001,192.25333 308.22,191.580003 308.22,190.9 C308.22,190.179996 308.103334,189.483337 307.87,188.81 C307.636665,188.136663 307.303336,187.543336 306.87,187.03 C306.436665,186.516664 305.923336,186.106668 305.33,185.8 C304.736664,185.493332 304.080004,185.34 303.36,185.34 C302.599996,185.34 301.920003,185.499998 301.32,185.82 C300.719997,186.140002 300.210002,186.559997 299.79,187.08 C299.369998,187.600003 299.046668,188.19333 298.82,188.86 C298.593332,189.52667 298.48,190.206663 298.48,190.9 Z M312.54,198 L312.54,183.8 L318.46,183.8 C319.08667,183.8 319.663331,183.929999 320.19,184.19 C320.716669,184.450001 321.169998,184.796664 321.55,185.23 C321.930002,185.663336 322.226666,186.149997 322.44,186.69 C322.653334,187.230003 322.76,187.779997 322.76,188.34 C322.76,188.92667 322.660001,189.493331 322.46,190.04 C322.259999,190.586669 321.976669,191.073331 321.61,191.5 C321.243332,191.926669 320.803336,192.266665 320.29,192.52 C319.776664,192.773335 319.20667,192.9 318.58,192.9 L314.34,192.9 L314.34,198 L312.54,198 Z M314.34,191.3 L318.48,191.3 C318.853335,191.3 319.189999,191.223334 319.49,191.07 C319.790002,190.916666 320.046666,190.703335 320.26,190.43 C320.473334,190.156665 320.639999,189.840002 320.76,189.48 C320.880001,189.119998 320.94,188.740002 320.94,188.34 C320.94,187.926665 320.870001,187.540002 320.73,187.18 C320.589999,186.819998 320.403335,186.506668 320.17,186.24 C319.936666,185.973332 319.663335,185.766667 319.35,185.62 C319.036665,185.473333 318.706668,185.4 318.36,185.4 L314.34,185.4 L314.34,191.3 Z M339.18,185.4 L334.28,185.4 L334.28,198 L332.48,198 L332.48,185.4 L327.58,185.4 L327.58,183.8 L339.18,183.8 L339.18,185.4 Z M346.56,198.1 C345.559995,198.1 344.650004,197.896669 343.83,197.49 C343.009996,197.083331 342.30667,196.543337 341.72,195.87 C341.13333,195.196663 340.680002,194.426671 340.36,193.56 C340.039998,192.693329 339.88,191.806671 339.88,190.9 C339.88,189.953329 340.049998,189.046671 340.39,188.18 C340.730002,187.313329 341.199997,186.54667 341.8,185.88 C342.400003,185.21333 343.109996,184.683335 343.93,184.29 C344.750004,183.896665 345.639995,183.7 346.6,183.7 C347.600005,183.7 348.506663,183.909998 349.32,184.33 C350.133337,184.750002 350.83333,185.299997 351.42,185.98 C352.00667,186.660003 352.459998,187.429996 352.78,188.29 C353.100002,189.150004 353.26,190.026662 353.26,190.92 C353.26,191.866671 353.090002,192.773329 352.75,193.64 C352.409998,194.506671 351.943336,195.269997 351.35,195.93 C350.756664,196.590003 350.050004,197.116665 349.23,197.51 C348.409996,197.903335 347.520005,198.1 346.56,198.1 Z M341.7,190.9 C341.7,191.620004 341.816665,192.316663 342.05,192.99 C342.283335,193.663337 342.613331,194.259997 343.04,194.78 C343.466669,195.300003 343.979997,195.713332 344.58,196.02 C345.180003,196.326668 345.846663,196.48 346.58,196.48 C347.340004,196.48 348.019997,196.316668 348.62,195.99 C349.220003,195.663332 349.729998,195.236669 350.15,194.71 C350.570002,194.183331 350.889999,193.58667 351.11,192.92 C351.330001,192.25333 351.44,191.580003 351.44,190.9 C351.44,190.179996 351.323335,189.483337 351.09,188.81 C350.856666,188.136663 350.523336,187.543336 350.09,187.03 C349.656665,186.516664 349.143336,186.106668 348.55,185.8 C347.956664,185.493332 347.300004,185.34 346.58,185.34 C345.819996,185.34 345.140003,185.499998 344.54,185.82 C343.939997,186.140002 343.430002,186.559997 343.01,187.08 C342.589998,187.600003 342.266668,188.19333 342.04,188.86 C341.813332,189.52667 341.7,190.206663 341.7,190.9 Z M361.6,196.48 C362.426671,196.48 363.113331,196.320002 363.66,196 C364.206669,195.679998 364.643332,195.263336 364.97,194.75 C365.296668,194.236664 365.526666,193.650003 365.66,192.99 C365.793334,192.329997 365.86,191.660003 365.86,190.98 L365.86,183.8 L367.66,183.8 L367.66,190.98 C367.66,191.940005 367.550001,192.849996 367.33,193.71 C367.109999,194.570004 366.760002,195.326663 366.28,195.98 C365.799998,196.633337 365.176671,197.149998 364.41,197.53 C363.64333,197.910002 362.713339,198.1 361.62,198.1 C360.486661,198.1 359.533337,197.900002 358.76,197.5 C357.986663,197.099998 357.363336,196.570003 356.89,195.91 C356.416664,195.249997 356.076668,194.490004 355.87,193.63 C355.663332,192.769996 355.56,191.886671 355.56,190.98 L355.56,183.8 L357.36,183.8 L357.36,190.98 C357.36,191.68667 357.429999,192.369997 357.57,193.03 C357.710001,193.690003 357.943332,194.273331 358.27,194.78 C358.596668,195.286669 359.029997,195.696665 359.57,196.01 C360.110003,196.323335 360.786663,196.48 361.6,196.48 Z M370.86,198 L370.86,183.8 L376.94,183.8 C377.56667,183.8 378.143331,183.929999 378.67,184.19 C379.196669,184.450001 379.649998,184.796664 380.03,185.23 C380.410002,185.663336 380.706666,186.149997 380.92,186.69 C381.133334,187.230003 381.24,187.779997 381.24,188.34 C381.24,188.833336 381.170001,189.309998 381.03,189.77 C380.889999,190.230002 380.690001,190.646665 380.43,191.02 C380.169999,191.393335 379.856669,191.713332 379.49,191.98 C379.123332,192.246668 378.713336,192.439999 378.26,192.56 L381.7,198 L379.66,198 L376.42,192.9 L372.66,192.9 L372.66,198 L370.86,198 Z M372.66,191.3 L376.96,191.3 C377.333335,191.3 377.669999,191.220001 377.97,191.06 C378.270002,190.899999 378.526666,190.683335 378.74,190.41 C378.953334,190.136665 379.119999,189.820002 379.24,189.46 C379.360001,189.099998 379.42,188.726669 379.42,188.34 C379.42,187.939998 379.350001,187.563335 379.21,187.21 C379.069999,186.856665 378.883335,186.543335 378.65,186.27 C378.416666,185.996665 378.143335,185.783334 377.83,185.63 C377.516665,185.476666 377.186668,185.4 376.84,185.4 L372.66,185.4 L372.66,191.3 Z M389.06,198 L389.06,183.8 L390.86,183.8 L390.86,198 L389.06,198 Z M396.06,187.16 L396.06,198 L394.26,198 L394.26,183.8 L395.66,183.8 L404.46,194.86 L404.46,183.82 L406.26,183.82 L406.26,198 L404.74,198 L396.06,187.16 Z M418.42,183.8 L419.94,183.8 L425.74,198 L423.82,198 L422.14,193.84 L416.18,193.84 L414.52,198 L412.6,198 L418.42,183.8 Z M421.74,192.44 L419.18,185.88 L416.54,192.44 L421.74,192.44 Z M432.9,196.48 C433.726671,196.48 434.413331,196.320002 434.96,196 C435.506669,195.679998 435.943332,195.263336 436.27,194.75 C436.596668,194.236664 436.826666,193.650003 436.96,192.99 C437.093334,192.329997 437.16,191.660003 437.16,190.98 L437.16,183.8 L438.96,183.8 L438.96,190.98 C438.96,191.940005 438.850001,192.849996 438.63,193.71 C438.409999,194.570004 438.060002,195.326663 437.58,195.98 C437.099998,196.633337 436.476671,197.149998 435.71,197.53 C434.94333,197.910002 434.013339,198.1 432.92,198.1 C431.786661,198.1 430.833337,197.900002 430.06,197.5 C429.286663,197.099998 428.663336,196.570003 428.19,195.91 C427.716664,195.249997 427.376668,194.490004 427.17,193.63 C426.963332,192.769996 426.86,191.886671 426.86,190.98 L426.86,183.8 L428.66,183.8 L428.66,190.98 C428.66,191.68667 428.729999,192.369997 428.87,193.03 C429.010001,193.690003 429.243332,194.273331 429.57,194.78 C429.896668,195.286669 430.329997,195.696665 430.87,196.01 C431.410003,196.323335 432.086663,196.48 432.9,196.48 Z M450.5,186.78 C450.339999,186.593332 450.126668,186.413334 449.86,186.24 C449.593332,186.066666 449.293335,185.910001 448.96,185.77 C448.626665,185.629999 448.263335,185.516667 447.87,185.43 C447.476665,185.343333 447.066669,185.3 446.64,185.3 C445.533328,185.3 444.723336,185.506665 444.21,185.92 C443.696664,186.333335 443.44,186.899996 443.44,187.62 C443.44,188.006669 443.513333,188.326665 443.66,188.58 C443.806667,188.833335 444.036665,189.049999 444.35,189.23 C444.663335,189.410001 445.053331,189.566666 445.52,189.7 C445.986669,189.833334 446.539997,189.973333 447.18,190.12 C447.913337,190.280001 448.576664,190.463332 449.17,190.67 C449.763336,190.876668 450.269998,191.133332 450.69,191.44 C451.110002,191.746668 451.429999,192.119998 451.65,192.56 C451.870001,193.000002 451.98,193.539997 451.98,194.18 C451.98,194.860003 451.846668,195.449997 451.58,195.95 C451.313332,196.450003 450.950002,196.863332 450.49,197.19 C450.029998,197.516668 449.48667,197.756666 448.86,197.91 C448.23333,198.063334 447.553337,198.14 446.82,198.14 C445.726661,198.14 444.690005,197.970002 443.71,197.63 C442.729995,197.289998 441.840004,196.793337 441.04,196.14 L441.9,194.62 C442.113334,194.846668 442.389998,195.073332 442.73,195.3 C443.070002,195.526668 443.456664,195.729999 443.89,195.91 C444.323336,196.090001 444.789998,196.236666 445.29,196.35 C445.790003,196.463334 446.313331,196.52 446.86,196.52 C447.873338,196.52 448.659997,196.340002 449.22,195.98 C449.780003,195.619998 450.06,195.080004 450.06,194.36 C450.06,193.959998 449.970001,193.623335 449.79,193.35 C449.609999,193.076665 449.346668,192.840001 449,192.64 C448.653332,192.439999 448.223336,192.263334 447.71,192.11 C447.196664,191.956666 446.613337,191.800001 445.96,191.64 C445.239996,191.466666 444.606669,191.280001 444.06,191.08 C443.513331,190.879999 443.056669,190.640001 442.69,190.36 C442.323331,190.079999 442.046668,189.740002 441.86,189.34 C441.673332,188.939998 441.58,188.460003 441.58,187.9 C441.58,187.219997 441.706665,186.620003 441.96,186.1 C442.213335,185.579997 442.566664,185.140002 443.02,184.78 C443.473336,184.419998 444.01333,184.150001 444.64,183.97 C445.26667,183.789999 445.946663,183.7 446.68,183.7 C447.640005,183.7 448.506663,183.846665 449.28,184.14 C450.053337,184.433335 450.739997,184.826664 451.34,185.32 L450.5,186.78 Z M464.58,185.4 L459.68,185.4 L459.68,198 L457.88,198 L457.88,185.4 L452.98,185.4 L452.98,183.8 L464.58,183.8 L464.58,185.4 Z M466.62,198 L466.62,183.8 L472.7,183.8 C473.32667,183.8 473.903331,183.929999 474.43,184.19 C474.956669,184.450001 475.409998,184.796664 475.79,185.23 C476.170002,185.663336 476.466666,186.149997 476.68,186.69 C476.893334,187.230003 477,187.779997 477,188.34 C477,188.833336 476.930001,189.309998 476.79,189.77 C476.649999,190.230002 476.450001,190.646665 476.19,191.02 C475.929999,191.393335 475.616668,191.713332 475.25,191.98 C474.883331,192.246668 474.473336,192.439999 474.02,192.56 L477.46,198 L475.42,198 L472.18,192.9 L468.42,192.9 L468.42,198 L466.62,198 Z M468.42,191.3 L472.72,191.3 C473.093335,191.3 473.429999,191.220001 473.73,191.06 C474.030001,190.899999 474.286666,190.683335 474.5,190.41 C474.713334,190.136665 474.879999,189.820002 475,189.46 C475.120001,189.099998 475.18,188.726669 475.18,188.34 C475.18,187.939998 475.110001,187.563335 474.97,187.21 C474.829999,186.856665 474.643334,186.543335 474.41,186.27 C474.176665,185.996665 473.903335,185.783334 473.59,185.63 C473.276665,185.476666 472.946668,185.4 472.6,185.4 L468.42,185.4 L468.42,191.3 Z M479.76,198 L479.76,183.8 L481.56,183.8 L481.56,198 L479.76,198 Z M489.28,183.8 L490.8,183.8 L496.6,198 L494.68,198 L493,193.84 L487.04,193.84 L485.38,198 L483.46,198 L489.28,183.8 Z M492.6,192.44 L490.04,185.88 L487.4,192.44 L492.6,192.44 Z M196.9,207.88 L198.6,207.88 L200.48,212.82 L202.38,207.88 L204.08,207.88 L201.62,214.06 L204.06,219.92 L208.86,207.8 L210.82,207.8 L204.88,222 L203.32,222 L200.5,215.3 L197.66,222 L196.1,222 L190.18,207.8 L192.12,207.8 L196.94,219.92 L199.36,214.06 L196.9,207.88 Z M212.68,222 L212.68,207.8 L214.48,207.8 L214.48,222 L212.68,222 Z M228.12,209.4 L223.22,209.4 L223.22,222 L221.42,222 L221.42,209.4 L216.52,209.4 L216.52,207.8 L228.12,207.8 L228.12,209.4 Z M241.58,207.8 L241.58,222 L239.78,222 L239.78,215.54 L231.96,215.54 L231.96,222 L230.16,222 L230.16,207.8 L231.96,207.8 L231.96,213.94 L239.78,213.94 L239.78,207.8 L241.58,207.8 Z M249.76,207.8 L254.46,219.74 L259.14,207.8 L261.04,207.8 L255.24,222 L253.68,222 L247.86,207.8 L249.76,207.8 Z M262.96,222 L262.96,207.8 L264.76,207.8 L264.76,222 L262.96,222 Z M278.4,209.4 L273.5,209.4 L273.5,222 L271.7,222 L271.7,209.4 L266.8,209.4 L266.8,207.8 L278.4,207.8 L278.4,209.4 Z M283.42,207.8 L284.94,207.8 L290.74,222 L288.82,222 L287.14,217.84 L281.18,217.84 L279.52,222 L277.6,222 L283.42,207.8 Z M286.74,216.44 L284.18,209.88 L281.54,216.44 L286.74,216.44 Z M292.64,222 L292.64,207.8 L294.44,207.8 L294.44,220.4 L302.36,220.4 L302.36,222 L292.64,222 Z M302.68,207.8 L306.98,215.2 L311.32,207.8 L313.28,207.8 L307.88,216.82 L307.88,222 L306.08,222 L306.08,216.78 L300.7,207.8 L302.68,207.8 Z M319.56,222 L319.56,207.8 L328.94,207.8 L328.94,209.4 L321.36,209.4 L321.36,214.14 L327.74,214.14 L327.74,215.64 L321.36,215.64 L321.36,222 L319.56,222 Z M331.22,222 L331.22,207.8 L337.3,207.8 C337.92667,207.8 338.503331,207.929999 339.03,208.19 C339.556669,208.450001 340.009998,208.796664 340.39,209.23 C340.770002,209.663335 341.066666,210.149997 341.28,210.69 C341.493334,211.230003 341.6,211.779997 341.6,212.34 C341.6,212.833336 341.530001,213.309998 341.39,213.77 C341.249999,214.230002 341.050001,214.646665 340.79,215.02 C340.529999,215.393335 340.216669,215.713332 339.85,215.98 C339.483332,216.246668 339.073336,216.439999 338.62,216.56 L342.06,222 L340.02,222 L336.78,216.9 L333.02,216.9 L333.02,222 L331.22,222 Z M333.02,215.3 L337.32,215.3 C337.693335,215.3 338.029999,215.220001 338.33,215.06 C338.630001,214.899999 338.886666,214.683335 339.1,214.41 C339.313334,214.136665 339.479999,213.820002 339.6,213.46 C339.720001,213.099998 339.78,212.726669 339.78,212.34 C339.78,211.939998 339.710001,211.563335 339.57,211.21 C339.429999,210.856665 339.243335,210.543335 339.01,210.27 C338.776666,209.996665 338.503335,209.783334 338.19,209.63 C337.876665,209.476666 337.546668,209.4 337.2,209.4 L333.02,209.4 L333.02,215.3 Z M344.36,222 L344.36,207.8 L346.16,207.8 L346.16,222 L344.36,222 Z M359.2,220.4 L359.2,222 L349.56,222 L349.56,207.8 L359.02,207.8 L359.02,209.4 L351.36,209.4 L351.36,214 L358.02,214 L358.02,215.5 L351.36,215.5 L351.36,220.4 L359.2,220.4 Z M361.66,222 L361.66,207.8 L366.58,207.8 C367.713339,207.8 368.709996,207.986665 369.57,208.36 C370.430004,208.733335 371.146664,209.239997 371.72,209.88 C372.293336,210.520003 372.723332,211.269996 373.01,212.13 C373.296668,212.990004 373.44,213.906662 373.44,214.88 C373.44,215.960005 373.280002,216.936662 372.96,217.81 C372.639998,218.683338 372.180003,219.429997 371.58,220.05 C370.979997,220.670003 370.256671,221.149998 369.41,221.49 C368.563329,221.830002 367.620005,222 366.58,222 L361.66,222 Z M371.62,214.88 C371.62,214.079996 371.510001,213.343337 371.29,212.67 C371.069999,211.996663 370.743336,211.420002 370.31,210.94 C369.876665,210.459998 369.34667,210.083335 368.72,209.81 C368.09333,209.536665 367.380004,209.4 366.58,209.4 L363.46,209.4 L363.46,220.4 L366.58,220.4 C367.393337,220.4 368.116664,220.260001 368.75,219.98 C369.383337,219.699999 369.909998,219.313336 370.33,218.82 C370.750002,218.326664 371.069999,217.743337 371.29,217.07 C371.510001,216.396663 371.62,215.666671 371.62,214.88 Z M388.26,222 L388.26,211.02 L383.54,219.44 L382.52,219.44 L377.78,211.02 L377.78,222 L375.98,222 L375.98,207.8 L377.88,207.8 L383.02,217.02 L388.18,207.8 L390.06,207.8 L390.06,222 L388.26,222 Z M397.78,207.8 L399.3,207.8 L405.1,222 L403.18,222 L401.5,217.84 L395.54,217.84 L393.88,222 L391.96,222 L397.78,207.8 Z M401.1,216.44 L398.54,209.88 L395.9,216.44 L401.1,216.44 Z M408.8,211.16 L408.8,222 L407,222 L407,207.8 L408.4,207.8 L417.2,218.86 L417.2,207.82 L419,207.82 L419,222 L417.48,222 L408.8,211.16 Z" id="A-WORKSHOP-TOUR-IN-A" fill="#FFFFFF"></path>
        </g>
    </g>
</svg>
