<svg viewBox="0 0 220 80" xmlns="http://www.w3.org/2000/svg" xmlns:xlink="http://www.w3.org/1999/xlink"><linearGradient id="a" gradientUnits="userSpaceOnUse" x1="24.92" x2="24.92" y1="46.95" y2="88.72"><stop offset="0" stop-color="#e33a2c" stop-opacity=".3"/><stop offset=".25" stop-color="#f19f98" stop-opacity=".15"/><stop offset=".47" stop-color="#fbe5e3" stop-opacity=".04"/><stop offset=".6" stop-color="#fff" stop-opacity="0"/></linearGradient><linearGradient id="b" gradientUnits="userSpaceOnUse" x1="43.64" x2="43.64" y1="52.8" y2="93.93"><stop offset="0" stop-color="#e33a2c" stop-opacity=".2"/><stop offset=".1" stop-color="#eb6f65" stop-opacity=".15"/><stop offset=".35" stop-color="#f9d8d5" stop-opacity=".04"/><stop offset=".5" stop-color="#fff" stop-opacity="0"/></linearGradient><ellipse cx="30.97" cy="48.02" opacity=".05" rx="24.63" ry="3.38"/><path d="m37.71 30.55a27.55 27.55 0 0 0 -7-3.78 28.32 28.32 0 0 1 -5.36-2.87q-6-4.18-6-10.37a10.63 10.63 0 0 1 2.25-6.89 10.19 10.19 0 0 1 .86-.94l-8.55 2a4.62 4.62 0 0 0 -3.46 5.54l7.08 30.59a4.62 4.62 0 0 0 5.47 3.42l3.51-.81-.27-.07a33.76 33.76 0 0 1 -6.78-2.92l3.66-8.18a16.3 16.3 0 0 0 10.4 3.66c4 0 6-1.43 6-4.27a5.26 5.26 0 0 0 -1.81-4.11z" fill="#e33a2c"/><path d="m57 34.66-7-30.59a4.62 4.62 0 0 0 -5.57-3.46l-5.15 1.19q.89.14 1.76.33a28.13 28.13 0 0 1 6.65 2.39l-3 8c-2.24-1.92-5.37-2.88-9.37-2.88q-5.32-.02-5.32 4.26a3.86 3.86 0 0 0 1.77 3 36.82 36.82 0 0 0 7.56 3.66 23.64 23.64 0 0 1 6.39 3.55 12.68 12.68 0 0 1 2 2 12.35 12.35 0 0 1 2.48 7.89 11.85 11.85 0 0 1 -2.45 7.58l5.83-1.35a4.61 4.61 0 0 0 3.42-5.57z" fill="#e33a2c"/><path d="m33.55 55.41a16.34 16.34 0 0 0 -10.43 3.66l-3.67-8.19a33.83 33.83 0 0 1 6.8-2.93l.27-.07-3.52-.81a4.63 4.63 0 0 0 -5.55 3.47l-7.07 30.66a4.63 4.63 0 0 0 3.47 5.55l8.56 2a10.22 10.22 0 0 1 -.86-.95 10.66 10.66 0 0 1 -2.25-6.9q0-6.2 6-10.39a28.38 28.38 0 0 1 5.37-2.88 27.61 27.61 0 0 0 7.06-3.79 5.27 5.27 0 0 0 1.81-4.12c.03-2.88-1.97-4.31-5.99-4.31z" fill="url(#a)"/><path d="m53.67 54.14-5.84-1.34a11.87 11.87 0 0 1 2.46 7.6 12.37 12.37 0 0 1 -2.56 7.87 12.71 12.71 0 0 1 -2 2 23.69 23.69 0 0 1 -6.41 3.56 36.89 36.89 0 0 0 -7.57 3.66 3.87 3.87 0 0 0 -1.78 3q0 4.28 5.4 4.29c4 0 7.15-1 9.39-2.89l3 8a28.19 28.19 0 0 1 -6.67 2.4q-.87.19-1.76.33l5.16 1.19a4.63 4.63 0 0 0 5.55-3.46l7.09-30.66a4.62 4.62 0 0 0 -3.46-5.55z" fill="url(#b)"/><g fill="#756d6b"><path d="m73.64 33.43h1.72l4.24 10.94 4.22-10.94h1.72v12.47h-1.18v-10.78l-4.22 10.78h-1.14l-4.2-10.78v10.78h-1.16z"/><path d="m95 33.43h1.3l4.8 12.47h-1.26l-1.49-3.9h-5.58l-1.47 3.9h-1.3zm-1.87 7.57h4.87l-2.37-6.4z"/><path d="m116.12 45.9h-.84l-.15-2.27a4.42 4.42 0 0 1 -4.24 2.53c-3.86 0-5.78-3.09-5.78-6.5s1.92-6.5 5.78-6.5a4.82 4.82 0 0 1 5.11 4.15h-1.17a3.84 3.84 0 0 0 -3.95-3.13c-3.24 0-4.62 2.76-4.62 5.49s1.37 5.49 4.62 5.49c2.71 0 4.29-1.94 4.24-4.58h-4.17v-1h5.2z"/><path d="m125.38 33.43h1.3l4.81 12.47h-1.25l-1.49-3.9h-5.58l-1.48 3.88h-1.25zm-1.85 7.57h4.82l-2.35-6.38z"/><path d="m135.44 33.43h8.82v1l-8.06 10.46h8.24v1h-9.54v-1l8.1-10.45h-7.52z"/><path d="m149.41 33.43h1.17v12.47h-1.17z"/><path d="m156.55 33.43h1.3l7.15 10.57v-10.57h1.17v12.47h-1.3l-7.14-10.55v10.55h-1.17z"/><path d="m172.09 33.43h8.46v1h-7.3v4.51h6.83v1h-6.83v4.93h7.38v1h-8.55z"/></g><path d="m196.59 16.09a10.89 10.89 0 0 1 20.51-5.09l-4 1.3a6.78 6.78 0 1 0 -.44 8.16l-2.38.39-2.89-2.85 6.22-1 6.23-1-1 6.22-1 6.22-2.89-2.89.28-1.71a10.89 10.89 0 0 1 -18.6-7.68zm-125.85 3.24a7 7 0 0 0 .71 3.39 6.74 6.74 0 0 0 2 2.35 8.56 8.56 0 0 0 2.91 1.34 13.16 13.16 0 0 0 3.42.45 12.92 12.92 0 0 0 3.81-.5 8.1 8.1 0 0 0 2.77-1.36 5.92 5.92 0 0 0 1.69-2.17 6.53 6.53 0 0 0 .57-2.71 5.08 5.08 0 0 0 -.78-2.92 6.07 6.07 0 0 0 -1.78-1.84 7.46 7.46 0 0 0 -2.11-1 16.38 16.38 0 0 0 -1.64-.45l-3.25-.83a12.79 12.79 0 0 1 -1.93-.66 2.13 2.13 0 0 1 -.92-.71 1.9 1.9 0 0 1 -.24-1 2 2 0 0 1 .3-1.13 2.73 2.73 0 0 1 .73-.78 3.23 3.23 0 0 1 1-.42 5.48 5.48 0 0 1 1.13-.12 7.68 7.68 0 0 1 1.58.15 3.79 3.79 0 0 1 1.31.51 2.47 2.47 0 0 1 .89 1 3.58 3.58 0 0 1 .42 1.58h4.52a6.34 6.34 0 0 0 -.71-3.13 5.91 5.91 0 0 0 -1.87-2.14 7.72 7.72 0 0 0 -2.69-1.23 12.77 12.77 0 0 0 -3.18-.39 10.82 10.82 0 0 0 -2.86.39 8 8 0 0 0 -2.54 1.21 6.46 6.46 0 0 0 -1.85 2 5.57 5.57 0 0 0 -.68 2.83 5.39 5.39 0 0 0 .54 2.5 5.41 5.41 0 0 0 1.46 1.7 8.16 8.16 0 0 0 2 1.13 21.49 21.49 0 0 0 2.32.72c.77.22 1.54.42 2.29.59a15 15 0 0 1 2 .63 4.28 4.28 0 0 1 1.43.89 1.84 1.84 0 0 1 .57 1.4 2.12 2.12 0 0 1 -.4 1.4 3 3 0 0 1 -1 .8 4.89 4.89 0 0 1 -1.34.42 10.82 10.82 0 0 1 -1.34.09 7.71 7.71 0 0 1 -1.79-.21 5.2 5.2 0 0 1 -1.52-.68 3.55 3.55 0 0 1 -1-1.22 3.88 3.88 0 0 1 -.39-1.81zm51.88-9 2.68 7.8h-5.5zm-10.32 15.8v-21h-6.58l-4.72 14.62-5-14.61h-6.58v21.24h4.37l.06-14.91 5.21 14.91h3.6l5.27-15.06v15.06h9l1.67-4.73h7.94l1.6 4.73h4.86l-8-21.24h-4.79zm19.2-6.79a7 7 0 0 0 .72 3.39 6.77 6.77 0 0 0 2 2.35 8.57 8.57 0 0 0 2.92 1.34 13.15 13.15 0 0 0 3.42.45 13 13 0 0 0 3.81-.5 8.1 8.1 0 0 0 2.77-1.4 5.89 5.89 0 0 0 1.7-2.17 6.48 6.48 0 0 0 .56-2.71 5.06 5.06 0 0 0 -.77-2.92 6.09 6.09 0 0 0 -1.79-1.84 7.45 7.45 0 0 0 -2.11-1 16 16 0 0 0 -1.64-.45l-3.24-.83a12.91 12.91 0 0 1 -1.94-.66 2.14 2.14 0 0 1 -.92-.71 1.9 1.9 0 0 1 -.24-1 2 2 0 0 1 .3-1.13 2.69 2.69 0 0 1 .74-.74 3.21 3.21 0 0 1 1-.42 5.48 5.48 0 0 1 1.21-.13 7.69 7.69 0 0 1 1.58.15 3.79 3.79 0 0 1 1.31.51 2.49 2.49 0 0 1 .89 1 3.64 3.64 0 0 1 .42 1.58h4.52a6.33 6.33 0 0 0 -.72-3.15 5.88 5.88 0 0 0 -1.87-2.14 7.7 7.7 0 0 0 -2.79-1.21 12.76 12.76 0 0 0 -3.18-.39 10.82 10.82 0 0 0 -2.86.39 8 8 0 0 0 -2.56 1.19 6.43 6.43 0 0 0 -1.84 2 5.57 5.57 0 0 0 -.68 2.83 5.37 5.37 0 0 0 .54 2.5 5.43 5.43 0 0 0 1.46 1.7 8.27 8.27 0 0 0 2 1.13 21.84 21.84 0 0 0 2.32.72c.77.22 1.54.42 2.29.59a14.92 14.92 0 0 1 2 .63 4.26 4.26 0 0 1 1.43.89 1.85 1.85 0 0 1 .56 1.4 2.14 2.14 0 0 1 -.42 1.34 3 3 0 0 1 -1 .8 4.91 4.91 0 0 1 -1.34.42 10.82 10.82 0 0 1 -1.34.09 7.69 7.69 0 0 1 -1.78-.21 5.18 5.18 0 0 1 -1.52-.68 3.59 3.59 0 0 1 -1-1.22 3.89 3.89 0 0 1 -.39-1.81zm18.68 7h4.67v-9.12h8.6v9.16h4.67v-21.24h-4.67v8.15h-8.6v-8.15h-4.67zm20.07 0h4.67v-21.2h-4.67zm6.81 0h4.37l.06-14.22 8.84 14.22h4.67v-21.2h-4.38l-.06 14.26-8.86-14.26h-4.64z" fill="#e33a2c"/></svg>