<svg id="LOGO_PROTOTYP" data-name="LOGO PROTOTYP" xmlns="http://www.w3.org/2000/svg" xmlns:xlink="http://www.w3.org/1999/xlink" viewBox="0 0 220 80"><defs><style>.cls-1{opacity:0.05;}.cls-2{fill:#e33a2c;}.cls-3{fill:url(#linear-gradient);}.cls-4{fill:url(#linear-gradient-2);}.cls-5{fill:#756d6b;}</style><linearGradient id="linear-gradient" x1="24.92" y1="46.95" x2="24.92" y2="88.72" gradientUnits="userSpaceOnUse"><stop offset="0" stop-color="#e33a2c" stop-opacity="0.3"/><stop offset="0.25" stop-color="#f19f98" stop-opacity="0.15"/><stop offset="0.47" stop-color="#fbe5e3" stop-opacity="0.04"/><stop offset="0.6" stop-color="#fff" stop-opacity="0"/></linearGradient><linearGradient id="linear-gradient-2" x1="43.64" y1="52.8" x2="43.64" y2="93.93" gradientUnits="userSpaceOnUse"><stop offset="0" stop-color="#e33a2c" stop-opacity="0.2"/><stop offset="0.1" stop-color="#eb6f65" stop-opacity="0.15"/><stop offset="0.35" stop-color="#f9d8d5" stop-opacity="0.04"/><stop offset="0.5" stop-color="#fff" stop-opacity="0"/></linearGradient></defs><title>Artboard 11</title><ellipse class="cls-1" cx="30.97" cy="48.02" rx="24.63" ry="3.38"/><g id="S"><g id="Kasten"><path class="cls-2" d="M37.71,30.55a27.55,27.55,0,0,0-7-3.78,28.32,28.32,0,0,1-5.36-2.87q-6-4.18-6-10.37a10.63,10.63,0,0,1,2.25-6.89,10.19,10.19,0,0,1,.86-.94l-8.55,2a4.62,4.62,0,0,0-3.46,5.54l7.08,30.59A4.62,4.62,0,0,0,23,47.25l3.51-.81-.27-.07a33.76,33.76,0,0,1-6.78-2.92l3.66-8.18a16.3,16.3,0,0,0,10.4,3.66c4,0,6-1.43,6-4.27A5.26,5.26,0,0,0,37.71,30.55Z"/><path class="cls-2" d="M57,34.66,50,4.07A4.62,4.62,0,0,0,44.43.61L39.28,1.8q.89.14,1.76.33a28.13,28.13,0,0,1,6.65,2.39l-3,8c-2.24-1.92-5.37-2.88-9.37-2.88Q30,9.62,30,13.9a3.86,3.86,0,0,0,1.77,3,36.82,36.82,0,0,0,7.56,3.66,23.64,23.64,0,0,1,6.39,3.55,12.68,12.68,0,0,1,2,2A12.35,12.35,0,0,1,50.2,34a11.85,11.85,0,0,1-2.45,7.58l5.83-1.35A4.61,4.61,0,0,0,57,34.66Z"/></g></g><g id="S-2" data-name="S"><g id="Kasten-2" data-name="Kasten"><path class="cls-3" d="M33.55,55.41a16.34,16.34,0,0,0-10.43,3.66l-3.67-8.19a33.83,33.83,0,0,1,6.8-2.93l.27-.07L23,47.07a4.63,4.63,0,0,0-5.55,3.47L10.38,81.2a4.63,4.63,0,0,0,3.47,5.55l8.56,2a10.22,10.22,0,0,1-.86-.95,10.66,10.66,0,0,1-2.25-6.9q0-6.2,6-10.39a28.38,28.38,0,0,1,5.37-2.88,27.61,27.61,0,0,0,7.06-3.79,5.27,5.27,0,0,0,1.81-4.12C39.57,56.84,37.57,55.41,33.55,55.41Z"/><path class="cls-4" d="M53.67,54.14,47.83,52.8a11.87,11.87,0,0,1,2.46,7.6,12.37,12.37,0,0,1-2.56,7.87,12.71,12.71,0,0,1-2,2,23.69,23.69,0,0,1-6.41,3.56,36.89,36.89,0,0,0-7.57,3.66,3.87,3.87,0,0,0-1.78,3q0,4.28,5.4,4.29c4,0,7.15-1,9.39-2.89l3,8a28.19,28.19,0,0,1-6.67,2.4q-.87.19-1.76.33l5.16,1.19a4.63,4.63,0,0,0,5.55-3.46l7.09-30.66A4.62,4.62,0,0,0,53.67,54.14Z"/></g></g><g id="Text_MAGAZINE" data-name="Text MAGAZINE"><path class="cls-5" d="M73.64,33.43h1.72l4.24,10.94,4.22-10.94h1.72V45.9H84.36V35.12h0L80.14,45.9H79l-4.2-10.78h0V45.9H73.64Z"/><path class="cls-5" d="M95,33.43h1.3L101.1,45.9H99.84L98.35,42H92.77L91.3,45.9H90ZM93.13,41H98l-2.37-6.4Z"/><path class="cls-5" d="M116.12,45.9h-.84l-.15-2.27h0a4.42,4.42,0,0,1-4.24,2.53c-3.86,0-5.78-3.09-5.78-6.5s1.92-6.5,5.78-6.5A4.82,4.82,0,0,1,116,37.31h-1.17a3.84,3.84,0,0,0-3.95-3.13c-3.24,0-4.62,2.76-4.62,5.49s1.37,5.49,4.62,5.49c2.71,0,4.29-1.94,4.24-4.58h-4.17v-1h5.2Z"/><path class="cls-5" d="M125.38,33.43h1.3l4.81,12.47h-1.25L128.75,42h-5.58l-1.48,3.88h-1.25ZM123.53,41h4.82L126,34.62Z"/><path class="cls-5" d="M135.44,33.43h8.82v1L136.2,44.89h8.24v1h-9.54v-1L143,34.44h-7.52Z"/><path class="cls-5" d="M149.41,33.43h1.17V45.9h-1.17Z"/><path class="cls-5" d="M156.55,33.43h1.3L165,44h0V33.43h1.17V45.9h-1.3l-7.14-10.55h0V45.9h-1.17Z"/><path class="cls-5" d="M172.09,33.43h8.46v1h-7.3v4.51h6.83v1h-6.83v4.93h7.38v1h-8.55Z"/></g><g id="SMASHING_SCHRIFTZUG" data-name="SMASHING SCHRIFTZUG"><path id="SMASHING" class="cls-2" d="M196.59,16.09A10.89,10.89,0,0,1,217.1,11l-4,1.3a6.78,6.78,0,1,0-.44,8.16l-2.38.39L207.39,18l6.22-1,6.23-1-1,6.22-1,6.22-2.89-2.89.28-1.71a10.89,10.89,0,0,1-18.6-7.68ZM70.74,19.33a7,7,0,0,0,.71,3.39,6.74,6.74,0,0,0,2,2.35,8.56,8.56,0,0,0,2.91,1.34,13.16,13.16,0,0,0,3.42.45,12.92,12.92,0,0,0,3.81-.5A8.1,8.1,0,0,0,86.36,25a5.92,5.92,0,0,0,1.69-2.17,6.53,6.53,0,0,0,.57-2.71,5.08,5.08,0,0,0-.78-2.92,6.07,6.07,0,0,0-1.78-1.84,7.46,7.46,0,0,0-2.11-1,16.38,16.38,0,0,0-1.64-.45l-3.25-.83a12.79,12.79,0,0,1-1.93-.66,2.13,2.13,0,0,1-.92-.71,1.9,1.9,0,0,1-.24-1,2,2,0,0,1,.3-1.13A2.73,2.73,0,0,1,77,8.8a3.23,3.23,0,0,1,1-.42,5.48,5.48,0,0,1,1.13-.12,7.68,7.68,0,0,1,1.58.15,3.79,3.79,0,0,1,1.31.51,2.47,2.47,0,0,1,.89,1,3.58,3.58,0,0,1,.42,1.58h4.52a6.34,6.34,0,0,0-.71-3.13,5.91,5.91,0,0,0-1.87-2.14A7.72,7.72,0,0,0,82.58,5a12.77,12.77,0,0,0-3.18-.39A10.82,10.82,0,0,0,76.54,5,8,8,0,0,0,74,6.21a6.46,6.46,0,0,0-1.85,2,5.57,5.57,0,0,0-.68,2.83,5.39,5.39,0,0,0,.54,2.5,5.41,5.41,0,0,0,1.46,1.7,8.16,8.16,0,0,0,2,1.13,21.49,21.49,0,0,0,2.32.72c.77.22,1.54.42,2.29.59a15,15,0,0,1,2,.63,4.28,4.28,0,0,1,1.43.89,1.84,1.84,0,0,1,.57,1.4A2.12,2.12,0,0,1,83.68,22a3,3,0,0,1-1,.8,4.89,4.89,0,0,1-1.34.42,10.82,10.82,0,0,1-1.34.09,7.71,7.71,0,0,1-1.79-.21,5.2,5.2,0,0,1-1.52-.68,3.55,3.55,0,0,1-1-1.22,3.88,3.88,0,0,1-.39-1.81Zm51.88-9,2.68,7.8h-5.5ZM112.3,26.13v-21h-6.58L101,19.75,96,5.14H89.42V26.38h4.37l.06-14.91,5.21,14.91h3.6l5.27-15.06V26.38h9l1.67-4.73h7.94l1.6,4.73H133L125,5.14h-4.79Zm19.2-6.79a7,7,0,0,0,.72,3.39,6.77,6.77,0,0,0,2,2.35,8.57,8.57,0,0,0,2.92,1.34,13.15,13.15,0,0,0,3.42.45,13,13,0,0,0,3.81-.5,8.1,8.1,0,0,0,2.77-1.4,5.89,5.89,0,0,0,1.7-2.17,6.48,6.48,0,0,0,.56-2.71,5.06,5.06,0,0,0-.77-2.92,6.09,6.09,0,0,0-1.79-1.84,7.45,7.45,0,0,0-2.11-1,16,16,0,0,0-1.64-.45l-3.24-.83a12.91,12.91,0,0,1-1.94-.66,2.14,2.14,0,0,1-.92-.71,1.9,1.9,0,0,1-.24-1,2,2,0,0,1,.3-1.13,2.69,2.69,0,0,1,.74-.74,3.21,3.21,0,0,1,1-.42A5.48,5.48,0,0,1,140,8.26a7.69,7.69,0,0,1,1.58.15,3.79,3.79,0,0,1,1.31.51,2.49,2.49,0,0,1,.89,1,3.64,3.64,0,0,1,.42,1.58h4.52A6.33,6.33,0,0,0,148,8.35a5.88,5.88,0,0,0-1.87-2.14A7.7,7.7,0,0,0,143.34,5a12.76,12.76,0,0,0-3.18-.39A10.82,10.82,0,0,0,137.3,5a8,8,0,0,0-2.56,1.19,6.43,6.43,0,0,0-1.84,2,5.57,5.57,0,0,0-.68,2.83,5.37,5.37,0,0,0,.54,2.5,5.43,5.43,0,0,0,1.46,1.7,8.27,8.27,0,0,0,2,1.13,21.84,21.84,0,0,0,2.32.72c.77.22,1.54.42,2.29.59a14.92,14.92,0,0,1,2,.63,4.26,4.26,0,0,1,1.43.89,1.85,1.85,0,0,1,.56,1.4,2.14,2.14,0,0,1-.42,1.34,3,3,0,0,1-1,.8,4.91,4.91,0,0,1-1.34.42,10.82,10.82,0,0,1-1.34.09,7.69,7.69,0,0,1-1.78-.21,5.18,5.18,0,0,1-1.52-.68,3.59,3.59,0,0,1-1-1.22,3.89,3.89,0,0,1-.39-1.81Zm18.68,7h4.67V17.22h8.6v9.16h4.67V5.14h-4.67v8.15h-8.6V5.14h-4.67Zm20.07,0h4.67V5.14h-4.67Zm6.81,0h4.37l.06-14.22,8.84,14.22H195V5.14h-4.38l-.06,14.26L181.7,5.14h-4.64Z"/></g></svg>