<?xml version="1.0" encoding="utf-8"?>
<!-- Generator: Adobe Illustrator 20.0.0, SVG Export Plug-In . SVG Version: 6.00 Build 0)  -->
<svg version="1.1" id="Layer_1" xmlns="http://www.w3.org/2000/svg" xmlns:xlink="http://www.w3.org/1999/xlink" x="0px" y="0px"
	 viewBox="0 0 300 112" style="enable-background:new 0 0 300 112;" xml:space="preserve">
<style type="text/css">
	.st0{fill:#FFFFFF;}
</style>
<g>
	<g>
		<path class="st0" d="M166.3,91.3c-1.1,0-2,0.4-2.6,1.2v-5.3c0-0.1,0-0.1-0.1-0.1h-1.9c-0.1,0-0.1,0-0.1,0.1V102
			c0,0.1,0,0.1,0.1,0.1h1.8c0.1,0,0.1,0,0.1-0.1l0.1-1c0.6,0.8,1.6,1.3,2.7,1.3c1.3,0,2.3-0.4,2.9-1.3c0.7-0.8,1-2.1,1-3.7v-1
			c0-1.7-0.3-2.9-1-3.7C168.6,91.7,167.6,91.3,166.3,91.3z M168.2,96.3v1.1c0,1.1-0.2,1.9-0.6,2.5c-0.4,0.5-1,0.8-1.8,0.8
			c-1,0-1.7-0.4-2.1-1.3v-4.9c0.5-0.9,1.2-1.4,2.1-1.4c0.8,0,1.4,0.3,1.8,0.7C168,94.2,168.2,95.1,168.2,96.3z"/>
		<path class="st0" d="M180.8,91.5h-2c0,0-0.1,0-0.1,0.1l-2.1,7.3l-2.1-7.3c0,0-0.1-0.1-0.1-0.1h-2.1c0,0-0.1,0-0.1,0
			c0,0,0,0.1,0,0.1l3.5,10.4l-0.4,1.1c-0.2,0.6-0.4,1-0.7,1.2c-0.3,0.2-0.7,0.3-1.2,0.3l-0.4,0c0,0-0.1,0-0.1,0c0,0,0,0,0,0.1v1.5
			c0,0,0,0.1,0.1,0.1c0.4,0.1,0.8,0.2,1,0.2c0.7,0,1.3-0.2,1.9-0.7c0.5-0.5,1-1.2,1.3-2.1l3.9-12C180.9,91.5,180.9,91.5,180.8,91.5
			C180.9,91.5,180.8,91.5,180.8,91.5z"/>
		<path class="st0" d="M196.6,96c0.8-0.3,1.4-0.8,1.8-1.5c0.4-0.7,0.7-1.4,0.7-2.3c0-1.4-0.4-2.5-1.2-3.2c-0.8-0.7-2-1.1-3.6-1.1
			h-4.4c-0.1,0-0.1,0-0.1,0.1V102c0,0.1,0,0.1,0.1,0.1h2c0.1,0,0.1,0,0.1-0.1v-5.6h2.6l2.8,5.6c0,0,0.1,0.1,0.1,0.1h2.1
			c0.1,0,0.1,0,0.1-0.1v-0.1c0,0,0,0,0,0L196.6,96z M196.9,92.2c0,0.8-0.2,1.4-0.7,1.9c-0.5,0.5-1.1,0.7-1.9,0.7h-2.3v-5.2h2.3
			C196,89.5,196.9,90.4,196.9,92.2z"/>
		<path class="st0" d="M202.6,91.5C202.6,91.5,202.5,91.5,202.6,91.5l-0.1,10.6c0,0.1,0,0.1,0.1,0.1h1.9c0.1,0,0.1,0,0.1-0.1V91.5
			c0-0.1,0-0.1-0.1-0.1H202.6z"/>
		<path class="st0" d="M203.6,87.6c-0.4,0-0.7,0.1-0.9,0.3c-0.2,0.2-0.3,0.5-0.3,0.8c0,0.3,0.1,0.6,0.3,0.8c0.2,0.2,0.5,0.3,0.9,0.3
			c0.4,0,0.7-0.1,0.9-0.3c0.2-0.2,0.3-0.5,0.3-0.8c0-0.3-0.1-0.6-0.3-0.8C204.3,87.8,204,87.6,203.6,87.6z"/>
		<path class="st0" d="M212.2,95.9c-0.9-0.3-1.4-0.6-1.7-0.8c-0.2-0.2-0.3-0.5-0.3-0.8c0-0.4,0.1-0.7,0.4-1c0.3-0.2,0.7-0.4,1.3-0.4
			c0.5,0,1,0.2,1.3,0.5c0.3,0.3,0.5,0.7,0.5,1.1c0,0.1,0,0.1,0.1,0.1h1.9c0.1,0,0.1,0,0.1-0.1c0-1-0.4-1.7-1.1-2.4
			c-0.7-0.6-1.7-0.9-2.8-0.9c-1.1,0-2,0.3-2.7,0.9c-0.7,0.6-1.1,1.3-1.1,2.2c0,0.5,0.1,0.9,0.3,1.3c0.2,0.4,0.5,0.7,1,1
			c0.4,0.3,1.2,0.6,2.2,1c0.9,0.3,1.5,0.7,1.8,0.9c0.3,0.2,0.4,0.5,0.4,0.9c0,0.4-0.2,0.7-0.5,1c-0.3,0.2-0.8,0.4-1.4,0.4
			c-0.7,0-1.2-0.2-1.5-0.5c-0.4-0.3-0.5-0.7-0.6-1.3c0-0.1,0-0.1-0.1-0.1h-1.9c-0.1,0-0.1,0-0.1,0.1c0,1,0.4,1.8,1.2,2.5
			c0.8,0.6,1.8,1,3,1c1.2,0,2.2-0.3,2.9-0.8c0.7-0.6,1.1-1.3,1.1-2.3c0-0.8-0.3-1.4-0.8-1.9C214.6,96.9,213.6,96.4,212.2,95.9z"/>
		<path class="st0" d="M220.2,87.6c-0.4,0-0.7,0.1-0.9,0.3c-0.2,0.2-0.3,0.5-0.3,0.8c0,0.3,0.1,0.6,0.3,0.8c0.2,0.2,0.5,0.3,0.9,0.3
			c0.4,0,0.7-0.1,0.9-0.3c0.2-0.2,0.3-0.5,0.3-0.8c0-0.3-0.1-0.6-0.3-0.8C220.9,87.8,220.6,87.6,220.2,87.6z"/>
		<path class="st0" d="M219.2,91.5C219.1,91.5,219.1,91.5,219.2,91.5l-0.1,10.6c0,0.1,0,0.1,0.1,0.1h1.9c0.1,0,0.1,0,0.1-0.1V91.5
			c0-0.1,0-0.1-0.1-0.1H219.2z"/>
		<path class="st0" d="M229.7,91.3c-1.1,0-2,0.4-2.8,1.2l0-0.9c0-0.1,0-0.1-0.1-0.1h-1.8c-0.1,0-0.1,0-0.1,0.1V102
			c0,0.1,0,0.1,0.1,0.1h1.9c0.1,0,0.1,0,0.1-0.1v-7.6c0.2-0.4,0.5-0.8,0.9-1.1c0.4-0.3,0.8-0.4,1.2-0.4c0.6,0,1,0.2,1.3,0.5
			c0.3,0.3,0.4,0.9,0.4,1.7v6.9c0,0.1,0,0.1,0.1,0.1h1.9c0.1,0,0.1,0,0.1-0.1v-7C232.9,92.5,231.8,91.3,229.7,91.3z"/>
		<path class="st0" d="M243,91.5C242.9,91.5,242.9,91.5,243,91.5l-0.2,1c-0.6-0.8-1.5-1.2-2.7-1.2c-1.3,0-2.3,0.4-3,1.3
			c-0.7,0.8-1,2.1-1,3.8v1.2c0,1.5,0.4,2.7,1.1,3.6c0.7,0.8,1.7,1.3,2.9,1.3c1.1,0,1.9-0.4,2.6-1.1v1.1c0,1.5-0.8,2.2-2.4,2.2
			c-0.9,0-1.8-0.3-2.6-1c0,0,0,0-0.1,0c0,0-0.1,0-0.1,0l-0.8,1.2c0,0,0,0.1,0,0.1c0.4,0.4,0.9,0.7,1.7,1c0.7,0.3,1.4,0.4,2,0.4
			c1.4,0,2.4-0.4,3.2-1.1c0.8-0.7,1.2-1.7,1.2-3.1V91.5c0-0.1,0-0.1-0.1-0.1H243z M238.2,96.2c0-1.1,0.2-1.9,0.6-2.5
			c0.4-0.5,1-0.8,1.8-0.8c0.9,0,1.6,0.4,2,1.2v5.2c-0.5,0.8-1.1,1.2-2.1,1.2c-0.8,0-1.5-0.3-1.8-0.8c-0.4-0.5-0.6-1.4-0.6-2.5V96.2z
			"/>
		<path class="st0" d="M253.3,94c-1-0.3-1.7-0.7-2.2-1.1c-0.5-0.4-0.7-0.9-0.7-1.4c0-0.7,0.2-1.2,0.6-1.6c0.4-0.4,1-0.6,1.8-0.6
			c0.9,0,1.5,0.2,2,0.7c0.5,0.5,0.7,1.1,0.7,2c0,0.1,0,0.1,0.1,0.1h2c0.1,0,0.1,0,0.1-0.1c0-0.8-0.2-1.5-0.6-2.2
			c-0.4-0.7-1-1.2-1.7-1.6c-0.7-0.4-1.6-0.6-2.5-0.6c-1.4,0-2.5,0.4-3.4,1.1c-0.9,0.7-1.3,1.7-1.3,2.8c0,0.7,0.2,1.3,0.5,1.8
			c0.3,0.5,0.8,1,1.4,1.4c0.6,0.4,1.5,0.8,2.6,1.1c1.1,0.3,1.9,0.7,2.3,1.1c0.4,0.4,0.6,0.9,0.6,1.5c0,0.7-0.2,1.2-0.6,1.6
			c-0.4,0.4-1.1,0.6-1.9,0.6c-0.9,0-1.6-0.2-2.2-0.7c-0.5-0.5-0.8-1.1-0.8-2c0-0.1,0-0.1-0.1-0.1h-2c-0.1,0-0.1,0-0.1,0.1
			c0,0.9,0.2,1.6,0.7,2.3c0.5,0.7,1.1,1.2,1.9,1.5c0.8,0.4,1.7,0.5,2.6,0.5c1.5,0,2.6-0.4,3.5-1.1c0.9-0.7,1.3-1.7,1.3-2.8
			c0-1.1-0.3-2-1-2.7C256,95.1,254.9,94.5,253.3,94z"/>
		<path class="st0" d="M265.7,100.5c-0.3,0.1-0.5,0.1-0.7,0.1c-0.3,0-0.6-0.1-0.7-0.3c-0.1-0.2-0.2-0.5-0.2-0.9V93h1.7
			c0.1,0,0.1,0,0.1-0.1v-1.4c0-0.1,0-0.1-0.1-0.1h-1.7V89c0-0.1,0-0.1-0.1-0.1h-1.9c-0.1,0-0.1,0-0.1,0.1v2.4h-1.7
			c-0.1,0-0.1,0-0.1,0.1v1.4c0,0.1,0,0.1,0.1,0.1h1.7v6.4c0,0.9,0.2,1.6,0.6,2.1c0.4,0.5,1,0.8,1.8,0.8c0.5,0,0.9-0.1,1.4-0.2
			c0,0,0.1,0,0.1-0.1l0-1.4C265.9,100.6,265.9,100.5,265.7,100.5C265.8,100.5,265.8,100.5,265.7,100.5z"/>
		<path class="st0" d="M276.6,99.8v-5.3c0-1-0.4-1.9-1-2.4c-0.6-0.5-1.6-0.8-2.8-0.8c-0.8,0-1.4,0.1-2.1,0.4
			c-0.6,0.3-1.1,0.7-1.5,1.2c-0.4,0.5-0.6,1-0.6,1.6c0,0.1,0,0.1,0.1,0.1h1.9c0.1,0,0.1,0,0.1-0.1c0-0.4,0.2-0.8,0.5-1.1
			c0.3-0.3,0.8-0.4,1.4-0.4c0.6,0,1.1,0.1,1.4,0.4c0.3,0.2,0.4,0.7,0.4,1.3v1h-1.3c-1.4,0-2.6,0.3-3.4,1c-0.8,0.6-1.3,1.5-1.3,2.6
			c0,1,0.3,1.8,0.9,2.3c0.6,0.5,1.5,0.8,2.6,0.8c1,0,1.9-0.4,2.5-1.2c0.1,0.4,0.1,0.7,0.2,0.9c0,0,0,0.1,0.1,0.1h2
			c0.1,0,0.1,0,0.1-0.1v-0.2c0,0,0,0,0,0C276.7,101.3,276.6,100.6,276.6,99.8z M274.5,97v2.4c-0.2,0.3-0.5,0.6-0.9,0.8
			c-0.4,0.2-0.8,0.3-1.3,0.3c-0.6,0-1-0.1-1.3-0.4c-0.2-0.2-0.4-0.7-0.4-1.2c0-0.6,0.2-1.1,0.8-1.4c0.5-0.3,1.2-0.5,2.1-0.5H274.5z"
			/>
		<path class="st0" d="M282.5,93.6c0.4-0.5,1-0.7,1.8-0.7c0.6,0,1.1,0.2,1.5,0.6c0.4,0.4,0.6,0.9,0.6,1.7c0,0.1,0,0.1,0.1,0.1h1.8
			c0,0,0.1,0,0.1,0c0,0,0,0,0-0.1c0-1.2-0.4-2.2-1.2-2.8c-0.7-0.7-1.7-1-2.9-1c-1.5,0-2.6,0.4-3.4,1.3c-0.8,0.8-1.2,2.1-1.2,3.7v1.2
			c0,1.6,0.4,2.9,1.2,3.7c0.8,0.8,1.9,1.3,3.4,1.3c1.1,0,2.1-0.3,2.8-1c0.8-0.7,1.2-1.5,1.2-2.6c0,0,0-0.1,0-0.1c0,0,0,0-0.1,0h-1.8
			c-0.1,0-0.1,0-0.1,0.1c0,0.6-0.2,1.1-0.6,1.4c-0.4,0.3-0.9,0.5-1.5,0.5c-0.9,0-1.5-0.2-1.9-0.7c-0.4-0.5-0.6-1.3-0.6-2.6V96
			C281.9,94.9,282.1,94.1,282.5,93.6z"/>
		<path class="st0" d="M300,102l-4.2-6l3.7-4.3c0,0,0-0.1,0-0.1c0,0-0.1-0.1-0.1-0.1h-2.3c0,0-0.1,0-0.1,0l-3.5,4.3v-8.6
			c0-0.1,0-0.1-0.1-0.1h-1.9c-0.1,0-0.1,0-0.1,0.1V102c0,0.1,0,0.1,0.1,0.1h1.9c0.1,0,0.1,0,0.1-0.1v-3.7l0.9-0.9l3.1,4.7
			c0,0,0,0,0.1,0h2.2c0,0,0.1,0,0.1-0.1C300,102,300,102,300,102z"/>
	</g>
	<g>
		<path class="st0" d="M148.9,33.4h-7.1c-0.6,0-1-0.3-1-0.9v-6.6c0-0.9-0.3-1.6-0.8-2.1c-0.5-0.5-1.2-0.8-2.1-0.8h-2.9
			c-0.9,0-1.6,0.3-2.1,0.8c-0.5,0.5-0.8,1.2-0.8,2.1v6.6c0,0.6-0.3,0.9-1,0.9h-2.9c-0.9,0-1.6,0.3-2.1,0.8c-0.5,0.5-0.8,1.2-0.8,2.1
			v2.4c0,0.9,0.3,1.6,0.8,2.1c0.5,0.5,1.2,0.8,2.1,0.8h2.9c0.6,0,1,0.3,1,1v19c0,4.6,1.1,8.2,3.4,10.8c2.3,2.6,5.8,3.9,10.5,3.9h2.8
			c0.9,0,1.6-0.3,2.1-0.8c0.5-0.5,0.8-1.2,0.8-2.1v-2.4c0-0.9-0.3-1.6-0.8-2.1c-0.5-0.5-1.2-0.8-2.1-0.8H147c-2.4,0-4-0.6-4.9-1.9
			c-0.9-1.3-1.3-3-1.3-5.2V42.4c0-0.6,0.3-1,1-1h7.1c0.9,0,1.6-0.3,2.1-0.8c0.5-0.5,0.8-1.2,0.8-2.1v-2.4c0-0.9-0.3-1.6-0.8-2.1
			C150.5,33.6,149.8,33.4,148.9,33.4"/>
		<path class="st0" d="M258.7,65.9c-1.2-1.2-2.5-1.2-4,0c-0.7,0.6-1.7,1.3-2.9,2c-1.2,0.7-2.6,1-4.3,1c-1.7,0-3-0.2-4.1-0.7
			c-1.1-0.5-2-1.1-2.6-1.9c-0.7-0.8-1.1-1.8-1.4-2.9c-0.3-1.1-0.4-2.3-0.4-3.5V49.5c0-2.4,0.7-4.5,2-6.3c1.3-1.8,3.5-2.7,6.6-2.7
			c1.3,0,2.5,0.2,3.6,0.7c1.1,0.5,2,1,2.7,1.7c1.4,1.3,2.7,1.3,3.9,0.1l1.8-1.8c0.6-0.6,0.9-1.2,0.9-2s-0.3-1.4-0.9-2
			c-1.3-1.3-3-2.5-5.1-3.4c-2-0.9-4.3-1.4-7-1.4c-2.7,0-5,0.5-7.1,1.4c-2.1,0.9-3.9,2.2-5.4,3.7c-1.5,1.6-2.6,3.4-3.4,5.5
			c-0.8,2.1-1.2,4.3-1.2,6.5v10.4c0,2.3,0.4,4.5,1.1,6.5c0.7,2.1,1.8,3.9,3.3,5.5c1.5,1.5,3.3,2.8,5.4,3.7c2.1,0.9,4.6,1.4,7.4,1.4
			c2.9,0,5.5-0.6,7.8-1.8c2.3-1.2,3.9-2.4,5-3.7c0.5-0.6,0.8-1.3,0.9-2c0.1-0.7-0.2-1.3-0.8-1.9L258.7,65.9z"/>
		<path class="st0" d="M179.5,33.4H176c-4.8,0-8.5,1.5-11.1,4.4c-2.7,2.9-4,6.7-4,11.3v24.2c0,0.9,0.3,1.6,0.8,2.1
			c0.5,0.5,1.2,0.8,2.1,0.8h2.9c0.9,0,1.6-0.3,2.1-0.8c0.5-0.5,0.8-1.2,0.8-2.1V49.5c0-2.4,0.6-4.3,1.8-5.8c1.2-1.5,3-2.2,5.4-2.2
			h2.9c0.9,0,1.6-0.3,2.1-0.8c0.5-0.5,0.8-1.2,0.8-2.1v-2.4c0-0.9-0.3-1.6-0.8-2.1C181,33.6,180.4,33.4,179.5,33.4"/>
		<path class="st0" d="M294.7,37.4c-1.5-1.5-3.3-2.7-5.4-3.6c-2.1-0.9-4.5-1.3-7.1-1.3c-2.7,0-5,0.4-7.1,1.3
			c-2.1,0.9-3.8,2.1-5.2,3.6c-1.4,1.5-2.5,3.3-3.2,5.4c-0.7,2.1-1.1,4.2-1.1,6.5v11.2c0,2.3,0.4,4.4,1.2,6.5c0.8,2,2,3.8,3.5,5.3
			c1.5,1.5,3.3,2.7,5.5,3.6c2.1,0.9,4.5,1.3,7.2,1.3c3.4,0,6.4-0.7,8.9-2c2.5-1.3,4.3-2.8,5.6-4.4c0.5-0.6,0.8-1.3,0.8-2
			s-0.2-1.3-0.8-1.9l-1.8-1.6c-0.6-0.6-1.2-0.9-1.9-0.9c-0.7,0-1.4,0.3-2.1,1c-0.7,0.8-1.7,1.6-3,2.4c-1.3,0.9-3.2,1.3-5.6,1.3
			c-3,0-5.3-0.8-6.7-2.5c-1.4-1.6-2.1-3.7-2.1-6.1v-1.7c0-0.6,0.3-0.9,1-0.9h21.4c0.9,0,1.6-0.3,2.1-0.8c0.5-0.5,0.8-1.2,0.8-2.1
			v-5.7c0-2.3-0.4-4.4-1.2-6.5C297.3,40.7,296.2,38.9,294.7,37.4 M290.8,49.7c0,0.6-0.3,0.9-1,0.9H275c-0.6,0-1-0.3-1-0.9v-0.5
			c0-2.4,0.6-4.5,1.8-6.2c1.2-1.7,3.3-2.6,6.3-2.6c3,0,5.2,0.9,6.6,2.6c1.3,1.7,2,3.8,2,6.2V49.7z"/>
		<path class="st0" d="M222.6,50.5c0-2.5-0.4-4.9-1.1-7c-0.8-2.1-1.8-3.9-3.1-5.5c-1.3-1.5-2.9-2.7-4.8-3.5
			c-1.8-0.8-3.9-1.2-6.1-1.2h-1.9c-2.7,0-5.1,0.5-7.3,1.4c-2.2,0.9-4.1,2.2-5.8,3.8c-1.6,1.6-2.9,3.5-3.8,5.7
			c-0.9,2.2-1.3,4.6-1.3,7v8.4c0,2.5,0.4,4.9,1.1,7c0.8,2.1,1.8,3.9,3.1,5.5c1.3,1.5,2.9,2.7,4.8,3.5c1.8,0.8,3.9,1.2,6.1,1.2
			c2.5,0,4.6-0.4,6.3-1.1c1.7-0.8,3.1-1.7,4-2.9c0.3-0.3,0.5-0.4,0.8-0.3c0.3,0.1,0.4,0.3,0.4,0.7c0,0.7,0.3,1.3,0.8,1.9
			c0.5,0.6,1.2,0.9,2.1,0.9h2.9c0.9,0,1.6-0.3,2.1-0.8c0.5-0.5,0.8-1.2,0.8-2.1V54.1h0L222.6,50.5L222.6,50.5z M214,58.4
			c0,1.3-0.2,2.6-0.6,3.8c-0.4,1.2-1,2.4-1.9,3.4c-0.8,1-1.9,1.8-3.1,2.4c-1.2,0.6-2.7,0.9-4.4,0.9c-2.5,0-4.5-0.8-6-2.3
			c-1.4-1.5-2.1-3.5-2.1-5.9v-9.4c0-2.7,0.9-5.1,2.6-7c1.7-2,4.2-2.9,7.4-2.9h0v0c2.5,0,4.5,0.8,5.9,2.3c1.4,1.5,2.1,3.5,2.1,5.9
			v4.5h0V58.4z"/>
	</g>
	<g>
		<path class="st0" d="M45.6,63.9c1.6,0,3-1.3,3-3c0-1.6-1.3-3-3-3c-0.3,0-0.6,0.1-0.9,0.2c-1.2,0.4-2,1.5-2,2.8c0,0,0,0.1,0,0.1
			C42.6,62.6,43.9,63.9,45.6,63.9z"/>
		<path class="st0" d="M56.8,21.7c-1.6,0-3,1.3-3,3c0,0.1,0,0.2,0,0.3c0.1,1.3,1.1,2.4,2.3,2.6c0.2,0,0.4,0.1,0.6,0.1
			c0.2,0,0.4,0,0.6-0.1c1.3-0.3,2.2-1.3,2.3-2.7c0-0.1,0-0.1,0-0.2C59.8,23,58.4,21.7,56.8,21.7z"/>
		<path class="st0" d="M32.9,45.8C32.9,45.8,32.8,45.8,32.9,45.8c-1.7,0-3,1.3-3,3c0,0,0,0,0,0.1c0,1.3,0.9,2.4,2.2,2.8
			c0.3,0.1,0.5,0.1,0.8,0.1c0.1,0,0.2,0,0.3,0c1.3-0.1,2.3-1.1,2.6-2.3c0-0.2,0.1-0.4,0.1-0.6c0-0.3,0-0.5-0.1-0.8
			C35.3,46.7,34.2,45.8,32.9,45.8z"/>
		<path class="st0" d="M20.4,58.2c-0.3-0.1-0.7-0.2-1-0.2c-1.6,0-3,1.3-3,3c0,1.6,1.3,3,3,3c1.5,0,2.8-1.2,2.9-2.7
			c0-0.1,0-0.2,0-0.3C22.4,59.7,21.5,58.6,20.4,58.2z"/>
		<path class="st0" d="M45,82c-0.3-0.1-0.5-0.1-0.8-0.1c-1.6,0-3,1.3-3,3c0,1.6,1.3,3,3,3c1.6,0,3-1.3,3-3c0,0,0,0,0,0
			C47.2,83.4,46.2,82.3,45,82z"/>
		<path class="st0" d="M93.1,57.7c-0.1,0-0.2,0-0.3,0c-1.3,0.1-2.3,1.1-2.6,2.4c0,0.2-0.1,0.4-0.1,0.5c0,1.6,1.3,3,3,3
			c1.6,0,3-1.3,3-3S94.7,57.7,93.1,57.7z"/>
		<path class="st0" d="M80.8,45.8c0,0-0.1,0-0.1,0c-1.3,0-2.4,0.9-2.8,2.1c-0.1,0.3-0.2,0.6-0.2,0.9c0,0.2,0,0.4,0.1,0.6
			c0.3,1.3,1.3,2.2,2.7,2.3c0.1,0,0.2,0,0.2,0c0.3,0,0.6-0.1,0.9-0.2c1.2-0.4,2.1-1.5,2.1-2.8c0,0,0-0.1,0-0.1
			C83.6,47.1,82.3,45.8,80.8,45.8z"/>
		<path class="st0" d="M68.7,58.3c-0.1,0-0.2,0-0.3,0c-1.6,0-3,1.3-3,3c0,0.1,0,0.2,0,0.3c0.1,1.3,1.1,2.3,2.4,2.6
			c0.2,0,0.4,0.1,0.6,0.1c0.2,0,0.3,0,0.4,0c1.3-0.2,2.3-1.2,2.5-2.5c0-0.1,0-0.3,0-0.4c0-0.2,0-0.4-0.1-0.6
			C71.1,59.5,70,58.5,68.7,58.3z"/>
		<path class="st0" d="M56.2,0C25.2,0,0,25.1,0,56s25.2,56,56.2,56c31.1,0,56.2-25.1,56.2-56S87.3,0,56.2,0z M93.1,67.7
			c-3.9,0-7.1-3.2-7.1-7.1c0-1.3,0.4-2.6,1.1-3.7l-2.4-2.4c-1.1,0.8-2.5,1.2-4,1.2c-1.3,0-2.4-0.4-3.5-0.9l-2.7,2.7
			c0.7,1.1,1.1,2.3,1.1,3.7c0,1.3-0.4,2.5-1,3.6l2.3,2.3c1.1-0.7,2.3-1,3.7-1c3.9,0,7.1,3.2,7.1,7.1c0,3.9-3.2,7.1-7.1,7.1
			c-3.9,0-7.1-3.2-7.1-7.1c0-1.3,0.4-2.5,1-3.5L72,67.3c-1.1,0.6-2.3,1-3.6,1c-1.4,0-2.6-0.4-3.7-1.1L50.5,81.5
			c0.5,1,0.9,2.1,0.9,3.3c0,3.9-3.2,7.1-7.1,7.1c-3.9,0-7.1-3.2-7.1-7.1c0-3.9,3.2-7.1,7.1-7.1c1.4,0,2.8,0.4,3.9,1.2l14.2-14.1
			c-0.6-1-1-2.2-1-3.5c0-3.9,3.2-7.1,7.1-7.1c1.3,0,2.5,0.4,3.5,1c0,0,0,0,0,0l2.7-2.7c-0.7-1.1-1.1-2.4-1.1-3.7
			c0-1.5,0.5-2.8,1.2-4L60.5,30.6c-1.1,0.7-2.4,1.1-3.7,1.1c-1.4,0-2.6-0.4-3.7-1.1l-1.7,1.7L40.1,43.5l-1.4,1.4
			c0.7,1.1,1.2,2.4,1.2,3.9c0,1.4-0.4,2.6-1.1,3.7l2.7,2.7c1.1-0.8,2.5-1.2,4-1.2c3.9,0,7.1,3.2,7.1,7.1c0,3.9-3.2,7.1-7.1,7.1
			c-3.9,0-7.1-3.2-7.1-7.1c0-1.2,0.3-2.2,0.8-3.2l-2.9-2.9c-1,0.6-2.2,1-3.5,1c-1.4,0-2.8-0.4-3.9-1.2l-3.2,3.2
			c0.5,0.9,0.8,2,0.8,3.1c0,3.9-3.2,7.1-7.1,7.1c-3.9,0-7.1-3.2-7.1-7.1c0-3.9,3.2-7.1,7.1-7.1c1.5,0,2.9,0.5,4.1,1.3l3.1-3.1
			c-0.5-1-0.9-2.1-0.9-3.3c0-3.9,3.2-7.1,7.1-7.1c1.2,0,2.3,0.3,3.3,0.9l1.5-1.5l11.2-11.1l1.8-1.8c-0.6-1-0.9-2.2-0.9-3.5
			c0-3.9,3.2-7.1,7.1-7.1c3.9,0,7.1,3.2,7.1,7.1c0,1.3-0.4,2.4-0.9,3.4l14.5,14.4c1-0.5,2.1-0.8,3.2-0.8c3.9,0,7.1,3.2,7.1,7.1
			c0,1.2-0.3,2.2-0.8,3.2l2.6,2.6c1-0.6,2.2-1,3.5-1c3.9,0,7.1,3.2,7.1,7.1C100.1,64.5,97,67.7,93.1,67.7z"/>
		<path class="st0" d="M80.5,76.1c1.6,0,3-1.3,3-3c0-1.6-1.3-3-3-3c-0.2,0-0.4,0-0.5,0.1c-1.3,0.2-2.2,1.3-2.4,2.6
			c0,0.1,0,0.2,0,0.3C77.5,74.8,78.8,76.1,80.5,76.1z"/>
	</g>
</g>
</svg>
